<?xml version="1.0" encoding="UTF-8" standalone="no"?>
<svg width="24px" height="24px" viewBox="0 0 24 24" version="1.1" xmlns="http://www.w3.org/2000/svg" xmlns:xlink="http://www.w3.org/1999/xlink">
    <!-- Generator: Sketch 3.7.2 (28276) - http://www.bohemiancoding.com/sketch -->
    <title>icn/all</title>
    <desc>Created with Sketch.</desc>
    <defs>
        <path d="M11,21.7083195 C10.7660123,21.9177442 10.5210026,22.1151068 10.2659482,22.2994299 C9.4868298,20.4747848 9,17.8795239 9,15 C9,12.1204761 9.4868298,9.52521516 10.2659482,7.70057014 C10.5210026,7.88489323 10.7660123,8.08225582 11,8.29168048 C10.3862506,9.93964214 10,12.3345006 10,15 C10,17.6654994 10.3862506,20.0603579 11,21.7083195 Z" id="path-1"></path>
        <path d="M9,-1.70831952 C9.2339877,-1.91774418 9.47899743,-2.11510677 9.73405177,-2.29942986 C10.5131702,-0.474784844 11,2.12047609 11,5 C11,7.87952391 10.5131702,10.4747848 9.73405177,12.2994299 C9.47899743,12.1151068 9.2339877,11.9177442 9,11.7083195 C9.61374936,10.0603579 10,7.66549944 10,5 C10,2.33450056 9.61374936,-0.0603578643 9,-1.70831952 Z" id="path-3"></path>
    </defs>
    <g id="Page-1" stroke="none" stroke-width="1" fill="none" fill-rule="evenodd">
        <g id="icn/all">
            <g id="sq"></g>
            <g id="Group" transform="translate(2.000000, 2.000000)">
                <path d="M10,20 C15.5228475,20 20,15.5228475 20,10 C20,4.4771525 15.5228475,0 10,0 C4.4771525,0 0,4.4771525 0,10 C0,15.5228475 4.4771525,20 10,20 Z M10,18 C14.418278,18 18,14.418278 18,10 C18,5.581722 14.418278,2 10,2 C5.581722,2 2,5.581722 2,10 C2,14.418278 5.581722,18 10,18 Z" id="Combined-Shape" fill="#000000"></path>
                <rect id="equator" fill="#000000" x="1" y="9.5" width="18" height="1"></rect>
                <path d="M10,20 C12.209139,20 14,15.5228475 14,10 C14,4.4771525 12.209139,0 10,0 C7.790861,0 6,4.4771525 6,10 C6,15.5228475 7.790861,20 10,20 Z M10,19 C11.6568542,19 13,14.9705627 13,10 C13,5.02943725 11.6568542,1 10,1 C8.34314575,1 7,5.02943725 7,10 C7,14.9705627 8.34314575,19 10,19 Z" id="longitudes" fill="#000000"></path>
                <mask id="mask-2" fill="white">
                    <use xlink:href="#path-1"></use>
                </mask>
                <use id="polar-circles" fill="#000000" transform="translate(10.000000, 15.000000) rotate(-270.000000) translate(-10.000000, -15.000000) " xlink:href="#path-1"></use>
                <mask id="mask-4" fill="white">
                    <use xlink:href="#path-3"></use>
                </mask>
                <use id="polar-circles-copy" fill="#000000" transform="translate(10.000000, 5.000000) rotate(-270.000000) translate(-10.000000, -5.000000) " xlink:href="#path-3"></use>
            </g>
        </g>
    </g>
</svg>