<?xml version="1.0" encoding="utf-8"?>
<!-- Generated by IcoMoon.io -->
<!DOCTYPE svg PUBLIC "-//W3C//DTD SVG 1.1//EN" "http://www.w3.org/Graphics/SVG/1.1/DTD/svg11.dtd">
<svg version="1.1" xmlns="http://www.w3.org/2000/svg" xmlns:xlink="http://www.w3.org/1999/xlink" width="24" height="24" viewBox="0 0 24 24">
<path d="M3 8.536v6.929c-0.7 0.42-0.936 1.326-0.526 2.036 0.399 0.691 1.265 0.945 1.97 0.592l6.062 3.536c0.065 0.768 0.709 1.372 1.495 1.372s1.43-0.603 1.495-1.372l6.062-3.536c0.704 0.353 1.57 0.099 1.97-0.592 0.41-0.71 0.174-1.615-0.526-2.036v-6.929c0.7-0.42 0.936-1.326 0.526-2.036-0.399-0.691-1.265-0.945-1.97-0.592l-6.062-3.536c-0.065-0.768-0.709-1.372-1.495-1.372s-1.43 0.603-1.495 1.372l-6.062 3.536c-0.704-0.353-1.57-0.099-1.97 0.592-0.41 0.71-0.174 1.615 0.526 2.036zM4.5 8.562c0.008-0.004 0.015-0.009 0.023-0.013l5.496 3.173c-0.013 0.091-0.019 0.183-0.019 0.278 0 0.839 0.517 1.558 1.25 1.855v6.346c-0.040 0.023-0.079 0.048-0.116 0.075l-5.864-3.433c0.018-0.284-0.045-0.577-0.198-0.842-0.141-0.245-0.341-0.435-0.572-0.562v-6.876zM5.27 7.158l5.864-3.433c0.245 0.173 0.544 0.275 0.866 0.275s0.622-0.102 0.866-0.275l5.864 3.433c-0.002 0.031-0.003 0.061-0.003 0.092l-5.496 3.173c-0.339-0.265-0.767-0.423-1.231-0.423s-0.891 0.158-1.231 0.423l-5.496-3.173c-0-0.031-0.001-0.062-0.003-0.092zM12.75 20.201v-6.346c0.733-0.297 1.25-1.015 1.25-1.855 0-0.094-0.007-0.187-0.019-0.278l5.496-3.173c0.008 0.004 0.015 0.009 0.023 0.013v6.876c-0.231 0.128-0.43 0.317-0.572 0.562-0.153 0.265-0.216 0.558-0.198 0.842l-5.864 3.433c-0.038-0.027-0.076-0.051-0.116-0.075z"></path>
</svg>
