<?xml version="1.0" encoding="UTF-8" standalone="no"?>
<svg width="24px" height="24px" viewBox="0 0 24 24" version="1.1" xmlns="http://www.w3.org/2000/svg" xmlns:xlink="http://www.w3.org/1999/xlink">
    <!-- Generator: Sketch 3.8.3 (29802) - http://www.bohemiancoding.com/sketch -->
    <title>icn/osd-home</title>
    <desc>Created with Sketch.</desc>
    <defs></defs>
    <g id="Page-1" stroke="none" stroke-width="1" fill="none" fill-rule="evenodd">
        <g id="icn/osd-home">
            <g id="sq"></g>
            <path d="M19,5 L5,5 C4.45,5 4,5.45 4,6 L4,18 C4,18.55 4.45,19 5,19 L19,19 C19.55,19 20,18.55 20,18 L20,6 C20,5.45 19.55,5 19,5 Z M18.9981875,6 C18.9988125,6.00053125 18.9994688,6.0011875 19,6.0018125 L19,17.9982188 C18.9994688,17.9988438 18.9988125,17.9995 18.9981875,18.0000313 L5.00178125,18.0000313 C5.00115625,17.9995 5.0005,17.9988438 5,17.9982188 L5,6.00178125 C5.00053125,6.00115625 5.0011875,6.0005 5.00178125,6 L18.9981875,6 L18.9981875,6 Z M17,8.5 C17,9.3284375 16.3284375,10 15.5,10 C14.6715625,10 14,9.3284375 14,8.5 C14,7.6715625 14.6715625,7 15.5,7 C16.3284375,7 17,7.6715625 17,8.5 Z M18,17 L6,17 L6,15 L9.5,9 L13.5,14 L14.5,14 L18,11 L18,17 Z" id="Combined-Shape" fill="#ffffff"></path>
            <rect id="Rectangle-39" fill="#ffffff" x="2" y="5" width="20" height="1"></rect>
            <rect id="Rectangle-39-Copy" fill="#ffffff" x="2" y="18" width="20" height="1"></rect>
        </g>
    </g>
</svg>
