<svg xmlns="http://www.w3.org/2000/svg" width="108" height="86" viewBox="0 0 108 86">
  <g fill="#FFFFFF" fill-rule="evenodd">
    <path d="M34,32.0000059 C32.896189,32.002658 32,32.8969386 32,33.9997073 L32,66.0002927 C32,67.1101074 32.8976348,68 34.0049233,68 L73.9950767,68 C75.1011449,68 76,67.1047006 76,66.0002927 L76,33.9997073 C76,32.8915379 75.1050248,32.002639 74,32.0000059 L74,20.0004194 C74,19.455173 73.548356,19 72.9912248,19 L35.0087752,19 C34.4492188,19 34,19.447903 34,20.0004194 L34,32.0000055 Z M34,34 L74,34 L74,66 L34,66 L34,34 Z M36,21 L72,21 L72,31.9956055 L36,31.9956055 L36,21 Z"/>
    <path d="M38,28 L70,28 L70,34 L38,34 L38,28 Z M40,30 L68,30 L68,32 L40,32 L40,30 Z"/>
    <path d="M40 24L68 24 68 30 40 30 40 24zM42 26L66 26 66 28 42 28 42 26zM42 42C42 39.790861 43.7842933 38 45.990053 38L62.009947 38C64.2135924 38 66 39.7953562 66 42 66 44.209139 64.2157067 46 62.009947 46L45.990053 46C43.7864076 46 42 44.2046438 42 42zM44 42C44 40.8954305 44.8982124 40 45.9907951 40L62.0092049 40C63.1086907 40 64 40.8877296 64 42 64 43.1045695 63.1017876 44 62.0092049 44L45.9907951 44C44.8913093 44 44 43.1122704 44 42z"/>
  </g>
</svg>
