<svg xmlns="http://www.w3.org/2000/svg" viewBox="0 0 588 236"><path d="M175.51 175.02h17.07V235h9.28v-59.98h17.05v-8.27h-43.4v8.27zM60.66 235h41.92v-12.2H74.2v-16.29h27.01v-12.29H74.2v-15.21h28.38v-12.26H60.66V235zm215.21-48.37c0-13.08-7.72-19.88-22.73-19.88h-22.92V235h6.54v-28.68h5L266 235h8.48L250 206.32h4c14.35 0 21.87-8.77 21.87-19.69zm-39.11 13.64v-27.5h17.36c9.85 0 14.82 4.38 14.82 12.49v2.55c0 8.1-5 12.49-14.82 12.49h-17.36zm-81.62 16.19l-4.09-8.96-24.78-40.75h-10.93V235h10.75v-50.03l4.09 8.98L154.94 235h10.92v-68.25h-10.72v49.71zM291.08 235h38.52v-4.29h-33.95v-28.58h32.67v-4.28h-32.67v-26.82h33.95v-4.28h-38.52V235zM24.86 180.48c4.77 0 7.32 3.41 7.91 13.57h16.87c-1.57-19.49-10.83-28.28-25.35-28.28C9 165.77 0 176 0 200.1v1.57C0 225.76 9 236 24.29 236c14.43 0 23.81-8.47 25.35-28.28H32.77c-.69 10.23-3.21 13.56-7.91 13.56s-7.33-2.91-7.33-11.12v-18.53c.03-8.23 2.75-11.15 7.33-11.15zm545.51-64.75l-10.14-3.4c-8.18-2.91-12-6.93-12-12.78 0-6.64 5.86-12.39 15.51-12.39 9.15 0 14.81 4.87 16.67 16.28h5c-2-13.83-9.94-20.57-21.55-20.57-12.39 0-20.47 7.42-20.47 16.78 0 7.91 5 13.56 14.82 17l10.43 3.5c9.35 3.11 13.64 7.22 13.64 14.72 0 8.37-6.44 13.93-16.38 13.93s-17.76-6.54-19.11-18.24h-4.87c1.37 13.93 11 22.53 23.9 22.53s21.45-7.33 21.45-18.25c-.03-9.75-5.49-15.21-16.9-19.11zM438.13 82.87c-14.91 0-25.13 10.43-25.13 30.71v8.77c0 20.27 10.24 30.71 25.15 30.71s25.15-10.44 25.15-30.71v-8.77c-.02-20.28-10.25-30.71-25.17-30.71zm18.25 42.22c0 14-7 22-18.25 22s-18.24-8-18.24-22V111c0-14 7-22 18.24-22s18.25 8 18.25 22zm64.35 17.75l-3.43-7.12-31.49-51.87h-7.3v68.25h6.42V92.91l3.13 6.54 31.79 52.65h7.32V83.85h-6.44v58.99zm-192.8-16.28h-11.41c-.88 12.1-5.46 16.44-12.52 16.44s-12.1-5-12.1-15.8v-18.49c0-10.44 4.48-15.7 12.1-15.7 7 0 11.61 4.77 12.49 16.09h11.41c-.78-16.38-9.75-26.23-24.1-26.23-15.2 0-23.9 10.24-23.9 31.79v6.73c0 21.94 9.16 31.69 23.9 31.69s23.47-9.94 24.13-26.52zM24.86 97.59c4.77 0 7.32 3.4 7.91 13.57h16.87c-1.57-19.5-10.83-28.29-25.35-28.29C9 82.87 0 93.11 0 117.2v1.57c0 24.1 9 34.33 24.29 34.33 14.43 0 23.81-8.47 25.35-28.28H32.77c-.69 10.24-3.21 13.57-7.91 13.57s-7.33-2.92-7.33-11.12v-18.54c.03-8.2 2.75-11.14 7.33-11.14zm60.26-14.72c-16.87 0-26.81 11.22-26.81 34.24v1.76c0 23 9.94 34.23 26.81 34.23s26.82-11.21 26.82-34.23v-1.76c0-23.02-9.94-34.24-26.82-34.24zm9.26 44.37c0 7.72-3.5 11.22-9.26 11.22s-9.25-3.5-9.25-11.22v-18.53c0-7.72 3.5-11.22 9.25-11.22s9.26 3.5 9.26 11.22zm173.68 14.82h-29.93v-19.69h28.09v-10.04h-28.09V93.99h29.93V83.85h-41.15v68.25h41.15v-10.04zm-53.24-2.15h-25.94V83.85h-13.56v68.25h39.5v-12.19zm-91.08-56.06v68.25h40.39v-14.62h-24.3V83.85h-16.09zm211.32 8.28h17.07v59.97h9.25V92.13h17.07v-8.28h-43.39v8.28zm-62.79-82.11l3.11 6.53 31.79 52.66h7.32V.95h-6.44v59l-3.41-7.13L273.13.95h-7.3v68.26h6.44V10.02zM82.7 59.46h19.88l2.65 9.75h16.28L101.8 1H83.46L63.77 69.21h16.28zm8-29.93l2-9.74 2 9.74 4.48 16.68H86.2zm339.25 35.39h-31.51V.95h-4.58v68.26h36.09v-4.29zm-294.4 4.29h13.64V13.25h15.6V.95h-44.84v12.3h15.6v55.96zm115.56-29.73v-8.77c0-19.79-9.94-30.71-25.64-30.71s-25.66 10.9-25.66 30.71v8.77c0 19.78 9.94 30.71 25.64 30.71s25.66-10.93 25.66-30.71zm-9.77 4.87c0 10.73-6.15 17.56-15.89 17.56s-15.9-6.83-15.9-17.56V25.81c0-10.72 6.15-17.56 15.9-17.56s15.89 6.84 15.89 17.56zM351.05 1l-23.8 68.25h4.87l5.56-16.29h32.57l5.56 16.29h4.87L356.88 1zm-11.9 47.68L353 9.13l1-3 1 3 13.84 39.51zM38.52 28.75l.49 12.49-6.05-12.49L15.89.95H1.74v68.26h15.43V41.34l-.49-12.49 6.05 12.49 17.04 27.87h14.15V.95h-15.4v27.8zM175.24.96h11.12v68.25h-11.12zm214.21 82.89h7.96v68.25h-7.96z"/></svg>