<svg xmlns="http://www.w3.org/2000/svg" viewBox="0 0 379.07 154"><path d="M319.75 153h3.83V90.88L347.31 153h4.21l23.73-62.14V153h3.82V84.4h-5.36l-24.3 63.72L325 84.4h-5.26zm-64.11-27c0 18.43 8.23 27.94 23 27.94s23-9.51 23-27.94V84.4h-6.51v44.41c0 12.15-6 19.21-16.45 19.21s-16.56-7.06-16.56-19.21V84.4h-6.41zm-54.14 27h39.7v-8.33h-30.61v-22.53h28.51v-8.33h-28.51V92.74h30.61V84.4h-39.7zM140 130.28c1.63 15.39 11.58 23.72 25.17 23.72 12.63 0 21.81-7.65 21.81-19.11 0-9.81-4.69-15.79-16.17-20.59l-8.71-3.63c-7.08-2.94-8.8-5.48-8.8-9 0-4.81 3.73-8 9.38-8 7.08 0 10.43 4.31 11.38 11.47h12c-1.92-13.73-9.86-21.66-22.78-21.66s-21.91 7.84-21.91 18.42c0 8.24 4.4 14.31 16.36 19.31l6.79 2.75c8 3.23 10.15 6.76 10.15 11.46 0 5.4-3.45 8.53-9.47 8.53-7.37 0-11.77-4.7-13.11-13.62zm-60.89-6.67c0 21.08 9.57 30.39 24.68 30.39s24.69-9.31 24.69-30.39V84.4H112V129c0 6.87-2.87 10.3-8.23 10.3s-8.22-3.43-8.22-10.3V84.4H79.12zM0 153h15.79v-32.33l2.1 8.82L26.31 153H37.6l8.4-23.51 2.11-8.82V153h15.81V84.4H46.6L36 111.36l-4 12.25-4-12.25-10.62-27H0zM351 37.25L330.34 0h-4.49l23.25 41.66v27h3.83v-27L376.18 0h-4.31zm-64.21 10.19l11.58-34.7 1.43-5.29 1.34 5.29 11.58 34.7zM273.2 68.61h6.89L285 53.52h29.66l4.88 15.09h6.89L303.44 0h-7.37zm-60.24 0h8.71l10.14-38.91 1.72-10.09 1.72 10.09 10.15 38.91h8.7L270.66 0h-9.48l-10 41.85-1.81 10.59-2.11-10.59L236.5 0h-5.93l-10.82 41.85-2.1 10.59-1.82-10.59L205.88 0h-9.47zm-58.09 0h38V58.52h-27V0h-11zm-29.57 0h13.39V0H125.3zM80.61 44.8l3.83-14.61 1.82-8.82 1.82 8.82L91.9 44.8zM57.93 68.61h16.46l2.68-9.31h18.37l2.68 9.31h16.46L95.25 0h-18zM15.79 30V14.7h9.37c4.21 0 6.8 2.06 6.8 6.57v2.16c0 4.51-2.59 6.56-6.8 6.56zM0 68.61h15.79V44.7l14.73 23.91h17.7L32.53 44.3c9.76-2.94 15.69-11 15.69-21.95C48.22 8.14 38.56 0 22.2 0H0z"/></svg>