<svg xmlns="http://www.w3.org/2000/svg" viewBox="0 0 398 153.5"><path d="M337.36 153h3.93V91.27L365.63 153H370l24.3-61.73V153h3.92V84.85h-5.5l-24.93 63.31-25-63.31h-5.4Zm-67-26.79c0 18.31 8.44 27.76 23.56 27.76s23.56-9.45 23.56-27.76V84.85h-6.68V129c0 12.08-6.18 19.09-16.88 19.09s-17-7-17-19.09V84.85h-6.57ZM212.8 153h40.73v-8.28h-31.41v-22.4h29.25v-8.28h-29.25V93.12h31.41v-8.27H212.8ZM150 130.43c1.67 15.29 11.88 23.57 25.82 23.57 13 0 22.38-7.6 22.38-19 0-9.74-4.81-15.68-16.59-20.46l-8.93-3.6c-7.26-2.92-9-5.45-9-9 0-4.77 3.83-8 9.62-8 7.26 0 10.7 4.29 11.68 11.4h12.27c-2-13.64-10.11-21.53-23.36-21.53s-22.48 7.79-22.48 18.31c0 8.18 4.51 14.22 16.78 19.19l7 2.73c8.25 3.21 10.41 6.72 10.41 11.39 0 5.36-3.54 8.48-9.72 8.48-7.56 0-12.07-4.68-13.45-13.54Zm-63.7-6.62c0 20.94 9.81 30.19 25.32 30.19s25.33-9.25 25.33-30.19v-39H120v44.31c0 6.82-2.94 10.23-8.44 10.23s-8.44-3.41-8.44-10.23V84.85H86.27ZM4.89 153h16.2v-32.12l2.16 8.77L31.89 153h11.58l8.64-23.38 2.16-8.77V153h16.2V84.85H52.7l-10.9 26.78-4.12 12.18-4.12-12.18-10.9-26.78H4.89ZM346.49 69.15h38.38v-3.7h-34.46V36h33.38v-3.7h-33.38V4.68h34.46V1h-38.38Zm-64.39-29.7c0 19.28 8.44 30.68 23.46 30.68 13.45 0 21.4-9.06 22.87-24.06h-6.77c-1.58 12.66-7.27 18.12-16.1 18.12-11.39 0-16.49-8.87-16.49-25.13v-11c0-13.73 6.18-22 16.49-22 8.83 0 14.52 5.65 16.1 17.82h6.77C326.86 9 318.61 0 305.56 0c-15.32 0-23.46 11.69-23.46 30.68Zm-68.91 29.7h9.32V16.56l3.14 6.33 28 46.26h9.72V1H254v52.08l-3.14-6.33L223.2 1h-10Zm-56.84 0h41.43v-10h-30.14v-19.7h28.27v-10h-28.27V11.1h30.14V1h-41.43Zm-31 0h13.75V1h-13.77ZM62 35.84c0 24.06 9 34.29 24.44 34.29 14.53 0 24-8.48 25.53-28.25H95c-.68 10.23-3.24 13.54-8 13.54s-7.36-2.92-7.36-11.1V25.81c0-8.18 2.75-11.1 7.36-11.1 4.81 0 7.37 3.41 8 13.54h17C110.42 8.77 101.09 0 86.46 0 71.05 0 62 10.23 62 34.28Zm-61 9c.79 15.59 12.27 25.33 26.61 25.33 12.76 0 23.26-8.18 23.26-20.36 0-10-5.79-15.49-21.59-22.11-7.46-3.12-9.53-5.45-9.53-8.28 0-3.11 2.85-4.77 5.5-4.77 5.3 0 7.26 4.09 7.85 8.28h17.63C49 9.25 39.35 0 26.1 0c-12.86 0-24 7.69-24 20.06 0 8.58 5.31 15.2 18.36 20.65 10.54 4.39 12.7 6.63 12.7 9.84 0 3.41-3 5-5.69 5-6.28 0-8.74-5.65-8.83-10.72Z"/></svg>