<svg xmlns="http://www.w3.org/2000/svg" width="532" height="236"><path d="M4.564 152.763h3.915v-68.54H4.564zM27.974 84.225h5.58l34.564 56.005 3.327 6.464v-62.47h4.602v68.539h-5.58L35.71 96.171l-3.135-5.875v62.467h-4.6zM94.636 84.225h7.344l31.627 52.087 3.427 7.153v-59.24h6.462v68.538h-7.344l-31.921-52.872-3.131-6.56v59.432h-6.464zM184.816 83.273c15.763 0 25.751 10.967 25.751 30.842v8.814c0 19.875-9.988 30.842-25.751 30.842-15.762 0-25.751-10.967-25.751-30.842v-8.814c0-19.875 9.989-30.842 25.751-30.842m0 62.176c9.791 0 15.96-6.856 15.96-17.625v-18.602c0-10.771-6.171-17.627-15.96-17.627-9.791 0-15.96 6.856-15.96 17.627v18.602c0 10.769 6.171 17.625 15.96 17.625M229.701 84.225l12.824 41.416 2.842 11.749 2.738-11.749 12.829-41.416h11.749c-7.147 22.813-14.295 45.725-21.54 68.538h-11.651L217.95 84.225zM293.764 84.225h15.08l20.952 68.538h-14.003l-3.035-10.769h-22.913l-3.036 10.769h-13.998l20.951-68.538zm15.763 45.918-6.556-23.596-1.669-7.833-1.664 7.833-6.556 23.596h16.447zM329.602 96.56V84.226h45.04V96.56h-15.668v56.202h-13.705V96.561zM384.414 152.763h16.155V84.225h-16.155zM439.393 83.28c16.936 0 26.926 11.259 26.926 34.368v1.762c0 23.107-9.99 34.367-26.926 34.367-16.938 0-26.927-11.26-26.927-34.367v-1.762c0-23.11 9.987-34.367 26.927-34.367m0 55.81c5.777 0 9.302-3.524 9.302-11.26v-18.602c0-7.736-3.525-11.26-9.302-11.26-5.778 0-9.303 3.524-9.303 11.26v18.602c0 7.736 3.525 11.26 9.303 11.26M493.382 84.225l17.135 27.906 6.069 12.532-.489-12.532V84.225h15.394v68.538h-14.122l-17.136-28.002-6.069-12.532.489 12.532v28.002h-15.469V84.225zM18.707 19.489c0-3.134 2.84-4.798 5.485-4.798 5.288 0 7.246 4.113 7.835 8.324h17.53C47.796 9.305 38.199 0 24.978 0 12.146 0 1.078 7.736 1.078 20.173c0 8.62 5.289 15.28 18.313 20.764 10.48 4.407 12.635 6.66 12.635 9.89 0 3.43-3.038 4.996-5.682 4.996-6.267 0-8.715-5.68-8.815-10.773H0C.781 60.72 12.24 70.514 26.54 70.514c12.732 0 23.211-8.226 23.211-20.47 0-10.087-5.78-15.571-21.546-22.231-7.444-3.133-9.5-5.485-9.5-8.324zM76.095 44.561V25.953c0-8.227 2.743-11.164 7.347-11.164 4.798 0 7.344 3.428 7.933 13.613h16.942C106.75 8.813 97.446 0 82.853 0 67.476 0 58.467 10.282 58.467 34.475v1.566c0 24.19 9.009 34.475 24.386 34.475 14.495 0 23.897-8.52 25.464-28.402H91.375c-.687 10.285-3.231 13.614-7.933 13.614-4.798 0-7.347-2.938-7.347-11.165zM121.439 69.536h13.711V.978h-13.711zM151.992 69.536h41.33V59.448h-30.066V39.666h28.206V29.577h-28.206V11.164h30.066V.978h-41.33zM245.212 69.534h9.695V.976h-9.304v51.99l-3.134-7.183L217.706.976h-9.989v68.558h9.305V17.056l3.135 7.59zM275.978 39.273V28.206c0-13.809 6.171-22.135 16.453-22.135 8.815 0 14.493 5.68 16.06 17.922h6.76C313.684 9.009 305.457 0 292.431 0c-15.279 0-23.406 11.753-23.406 30.85v8.816c0 19.39 8.422 30.85 23.406 30.85 13.416 0 21.351-9.109 22.82-24.19h-6.76c-1.567 12.73-7.247 18.215-16.06 18.215-11.36 0-16.453-8.911-16.453-25.268M329.935 69.532h39.468v-4.285h-34.889v-28.73h33.223V32.23h-33.223V5.263h34.889V.98h-39.468zM439.217 36.229v-3.712h-27.28V5.239h-3.712v27.278h-27.276v3.712h27.276v27.28h3.712v-27.28zM27.77 204.271c10.478 0 15.862-5.186 15.862-13.904v-2.938c0-8.813-5.384-13.904-15.862-13.904H11.124v30.746zM4.564 167.454H27.28c15.08 0 23.307 7.44 23.307 21.446 0 13.903-8.227 21.345-23.307 21.345H11.126V236H4.564v-68.54599999999999M90.926 214.456l-10.282-32.607-.978-3.818-.98 3.818-10.282 32.607zm-16.156-47h9.791L107.475 236h-9.694l-4.307-13.611H65.86L61.552 236H51.86l22.913-68.544zM154.375 189.683v-2.254c0-6.562-4.014-9.791-10.576-9.791h-14.1v21.836h14.1c6.658 0 10.576-3.329 10.576-9.791m-12.829-22.227c16.06 0 24.58 7.342 24.58 21.151 0 13.218-8.813 20.955-21.151 20.955L165.93 236h-13.513l-20.367-26.438h-2.351V236h-11.262v-68.544zM192.869 167.456v32.507l23.893-32.507h15.371L209.516 198.2l22.617 37.8h-15.664L200.8 209.267l-7.931 10.869V236h-13.611v-68.544z"/></svg>