<svg xmlns="http://www.w3.org/2000/svg" viewBox="0 0 387.84 236"><path d="M134.2 84v39.87c0 19.94-9 29.18-24.61 29.18S85 143.77 85 123.83V84h13.9v44.45c0 8.07 4.18 12.44 10.69 12.44s10.7-4.47 10.7-12.44V84Zm-108-28.2c2.63 0 5.64-1.55 5.64-5 0-3.21-2.14-5.44-12.54-9.82C6.32 35.53 1.07 28.92 1.07 20.36c0-12.35 11-20 23.73-20 13.13 0 22.66 9.24 24.41 22.85H31.8c-.58-4.21-2.53-8.29-7.8-8.29-2.62 0-5.45 1.65-5.45 4.77 0 2.81 2.05 5.15 9.44 8.26C43.66 34.56 49.4 40 49.4 50c0 12.15-10.4 20.32-23 20.32C12.16 70.35.78 60.62 0 45.07h17.41c.1 5.05 2.52 10.69 8.75 10.69Zm90.63 132.45c0 14.39-9.24 21.49-19.74 21.49l19.64 25h-15.79l-18.77-25v25H68.66v-68.12h22.75c16.24 0 25.38 7.69 25.38 21.59Zm-14 1.07V187c0-5.34-3.41-8.16-8.75-8.16H82.17v18.57H94c5.48.04 8.79-2.78 8.79-8.13ZM192 59.36v10h-41V1.3h41v10.12h-29.9V29.7h28v10h-28v19.66Zm174.8 5.76v4.25h-39.19V1.3h39.19v4.26h-34.64v26.78h33v4.25h-33v28.53ZM37 122.86l4-12.15L51.83 84h17.6v68h-16v-32.1l-2.14 8.76-8.6 23.34H31.22l-8.56-23.3-2.14-8.76V152h-16V84h17.56l10.79 26.75Zm83.63-53.48V1.31h13.61v68.07Zm-38.31 1C67 70.35 58.06 60.14 58.06 36.12v-1.56C58.06 10.54 67 .33 82.27.33c14.49 0 23.73 8.75 25.28 28.2H90.73C90.14 18.42 87.62 15 82.85 15c-4.57 0-7.29 2.91-7.29 11.08v18.5c0 8.17 2.53 11.08 7.29 11.08s7.2-3.3 7.88-13.51h16.82c-1.55 19.74-10.89 28.2-25.28 28.2ZM28.79 180.24c-5.74 0-9.24 3.5-9.24 11.18v18.48c0 7.68 3.5 11.18 9.24 11.18s9.53-3 9.92-9.92h-8.95v-12.74h23.82v36.28h-8.65l-2-5.16a18.34 18.34 0 0 1-14.19 6.13C12 235.67 2 224.48 2 201.54v-1.76c0-22.95 9.92-34.13 26.75-34.13 13.61 0 22.17 7.68 24.79 25.87h-16c-.88-8.36-4.18-11.28-8.75-11.28m276.26-53V84h6.51v40.52c0 20.23-9.17 28.53-24.15 28.53s-24.15-8.3-24.15-28.53V84h6.52v43.25c0 13.78 6.82 19.87 17.63 19.87s17.64-6.12 17.64-19.91Zm-22.85 39.38c15 0 23.15 7.39 23.15 21.3s-8.17 21.2-23.15 21.2h-16v25.57h-6.52v-68.07Zm16.24 22.76v-2.92c0-8.75-5.35-13.81-15.75-13.81h-16.53v30.54h16.53c10.4 0 15.75-5.19 15.75-13.81m-8.07-183c-10.21 0-16.34 8.27-16.34 22v11c0 16.24 5.06 25.09 16.34 25.09 8.75 0 14.39-5.45 15.95-18.09H313c-1.46 15-9.34 24-22.66 24-14.88 0-23.24-11.38-23.24-30.63V31c0-19 8.07-30.64 23.24-30.64 12.93 0 21.1 9 22.66 23.83h-6.71C304.76 12 299.12 6.36 290.37 6.36ZM381.94 84h5.9v68h-4.54V93l-22.75 59h-5.65l-22.75-59v59h-4.54V84h5.9l24.22 62.88Zm-148.17 0h14.91v8.27h-33.19v20.91h31v8.26h-31v22.37h33.19V152h-42.42V84Zm-.19 127.4v-44.78h9.24V208c0 18.48-8.46 27.72-23.92 27.72S195 226.43 195 208v-41.38h9.24v44.74c0 10.21 5.35 16 14.69 16s14.65-5.79 14.65-16Zm-56.79-97.74c11.67 4.77 16.44 10.7 16.44 20.42 0 11.38-9.34 19-22.18 19-13.81 0-23.92-8.27-25.57-23.53h12.25c1.36 8.84 5.83 13.51 13.32 13.51 6.13 0 9.63-3.11 9.63-8.46 0-4.67-2.14-8.17-10.31-11.38l-6.9-2.72c-12.16-5-16.63-11-16.63-19.16 0-10.5 9-18.28 22.27-18.28s21.2 7.88 23.14 21.49H180.1c-1-7.1-4.38-11.37-11.58-11.37-5.73 0-9.52 3.2-9.52 8 0 3.5 1.75 6 8.94 9Zm-22 52c15.95 0 25.87 11 25.87 31.7v6.71c0 20.72-9.92 31.61-25.87 31.61s-26-10.89-26-31.61v-6.71c.06-20.72 9.98-31.71 26.02-31.71Zm13.91 44.25v-17.13c0-10.79-4.86-17-13.91-17-8.65 0-14 5.84-14 15.66v17.21c0 11 5 17 14 17 8.58 0 13.93-5.83 13.93-15.75Zm75.15-157V1.3h9.24v68.07h-9.63L218.6 24.8l-3.11-7.53v52.1h-9.24V1.3h9.92l24.59 44.49Z"/></svg>