<?xml version="1.0" encoding="utf-8"?><svg xmlns="http://www.w3.org/2000/svg" xmlns:xlink="http://www.w3.org/1999/xlink"><symbol viewBox="0 0 543.65 69.89" id="loco" xmlns="http://www.w3.org/2000/svg"><path d="M72.85 0c15.69 0 25.22 11.07 25.22 32.81v4.37c0 21.75-9.53 32.72-25.22 32.72s-25.31-11-25.31-32.72v-4.37C47.54 11.07 57.07 0 72.85 0m0 57.76c6.91 0 11.21-4.75 11.21-13.59V28.64c0-10.78-3.55-16.41-11.21-16.41-7 0-11.3 4.76-11.3 13.5v15.63c0 10.77 3.45 16.4 11.3 16.4M132.16 0c13.82 0 22.5 9.32 23.63 27.09h-13.45c-.66-10.68-4.11-14.76-9.81-14.76-5.89 0-9.43 4.08-9.43 13.4v18.44c0 9.42 3.54 13.5 9.43 13.5 5.6 0 9.06-3.89 9.81-15h13.45c-1 18-9.62 27.18-23.63 27.18-14.39 0-23.07-9.9-23.07-32.82v-4.12c0-22.72 8.49-32.91 23.07-32.91m58.46 0c15.32 0 24.84 11 24.84 31.65v6.7c0 20.68-9.52 31.55-24.84 31.55S165.68 59 165.68 38.35v-6.7C165.68 11 175.21 0 190.62 0m0 59.9c8.22 0 13.36-5.83 13.36-15.73V27.09c0-10.78-4.67-17-13.36-17-8.31 0-13.45 5.82-13.45 15.63v17.19c0 11 4.76 17 13.45 17M241.8.97l14.38 41.55 3.08 12.14 2.99-12.14L276.64.97h12.98v67.96h-10.09V30.58l.75-14.46-3.64 14.56-12.8 38.25h-9.25L241.8 30.68l-3.64-14.56.74 14.56v38.25h-10.08V.97h12.98zM327.91 0c15 0 24.56 10.87 24.56 30.58v8.74c0 19.68-9.47 30.58-24.56 30.58S303.34 59 303.34 39.32v-8.74c0-19.71 9.53-30.58 24.57-30.58m0 61.65c9.34 0 15.22-6.8 15.22-17.48V25.73c0-10.68-5.88-17.48-15.22-17.48s-15.22 6.8-15.22 17.48v18.44c0 10.68 5.88 17.48 15.22 17.48m30.16-52.43V.97h41.57v8.25h-16.35v59.71h-8.87V9.22h-16.35zm53.8-8.25h6.35v67.96h-6.35zm22.32 38.35v-8.74C434.19 10.39 444 0 458.29 0s24.1 10.39 24.1 30.58v8.74c0 20.19-9.81 30.58-24.1 30.58s-24.1-10.39-24.1-30.58M475.75 42V28c0-14-6.75-22-17.46-22s-17.47 8-17.47 22v14c0 14 6.73 21.94 17.47 21.94S475.75 56 475.75 42M497.79.97h5.33l32.97 55.53 3.17 6.41V.97h4.39v67.96h-5.32l-33.16-56.12-2.99-5.82v61.94h-4.39V.97zM0 .97v67.96h38.67V54.37H15.41V.97H0z"/></symbol><symbol viewBox="0 0 588 236" id="ncc" xmlns="http://www.w3.org/2000/svg"><path d="M175.51 175.02h17.07V235h9.28v-59.98h17.05v-8.27h-43.4v8.27zM60.66 235h41.92v-12.2H74.2v-16.29h27.01v-12.29H74.2v-15.21h28.38v-12.26H60.66V235zm215.21-48.37c0-13.08-7.72-19.88-22.73-19.88h-22.92V235h6.54v-28.68h5L266 235h8.48L250 206.32h4c14.35 0 21.87-8.77 21.87-19.69zm-39.11 13.64v-27.5h17.36c9.85 0 14.82 4.38 14.82 12.49v2.55c0 8.1-5 12.49-14.82 12.49h-17.36zm-81.62 16.19l-4.09-8.96-24.78-40.75h-10.93V235h10.75v-50.03l4.09 8.98L154.94 235h10.92v-68.25h-10.72v49.71zM291.08 235h38.52v-4.29h-33.95v-28.58h32.67v-4.28h-32.67v-26.82h33.95v-4.28h-38.52V235zM24.86 180.48c4.77 0 7.32 3.41 7.91 13.57h16.87c-1.57-19.49-10.83-28.28-25.35-28.28C9 165.77 0 176 0 200.1v1.57C0 225.76 9 236 24.29 236c14.43 0 23.81-8.47 25.35-28.28H32.77c-.69 10.23-3.21 13.56-7.91 13.56s-7.33-2.91-7.33-11.12v-18.53c.03-8.23 2.75-11.15 7.33-11.15zm545.51-64.75l-10.14-3.4c-8.18-2.91-12-6.93-12-12.78 0-6.64 5.86-12.39 15.51-12.39 9.15 0 14.81 4.87 16.67 16.28h5c-2-13.83-9.94-20.57-21.55-20.57-12.39 0-20.47 7.42-20.47 16.78 0 7.91 5 13.56 14.82 17l10.43 3.5c9.35 3.11 13.64 7.22 13.64 14.72 0 8.37-6.44 13.93-16.38 13.93s-17.76-6.54-19.11-18.24h-4.87c1.37 13.93 11 22.53 23.9 22.53s21.45-7.33 21.45-18.25c-.03-9.75-5.49-15.21-16.9-19.11zM438.13 82.87c-14.91 0-25.13 10.43-25.13 30.71v8.77c0 20.27 10.24 30.71 25.15 30.71s25.15-10.44 25.15-30.71v-8.77c-.02-20.28-10.25-30.71-25.17-30.71zm18.25 42.22c0 14-7 22-18.25 22s-18.24-8-18.24-22V111c0-14 7-22 18.24-22s18.25 8 18.25 22zm64.35 17.75l-3.43-7.12-31.49-51.87h-7.3v68.25h6.42V92.91l3.13 6.54 31.79 52.65h7.32V83.85h-6.44v58.99zm-192.8-16.28h-11.41c-.88 12.1-5.46 16.44-12.52 16.44s-12.1-5-12.1-15.8v-18.49c0-10.44 4.48-15.7 12.1-15.7 7 0 11.61 4.77 12.49 16.09h11.41c-.78-16.38-9.75-26.23-24.1-26.23-15.2 0-23.9 10.24-23.9 31.79v6.73c0 21.94 9.16 31.69 23.9 31.69s23.47-9.94 24.13-26.52zM24.86 97.59c4.77 0 7.32 3.4 7.91 13.57h16.87c-1.57-19.5-10.83-28.29-25.35-28.29C9 82.87 0 93.11 0 117.2v1.57c0 24.1 9 34.33 24.29 34.33 14.43 0 23.81-8.47 25.35-28.28H32.77c-.69 10.24-3.21 13.57-7.91 13.57s-7.33-2.92-7.33-11.12v-18.54c.03-8.2 2.75-11.14 7.33-11.14zm60.26-14.72c-16.87 0-26.81 11.22-26.81 34.24v1.76c0 23 9.94 34.23 26.81 34.23s26.82-11.21 26.82-34.23v-1.76c0-23.02-9.94-34.24-26.82-34.24zm9.26 44.37c0 7.72-3.5 11.22-9.26 11.22s-9.25-3.5-9.25-11.22v-18.53c0-7.72 3.5-11.22 9.25-11.22s9.26 3.5 9.26 11.22zm173.68 14.82h-29.93v-19.69h28.09v-10.04h-28.09V93.99h29.93V83.85h-41.15v68.25h41.15v-10.04zm-53.24-2.15h-25.94V83.85h-13.56v68.25h39.5v-12.19zm-91.08-56.06v68.25h40.39v-14.62h-24.3V83.85h-16.09zm211.32 8.28h17.07v59.97h9.25V92.13h17.07v-8.28h-43.39v8.28zm-62.79-82.11l3.11 6.53 31.79 52.66h7.32V.95h-6.44v59l-3.41-7.13L273.13.95h-7.3v68.26h6.44V10.02zM82.7 59.46h19.88l2.65 9.75h16.28L101.8 1H83.46L63.77 69.21h16.28zm8-29.93l2-9.74 2 9.74 4.48 16.68H86.2zm339.25 35.39h-31.51V.95h-4.58v68.26h36.09v-4.29zm-294.4 4.29h13.64V13.25h15.6V.95h-44.84v12.3h15.6v55.96zm115.56-29.73v-8.77c0-19.79-9.94-30.71-25.64-30.71s-25.66 10.9-25.66 30.71v8.77c0 19.78 9.94 30.71 25.64 30.71s25.66-10.93 25.66-30.71zm-9.77 4.87c0 10.73-6.15 17.56-15.89 17.56s-15.9-6.83-15.9-17.56V25.81c0-10.72 6.15-17.56 15.9-17.56s15.89 6.84 15.89 17.56zM351.05 1l-23.8 68.25h4.87l5.56-16.29h32.57l5.56 16.29h4.87L356.88 1zm-11.9 47.68L353 9.13l1-3 1 3 13.84 39.51zM38.52 28.75l.49 12.49-6.05-12.49L15.89.95H1.74v68.26h15.43V41.34l-.49-12.49 6.05 12.49 17.04 27.87h14.15V.95h-15.4v27.8zM175.24.96h11.12v68.25h-11.12zm214.21 82.89h7.96v68.25h-7.96z"/></symbol><symbol viewBox="0 0 379.07 154" id="nrm" xmlns="http://www.w3.org/2000/svg"><path d="M319.75 153h3.83V90.88L347.31 153h4.21l23.73-62.14V153h3.82V84.4h-5.36l-24.3 63.72L325 84.4h-5.26zm-64.11-27c0 18.43 8.23 27.94 23 27.94s23-9.51 23-27.94V84.4h-6.51v44.41c0 12.15-6 19.21-16.45 19.21s-16.56-7.06-16.56-19.21V84.4h-6.41zm-54.14 27h39.7v-8.33h-30.61v-22.53h28.51v-8.33h-28.51V92.74h30.61V84.4h-39.7zM140 130.28c1.63 15.39 11.58 23.72 25.17 23.72 12.63 0 21.81-7.65 21.81-19.11 0-9.81-4.69-15.79-16.17-20.59l-8.71-3.63c-7.08-2.94-8.8-5.48-8.8-9 0-4.81 3.73-8 9.38-8 7.08 0 10.43 4.31 11.38 11.47h12c-1.92-13.73-9.86-21.66-22.78-21.66s-21.91 7.84-21.91 18.42c0 8.24 4.4 14.31 16.36 19.31l6.79 2.75c8 3.23 10.15 6.76 10.15 11.46 0 5.4-3.45 8.53-9.47 8.53-7.37 0-11.77-4.7-13.11-13.62zm-60.89-6.67c0 21.08 9.57 30.39 24.68 30.39s24.69-9.31 24.69-30.39V84.4H112V129c0 6.87-2.87 10.3-8.23 10.3s-8.22-3.43-8.22-10.3V84.4H79.12zM0 153h15.79v-32.33l2.1 8.82L26.31 153H37.6l8.4-23.51 2.11-8.82V153h15.81V84.4H46.6L36 111.36l-4 12.25-4-12.25-10.62-27H0zM351 37.25L330.34 0h-4.49l23.25 41.66v27h3.83v-27L376.18 0h-4.31zm-64.21 10.19l11.58-34.7 1.43-5.29 1.34 5.29 11.58 34.7zM273.2 68.61h6.89L285 53.52h29.66l4.88 15.09h6.89L303.44 0h-7.37zm-60.24 0h8.71l10.14-38.91 1.72-10.09 1.72 10.09 10.15 38.91h8.7L270.66 0h-9.48l-10 41.85-1.81 10.59-2.11-10.59L236.5 0h-5.93l-10.82 41.85-2.1 10.59-1.82-10.59L205.88 0h-9.47zm-58.09 0h38V58.52h-27V0h-11zm-29.57 0h13.39V0H125.3zM80.61 44.8l3.83-14.61 1.82-8.82 1.82 8.82L91.9 44.8zM57.93 68.61h16.46l2.68-9.31h18.37l2.68 9.31h16.46L95.25 0h-18zM15.79 30V14.7h9.37c4.21 0 6.8 2.06 6.8 6.57v2.16c0 4.51-2.59 6.56-6.8 6.56zM0 68.61h15.79V44.7l14.73 23.91h17.7L32.53 44.3c9.76-2.94 15.69-11 15.69-21.95C48.22 8.14 38.56 0 22.2 0H0z"/></symbol><symbol viewBox="0 0 447.56 236" id="nsmm" xmlns="http://www.w3.org/2000/svg"><path d="M333.23 235h3.89v-61.23L361.25 235h4.28l24.12-61.26V235h3.89v-67.61h-5.45l-24.7 62.81-24.81-62.81h-5.35zm-66.43-26.54c0 18.17 8.36 27.54 23.34 27.54s23.35-9.37 23.35-27.54v-41.07h-6.62v43.78c0 12-6.12 18.93-16.73 18.93s-16.82-6.95-16.82-18.93v-43.78h-6.52zm-57 26.54h40.37v-8.21H219v-22.2h29v-8.21h-29V175.6h31.13v-8.21H209.8zm-62.25-22.42c1.65 15.21 11.77 23.42 25.58 23.42 12.84 0 22.18-7.54 22.18-18.84 0-9.67-4.77-15.56-16.44-20.3l-8.87-3.57c-7.2-2.9-9-5.41-9-8.89 0-4.74 3.8-7.93 9.53-7.93 7.2 0 10.61 4.25 11.58 11.31h12.16c-2-13.53-10-21.36-23.15-21.36s-22.28 7.73-22.28 18.17c0 8.12 4.48 14.11 16.64 19l6.9 2.7c8.17 3.19 10.31 6.67 10.31 11.31 0 5.31-3.5 8.41-9.63 8.41-7.49 0-12-4.64-13.32-13.44zM84.43 206c0 20.78 9.72 30 25.09 30s25.1-9.18 25.1-30v-38.61h-16.73v44c0 6.76-2.92 10.15-8.37 10.15s-8.36-3.39-8.36-10.15v-44H84.43zM3.79 235h16.05v-31.86l2.14 8.7L30.54 235H42l8.56-23.19 2.14-8.7V235h16v-67.61H51.16L40.37 194l-4.09 12-4.08-12-10.8-26.61H3.79zM247.44 131l11.77-34.21 1.46-5.22 1.33 5.17L273.8 131zm-13.81 20.87h7l5-14.88h30.15l5 14.88h7l-23.41-67.69h-7.49zm-24.12 0h9.24V84.18h-9.24zm-65 0h18.67c18.58 0 29.28-8.89 29.28-31.4v-4.93c0-22.52-10.7-31.31-29.38-31.31h-18.54zM156 142V94.23h9c9.63 0 15.95 5.51 15.95 17.49v14.11c0 10.43-6.12 16.14-15.95 16.14zm-69.74 9.85h41.84v-12.11H99.79V123.6h26.95v-12.17H99.79V96.35h28.31V84.18H86.27zm-82.48 0h16.06v-31.92l2.14 8.7 8.56 23.19H42l8.56-23.19 2.14-8.7v31.89h16V84.18H51.16l-10.79 26.57-4.09 12.08-4.08-12.08-10.8-26.57H3.79zM342.28 68.61h38v-3.67h-34.11V35.75h33.07v-3.67h-33.07V4.64h34.14V1h-38zm-63.81-29.47c0 19.13 8.37 30.44 23.25 30.44 13.32 0 21.2-9 22.66-23.87h-6.71c-1.56 12.56-7.2 18-15.95 18-11.29 0-16.34-8.79-16.34-24.93V27.83C285.38 14.21 291.5 6 301.72 6c8.75 0 14.39 5.61 15.95 17.68h6.71C322.82 8.89 314.65 0 301.72 0c-15.18 0-23.25 11.6-23.25 30.44zm-68.28 29.47h9.24V16.43l3.11 6.28 27.73 45.9h9.62V1h-9.24v51.7l-3.11-6.29L220.11 1h-9.92zm-56.32 0h41v-10h-29.81V39.14h28v-10h-28V11h29.86V1h-41zm-30.73 0h13.61V1h-13.61zm-62.74-33c0 23.87 8.95 34 24.22 34 14.4 0 23.73-8.41 25.29-28H93.08C92.4 51.7 89.87 55 85.2 55s-7.29-2.89-7.29-11V25.61c0-8.12 2.72-11 7.29-11C90 14.59 92.5 18 93.08 28h16.83C108.35 8.7 99.11 0 84.62 0 69.35 0 60.4 10.15 60.4 34zM0 44.45c.78 15.46 12.16 25.13 26.36 25.13 12.64 0 23-8.12 23-20.2 0-10-5.74-15.37-21.4-21.94-7.39-3.09-9.43-5.41-9.43-8.21 0-3.09 2.82-4.74 5.44-4.74 5.26 0 7.2 4.06 7.78 8.22h17.47C47.46 9.18 37.93 0 24.8 0 12.06 0 1.07 7.63 1.07 19.91c0 8.5 5.25 15.07 18.19 20.48C29.67 44.74 31.8 47 31.8 50.15c0 3.38-3 4.93-5.64 4.93-6.22 0-8.65-5.6-8.75-10.63zM391.2 32.47h55.96v3.18H391.2z"/><path d="M417.58 6.27h3.21v55.59h-3.21z"/></symbol><symbol viewBox="0 0 398 153.5" id="scm" xmlns="http://www.w3.org/2000/svg"><path d="M337.36 153h3.93V91.27L365.63 153H370l24.3-61.73V153h3.92V84.85h-5.5l-24.93 63.31-25-63.31h-5.4zm-67-26.79c0 18.31 8.44 27.76 23.56 27.76s23.56-9.45 23.56-27.76V84.85h-6.68V129c0 12.08-6.18 19.09-16.88 19.09s-17-7-17-19.09V84.85h-6.57zM212.8 153h40.73v-8.28h-31.41v-22.4h29.25v-8.28h-29.25V93.12h31.41v-8.27H212.8zM150 130.43c1.67 15.29 11.88 23.57 25.82 23.57 13 0 22.38-7.6 22.38-19 0-9.74-4.81-15.68-16.59-20.46l-8.93-3.6c-7.26-2.92-9-5.45-9-9 0-4.77 3.83-8 9.62-8 7.26 0 10.7 4.29 11.68 11.4h12.27c-2-13.64-10.11-21.53-23.36-21.53s-22.48 7.79-22.48 18.31c0 8.18 4.51 14.22 16.78 19.19l7 2.73c8.25 3.21 10.41 6.72 10.41 11.39 0 5.36-3.54 8.48-9.72 8.48-7.56 0-12.07-4.68-13.45-13.54zm-63.7-6.62c0 20.94 9.81 30.19 25.32 30.19s25.33-9.25 25.33-30.19v-39H120v44.31c0 6.82-2.94 10.23-8.44 10.23s-8.44-3.41-8.44-10.23V84.85H86.27zM4.89 153h16.2v-32.12l2.16 8.77L31.89 153h11.58l8.64-23.38 2.16-8.77V153h16.2V84.85H52.7l-10.9 26.78-4.12 12.18-4.12-12.18-10.9-26.78H4.89zM346.49 69.15h38.38v-3.7h-34.46V36h33.38v-3.7h-33.38V4.68h34.46V1h-38.38zm-64.39-29.7c0 19.28 8.44 30.68 23.46 30.68 13.45 0 21.4-9.06 22.87-24.06h-6.77c-1.58 12.66-7.27 18.12-16.1 18.12-11.39 0-16.49-8.87-16.49-25.13v-11c0-13.73 6.18-22 16.49-22 8.83 0 14.52 5.65 16.1 17.82h6.77C326.86 9 318.61 0 305.56 0c-15.32 0-23.46 11.69-23.46 30.68zm-68.91 29.7h9.32V16.56l3.14 6.33 28 46.26h9.72V1H254v52.08l-3.14-6.33L223.2 1h-10zm-56.84 0h41.43v-10h-30.14v-19.7h28.27v-10h-28.27V11.1h30.14V1h-41.43zm-31 0h13.75V1h-13.77zM62 35.84c0 24.06 9 34.29 24.44 34.29 14.53 0 24-8.48 25.53-28.25H95c-.68 10.23-3.24 13.54-8 13.54s-7.36-2.92-7.36-11.1V25.81c0-8.18 2.75-11.1 7.36-11.1 4.81 0 7.37 3.41 8 13.54h17C110.42 8.77 101.09 0 86.46 0 71.05 0 62 10.23 62 34.28zm-61 9c.79 15.59 12.27 25.33 26.61 25.33 12.76 0 23.26-8.18 23.26-20.36 0-10-5.79-15.49-21.59-22.11-7.46-3.12-9.53-5.45-9.53-8.28 0-3.11 2.85-4.77 5.5-4.77 5.3 0 7.26 4.09 7.85 8.28h17.63C49 9.25 39.35 0 26.1 0c-12.86 0-24 7.69-24 20.06 0 8.58 5.31 15.2 18.36 20.65 10.54 4.39 12.7 6.63 12.7 9.84 0 3.41-3 5-5.69 5-6.28 0-8.74-5.65-8.83-10.72z"/></symbol><symbol viewBox="0 0 447.56 236" id="sim" xmlns="http://www.w3.org/2000/svg"><path d="M330.27 235h3.91v-61.23L358.41 235h4.3l24.22-61.26V235h3.91v-67.61h-5.47l-24.81 62.81-24.92-62.81h-5.37zm-65.45-26.57c0 18.17 8.4 27.54 23.44 27.54s23.45-9.37 23.45-27.54v-41.04h-6.64v43.77c0 12-6.16 18.94-16.81 18.94s-16.9-6.95-16.9-18.94v-43.77h-6.54zM209.54 235h40.54v-8.21h-31.26v-22.2h29.11v-8.21h-29.11V175.6h31.26v-8.21h-40.54zm-62.78-22.42c1.66 15.18 11.82 23.39 25.69 23.39 12.9 0 22.28-7.54 22.28-18.84 0-9.67-4.79-15.56-16.51-20.3l-8.89-3.57c-7.23-2.9-9-5.41-9-8.89 0-4.74 3.81-7.93 9.57-7.93 7.23 0 10.65 4.25 11.63 11.31h12.21c-1.95-13.53-10.06-21.36-23.25-21.36s-22.37 7.73-22.37 18.17c0 8.12 4.49 14.11 16.7 19l6.94 2.7c8.21 3.19 10.35 6.67 10.35 11.31 0 5.31-3.51 8.41-9.67 8.41-7.52 0-12-4.64-13.38-13.44zM84.59 206c0 20.78 9.77 30 25.2 30S135 226.82 135 206v-38.61h-16.8v44c0 6.76-2.93 10.15-8.41 10.15s-8.4-3.39-8.4-10.15v-44h-16.8zM3.81 235h16.12v-31.86l2.15 8.7 8.6 23.16H42.2l8.6-23.19 2.15-8.7V235h16.12v-67.61H51.39L40.54 194l-4.1 12-4.1-12-10.85-26.61H3.81zM421.46 120.9l-21.1-36.72h-4.59l23.74 41.07v26.57h3.91v-26.57l23.74-41.07h-4.4zm-74-3.48V90.17h17.39c9.87 0 14.85 4.35 14.85 12.37v2.51c0 8-5 12.37-14.85 12.37zm-6.54 34.4h6.54v-28.41h5l24.32 28.41h8.5l-24.52-28.41h4c14.36 0 21.88-8.7 21.88-19.52 0-13-7.72-19.71-22.76-19.71h-23zm-40 0h9.28V92.39h17.1v-8.21h-43.43v8.21H301zm-74.34-22.42c1.66 15.17 11.82 23.39 25.7 23.39 12.89 0 22.27-7.54 22.27-18.85 0-9.66-4.79-15.55-16.51-20.29l-8.89-3.57c-7.23-2.9-9-5.42-9-8.89 0-4.74 3.81-7.93 9.58-7.93 7.22 0 10.64 4.25 11.62 11.31h12.21c-1.94-13.57-10.05-21.36-23.24-21.36S228 90.94 228 101.38c0 8.12 4.49 14.11 16.71 19l6.93 2.7c8.21 3.19 10.36 6.67 10.36 11.31 0 5.31-3.52 8.4-9.67 8.4-7.53 0-12-4.63-13.39-13.43zm-12.44-45.22h-14v44.16c0 7.92-4.2 12.37-10.75 12.37s-10.74-4.35-10.74-12.37V84.18h-14v39.62c0 19.81 9.08 29 24.71 29s24.72-9.18 24.72-29zm-112.33 67.64h20.52c18.75 0 29.31-9.47 29.31-32.76v-2.7c0-23.2-10.56-32.18-29.31-32.18h-20.52zm17.1-14.4V98.67h5c6.94 0 10.16 3 10.16 11.5v15.66c0 8.41-2.83 11.59-10.16 11.59zm-85.72 14.4H49.3v-36.14l4.89 9.47 17.09 26.67h14.17V84.18H69.33v36l-4.88-9.47-16.9-26.53H33.19zm-31.33 0H18V84.18H1.86zM339.83 68.61H378v-3.67h-34.26V35.75H377v-3.67h-33.26V4.64H378V1h-38.2zm-62.32-29.47c0 19.13 8.4 30.44 23.35 30.44 13.38 0 21.29-9 22.76-23.87h-6.74c-1.57 12.56-7.23 18-16 18-11.34 0-16.42-8.79-16.42-24.93V27.83C284.44 14.21 290.6 6 300.86 6c8.79 0 14.45 5.61 16 17.69h6.74C322.06 8.89 313.85 0 300.86 0c-15.24 0-23.35 11.6-23.35 30.44zm-66.83 29.47H220V16.43l3.12 6.28 27.85 45.9h9.67V1h-9.28v51.66l-3.13-6.28L220.64 1h-10zm-56.75 0h41.23v-10h-30V39.14h28.14v-10h-28.14V11h30V1h-41.23zm-30.2 0h13.68V1h-13.68zm-62.62-33c0 23.87 9 34 24.32 34 14.46 0 23.84-8.41 25.4-28h-16.9C93.25 51.7 90.71 55 86 55s-7.33-2.89-7.33-11V25.61c0-8.12 2.73-11 7.33-11 4.78 0 7.32 3.38 7.91 13.43h16.9C109.27 8.7 100 0 85.43 0 70.09 0 61.11 10.15 61.11 34zM0 44.45c.78 15.46 12.21 25.13 26.47 25.13 12.71 0 23.16-8.12 23.16-20.2 0-10-5.77-15.36-21.49-21.94-7.43-3.09-9.48-5.41-9.48-8.21 0-3.09 2.83-4.74 5.47-4.74 5.28 0 7.23 4.06 7.81 8.22h17.49C47.67 9.18 38.1 0 24.91 0 12.11 0 1.08 7.63 1.08 19.91c0 8.5 5.27 15.07 18.26 20.48 10.46 4.35 12.6 6.57 12.6 9.76 0 3.39-3 4.93-5.66 4.93-6.25 0-8.7-5.6-8.79-10.63zM388.97 32.47h56.2v3.18h-56.2z"/><path d="M415.46 6.27h3.22v55.59h-3.22z"/></symbol><symbol viewBox="0 0 387.84 236" id="smg" xmlns="http://www.w3.org/2000/svg"><path d="M134.2 84v39.87c0 19.94-9 29.18-24.61 29.18S85 143.77 85 123.83V84h13.9v44.45c0 8.07 4.18 12.44 10.69 12.44s10.7-4.47 10.7-12.44V84zm-108-28.2c2.63 0 5.64-1.55 5.64-5 0-3.21-2.14-5.44-12.54-9.82C6.32 35.53 1.07 28.92 1.07 20.36c0-12.35 11-20 23.73-20 13.13 0 22.66 9.24 24.41 22.85H31.8c-.58-4.21-2.53-8.29-7.8-8.29-2.62 0-5.45 1.65-5.45 4.77 0 2.81 2.05 5.15 9.44 8.26C43.66 34.56 49.4 40 49.4 50c0 12.15-10.4 20.32-23 20.32C12.16 70.35.78 60.62 0 45.07h17.41c.1 5.05 2.52 10.69 8.75 10.69zm90.63 132.45c0 14.39-9.24 21.49-19.74 21.49l19.64 25h-15.79l-18.77-25v25H68.66v-68.12h22.75c16.24 0 25.38 7.69 25.38 21.59zm-14 1.07V187c0-5.34-3.41-8.16-8.75-8.16H82.17v18.57H94c5.48.04 8.79-2.78 8.79-8.13zM192 59.36v10h-41V1.3h41v10.12h-29.9V29.7h28v10h-28v19.66zm174.8 5.76v4.25h-39.19V1.3h39.19v4.26h-34.64v26.78h33v4.25h-33v28.53zM37 122.86l4-12.15L51.83 84h17.6v68h-16v-32.1l-2.14 8.76-8.6 23.34H31.22l-8.56-23.3-2.14-8.76V152h-16V84h17.56l10.79 26.75zm83.63-53.48V1.31h13.61v68.07zm-38.31 1C67 70.35 58.06 60.14 58.06 36.12v-1.56C58.06 10.54 67 .33 82.27.33c14.49 0 23.73 8.75 25.28 28.2H90.73C90.14 18.42 87.62 15 82.85 15c-4.57 0-7.29 2.91-7.29 11.08v18.5c0 8.17 2.53 11.08 7.29 11.08s7.2-3.3 7.88-13.51h16.82c-1.55 19.74-10.89 28.2-25.28 28.2zM28.79 180.24c-5.74 0-9.24 3.5-9.24 11.18v18.48c0 7.68 3.5 11.18 9.24 11.18s9.53-3 9.92-9.92h-8.95v-12.74h23.82v36.28h-8.65l-2-5.16a18.34 18.34 0 0 1-14.19 6.13C12 235.67 2 224.48 2 201.54v-1.76c0-22.95 9.92-34.13 26.75-34.13 13.61 0 22.17 7.68 24.79 25.87h-16c-.88-8.36-4.18-11.28-8.75-11.28zm276.26-53V84h6.51v40.52c0 20.23-9.17 28.53-24.15 28.53s-24.15-8.3-24.15-28.53V84h6.52v43.25c0 13.78 6.82 19.87 17.63 19.87s17.64-6.12 17.64-19.91zm-22.85 39.38c15 0 23.15 7.39 23.15 21.3s-8.17 21.2-23.15 21.2h-16v25.57h-6.52v-68.07zm16.24 22.76v-2.92c0-8.75-5.35-13.81-15.75-13.81h-16.53v30.54h16.53c10.4 0 15.75-5.19 15.75-13.81zm-8.07-183c-10.21 0-16.34 8.27-16.34 22v11c0 16.24 5.06 25.09 16.34 25.09 8.75 0 14.39-5.45 15.95-18.09H313c-1.46 15-9.34 24-22.66 24-14.88 0-23.24-11.38-23.24-30.63V31c0-19 8.07-30.64 23.24-30.64 12.93 0 21.1 9 22.66 23.83h-6.71C304.76 12 299.12 6.36 290.37 6.36zM381.94 84h5.9v68h-4.54V93l-22.75 59h-5.65l-22.75-59v59h-4.54V84h5.9l24.22 62.88zm-148.17 0h14.91v8.27h-33.19v20.91h31v8.26h-31v22.37h33.19V152h-42.42V84zm-.19 127.4v-44.78h9.24V208c0 18.48-8.46 27.72-23.92 27.72S195 226.43 195 208v-41.38h9.24v44.74c0 10.21 5.35 16 14.69 16s14.65-5.79 14.65-16zm-56.79-97.74c11.67 4.77 16.44 10.7 16.44 20.42 0 11.38-9.34 19-22.18 19-13.81 0-23.92-8.27-25.57-23.53h12.25c1.36 8.84 5.83 13.51 13.32 13.51 6.13 0 9.63-3.11 9.63-8.46 0-4.67-2.14-8.17-10.31-11.38l-6.9-2.72c-12.16-5-16.63-11-16.63-19.16 0-10.5 9-18.28 22.27-18.28s21.2 7.88 23.14 21.49H180.1c-1-7.1-4.38-11.37-11.58-11.37-5.73 0-9.52 3.2-9.52 8 0 3.5 1.75 6 8.94 9zm-22 52c15.95 0 25.87 11 25.87 31.7v6.71c0 20.72-9.92 31.61-25.87 31.61s-26-10.89-26-31.61v-6.71c.06-20.72 9.98-31.71 26.02-31.71zm13.91 44.25v-17.13c0-10.79-4.86-17-13.91-17-8.65 0-14 5.84-14 15.66v17.21c0 11 5 17 14 17 8.58 0 13.93-5.83 13.93-15.75zm75.15-157V1.3h9.24v68.07h-9.63L218.6 24.8l-3.11-7.53v52.1h-9.24V1.3h9.92l24.59 44.49z"/></symbol></svg>