<svg style="position: absolute; width: 0; height: 0;" width="0" height="0" version="1.1" xmlns="http://www.w3.org/2000/svg" xmlns:xlink="http://www.w3.org/1999/xlink">
<defs>
<symbol id="icon-expand" viewBox="0 0 24 24">
<title>expand</title>
<path class="path1" d="M14.845 10.333l5.488-5.488v5.488h1.667v-8.333h-8.333v1.667h5.488l-5.488 5.488v1.179h1.179zM9.155 13.667l-5.488 5.488v-5.488h-1.667v8.333h8.333v-1.667h-5.488l5.488-5.488v-1.179h-1.179z"></path>
</symbol>
<symbol id="icon-grid" viewBox="0 0 24 24">
<title>grid</title>
<path class="path1" d="M4 4h6.857v6.857h-6.857v-6.857zM4 13.143h6.857v6.857h-6.857v-6.857zM13.143 4h6.857v6.857h-6.857v-6.857zM13.143 13.143h6.857v6.857h-6.857v-6.857z"></path>
</symbol>
<symbol id="icon-list" viewBox="0 0 24 24">
<title>list</title>
<path class="path1" d="M5 5h14v2h-14v-2zM5 9h14v2h-14v-2zM5 13h14v2h-14v-2zM5 17h14v2h-14v-2z"></path>
</symbol>
<symbol id="icon-object" viewBox="0 0 24 24">
<title>object</title>
<path class="path1" d="M3 8.536v6.929c-0.7 0.42-0.936 1.326-0.526 2.036 0.399 0.691 1.265 0.945 1.97 0.592l6.062 3.536c0.065 0.768 0.709 1.372 1.495 1.372s1.43-0.603 1.495-1.372l6.062-3.536c0.704 0.353 1.57 0.099 1.97-0.592 0.41-0.71 0.174-1.615-0.526-2.036v-6.929c0.7-0.42 0.936-1.326 0.526-2.036-0.399-0.691-1.265-0.945-1.97-0.592l-6.062-3.536c-0.065-0.768-0.709-1.372-1.495-1.372s-1.43 0.603-1.495 1.372l-6.062 3.536c-0.704-0.353-1.57-0.099-1.97 0.592-0.41 0.71-0.174 1.615 0.526 2.036zM4.5 8.562c0.008-0.004 0.015-0.009 0.023-0.013l5.496 3.173c-0.013 0.091-0.019 0.183-0.019 0.278 0 0.839 0.517 1.558 1.25 1.855v6.346c-0.040 0.023-0.079 0.048-0.116 0.075l-5.864-3.433c0.018-0.284-0.045-0.577-0.198-0.842-0.141-0.245-0.341-0.435-0.572-0.562v-6.876zM5.27 7.158l5.864-3.433c0.245 0.173 0.544 0.275 0.866 0.275s0.622-0.102 0.866-0.275l5.864 3.433c-0.002 0.031-0.003 0.061-0.003 0.092l-5.496 3.173c-0.339-0.265-0.767-0.423-1.231-0.423s-0.891 0.158-1.231 0.423l-5.496-3.173c-0-0.031-0.001-0.062-0.003-0.092zM12.75 20.201v-6.346c0.733-0.297 1.25-1.015 1.25-1.855 0-0.094-0.007-0.187-0.019-0.278l5.496-3.173c0.008 0.004 0.015 0.009 0.023 0.013v6.876c-0.231 0.128-0.43 0.317-0.572 0.562-0.153 0.265-0.216 0.558-0.198 0.842l-5.864 3.433c-0.038-0.027-0.076-0.051-0.116-0.075z"></path>
</symbol>
<symbol id="icon-search" viewBox="0 0 24 24">
<title>search</title>
<path class="path1" d="M14.2 15.218c-1.286 1.025-2.92 1.639-4.7 1.639-4.142 0-7.5-3.326-7.5-7.429s3.358-7.429 7.5-7.429c4.142 0 7.5 3.326 7.5 7.429 0 1.749-0.611 3.358-1.632 4.627 0.018 0.015 0.036 0.031 0.053 0.048l1.159 1.159c0.559-0.148 1.179-0.006 1.614 0.425l3.319 3.29c0.654 0.648 0.65 1.696-0.005 2.346-0.653 0.647-1.717 0.649-2.366 0.005l-3.319-3.29c-0.443-0.439-0.584-1.061-0.425-1.619l-1.146-1.146c-0.018-0.018-0.035-0.036-0.051-0.056zM9.5 15.206c3.222 0 5.833-2.587 5.833-5.778s-2.612-5.778-5.833-5.778c-3.222 0-5.833 2.587-5.833 5.778s2.612 5.778 5.833 5.778z"></path>
</symbol>
<symbol id="icon-cancel" viewBox="0 0 24 24">
<title>cancel</title>
<path class="path1" d="M17.016 15.609l-3.609-3.609 3.609-3.609-1.406-1.406-3.609 3.609-3.609-3.609-1.406 1.406 3.609 3.609-3.609 3.609 1.406 1.406 3.609-3.609 3.609 3.609zM12 2.016c5.531 0 9.984 4.453 9.984 9.984s-4.453 9.984-9.984 9.984-9.984-4.453-9.984-9.984 4.453-9.984 9.984-9.984z"></path>
</symbol>
<symbol id="icon-close" viewBox="0 0 24 24">
<title>close</title>
<path class="path1" d="M18.984 6.422l-5.578 5.578 5.578 5.578-1.406 1.406-5.578-5.578-5.578 5.578-1.406-1.406 5.578-5.578-5.578-5.578 1.406-1.406 5.578 5.578 5.578-5.578z"></path>
</symbol>
<symbol id="icon-done" viewBox="0 0 24 24">
<title>done</title>
<path class="path1" d="M9 16.219l10.594-10.641 1.406 1.406-12 12-5.578-5.578 1.359-1.406z"></path>
</symbol>
<symbol id="icon-filter_list" viewBox="0 0 24 24">
<title>filter_list</title>
<path class="path1" d="M6 12.984v-1.969h12v1.969h-12zM3 6h18v2.016h-18v-2.016zM9.984 18v-2.016h4.031v2.016h-4.031z"></path>
</symbol>
<symbol id="icon-arrow_down" viewBox="0 0 24 24">
<title>arrow_down</title>
<path class="path1" d="M7.406 7.828l4.594 4.594 4.594-4.594 1.406 1.406-6 6-6-6z"></path>
</symbol>
<symbol id="icon-arrow_left" viewBox="0 0 24 24">
<title>arrow_left</title>
<path class="path1" d="M15.422 16.078l-1.406 1.406-6-6 6-6 1.406 1.406-4.594 4.594z"></path>
</symbol>
<symbol id="icon-arrow_right" viewBox="0 0 24 24">
<title>arrow_right</title>
<path class="path1" d="M8.578 16.359l4.594-4.594-4.594-4.594 1.406-1.406 6 6-6 6z"></path>
</symbol>
<symbol id="icon-arrow_up" viewBox="0 0 24 24">
<title>arrow_up</title>
<path class="path1" d="M7.406 15.422l-1.406-1.406 6-6 6 6-1.406 1.406-4.594-4.594z"></path>
</symbol>
<symbol id="icon-room" viewBox="0 0 24 24">
<title>room</title>
<path class="path1" d="M12 11.484c1.359 0 2.484-1.125 2.484-2.484s-1.125-2.484-2.484-2.484-2.484 1.125-2.484 2.484 1.125 2.484 2.484 2.484zM12 2.016c3.891 0 6.984 3.094 6.984 6.984 0 5.25-6.984 12.984-6.984 12.984s-6.984-7.734-6.984-12.984c0-3.891 3.094-6.984 6.984-6.984z"></path>
</symbol>
<symbol id="icon-person" viewBox="0 0 24 24">
<title>person</title>
<path class="path1" d="M12 14.016c2.672 0 8.016 1.313 8.016 3.984v2.016h-16.031v-2.016c0-2.672 5.344-3.984 8.016-3.984zM12 12c-2.203 0-3.984-1.781-3.984-3.984s1.781-4.031 3.984-4.031 3.984 1.828 3.984 4.031-1.781 3.984-3.984 3.984z"></path>
</symbol>
<symbol id="icon-photo" viewBox="0 0 24 24">
<title>photo</title>
<path class="path1" d="M5.016 17.016h13.969l-4.5-6-3.469 4.5-2.531-3zM21 3c0.984 0 2.016 1.031 2.016 2.016v13.969c0 0.984-1.031 2.016-2.016 2.016h-18c-1.078 0-2.016-0.938-2.016-2.016v-13.969c0-0.984 1.031-2.016 2.016-2.016h18z"></path>
</symbol>
</defs>
</svg>
