<svg xmlns="http://www.w3.org/2000/svg" viewBox="0 0 543.65 69.89"><path d="M72.85 0c15.69 0 25.22 11.07 25.22 32.81v4.37c0 21.75-9.53 32.72-25.22 32.72s-25.31-11-25.31-32.72v-4.37C47.54 11.07 57.07 0 72.85 0m0 57.76c6.91 0 11.21-4.75 11.21-13.59V28.64c0-10.78-3.55-16.41-11.21-16.41-7 0-11.3 4.76-11.3 13.5v15.63c0 10.77 3.45 16.4 11.3 16.4M132.16 0c13.82 0 22.5 9.32 23.63 27.09h-13.45c-.66-10.68-4.11-14.76-9.81-14.76-5.89 0-9.43 4.08-9.43 13.4v18.44c0 9.42 3.54 13.5 9.43 13.5 5.6 0 9.06-3.89 9.81-15h13.45c-1 18-9.62 27.18-23.63 27.18-14.39 0-23.07-9.9-23.07-32.82v-4.12c0-22.72 8.49-32.91 23.07-32.91m58.46 0c15.32 0 24.84 11 24.84 31.65v6.7c0 20.68-9.52 31.55-24.84 31.55S165.68 59 165.68 38.35v-6.7C165.68 11 175.21 0 190.62 0m0 59.9c8.22 0 13.36-5.83 13.36-15.73V27.09c0-10.78-4.67-17-13.36-17-8.31 0-13.45 5.82-13.45 15.63v17.19c0 11 4.76 17 13.45 17M241.8.97l14.38 41.55 3.08 12.14 2.99-12.14L276.64.97h12.98v67.96h-10.09V30.58l.75-14.46-3.64 14.56-12.8 38.25h-9.25L241.8 30.68l-3.64-14.56.74 14.56v38.25h-10.08V.97h12.98zM327.91 0c15 0 24.56 10.87 24.56 30.58v8.74c0 19.68-9.47 30.58-24.56 30.58S303.34 59 303.34 39.32v-8.74c0-19.71 9.53-30.58 24.57-30.58m0 61.65c9.34 0 15.22-6.8 15.22-17.48V25.73c0-10.68-5.88-17.48-15.22-17.48s-15.22 6.8-15.22 17.48v18.44c0 10.68 5.88 17.48 15.22 17.48m30.16-52.43V.97h41.57v8.25h-16.35v59.71h-8.87V9.22h-16.35zm53.8-8.25h6.35v67.96h-6.35zm22.32 38.35v-8.74C434.19 10.39 444 0 458.29 0s24.1 10.39 24.1 30.58v8.74c0 20.19-9.81 30.58-24.1 30.58s-24.1-10.39-24.1-30.58M475.75 42V28c0-14-6.75-22-17.46-22s-17.47 8-17.47 22v14c0 14 6.73 21.94 17.47 21.94S475.75 56 475.75 42M497.79.97h5.33l32.97 55.53 3.17 6.41V.97h4.39v67.96h-5.32l-33.16-56.12-2.99-5.82v61.94h-4.39V.97zM0 .97v67.96h38.67V54.37H15.41V.97H0z"/></svg>