<svg xmlns="http://www.w3.org/2000/svg" viewBox="0 0 447.56 236"><path d="M330.27 235h3.91v-61.23L358.41 235h4.3l24.22-61.26V235h3.91v-67.61h-5.47l-24.81 62.81-24.92-62.81h-5.37zm-65.45-26.57c0 18.17 8.4 27.54 23.44 27.54s23.45-9.37 23.45-27.54v-41.04h-6.64v43.77c0 12-6.16 18.94-16.81 18.94s-16.9-6.95-16.9-18.94v-43.77h-6.54zM209.54 235h40.54v-8.21h-31.26v-22.2h29.11v-8.21h-29.11V175.6h31.26v-8.21h-40.54zm-62.78-22.42c1.66 15.18 11.82 23.39 25.69 23.39 12.9 0 22.28-7.54 22.28-18.84 0-9.67-4.79-15.56-16.51-20.3l-8.89-3.57c-7.23-2.9-9-5.41-9-8.89 0-4.74 3.81-7.93 9.57-7.93 7.23 0 10.65 4.25 11.63 11.31h12.21c-1.95-13.53-10.06-21.36-23.25-21.36s-22.37 7.73-22.37 18.17c0 8.12 4.49 14.11 16.7 19l6.94 2.7c8.21 3.19 10.35 6.67 10.35 11.31 0 5.31-3.51 8.41-9.67 8.41-7.52 0-12-4.64-13.38-13.44zM84.59 206c0 20.78 9.77 30 25.2 30S135 226.82 135 206v-38.61h-16.8v44c0 6.76-2.93 10.15-8.41 10.15s-8.4-3.39-8.4-10.15v-44h-16.8zM3.81 235h16.12v-31.86l2.15 8.7 8.6 23.16H42.2l8.6-23.19 2.15-8.7V235h16.12v-67.61H51.39L40.54 194l-4.1 12-4.1-12-10.85-26.61H3.81zM421.46 120.9l-21.1-36.72h-4.59l23.74 41.07v26.57h3.91v-26.57l23.74-41.07h-4.4zm-74-3.48V90.17h17.39c9.87 0 14.85 4.35 14.85 12.37v2.51c0 8-5 12.37-14.85 12.37zm-6.54 34.4h6.54v-28.41h5l24.32 28.41h8.5l-24.52-28.41h4c14.36 0 21.88-8.7 21.88-19.52 0-13-7.72-19.71-22.76-19.71h-23zm-40 0h9.28V92.39h17.1v-8.21h-43.43v8.21H301zm-74.34-22.42c1.66 15.17 11.82 23.39 25.7 23.39 12.89 0 22.27-7.54 22.27-18.85 0-9.66-4.79-15.55-16.51-20.29l-8.89-3.57c-7.23-2.9-9-5.42-9-8.89 0-4.74 3.81-7.93 9.58-7.93 7.22 0 10.64 4.25 11.62 11.31h12.21c-1.94-13.57-10.05-21.36-23.24-21.36S228 90.94 228 101.38c0 8.12 4.49 14.11 16.71 19l6.93 2.7c8.21 3.19 10.36 6.67 10.36 11.31 0 5.31-3.52 8.4-9.67 8.4-7.53 0-12-4.63-13.39-13.43zm-12.44-45.22h-14v44.16c0 7.92-4.2 12.37-10.75 12.37s-10.74-4.35-10.74-12.37V84.18h-14v39.62c0 19.81 9.08 29 24.71 29s24.72-9.18 24.72-29zm-112.33 67.64h20.52c18.75 0 29.31-9.47 29.31-32.76v-2.7c0-23.2-10.56-32.18-29.31-32.18h-20.52zm17.1-14.4V98.67h5c6.94 0 10.16 3 10.16 11.5v15.66c0 8.41-2.83 11.59-10.16 11.59zm-85.72 14.4H49.3v-36.14l4.89 9.47 17.09 26.67h14.17V84.18H69.33v36l-4.88-9.47-16.9-26.53H33.19zm-31.33 0H18V84.18H1.86zM339.83 68.61H378v-3.67h-34.26V35.75H377v-3.67h-33.26V4.64H378V1h-38.2zm-62.32-29.47c0 19.13 8.4 30.44 23.35 30.44 13.38 0 21.29-9 22.76-23.87h-6.74c-1.57 12.56-7.23 18-16 18-11.34 0-16.42-8.79-16.42-24.93V27.83C284.44 14.21 290.6 6 300.86 6c8.79 0 14.45 5.61 16 17.69h6.74C322.06 8.89 313.85 0 300.86 0c-15.24 0-23.35 11.6-23.35 30.44zm-66.83 29.47H220V16.43l3.12 6.28 27.85 45.9h9.67V1h-9.28v51.66l-3.13-6.28L220.64 1h-10zm-56.75 0h41.23v-10h-30V39.14h28.14v-10h-28.14V11h30V1h-41.23zm-30.2 0h13.68V1h-13.68zm-62.62-33c0 23.87 9 34 24.32 34 14.46 0 23.84-8.41 25.4-28h-16.9C93.25 51.7 90.71 55 86 55s-7.33-2.89-7.33-11V25.61c0-8.12 2.73-11 7.33-11 4.78 0 7.32 3.38 7.91 13.43h16.9C109.27 8.7 100 0 85.43 0 70.09 0 61.11 10.15 61.11 34zM0 44.45c.78 15.46 12.21 25.13 26.47 25.13 12.71 0 23.16-8.12 23.16-20.2 0-10-5.77-15.36-21.49-21.94-7.43-3.09-9.48-5.41-9.48-8.21 0-3.09 2.83-4.74 5.47-4.74 5.28 0 7.23 4.06 7.81 8.22h17.49C47.67 9.18 38.1 0 24.91 0 12.11 0 1.08 7.63 1.08 19.91c0 8.5 5.27 15.07 18.26 20.48 10.46 4.35 12.6 6.57 12.6 9.76 0 3.39-3 4.93-5.66 4.93-6.25 0-8.7-5.6-8.79-10.63zM388.97 32.47h56.2v3.18h-56.2z"/><path d="M415.46 6.27h3.22v55.59h-3.22z"/></svg>