<svg xmlns="http://www.w3.org/2000/svg" viewBox="0 0 447.56 236"><path d="M333.23 235h3.89v-61.23L361.25 235h4.28l24.12-61.26V235h3.89v-67.61h-5.45l-24.7 62.81-24.81-62.81h-5.35zm-66.43-26.54c0 18.17 8.36 27.54 23.34 27.54s23.35-9.37 23.35-27.54v-41.07h-6.62v43.78c0 12-6.12 18.93-16.73 18.93s-16.82-6.95-16.82-18.93v-43.78h-6.52zm-57 26.54h40.37v-8.21H219v-22.2h29v-8.21h-29V175.6h31.13v-8.21H209.8zm-62.25-22.42c1.65 15.21 11.77 23.42 25.58 23.42 12.84 0 22.18-7.54 22.18-18.84 0-9.67-4.77-15.56-16.44-20.3l-8.87-3.57c-7.2-2.9-9-5.41-9-8.89 0-4.74 3.8-7.93 9.53-7.93 7.2 0 10.61 4.25 11.58 11.31h12.16c-2-13.53-10-21.36-23.15-21.36s-22.28 7.73-22.28 18.17c0 8.12 4.48 14.11 16.64 19l6.9 2.7c8.17 3.19 10.31 6.67 10.31 11.31 0 5.31-3.5 8.41-9.63 8.41-7.49 0-12-4.64-13.32-13.44zM84.43 206c0 20.78 9.72 30 25.09 30s25.1-9.18 25.1-30v-38.61h-16.73v44c0 6.76-2.92 10.15-8.37 10.15s-8.36-3.39-8.36-10.15v-44H84.43zM3.79 235h16.05v-31.86l2.14 8.7L30.54 235H42l8.56-23.19 2.14-8.7V235h16v-67.61H51.16L40.37 194l-4.09 12-4.08-12-10.8-26.61H3.79zM247.44 131l11.77-34.21 1.46-5.22 1.33 5.17L273.8 131zm-13.81 20.87h7l5-14.88h30.15l5 14.88h7l-23.41-67.69h-7.49zm-24.12 0h9.24V84.18h-9.24zm-65 0h18.67c18.58 0 29.28-8.89 29.28-31.4v-4.93c0-22.52-10.7-31.31-29.38-31.31h-18.54zM156 142V94.23h9c9.63 0 15.95 5.51 15.95 17.49v14.11c0 10.43-6.12 16.14-15.95 16.14zm-69.74 9.85h41.84v-12.11H99.79V123.6h26.95v-12.17H99.79V96.35h28.31V84.18H86.27zm-82.48 0h16.06v-31.92l2.14 8.7 8.56 23.19H42l8.56-23.19 2.14-8.7v31.89h16V84.18H51.16l-10.79 26.57-4.09 12.08-4.08-12.08-10.8-26.57H3.79zM342.28 68.61h38v-3.67h-34.11V35.75h33.07v-3.67h-33.07V4.64h34.14V1h-38zm-63.81-29.47c0 19.13 8.37 30.44 23.25 30.44 13.32 0 21.2-9 22.66-23.87h-6.71c-1.56 12.56-7.2 18-15.95 18-11.29 0-16.34-8.79-16.34-24.93V27.83C285.38 14.21 291.5 6 301.72 6c8.75 0 14.39 5.61 15.95 17.68h6.71C322.82 8.89 314.65 0 301.72 0c-15.18 0-23.25 11.6-23.25 30.44zm-68.28 29.47h9.24V16.43l3.11 6.28 27.73 45.9h9.62V1h-9.24v51.7l-3.11-6.29L220.11 1h-9.92zm-56.32 0h41v-10h-29.81V39.14h28v-10h-28V11h29.86V1h-41zm-30.73 0h13.61V1h-13.61zm-62.74-33c0 23.87 8.95 34 24.22 34 14.4 0 23.73-8.41 25.29-28H93.08C92.4 51.7 89.87 55 85.2 55s-7.29-2.89-7.29-11V25.61c0-8.12 2.72-11 7.29-11C90 14.59 92.5 18 93.08 28h16.83C108.35 8.7 99.11 0 84.62 0 69.35 0 60.4 10.15 60.4 34zM0 44.45c.78 15.46 12.16 25.13 26.36 25.13 12.64 0 23-8.12 23-20.2 0-10-5.74-15.37-21.4-21.94-7.39-3.09-9.43-5.41-9.43-8.21 0-3.09 2.82-4.74 5.44-4.74 5.26 0 7.2 4.06 7.78 8.22h17.47C47.46 9.18 37.93 0 24.8 0 12.06 0 1.07 7.63 1.07 19.91c0 8.5 5.25 15.07 18.19 20.48C29.67 44.74 31.8 47 31.8 50.15c0 3.38-3 4.93-5.64 4.93-6.22 0-8.65-5.6-8.75-10.63zM391.2 32.47h55.96v3.18H391.2z"/><path d="M417.58 6.27h3.21v55.59h-3.21z"/></svg>