<svg height="48" viewBox="0 0 48 48" width="48" xmlns="http://www.w3.org/2000/svg"><g fill="none" fill-rule="evenodd" transform="translate(15 16.215625)"><path d="m7.39999998.86304822v1.60090788c-1.01461131.10274856-1.95108543.30116914-2.76232497.57362239l-1.66983741-.96408108c1.22050039-.61273635 2.74473203-1.04224396 4.43216238-1.21044919zm1.60000002-.07877596c4.9705627 0 9 2.23857625 9 5s-4.0294373 5.00000004-9 5.00000004c-1.47459395 0-2.8663591-.1970179-4.09466081-.5462567l1.21440367-1.32090115c.8852819.17203012 1.85859068.26715838 2.88025714.26715838 4.0869072 0 7.4000001-1.52223189 7.4000001-3.4000001 0-1.8777682-3.3130929-3.40000009-7.4000001-3.40000009zm-7.53811421 2.26728436 1.41973327.81968338c-.80877583.54499901-1.28161887 1.20364457-1.28161916 1.9130321l-1.5999999.00000016c0-1.00850025.53744039-1.94726386 1.46188579-2.73271564z" fill="#fff"/><path d="m10 4.784375-5 5 5 5" stroke="#fff" stroke-width="1.6" transform="matrix(1 0 0 -1 0 19.56875)"/></g></svg>