<svg height="48" viewBox="0 0 48 48" width="48" xmlns="http://www.w3.org/2000/svg"><path d="m14.6729158 14.6729158c2.3027789-2.3027789 2.3027789-6.04215464-.0002313-8.3451649-2.302726-2.30366787-6.04174492-2.30366787-8.3449336.00046263-2.30366787 2.30272605-2.30366787 6.04174497.00023134 8.34470227 2.30277892 2.3027789 6.04215466 2.3027789 8.34493356 0zm.5358253 1.6671962c-2.9446634 2.379321-7.27559176 2.2007126-10.01212971-.5358253-2.92881519-2.9276178-2.92881519-7.68005752 0-10.60767531 2.92761779-2.92881519 7.68005751-2.92881519 10.60767531 0 2.7365379 2.73653795 2.9151463 7.06746631.5358253 10.01212971l4.2255734 4.2255735-1.1313708 1.1313708zm-8.7087411-5.0400831h8v-1.59999999h-8z" fill="#fff" transform="translate(12 12)"/></svg>