<svg height="48" viewBox="0 0 48 48" width="48" xmlns="http://www.w3.org/2000/svg"><path d="m14.6729158 14.6728869c2.3027789-2.3027789 2.3027789-6.04215465-.0002313-8.34516492-2.302726-2.30366786-6.04174492-2.30366786-8.34493361.00046264-2.30366786 2.30272605-2.30366786 6.04174488.00023134 8.34470228 2.30277893 2.3027789 6.04215467 2.3027789 8.34493357 0zm-4.9729158-4.9728869h-3.2v1.6h3.2v3.2h1.6v-3.2h3.2v-1.6h-3.2v-3.2h-1.6zm5.5087411 6.640112c-2.9446634 2.379321-7.27559176 2.2007126-10.01212971-.5358253-2.92881519-2.9276178-2.92881519-7.68005752 0-10.60767531 2.92761779-2.92881519 7.68005751-2.92881519 10.60767531 0 2.7365379 2.73653795 2.9151463 7.06746631.5358253 10.01212971l4.2255734 4.2255735-1.1313708 1.1313708z" fill="#fff" transform="translate(12 12)"/></svg>