<svg id="Layer_1" data-name="Layer 1" xmlns="http://www.w3.org/2000/svg" xmlns:xlink="http://www.w3.org/1999/xlink" width="140" height="57" viewBox="0 0 140 57"><defs><style>.cls-1{fill:none;}.cls-2{clip-path:url(#clip-path);}.cls-3{fill:#fff;}</style><clipPath id="clip-path"><rect class="cls-1" width="140" height="18"/></clipPath></defs><title>loco-logo-aligned</title><g class="cls-2"><g class="cls-2"><path class="cls-3" d="M18.76,0c4,0,6.49,2.85,6.49,8.45V9.58c0,5.6-2.45,8.42-6.49,8.42s-6.52-2.82-6.52-8.42V8.45C12.24,2.85,14.7,0,18.76,0m0,14.88c1.78,0,2.89-1.22,2.89-3.5v-4c0-2.77-.91-4.22-2.89-4.22-1.8,0-2.91,1.23-2.91,3.48v4c0,2.78.89,4.23,2.91,4.23"/><path class="cls-3" d="M34,0c3.56,0,5.8,2.4,6.09,7H36.65c-.17-2.75-1.06-3.8-2.53-3.8S31.7,4.23,31.7,6.63v4.75c0,2.42.91,3.47,2.43,3.47s2.33-1,2.53-3.85h3.46c-.26,4.63-2.48,7-6.09,7s-5.94-2.55-5.94-8.45V8.47C28.09,2.63,30.28,0,34,0"/><path class="cls-3" d="M49.09,0c3.94,0,6.4,2.83,6.4,8.15V9.87C55.49,15.2,53,18,49.09,18s-6.42-2.8-6.42-8.12V8.15C42.67,2.83,45.12,0,49.09,0m0,15.43c2.12,0,3.44-1.5,3.44-4.05V7c0-2.78-1.2-4.37-3.44-4.37s-3.46,1.5-3.46,4v4.42c0,2.82,1.23,4.38,3.46,4.38"/><polygon class="cls-3" points="62.27 0.25 65.97 10.95 66.77 14.07 67.53 10.95 71.24 0.25 74.58 0.25 74.58 17.75 71.98 17.75 71.98 7.88 72.18 4.15 71.24 7.9 67.94 17.75 65.56 17.75 62.27 7.9 61.33 4.15 61.52 7.9 61.52 17.75 58.92 17.75 58.92 0.25 62.27 0.25"/><path class="cls-3" d="M84.44,0c3.87,0,6.33,2.8,6.33,7.88v2.25c0,5.08-2.45,7.88-6.33,7.88s-6.33-2.8-6.33-7.87V7.88C78.12,2.8,80.57,0,84.44,0m0,15.88c2.41,0,3.92-1.75,3.92-4.5V6.63c0-2.75-1.52-4.5-3.92-4.5s-3.92,1.75-3.92,4.5v4.75c0,2.75,1.52,4.5,3.92,4.5"/><polygon class="cls-3" points="92.21 2.38 92.21 0.25 102.91 0.25 102.91 2.38 98.7 2.38 98.7 17.75 96.42 17.75 96.42 2.38 92.21 2.38"/><rect class="cls-3" x="106.06" y="0.25" width="1.64" height="17.5"/><path class="cls-3" d="M111.81,10.13V7.88c0-5.2,2.53-7.88,6.21-7.88s6.21,2.67,6.21,7.88v2.25c0,5.2-2.53,7.88-6.21,7.88s-6.21-2.68-6.21-7.87m10.7.7V7.2c0-3.6-1.73-5.65-4.5-5.65s-4.5,2.05-4.5,5.65v3.63c0,3.6,1.73,5.65,4.5,5.65s4.5-2.05,4.5-5.65"/><polygon class="cls-3" points="128.19 0.25 129.56 0.25 138.05 14.55 138.87 16.2 138.87 0.25 140 0.25 140 17.75 138.63 17.75 130.09 3.3 129.32 1.8 129.32 17.75 128.19 17.75 128.19 0.25"/><polygon class="cls-3" points="0 0.25 0 17.75 9.96 17.75 9.96 14 3.97 14 3.97 0.25 0 0.25"/></g></g></svg>
