<svg xmlns="http://www.w3.org/2000/svg" viewBox="0 0 140 57">
  <path d="M18.76 0c4 0 6.49 2.85 6.49 8.45v1.13c0 5.6-2.45 8.42-6.49 8.42s-6.52-2.82-6.52-8.42V8.45c0-5.6 2.46-8.45 6.52-8.45m0 14.88c1.78 0 2.89-1.22 2.89-3.5v-4c0-2.77-.91-4.22-2.89-4.22-1.8 0-2.91 1.23-2.91 3.48v4c0 2.78.89 4.23 2.91 4.23M34 0c3.56 0 5.8 2.4 6.09 7h-3.44c-.17-2.75-1.06-3.8-2.53-3.8s-2.42 1-2.42 3.43v4.75c0 2.42.91 3.47 2.43 3.47s2.33-1 2.53-3.85h3.46c-.26 4.63-2.48 7-6.09 7s-5.94-2.55-5.94-8.45V8.47C28.09 2.63 30.28 0 34 0M49.09 0c3.94 0 6.4 2.83 6.4 8.15v1.72c0 5.33-2.49 8.13-6.4 8.13s-6.42-2.8-6.42-8.12V8.15c0-5.32 2.45-8.15 6.42-8.15m0 15.43c2.12 0 3.44-1.5 3.44-4V7c0-2.78-1.2-4.37-3.44-4.37s-3.46 1.5-3.46 4v4.42c0 2.82 1.23 4.38 3.46 4.38M62.27.25l3.7 10.7.8 3.12.76-3.12L71.24.25h3.34v17.5h-2.6V7.88l.2-3.73-.94 3.75-3.3 9.85h-2.38L62.27 7.9l-.94-3.75.19 3.75v9.85h-2.6V.25h3.35zM84.44 0c3.87 0 6.33 2.8 6.33 7.88v2.25c0 5.08-2.45 7.88-6.33 7.88s-6.33-2.8-6.33-7.87V7.88C78.12 2.8 80.57 0 84.44 0m0 15.88c2.41 0 3.92-1.75 3.92-4.5V6.63c0-2.75-1.52-4.5-3.92-4.5s-3.92 1.75-3.92 4.5v4.75c0 2.75 1.52 4.5 3.92 4.5M92.21 2.38V.25h10.7v2.13H98.7v15.37h-2.28V2.38h-4.21zM106.06.25h1.64v17.5h-1.64zM111.81 10.13V7.88c0-5.2 2.53-7.88 6.21-7.88s6.21 2.67 6.21 7.88v2.25c0 5.2-2.53 7.88-6.21 7.88s-6.21-2.68-6.21-7.87m10.7.7V7.2c0-3.6-1.73-5.65-4.5-5.65s-4.5 2.05-4.5 5.65v3.63c0 3.6 1.73 5.65 4.5 5.65s4.5-2.05 4.5-5.65M128.19.25h1.37l8.49 14.3.82 1.65V.25H140v17.5h-1.37L130.09 3.3l-.77-1.5v15.95h-1.13V.25zM0 .25v17.5h9.96V14H3.97V.25H0z" fill="#fff"/>
</svg>
