<svg xmlns="http://www.w3.org/2000/svg" width="208" height="88" viewBox="0 0 208 88">
  <g fill="#FFFFFF" fill-rule="evenodd" transform="translate(50 15.802)">
    <path d="M100.490475,26.7918956 L103.338235,26.7918956 C103.631781,26.7918956 103.704815,26.9385274 103.704815,27.1584752 L103.704815,28.062517 C103.704815,28.3803133 103.485149,28.3803133 103.338235,28.3803133 L100.490475,28.3803133 L100.490475,31.2280731 C100.490475,31.5213368 100.343843,31.5946527 100.124178,31.5946527 L99.2198538,31.5946527 C98.9023394,31.5946527 98.9023394,31.374705 98.9023394,31.2280731 L98.9023394,28.3803133 L96.0545796,28.3803133 C95.7613159,28.3803133 95.688,28.2579321 95.688,28.0137337 L95.688,27.1584752 C95.688,26.9385274 95.7613159,26.7918956 96.0545796,26.7918956 L98.9023394,26.7918956 L98.9023394,23.9438538 C98.9023394,23.6508721 99.0244386,23.5775561 99.2689191,23.5775561 L100.124178,23.5775561 C100.343843,23.5775561 100.490475,23.6508721 100.490475,23.9438538 L100.490475,26.7918956"/>
    <path d="M99.6964073 33.1452846C96.6323655 33.1452846 94.1486475 30.6615666 94.1486475 27.5975248 94.1486475 24.533483 96.6323655 22.049483 99.6964073 22.049483 102.760449 22.049483 105.244449 24.533483 105.244449 27.5975248 105.244449 30.6615666 102.760449 33.1452846 99.6964073 33.1452846L99.6964073 33.1452846zM107.908637 23.3401253C107.908637 23.0739321 107.71999 22.7471123 107.489608 22.6140157L100.115436 18.3571802C99.8847728 18.2240836 99.5077598 18.2240836 99.2770966 18.3571802L91.9029243 22.6148616C91.6725431 22.7479582 91.4838956 23.0744961 91.4838956 23.3406893L91.4841775 31.8549243C91.4841775 32.1211175 91.6728251 32.4479373 91.9034883 32.5810339L99.2776606 36.8378695C99.5083238 36.9706841 99.8853368 36.9706841 100.116 36.8375875L107.48989 32.580188C107.720272 32.4470914 107.908919 32.1205535 107.908919 31.8543603L107.908637 23.3401253 107.908637 23.3401253zM5.20768668 35.7220574C3.8141201 35.7220574 1.83374413 35.4287937.733441253 35.0373995.097848564 34.8174517-.0245326371 34.524188.0487832898 34.0594778L.366861619 32.0791018C.440177546 31.5656084.733441253 31.4189765 1.22240209 31.590141 2.61596867 32.0791018 4.08313316 32.3481149 5.13437076 32.3481149L5.25675196 32.3481149C6.77241775 32.3481149 7.31044386 31.9570026 7.31044386 30.9545483L7.31044386 30.7100679C7.31044386 29.6830809 6.82148303 29.4873838 5.37885117 29.2186527L3.71627154 28.9005744C.855822454 28.3628303 0 26.9447311 0 24.5974935L0 23.9131175C0 22.5195509.366861619 21.492564 1.10030287 20.7833734 2.02944125 19.8787676 3.52057441 19.4631227 5.96566057 19.4631227L6.13682507 19.4631227C7.60370757 19.4631227 9.31535248 19.7321358 10.2932742 20.0989974 10.8067676 20.2944125 10.9043342 20.5634256 10.7577023 21.1990183L10.3420574 22.9839791C10.2442089 23.4484073 9.97547781 23.5707885 9.4374517 23.399624 8.33714883 23.057295 7.31044386 22.8861305 6.21014099 22.8861305L6.11229243 22.8861305C4.47424543 22.8861305 3.9852846 23.2284595 3.9852846 24.1085326L3.9852846 24.3287624C3.9852846 25.1109869 4.32761358 25.3554674 5.5745483 25.5999478L7.43254308 25.9668094C10.2687415 26.5290862 11.2957285 27.3849086 11.2957285 30.3677389L11.2957285 30.9545483C11.2957285 34.181859 9.65768146 35.7220574 5.50123238 35.7220574L5.20768668 35.7220574M19.8243446 35.7220574C17.4283238 35.7220574 15.7902768 35.208564 14.7390392 34.0840104 13.7365849 33.0327728 13.3451906 31.4677598 13.3451906 29.0962715L13.3451906 26.0889086C13.3451906 23.7174204 13.7608355 22.1772219 14.7632898 21.1257023 15.8148094 20.0011488 17.4528564 19.4631227 19.8488773 19.4631227L20.0200418 19.4631227C21.6093055 19.4631227 23.5163655 19.854517 24.8120836 20.538893 25.1789452 20.7345901 25.2765117 20.9545379 25.1056292 21.419248L24.2985901 23.4729399C24.2007415 23.7174204 24.0786423 23.8395196 23.8829452 23.8395196 23.7363133 23.8395196 23.5651488 23.7907363 23.418517 23.7174204 22.3672794 23.2039269 21.3157598 22.8861305 20.1912063 22.8861305L20.0933577 22.8861305C19.0175875 22.8861305 18.3574621 23.1551436 17.9906005 23.7662037 17.6240209 24.3775457 17.5261723 25.2821514 17.5261723 26.675718L17.5261723 28.4116136C17.5261723 29.9030287 17.6485535 30.905483 18.2108303 31.5413577 18.6510078 32.0303185 19.3599164 32.2990496 20.5090026 32.2990496L20.6068512 32.2990496C21.4869243 32.2990496 22.8071749 31.9812533 23.6384648 31.6146736 23.760846 31.5656084 23.8829452 31.5168251 24.029859 31.5168251 24.2252742 31.5168251 24.371906 31.6389243 24.4697546 32.0303185L24.8853995 33.7904648C24.9344648 33.9861619 24.9587154 34.1327937 24.9587154 34.2551749 24.9587154 34.5484386 24.8120836 34.7196031 24.2252742 34.9398329 23.1007206 35.3797285 21.4869243 35.7220574 20.0688251 35.7220574L19.8243446 35.7220574M31.5210548 34.7441358C31.5210548 35.4287937 31.4232063 35.5021097 30.6655144 35.5021097L28.2692115 35.5021097C27.5115196 35.5021097 27.413671 35.4287937 27.413671 34.7441358L27.413671 20.4413264C27.413671 19.7566684 27.5115196 19.6833525 28.2692115 19.6833525L30.6655144 19.6833525C31.4232063 19.6833525 31.5210548 19.7566684 31.5210548 20.4413264L31.5210548 34.7441358M38.069295 28.998423C38.069295 30.0008773 38.1180783 30.978799 38.2159269 31.7367728 38.2649922 32.0791018 38.4361567 32.1769504 38.753953 32.1769504L43.9616397 32.1769504C44.7196136 32.1769504 44.7929295 32.274799 44.7929295 32.9349243L44.7929295 34.7441358C44.7929295 35.3309452 44.7196136 35.5021097 43.9616397 35.5021097L38.069295 35.5021097C35.6732742 35.5021097 34.5729713 34.9886162 34.3775561 32.9349243 34.2306423 31.4435091 34.2063916 29.8297128 34.2063916 28.2161984L34.2063916 26.7247833C34.2063916 25.6732637 34.2306423 24.1330653 34.3530235 22.788282 34.5729713 20.2701619 35.550893 19.6833525 38.142611 19.6833525L43.9861723 19.6833525C44.7683969 19.6833525 44.7929295 19.8054517 44.7929295 20.4413264L44.7929295 22.2747885C44.7929295 22.8615979 44.7683969 23.0085117 43.9861723 23.0085117L38.8027363 23.0085117C38.3625587 23.0085117 38.2159269 23.1551436 38.1916762 23.4974726 38.1671436 23.9864334 38.142611 25.0622037 38.1180783 25.9177441L43.2769817 25.9177441C43.8883238 25.9177441 44.0594883 26.0401253 44.0594883 26.6269347L44.0594883 28.3382977C44.0594883 28.8517911 43.8883238 28.998423 43.2769817 28.998423L38.069295 28.998423M51.2436031 27.2625274L51.1945379 27.2625274 51.1945379 34.6708198C51.1945379 35.3554778 50.9988407 35.5021097 50.3387154 35.5021097L48.2850235 35.5021097C47.6248982 35.5021097 47.3804178 35.3554778 47.3804178 34.6708198L47.3804178 20.4901097C47.3804178 19.8299843 47.6248982 19.6833525 48.2362402 19.6833525L49.3120104 19.6833525C50.094235 19.6833525 50.4856292 19.8054517 50.8767415 20.3677285L56.2555927 28.3873629 56.304376 28.3873629 56.304376 20.5146423C56.304376 19.8299843 56.5491384 19.6833525 57.2092637 19.6833525L59.2629556 19.6833525C59.9230809 19.6833525 60.1184961 19.8299843 60.1184961 20.5146423L60.1184961 34.6953525C60.1184961 35.3554778 59.8740157 35.5021097 59.2629556 35.5021097L58.1871854 35.5021097C57.4046789 35.5021097 57.0135666 35.3554778 56.6224543 34.8174517L51.2436031 27.2625274M69.1174621 35.7220574C66.7214413 35.7220574 65.0833943 35.208564 64.0318747 34.0840104 63.0294204 33.0327728 62.6383081 31.4677598 62.6383081 29.0962715L62.6383081 26.0889086C62.6383081 23.7174204 63.053953 22.1772219 64.0564073 21.1257023 65.1076449 20.0011488 66.7459739 19.4631227 69.1419948 19.4631227L69.3131593 19.4631227C70.902141 19.4631227 72.809201 19.854517 74.105201 20.538893 74.4717807 20.7345901 74.5696292 20.9545379 74.3984648 21.419248L73.5917076 23.4729399C73.493859 23.7174204 73.3717598 23.8395196 73.1760627 23.8395196 73.0294308 23.8395196 72.8582663 23.7907363 72.7116345 23.7174204 71.6601149 23.2039269 70.6088773 22.8861305 69.4843238 22.8861305L69.3864752 22.8861305C68.310705 22.8861305 67.6505796 23.1551436 67.283718 23.7662037 66.9171384 24.3775457 66.8192898 25.2821514 66.8192898 26.675718L66.8192898 28.4116136C66.8192898 29.9030287 66.941389 30.905483 67.5036658 31.5413577 67.9438433 32.0303185 68.6530339 32.2990496 69.8021201 32.2990496L69.8999687 32.2990496C70.7800418 32.2990496 72.1002924 31.9812533 72.9315822 31.6146736 73.0536815 31.5656084 73.1760627 31.5168251 73.3226945 31.5168251 73.5183916 31.5168251 73.6650235 31.6389243 73.7628721 32.0303185L74.178517 33.7904648C74.2273003 33.9861619 74.2518329 34.1327937 74.2518329 34.2551749 74.2518329 34.5484386 74.105201 34.7196031 73.5183916 34.9398329 72.3935561 35.3797285 70.7800418 35.7220574 69.3619426 35.7220574L69.1174621 35.7220574M80.2860157 28.998423C80.2860157 30.0008773 80.3350809 30.978799 80.4326475 31.7367728 80.4817128 32.0791018 80.6528773 32.1769504 80.9706736 32.1769504L86.1783603 32.1769504C86.9363342 32.1769504 87.0096501 32.274799 87.0096501 32.9349243L87.0096501 34.7441358C87.0096501 35.3309452 86.9363342 35.5021097 86.1783603 35.5021097L80.2860157 35.5021097C77.8899948 35.5021097 76.7896919 34.9886162 76.5942768 32.9349243 76.4473629 31.4435091 76.4231123 29.8297128 76.4231123 28.2161984L76.4231123 26.7247833C76.4231123 25.6732637 76.4473629 24.1330653 76.5697441 22.788282 76.7896919 20.2701619 77.7678956 19.6833525 80.3593316 19.6833525L86.202893 19.6833525C86.9851175 19.6833525 87.0096501 19.8054517 87.0096501 20.4413264L87.0096501 22.2747885C87.0096501 22.8615979 86.9851175 23.0085117 86.202893 23.0085117L81.0194569 23.0085117C80.5795614 23.0085117 80.4326475 23.1551436 80.4083969 23.4974726 80.3838642 23.9864334 80.3593316 25.0622037 80.3350809 25.9177441L85.4937023 25.9177441C86.1050444 25.9177441 86.2762089 26.0401253 86.2762089 26.6269347L86.2762089 28.3382977C86.2762089 28.8517911 86.1050444 28.998423 85.4937023 28.998423L80.2860157 28.998423M14.5120418 14.4632585C14.5120418 14.7322715 14.4223708 14.8436554 14.1970653 14.8436554L13.3440627 14.8436554C13.1198851 14.8436554 12.9853786 14.7322715 12.9853786 14.4632585 12.8494621 10.0380783 12.6932428 5.84074151 12.4462245 1.9098799L12.2885953 1.9098799C11.1882924 5.05287728 9.84097128 9.02744648 8.71895561 11.7466214 8.44853264 12.3960313 8.15667885 12.5316658 7.64036554 12.5316658L7.05637598 12.5316658C6.54034465 12.5316658 6.27133159 12.3960313 6.00090862 11.7466214 4.87889295 9.02744648 3.5315718 5.05287728 2.43126893 1.9098799L2.27392167 1.9098799C1.9817859 5.8841671 1.87040209 10.0380783 1.73448564 14.4632585 1.73448564 14.7322715 1.59997911 14.8436554 1.37608355 14.8436554L.52308094 14.8436554C.297493473 14.8436554.207822454 14.7322715.207822454 14.4632585.387164491 9.99437076.567916449 5.36813577.971154047.98891906 1.01598956.497138381 1.19674151.315258486 1.75760836.315258486L2.63373368.315258486C3.21631332.315258486 3.37394256.361503916 3.62124282 1.03516449 4.74466841 4.08849086 6.13541514 8.10930548 7.30367624 11.1163864L7.41646997 11.1163864C8.58303916 8.10930548 10.0203133 4.08849086 11.0986214 1.03516449 11.3459217.361503916 11.502141.315258486 12.0861305.315258486L12.9622559.315258486C13.5231227.315258486 13.7024648.497138381 13.7487102.98891906 14.0625587 5.32471018 14.3315718 10.0163655 14.5120418 14.4632585M27.2611175 10.1274674C27.2611175 11.790047 26.8793107 13.0262663 26.0480209 13.8575561 25.2398538 14.6426005 24.0501619 15.04753 22.2313629 15.04753 20.412564 15.04753 19.2225901 14.6426005 18.414423 13.8575561 17.5831332 13.0262663 17.2016084 11.790047 17.2016084 10.1274674L17.2016084.698193211C17.2016084.451174935 17.3592376.315258486 17.5614204.315258486L18.3913003.315258486C18.593765.315258486 18.7513943.451174935 18.7513943.698193211L18.7513943 10.0380783C18.7513943 11.2523029 18.9755718 12.1949765 19.5364386 12.8223916 20.0987154 13.4526266 20.9734308 13.7895979 22.2313629 13.7895979 23.4890131 13.7895979 24.3651384 13.4526266 24.9262872 12.8223916 25.487154 12.1949765 25.7113316 11.2523029 25.7113316 10.0380783L25.7113316.698193211C25.7113316.451174935 25.8689608.315258486 26.0711436.315258486L26.9024334.315258486C27.1034883.315258486 27.2611175.451174935 27.2611175.698193211L27.2611175 10.1274674M29.862423 14.3953003C29.6382454 14.3056292 29.5934099 14.2162402 29.6382454 14.0123655L29.8175875 13.2735666C29.862423 13.0696919 30.0197702 12.9800209 30.2887833 13.0942245 31.0969504 13.4526266 32.3331697 13.7895979 33.5445744 13.7895979 35.6786319 13.7895979 36.7109765 12.7789661 36.7109765 11.0484282L36.7109765 10.8014099C36.7109765 9.18507572 36.216376 8.60080418 34.3310287 8.15273107L32.8260783 7.794047C30.6705901 7.27801567 29.6382454 6.22113838 29.6382454 4.15644909L29.6382454 3.81975979C29.6382454 1.39384856 31.3225379.114203655 33.9495039.114203655 35.2288668.114203655 36.2843342.271832898 37.1604595.540845953 37.4743081.630234987 37.5191436.766151436 37.4525953 1.03516449L37.2949661 1.57290862C37.2270078 1.82020888 37.0476658 1.86645431 36.755812 1.77678329 35.7683029 1.4832376 35.0715196 1.37213577 33.9943394 1.37213577 32.1524178 1.37213577 31.2097441 2.22513838 31.2097441 3.84147258L31.2097441 4.06677807C31.2097441 5.68339426 32.0627467 6.13146736 33.5676971 6.49015144L34.9818486 6.82684073C37.4525953 7.41111227 38.2824752 8.37803655 38.2824752 10.5786423L38.2824752 10.9370444C38.2824752 13.6999269 36.5981828 15.04753 33.5894099 15.04753 32.1075822 15.04753 30.8958956 14.8002298 29.862423 14.3953003M43.1966162 14.8436554C42.2759373 14.8436554 41.6930757 14.7105587 41.2667154 14.3493368 40.8386632 13.9906527 40.6376084 13.4066632 40.5696501 12.5536606 40.4571384 11.1163864 40.4354256 9.67939426 40.4354256 8.17444386L40.4354256 6.98446997C40.4354256 5.90869974 40.4802611 3.88743603 40.5927728 2.60525326 40.6593211 1.75225065 40.8849086 1.1682611 41.3115509.809577023 41.7379112.451174935 42.3219008.315258486 43.2414517.315258486L48.4057128.315258486C48.6761358.315258486 48.7426841.429462141 48.7426841.652229765L48.7426841 1.23621932C48.7426841 1.43981201 48.6761358 1.57290862 48.4057128 1.57290862L43.3542454 1.57290862C42.8830496 1.57290862 42.6126266 1.68711227 42.4332846 1.86645431 42.2542245 2.04579634 42.1862663 2.33652219 42.1645535 2.78741514 42.0965953 3.86318538 42.030047 4.89806789 42.030047 6.71545692L47.3505274 6.71545692C47.6206684 6.71545692 47.6872167 6.82684073 47.6872167 7.0524282L47.6872167 7.63641775C47.6872167 7.83747258 47.6206684 7.97338903 47.3505274 7.97338903L42.030047 7.97338903C42.030047 10.0163655 42.030047 11.2523029 42.119718 12.4422768 42.1414308 12.8903499 42.209389 13.1838956 42.3884491 13.3629556 42.5677911 13.5205849 42.8382141 13.5857232 43.3094099 13.5857232L48.4057128 13.5857232C48.6761358 13.5857232 48.7426841 13.7216397 48.7426841 13.9226945L48.7426841 14.5066841C48.7426841 14.7322715 48.6761358 14.8436554 48.4057128 14.8436554L43.1966162 14.8436554M61.1793211 10.1274674C61.1793211 11.790047 60.7975144 13.0262663 59.9662245 13.8575561 59.1580574 14.6426005 57.9683655 15.04753 56.1495666 15.04753 54.3307676 15.04753 53.1407937 14.6426005 52.3326266 13.8575561 51.5013368 13.0262663 51.119812 11.790047 51.119812 10.1274674L51.119812.698193211C51.119812.451174935 51.2771593.315258486 51.479624.315258486L52.3095039.315258486C52.5119687.315258486 52.6695979.451174935 52.6695979.698193211L52.6695979 10.0380783C52.6695979 11.2523029 52.8937755 12.1949765 53.4546423 12.8223916 54.0169191 13.4526266 54.8916345 13.7895979 56.1495666 13.7895979 57.4072167 13.7895979 58.283342 13.4526266 58.8444909 12.8223916 59.4053577 12.1949765 59.6295352 11.2523029 59.6295352 10.0380783L59.6295352.698193211C59.6295352.451174935 59.7871645.315258486 59.9893473.315258486L60.8206371.315258486C61.0216919.315258486 61.1793211.451174935 61.1793211.698193211L61.1793211 10.1274674M78.174517 14.4632585C78.174517 14.7322715 78.083436 14.8436554 77.8592585 14.8436554L77.0062559 14.8436554C76.7820783 14.8436554 76.6464439 14.7322715 76.6464439 14.4632585 76.5119373 10.0380783 76.355718 5.84074151 76.1084178 1.9098799L75.9507885 1.9098799C74.8507676 5.05287728 73.5031645 9.02744648 72.3811488 11.7466214 72.1110078 12.3960313 71.8188721 12.5316658 71.3028407 12.5316658L70.7185692 12.5316658C70.2025379 12.5316658 69.9335248 12.3960313 69.6633838 11.7466214 68.5413681 9.02744648 67.193765 5.05287728 66.0937441 1.9098799L65.9361149 1.9098799C65.6439791 5.8841671 65.5325953 10.0380783 65.3969608 14.4632585 65.3969608 14.7322715 65.2624543 14.8436554 65.0382768 14.8436554L64.1852742 14.8436554C63.9596867 14.8436554 63.8700157 14.7322715 63.8700157 14.4632585 64.0493577 9.99437076 64.2301097 5.36813577 64.6333473.98891906 64.6781828.497138381 64.8589347.315258486 65.4198016.315258486L66.2959269.315258486C66.8787885.315258486 67.0364178.361503916 67.283436 1.03516449 68.4068616 4.08849086 69.7976084 8.10930548 70.9658695 11.1163864L71.0786632 11.1163864C72.2455144 8.10930548 73.6825065 4.08849086 74.7610966 1.03516449 75.0081149.361503916 75.1643342.315258486 75.7486057.315258486L76.6244491.315258486C77.1855979.315258486 77.3660679.497138381 77.4109034.98891906 77.724752 5.32471018 77.993765 10.0163655 78.174517 14.4632585M87.1895561 7.88371802C87.1895561 9.97265796 87.3471854 11.7466214 88.200188 12.7572533 88.7624648 13.4066632 89.5926266 13.7895979 90.8733995 13.7895979 92.2655561 13.7895979 93.1402715 13.3629556 93.6797076 12.6213368 94.4213264 11.5889922 94.5558329 9.85873629 94.5558329 7.88371802L94.5558329 7.27801567C94.5558329 5.38984856 94.4878747 3.59417232 93.6797076 2.51558225 93.1402715 1.79849608 92.2655561 1.37213577 90.8733995 1.37213577 89.5260783 1.37213577 88.649953 1.79849608 88.110517 2.51558225 87.3254726 3.55074674 87.1895561 5.25675196 87.1895561 7.27801567L87.1895561 7.88371802 87.1895561 7.88371802zM96.1952898 8.17444386C96.1952898 10.6466005 95.8351958 12.4639896 94.824564 13.6102559 93.9932742 14.5529295 92.7370339 15.04753 90.8733995 15.04753 89.1211488 15.04753 87.9083342 14.5963551 87.0781723 13.7678851 85.9550287 12.6213368 85.5515091 10.7579843 85.5515091 8.17444386L85.5515091 7.00900261C85.5515091 4.51513316 85.9333159 2.65149869 86.9656606 1.50523238 87.7969504.586809399 89.0546005.114203655 90.8733995.114203655 92.6921984.114203655 93.9484386.586809399 94.7797285 1.50523238 95.8120731 2.65149869 96.1952898 4.49342037 96.1952898 7.00900261L96.1952898 8.17444386 96.1952898 8.17444386zM101.781963 1.57290862C101.242527 1.57290862 100.928961 1.64086684 100.726496 1.84192167 100.547154 2.02408355 100.479196 2.33652219 100.479196 2.85255352L100.479196 6.71545692 105.140397 6.71545692C105.40941 6.71545692 105.477368 6.82684073 105.477368 7.0524282L105.477368 7.63641775C105.477368 7.83747258 105.40941 7.97338903 105.140397 7.97338903L100.479196 7.97338903 100.479196 14.4849713C100.479196 14.7539843 100.389525 14.8436554 100.165629 14.8436554L99.2446684 14.8436554C99.0204909 14.8436554 98.9308198 14.7539843 98.9308198 14.4849713L98.9308198 2.6297859C98.9308198 1.82020888 99.1549974 1.23621932 99.5813577.855822454 100.008.472887728 100.615112.315258486 101.423279.315258486L105.587624.315258486C105.722131.315258486 105.924595.315258486 105.924595.608522193L105.924595 1.28246475C105.924595 1.4832376 105.834924 1.57290862 105.587624 1.57290862L101.781963 1.57290862M4.69419321 55.4189452C4.69419321 56.1033211 4.59662663 56.1766371 3.83865274 56.1766371L1.44263185 56.1766371C.684657963 56.1766371.586809399 56.1033211.586809399 55.4189452L.586809399 41.1158538C.586809399 40.4311958.684657963 40.3578799 1.44263185 40.3578799L3.83865274 40.3578799C4.59662663 40.3578799 4.69419321 40.4311958 4.69419321 41.1158538L4.69419321 55.4189452M11.5794047 47.9373368L11.5306214 47.9373368 11.5306214 55.3453473C11.5306214 56.0300052 11.3349243 56.1766371 10.674799 56.1766371L8.62110705 56.1766371C7.96098172 56.1766371 7.71650131 56.0300052 7.71650131 55.3453473L7.71650131 41.1649191C7.71650131 40.5047937 7.96098172 40.3578799 8.57204178 40.3578799L9.64781201 40.3578799C10.4303185 40.3578799 10.8214308 40.4802611 11.2125431 41.0425379L16.5916762 49.0618903 16.6404595 49.0618903 16.6404595 41.1891697C16.6404595 40.5047937 16.8849399 40.3578799 17.5450653 40.3578799L19.5987572 40.3578799C20.2588825 40.3578799 20.4545796 40.5047937 20.4545796 41.1891697L20.4545796 55.3698799C20.4545796 56.0300052 20.2100992 56.1766371 19.5987572 56.1766371L18.5229869 56.1766371C17.7407624 56.1766371 17.3493681 56.0300052 16.9582559 55.4922611L11.5794047 47.9373368M27.5769399 44.1232167L27.5769399 52.2404178C27.5769399 52.6560627 27.6993211 52.7539112 27.9683342 52.7781619 28.2861305 52.8026945 28.8238747 52.8026945 29.0683551 52.8026945L29.1907363 52.8026945C30.1441253 52.8026945 30.8533159 52.5827467 31.3422768 52.0937859 31.9778695 51.4579112 32.2714151 50.382141 32.2714151 48.6953107L32.2714151 47.6928564C32.2714151 46.0057441 32.0024021 44.9299739 31.4401253 44.3431645 30.9266319 43.8054204 30.168658 43.6587885 29.1662037 43.6587885L29.0441044 43.6587885C28.7505587 43.6587885 28.2615979 43.6830392 27.9925849 43.7075718 27.6747885 43.7321044 27.5769399 43.829671 27.5769399 44.1232167L27.5769399 44.1232167zM27.7726371 56.1766371C26.550235 56.1766371 25.0342872 56.1523864 24.3986945 56.0790705 23.7385692 56.0057546 23.4695561 55.6634256 23.4695561 55.1253995L23.4695561 41.7759791C23.4695561 40.7980574 23.7385692 40.5781097 24.569859 40.4802611 25.5477807 40.3824125 26.8680313 40.3090966 28.4082298 40.3090966L28.7505587 40.3090966C31.5867572 40.3090966 33.4938172 40.8225901 34.740752 42.0204595 35.8898381 43.145295 36.4521149 44.9054413 36.4521149 47.4726266L36.4521149 48.8907258C36.4521149 51.6048251 35.9143708 53.2428721 34.7162193 54.3919582 33.444752 55.6143603 31.4401253 56.1766371 28.2861305 56.1766371L27.7726371 56.1766371 27.7726371 56.1766371zM47.4043864 41.1158538C47.4043864 40.4311958 47.4777023 40.3578799 48.2602089 40.3578799L50.6562298 40.3578799C51.4384543 40.3578799 51.5117702 40.4311958 51.5117702 41.1158538L51.5117702 50.651154C51.5117702 52.7781619 51.120658 54.0250966 50.0203551 55.0520836 49.0424334 55.9321567 47.4777023 56.3968668 45.2773786 56.3968668L44.9838329 56.3968668C42.7101932 56.3968668 41.1942454 55.9321567 40.2163238 55.0520836 39.1160209 54.0250966 38.7491593 52.6072794 38.7491593 50.651154L38.7491593 41.1158538C38.7491593 40.4311958 38.8227572 40.3578799 39.6049817 40.3578799L42.0010026 40.3578799C42.7835091 40.3578799 42.8813577 40.4311958 42.8813577 41.1158538L42.8813577 50.5290548C42.8813577 51.5069765 43.0034569 52.1180366 43.3703185 52.4848982 43.7126475 52.8272272 44.2749243 52.973859 45.0816815 52.973859L45.2040627 52.973859C46.0108198 52.973859 46.5730966 52.8272272 46.9154256 52.4848982 47.2822872 52.1180366 47.4043864 51.5069765 47.4043864 50.5290548L47.4043864 41.1158538M59.0167833 56.3968668C57.6229347 56.3968668 55.6425587 56.1033211 54.5422559 55.7122089 53.9066632 55.4922611 53.784564 55.1987154 53.8578799 54.7342872L54.1756762 52.7539112C54.2489922 52.2404178 54.5422559 52.0937859 55.0314987 52.2649504 56.4250653 52.7539112 57.8919478 53.0229243 58.9431854 53.0229243L59.0655666 53.0229243C60.5815144 53.0229243 61.1192585 52.63153 61.1192585 51.6290757L61.1192585 51.3845953C61.1192585 50.3578903 60.6302977 50.1621932 59.1876658 49.8931802L57.5253681 49.5753838C54.6646371 49.0376397 53.8088146 47.6195405 53.8088146 45.2723029L53.8088146 44.5876449C53.8088146 43.1940783 54.1756762 42.1673734 54.9091175 41.4581828 55.8382559 40.553577 57.329671 40.1379321 59.7744752 40.1379321L59.9456397 40.1379321C61.4128042 40.1379321 63.1241671 40.4069452 64.1020888 40.7735248 64.6155822 40.9692219 64.7134308 41.238235 64.566799 41.8738277L64.151154 43.6587885C64.0533055 44.1232167 63.7842924 44.2453159 63.2462663 44.0741514 62.1462454 43.7321044 61.1192585 43.5609399 60.0189556 43.5609399L59.921389 43.5609399C58.2830601 43.5609399 57.7940992 43.9032689 57.7940992 44.783342L57.7940992 45.0032898C57.7940992 45.7857963 58.1364282 46.0302768 59.3833629 46.2747572L61.2416397 46.6416188C64.0775561 47.2038956 65.1045431 48.059436 65.1045431 51.0422663L65.1045431 51.6290757C65.1045431 54.8563864 63.4664961 56.3968668 59.310047 56.3968668L59.0167833 56.3968668M67.0883029 43.6830392C66.4527102 43.6830392 66.3060783 43.5364073 66.3060783 42.9495979L66.3060783 41.1158538C66.3060783 40.4802611 66.4527102 40.3578799 67.0883029 40.3578799L77.6260574 40.3578799C78.2619321 40.3578799 78.408564 40.4802611 78.408564 41.1158538L78.408564 42.9495979C78.408564 43.5364073 78.2619321 43.6830392 77.6260574 43.6830392L74.4232794 43.6830392 74.4232794 55.3944125C74.4232794 56.0057546 74.2766475 56.1766371 73.5186736 56.1766371L71.1959687 56.1766371C70.4379948 56.1766371 70.2913629 56.0057546 70.2913629 55.3944125L70.2913629 43.6830392 67.0883029 43.6830392M85.4948303 43.4630914C85.2258172 43.4630914 85.0058695 43.4630914 84.8101723 43.487624 84.5656919 43.5118747 84.4190601 43.6097232 84.4190601 43.9275196L84.4190601 47.2772115 86.0083238 47.2772115C86.8396136 47.2772115 87.2795091 47.1793629 87.5730548 46.8860992 87.8663185 46.5925535 87.9886997 46.1281253 87.9886997 45.4434674L87.9886997 45.125671C87.9886997 44.5388616 87.8663185 44.172 87.6218381 43.9032689 87.3285744 43.5851906 86.7905483 43.4630914 85.9592585 43.4630914L85.4948303 43.4630914 85.4948303 43.4630914zM84.4190601 55.4189452C84.4190601 56.1033211 84.3212115 56.1766371 83.5632376 56.1766371L81.1426841 56.1766371C80.4092428 56.1766371 80.3113943 56.1033211 80.3113943 55.4189452L80.3113943 41.2870183C80.3113943 40.6023603 80.5558747 40.3824125 81.1426841 40.3090966 82.0472898 40.211248 83.5144543 40.1379321 85.2012846 40.1379321L85.7147781 40.1379321C88.2331802 40.1379321 89.9200104 40.553577 90.9469974 41.5560313 91.7049713 42.2894726 92.1206162 43.3164595 92.1206162 44.8811906L92.1206162 45.3946841C92.1206162 47.0327311 91.8028198 48.1572846 91.0693786 48.9885744 90.6046684 49.5020679 89.9936084 49.8931802 89.2111018 50.1376606L92.3163133 55.3698799C92.5850444 55.8345901 92.4384125 56.1766371 91.7295039 56.1766371L89.333483 56.1766371C88.5021932 56.1766371 88.2819634 56.0300052 88.0129504 55.4922611L85.5681462 50.7977859C85.4702977 50.6023708 85.3724491 50.5290548 85.1279687 50.5290548L84.4190601 50.5290548 84.4190601 55.4189452 84.4190601 55.4189452zM98.3595196 56.1766371C97.7481775 56.1766371 97.5770131 56.0057546 97.5770131 55.4189452L97.5770131 51.5069765C96.1346632 48.7686266 94.3254517 44.5876449 93.3717807 41.1649191 93.2251488 40.6023603 93.3717807 40.3578799 93.8362089 40.3578799L96.4033943 40.3578799C97.1125849 40.3578799 97.308282 40.3336292 97.4549138 40.9446893 97.992658 43.0229138 98.946329 46.0057441 99.6309869 47.8882715L99.7530862 47.8882715C100.462277 46.0057441 101.34235 43.0229138 101.880094 40.9446893 102.027008 40.3336292 102.222423 40.3578799 102.931614 40.3578799L105.425483 40.3578799C105.889911 40.3578799 106.036543 40.6023603 105.889911 41.1649191 104.936522 44.5876449 103.151561 48.744094 101.70893 51.4824439L101.70893 55.4189452C101.70893 56.0057546 101.538047 56.1766371 100.926705 56.1766371L98.3595196 56.1766371"/>
  </g>
</svg>
