<svg xmlns="http://www.w3.org/2000/svg" viewBox="0 0 88 56" width="88" height="56"><style>.st0{fill:#FFFFFF;}</style><path class="st0" d="M14.6 14c0 .8-.3 1.5-.9 2-.6.5-1.4.7-2.4.7-1.4 0-2.5-.4-3.2-1.2l1.1-1.1c.5.5 1.2.8 2.1.8 1 0 1.6-.4 1.6-1.1 0-.3-.1-.6-.3-.7-.2-.2-.4-.3-.8-.3l-1.1-.2c-1.6-.2-2.4-1-2.4-2.5 0-.8.3-1.5.8-2 .6-.5 1.3-.7 2.3-.7 1.2 0 2.2.3 2.9 1l-1.1 1.1c-.4-.4-1-.6-1.8-.6-.4 0-.8.1-1 .3-.2.2-.4.5-.4.8 0 .3.1.5.3.7.2.2.5.3.8.3l1 .2c.8.1 1.3.3 1.7.7.5.3.8 1 .8 1.8z"/><path class="st0" d="M24.9 15.7c-.7.7-1.5 1-2.5 1-.9 0-1.7-.3-2.4-1-.4-.4-.7-.9-.8-1.5-.1-.4-.1-1-.1-2s0-1.6.1-2c.1-.7.4-1.2.8-1.6.6-.7 1.4-1 2.4-1 .9 0 1.8.3 2.5 1l-1.1 1.2c-.4-.4-.9-.6-1.3-.6-.5 0-.9.2-1.2.6-.2.3-.3 1.1-.3 2.4v1.3c.1.6.2 1 .4 1.2.3.3.6.5 1.1.5.5 0 .9-.2 1.3-.6l1.1 1.1z"/><path class="st0" d="M29.7 16.6h1.7V7.7h-1.7z"/><path class="st0" d="M42.6 16.6h-5.9V7.7h5.9v1.6h-4.1v2.1H42v1.5h-3.5v2.2h4.1z"/><path class="st0" d="M54.3 16.6h-1.5l-3.5-5.4v5.4h-1.8V7.7h1.6l3.5 5.5V7.7h1.7z"/><path class="st0" d="M65.1 15.7c-.7.7-1.5 1-2.5 1-.9 0-1.7-.3-2.4-1-.4-.4-.7-.9-.8-1.5-.1-.4-.1-1-.1-2s0-1.6.1-2c.1-.6.4-1.1.8-1.5.6-.7 1.4-1 2.4-1 .9 0 1.8.3 2.5 1L64 9.9c-.4-.4-.9-.6-1.3-.6-.5 0-.9.2-1.2.6-.2.3-.3 1.1-.3 2.4v1.3c.1.6.2 1 .4 1.2.3.3.6.5 1.1.5.5 0 .9-.2 1.3-.6l1.1 1z"/><path class="st0" d="M75.8 16.6h-5.9V7.7h5.9v1.6h-4.2v2.1h3.6v1.5h-3.6v2.2h4.2z"/><path class="st0" d="M16.6 31.2h-1.7V26l-1.7 3.4H12L10.3 26v5.2H8.5v-8.9h1.7l2.4 4.8 2.3-4.8h1.7z"/><path class="st0" d="M28.6 28.2c0 .9-.3 1.7-.9 2.3-.6.6-1.4.9-2.3.9s-1.8-.4-2.4-1c-.6-.6-.9-1.3-.9-2.3v-5.9h1.7V28c0 .5.1.9.4 1.2.3.3.6.4 1.1.4.5 0 .9-.1 1.1-.4.3-.3.4-.7.4-1.2v-5.8h1.7v6z"/><path class="st0" d="M39.7 28.6c0 .8-.3 1.5-.9 2-.6.5-1.4.7-2.4.7-1.4 0-2.5-.4-3.2-1.2l1.1-1.1c.5.5 1.2.8 2.1.8 1 0 1.6-.4 1.6-1.1 0-.3-.1-.6-.3-.7-.2-.2-.4-.3-.8-.3l-1.1-.2c-1.6-.2-2.4-1-2.4-2.5 0-.8.3-1.5.8-2 .6-.5 1.3-.7 2.3-.7 1.2 0 2.2.3 2.9 1l-1.1 1.1c-.4-.4-1-.6-1.8-.6-.4 0-.8.1-1 .3-.2.2-.4.5-.4.8 0 .3.1.5.3.7.2.2.5.3.8.3l1 .2c.8.1 1.3.3 1.7.7.6.3.8 1 .8 1.8"/><path class="st0" d="M50.7 31.2h-5.9v-8.9h5.9v1.6h-4.1V26h3.5v1.5h-3.5v2.2h4.1z"/><path class="st0" d="M62.3 28.2c0 .9-.3 1.7-.9 2.3-.7.5-1.4.8-2.4.8-.9 0-1.7-.3-2.3-.9-.6-.6-.9-1.3-.9-2.3v-5.9h1.7V28c0 .5.1.9.4 1.2.3.3.6.4 1.1.4.5 0 .9-.1 1.1-.4.3-.3.4-.7.4-1.2v-5.8h1.7v6z"/><path class="st0" d="M75.8 31.2H74V26l-1.7 3.4h-1.1L69.4 26v5.2h-1.7v-8.9h1.7l2.3 4.8 2.3-4.8h1.8z"/><path class="st0" d="M15.7 42.8c0 1.5-.3 2.5-1 3.2-.8.8-1.7 1.2-2.9 1.2-1.1 0-2-.4-2.8-1.1-.5-.5-.8-1.1-.9-1.8-.1-.4-.1-1.2-.1-2.4 0-1.1 0-1.9.1-2.4.1-.7.4-1.3.9-1.8.8-.8 1.7-1.1 2.8-1.1.7 0 1.3.1 1.8.3.5.2.9.5 1.4 1l-1.4 1.4c-.3-.3-.6-.5-.8-.7-.3-.1-.6-.2-1-.2-.5 0-1 .2-1.3.6-.3.3-.4.8-.5 1.4v3c.1.7.2 1.1.5 1.4.3.4.8.5 1.3.5.6 0 1-.2 1.4-.6.3-.3.5-.8.5-1.4v-.4h-1.8v-1.7h3.9v1.6z"/><path class="st0" d="M28.7 39.9c0-.4-.1-.7-.4-1-.3-.3-.6-.4-1.1-.4h-1.9v2.7h1.9c.4 0 .8-.1 1.1-.4.3-.1.4-.5.4-.9zm2.4 7.2h-2.3l-2-4.1h-1.5v4.1h-2V36.7h4.1c1 0 1.9.3 2.5.9.6.6.9 1.3.9 2.2 0 .7-.2 1.3-.6 1.8-.3.4-.8.8-1.3.9l2.2 4.6z"/><path class="st0" d="M43.7 41.9v-1.5c-.1-.6-.2-1.1-.5-1.4-.3-.4-.8-.6-1.3-.6s-1 .2-1.3.6c-.3.3-.4.8-.5 1.4v3c.1.6.2 1.1.5 1.4.3.4.8.6 1.3.6.6 0 1.1-.2 1.4-.7.3-.3.4-1.3.4-2.8m2 0c0 1.1 0 1.9-.1 2.4-.1.7-.4 1.3-.9 1.8-.8.8-1.7 1.1-2.8 1.1-1.1 0-2.1-.4-2.8-1.1-.5-.5-.8-1.1-.9-1.8-.1-.4-.1-1.2-.1-2.4 0-1.1 0-1.9.1-2.4.1-.7.4-1.3.9-1.8.8-.8 1.7-1.1 2.8-1.1 1.1 0 2 .4 2.8 1.1.5.5.8 1.1.9 1.8.1.5.1 1.3.1 2.4"/><path class="st0" d="M60.9 43.6c0 1.1-.4 2-1.1 2.6-.7.7-1.6 1-2.7 1s-2-.3-2.7-1c-.7-.7-1.1-1.6-1.1-2.6v-6.8h2v6.8c0 .6.2 1.1.5 1.4.3.3.8.5 1.3.5.6 0 1-.2 1.3-.5.3-.3.5-.8.5-1.4v-6.8h2v6.8z"/><path class="st0" d="M74.2 40c0-.4-.1-.8-.4-1-.3-.3-.6-.4-1.1-.4h-1.9v2.8h1.9c.5 0 .8-.1 1.1-.4.2-.2.4-.6.4-1m2 0c0 .9-.3 1.7-.9 2.3-.6.6-1.5 1-2.5 1h-2v3.9h-2V36.7h4c1 0 1.9.3 2.5 1 .6.6.9 1.4.9 2.3"/></svg>