<?xml version="1.0" encoding="utf-8"?>
<!-- Generator: Adobe Illustrator 16.0.0, SVG Export Plug-In . SVG Version: 6.00 Build 0)  -->
<!DOCTYPE svg PUBLIC "-//W3C//DTD SVG 1.1//EN" "http://www.w3.org/Graphics/SVG/1.1/DTD/svg11.dtd">
<svg version="1.1" id="Layer_1" xmlns="http://www.w3.org/2000/svg" xmlns:xlink="http://www.w3.org/1999/xlink" x="0px" y="0px"
	 width="208px" height="88px" viewBox="0 0 208 88" enable-background="new 0 0 208 88" xml:space="preserve">
<g id="Symbols">
	<g id="Menu-_x5B_overImage_x5D_">
		<g id="Group-9">
			<g id="Group-3" transform="translate(1.000000, 49.000000)">
				<g id="Clip-2">
				</g>
				<defs>
					<filter id="Adobe_OpacityMaskFilter" filterUnits="userSpaceOnUse" x="50.04" y="6.816" width="106.847" height="16.647">
						<feColorMatrix  type="matrix" values="1 0 0 0 0  0 1 0 0 0  0 0 1 0 0  0 0 0 1 0"/>
					</filter>
				</defs>
				<mask maskUnits="userSpaceOnUse" x="50.04" y="6.816" width="106.847" height="16.647" id="mask-2_1_">
					<g filter="url(#Adobe_OpacityMaskFilter)">
						<polygon id="path-1_1_" fill="#FFFFFF" points="50.04,23.464 156.889,23.464 156.889,6.816 50.04,6.816 						"/>
					</g>
				</mask>
				<path id="Fill-1" mask="url(#mask-2_1_)" fill="#FEFEFE" d="M50.04,23.232h4.399v-7.631l0.587,2.082l2.346,5.549h3.146
					l2.347-5.549l0.586-2.082v7.631h4.399V7.048h-4.826l-2.96,6.358l-1.121,2.891l-1.12-2.891l-2.959-6.358H50.04V23.232z
					 M72.146,16.297c0,4.971,2.666,7.167,6.88,7.167c4.211,0,6.88-2.196,6.88-7.167V7.048h-4.588v10.521
					c0,1.617-0.799,2.428-2.292,2.428c-1.493,0-2.294-0.811-2.294-2.428V7.048h-4.586V16.297z M89.45,17.868
					c0.454,3.631,3.229,5.596,7.015,5.596c3.52,0,6.08-1.804,6.08-4.509c0-2.312-1.308-3.723-4.507-4.855l-2.428-0.854
					c-1.973-0.694-2.452-1.296-2.452-2.128c0-1.134,1.04-1.896,2.612-1.896c1.973,0,2.907,1.017,3.173,2.704h3.334
					c-0.533-3.237-2.746-5.11-6.347-5.11c-3.626,0-6.105,1.852-6.105,4.348c0,1.943,1.226,3.375,4.56,4.555l1.893,0.648
					c2.24,0.762,2.826,1.595,2.826,2.703c0,1.271-0.96,2.012-2.639,2.012c-2.054,0-3.28-1.109-3.653-3.214H89.45z M106.518,23.232
					h11.065v-1.965h-8.532v-5.318h7.945v-1.965h-7.945V9.014h8.532V7.048h-11.065V23.232z M122.143,16.876
					c0,4.345,2.295,6.588,6.4,6.588s6.398-2.243,6.398-6.588V7.048h-1.812v10.474c0,2.867-1.68,4.533-4.586,4.533
					s-4.613-1.666-4.613-4.533V7.048h-1.787V16.876z M140.354,23.232h1.067V8.574l6.613,14.658h1.173l6.613-14.658v14.658h1.066
					V7.048h-1.494l-6.771,15.029l-6.799-15.029h-1.469V23.232L140.354,23.232z"/>
			</g>
			<path id="Fill-4" fill="#FEFEFE" d="M51.04,52.324h4.399v-7.631l0.587,2.082l2.346,5.549h3.146l2.347-5.549l0.586-2.082v7.631
				h4.399V36.14h-4.826l-2.96,6.358l-1.121,2.891l-1.12-2.891l-2.959-6.358H51.04V52.324z M73.652,52.324h11.466v-2.891h-7.761
				v-3.86h7.387V42.66h-7.387v-3.606h7.761V36.14H73.652V52.324z M92.771,49.965v-11.42h2.452c2.642,0,4.375,1.318,4.375,4.185
				v3.375c0,2.496-1.681,3.859-4.375,3.859H92.771z M89.624,52.324h5.12c5.093,0,8.026-2.127,8.026-7.516V43.63
				c0-5.387-2.934-7.491-8.054-7.491h-5.093L89.624,52.324L89.624,52.324z M107.438,52.324h2.533V36.14h-2.533V52.324z
				 M114.05,52.324h1.921l1.359-3.561h8.266l1.36,3.561h1.919l-6.398-16.185h-2.054L114.05,52.324z M117.837,47.33l3.226-8.185
				l0.4-1.248l0.374,1.248l3.226,8.185H117.837z"/>
			<g id="Group-8">
				<g id="Clip-7">
				</g>
				<defs>
					<filter id="Adobe_OpacityMaskFilter_1_" filterUnits="userSpaceOnUse" x="50" y="16" width="104.262" height="16.646">
						<feColorMatrix  type="matrix" values="1 0 0 0 0  0 1 0 0 0  0 0 1 0 0  0 0 0 1 0"/>
					</filter>
				</defs>
				<mask maskUnits="userSpaceOnUse" x="50" y="16" width="104.262" height="16.646" id="mask-4_1_">
					<g filter="url(#Adobe_OpacityMaskFilter_1_)">
						<polygon id="path-3_1_" fill="#FFFFFF" points="154.262,16 50,16 50,24.323 50,32.646 154.262,32.646 						"/>
					</g>
				</mask>
				<path id="Fill-6" mask="url(#mask-4_1_)" fill="#FEFEFE" d="M50,26.635c0.213,3.699,3.333,6.011,7.227,6.011
					c3.466,0,6.319-1.941,6.319-4.832c0-2.381-1.574-3.676-5.867-5.249c-2.027-0.739-2.586-1.294-2.586-1.964
					c0-0.74,0.773-1.133,1.493-1.133c1.439,0,1.974,0.97,2.133,1.965h4.772C63.013,18.196,60.399,16,56.8,16
					c-3.493,0-6.507,1.827-6.507,4.763c0,2.035,1.44,3.607,4.987,4.901c2.854,1.041,3.44,1.572,3.44,2.335
					c0,0.809-0.828,1.179-1.547,1.179c-1.706,0-2.373-1.341-2.399-2.543H50z M66.559,24.508c0,5.711,2.453,8.138,6.64,8.138
					c3.947,0,6.507-2.011,6.933-6.705H75.52c-0.188,2.428-0.881,3.214-2.161,3.214c-1.307,0-2-0.694-2-2.635v-4.393
					c0-1.942,0.747-2.636,2-2.636c1.306,0,2,0.809,2.161,3.213h4.612C79.706,18.081,77.172,16,73.199,16
					c-4.187,0-6.64,2.428-6.64,8.138V24.508z M83.758,32.416h3.734V16.232h-3.734V32.416z M92.185,32.416h11.252v-2.382h-8.186
					v-4.669h7.679v-2.382h-7.679v-4.346h8.186v-2.404H92.185V32.416z M107.622,32.416h2.535V19.931l0.853,1.502l7.6,10.982h2.642
					V16.232h-2.533v12.369l-0.854-1.503l-7.521-10.866h-2.721V32.416z M126.342,25.364c0,4.578,2.295,7.282,6.374,7.282
					c3.652,0,5.813-2.149,6.214-5.709h-1.841c-0.428,3.005-1.974,4.3-4.373,4.3c-3.093,0-4.479-2.104-4.479-5.965v-2.613
					c0-3.259,1.682-5.225,4.479-5.225c2.399,0,3.945,1.342,4.373,4.232h1.841c-0.428-3.538-2.668-5.665-6.214-5.665
					c-4.159,0-6.374,2.775-6.374,7.283V25.364z M143.835,32.416h10.427v-0.879h-9.359v-6.982h9.065v-0.878h-9.065V17.11h9.359
					v-0.878h-10.427V32.416z"/>
			</g>
		</g>
	</g>
</g>
</svg>
