<?xml version="1.0" encoding="utf-8"?>
<!-- Generator: Adobe Illustrator 21.1.0, SVG Export Plug-In . SVG Version: 6.00 Build 0)  -->
<svg version="1.1" id="Layer_1" xmlns="http://www.w3.org/2000/svg" xmlns:xlink="http://www.w3.org/1999/xlink" x="0px" y="0px"
	 viewBox="0 0 272 120" style="enable-background:new 0 0 272 120;" xml:space="preserve">
<style type="text/css">
	.st0{fill:#FFFFFF;}
</style>
<g transform="translate(50 15.802)">
	<path class="st0" d="M143.9,42.4h3.5c0.4,0,0.5,0.2,0.5,0.5V44c0,0.4-0.3,0.4-0.5,0.4h-3.5v3.5c0,0.4-0.2,0.5-0.5,0.5h-1.1
		c-0.4,0-0.4-0.3-0.4-0.5v-3.5h-3.5c-0.4,0-0.5-0.2-0.5-0.5v-1.1c0-0.3,0.1-0.5,0.5-0.5h3.5v-3.5c0-0.4,0.2-0.5,0.5-0.5h1.1
		c0.3,0,0.5,0.1,0.5,0.5V42.4"/>
	<path class="st0" d="M142.9,50.3c-3.8,0-6.9-3.1-6.9-6.9c0-3.8,3.1-6.9,6.9-6.9s6.9,3.1,6.9,6.9C149.8,47.2,146.7,50.3,142.9,50.3
		L142.9,50.3z M153.1,38.1c0-0.3-0.2-0.7-0.5-0.9l-9.2-5.3c-0.3-0.2-0.8-0.2-1,0l-9.2,5.3c-0.3,0.2-0.5,0.6-0.5,0.9l0,10.6
		c0,0.3,0.2,0.7,0.5,0.9l9.2,5.3c0.3,0.2,0.8,0.2,1,0l9.2-5.3c0.3-0.2,0.5-0.6,0.5-0.9L153.1,38.1L153.1,38.1z M25.4,53.5
		c-1.7,0-4.2-0.4-5.6-0.9C19,52.4,18.9,52,19,51.4l0.4-2.5c0.1-0.6,0.5-0.8,1.1-0.6c1.7,0.6,3.6,0.9,4.9,0.9h0.2
		c1.9,0,2.6-0.5,2.6-1.7v-0.3c0-1.3-0.6-1.5-2.4-1.9L23.5,45c-3.6-0.7-4.6-2.4-4.6-5.4v-0.9c0-1.7,0.5-3,1.4-3.9
		c1.2-1.1,3-1.6,6.1-1.6h0.2c1.8,0,4,0.3,5.2,0.8c0.6,0.2,0.8,0.6,0.6,1.4l-0.5,2.2c-0.1,0.6-0.5,0.7-1.1,0.5
		c-1.4-0.4-2.6-0.6-4-0.6h-0.1c-2,0-2.6,0.4-2.6,1.5v0.3c0,1,0.4,1.3,2,1.6l2.3,0.5c3.5,0.7,4.8,1.8,4.8,5.5v0.7c0,4-2,5.9-7.2,5.9
		H25.4 M43.6,53.5c-3,0-5-0.6-6.3-2c-1.2-1.3-1.7-3.3-1.7-6.2v-3.7c0-2.9,0.5-4.9,1.8-6.2c1.3-1.4,3.3-2.1,6.3-2.1h0.2
		c2,0,4.3,0.5,6,1.3c0.5,0.2,0.6,0.5,0.4,1.1l-1,2.6c-0.1,0.3-0.3,0.5-0.5,0.5c-0.2,0-0.4-0.1-0.6-0.2c-1.3-0.6-2.6-1-4-1h-0.1
		c-1.3,0-2.2,0.3-2.6,1.1c-0.5,0.8-0.6,1.9-0.6,3.6v2.2c0,1.9,0.2,3.1,0.9,3.9c0.5,0.6,1.4,0.9,2.9,0.9h0.1c1.1,0,2.7-0.4,3.8-0.9
		c0.2-0.1,0.3-0.1,0.5-0.1c0.2,0,0.4,0.2,0.5,0.6l0.5,2.2c0.1,0.2,0.1,0.4,0.1,0.6c0,0.4-0.2,0.6-0.9,0.9c-1.4,0.5-3.4,1-5.2,1H43.6
		 M58.1,52.3c0,0.9-0.1,0.9-1.1,0.9h-3c-0.9,0-1.1-0.1-1.1-0.9V34.5c0-0.9,0.1-0.9,1.1-0.9h3c0.9,0,1.1,0.1,1.1,0.9V52.3 M66.2,45.1
		c0,1.2,0.1,2.5,0.2,3.4c0.1,0.4,0.3,0.5,0.7,0.5h6.5c0.9,0,1,0.1,1,0.9v2.3c0,0.7-0.1,0.9-1,0.9h-7.3c-3,0-4.3-0.6-4.6-3.2
		c-0.2-1.9-0.2-3.9-0.2-5.9v-1.9c0-1.3,0-3.2,0.2-4.9c0.3-3.1,1.5-3.9,4.7-3.9h7.3c1,0,1,0.2,1,0.9v2.3c0,0.7,0,0.9-1,0.9h-6.4
		c-0.5,0-0.7,0.2-0.8,0.6c0,0.6-0.1,1.9-0.1,3h6.4c0.8,0,1,0.2,1,0.9v2.1c0,0.6-0.2,0.8-1,0.8H66.2 M82.6,43L82.6,43l-0.1,9.2
		c0,0.9-0.2,1-1.1,1h-2.6c-0.8,0-1.1-0.2-1.1-1V34.5c0-0.8,0.3-1,1.1-1h1.3c1,0,1.5,0.2,1.9,0.9l6.7,10h0.1v-9.8c0-0.9,0.3-1,1.1-1
		h2.6c0.8,0,1.1,0.2,1.1,1v17.6c0,0.8-0.3,1-1.1,1h-1.3c-1,0-1.5-0.2-1.9-0.9L82.6,43 M104.9,53.5c-3,0-5-0.6-6.3-2
		c-1.2-1.3-1.7-3.3-1.7-6.2v-3.7c0-2.9,0.5-4.9,1.8-6.2c1.3-1.4,3.3-2.1,6.3-2.1h0.2c2,0,4.3,0.5,6,1.3c0.5,0.2,0.6,0.5,0.4,1.1
		l-1,2.6c-0.1,0.3-0.3,0.5-0.5,0.5c-0.2,0-0.4-0.1-0.6-0.2c-1.3-0.6-2.6-1-4-1h-0.1c-1.3,0-2.2,0.3-2.6,1.1
		c-0.5,0.8-0.6,1.9-0.6,3.6v2.2c0,1.9,0.2,3.1,0.9,3.9c0.5,0.6,1.4,0.9,2.9,0.9h0.1c1.1,0,2.7-0.4,3.8-0.9c0.2-0.1,0.3-0.1,0.5-0.1
		c0.2,0,0.4,0.2,0.5,0.6l0.5,2.2c0.1,0.2,0.1,0.4,0.1,0.6c0,0.4-0.2,0.6-0.9,0.9c-1.4,0.5-3.4,1-5.2,1H104.9 M118.7,45.1
		c0,1.2,0.1,2.5,0.2,3.4c0.1,0.4,0.3,0.5,0.7,0.5h6.5c0.9,0,1,0.1,1,0.9v2.3c0,0.7-0.1,0.9-1,0.9h-7.3c-3,0-4.3-0.6-4.6-3.2
		c-0.2-1.9-0.2-3.9-0.2-5.9v-1.9c0-1.3,0-3.2,0.2-4.9c0.3-3.1,1.5-3.9,4.7-3.9h7.3c1,0,1,0.2,1,0.9v2.3c0,0.7,0,0.9-1,0.9h-6.4
		c-0.5,0-0.7,0.2-0.8,0.6c0,0.6-0.1,1.9-0.1,3h6.4c0.8,0,1,0.2,1,0.9v2.1c0,0.6-0.2,0.8-1,0.8H118.7 M36.9,27c0,0.3-0.1,0.5-0.4,0.5
		h-1.1c-0.3,0-0.4-0.1-0.4-0.5c-0.2-5.5-0.4-10.7-0.7-15.6h-0.2c-1.4,3.9-3,8.9-4.4,12.2c-0.3,0.8-0.7,1-1.3,1h-0.7
		c-0.6,0-1-0.2-1.3-1c-1.4-3.4-3.1-8.3-4.4-12.2h-0.2c-0.4,4.9-0.5,10.1-0.7,15.6c0,0.3-0.2,0.5-0.4,0.5h-1.1
		c-0.3,0-0.4-0.1-0.4-0.5c0.2-5.6,0.4-11.3,0.9-16.8c0.1-0.6,0.3-0.8,1-0.8h1.1c0.7,0,0.9,0.1,1.2,0.9c1.4,3.8,3.1,8.8,4.6,12.5h0.1
		c1.5-3.7,3.2-8.7,4.6-12.5c0.3-0.8,0.5-0.9,1.2-0.9H35c0.7,0,0.9,0.2,1,0.8C36.4,15.7,36.7,21.5,36.9,27 M52.8,21.7
		c0,2.1-0.5,3.6-1.5,4.6c-1,1-2.5,1.5-4.7,1.5s-3.7-0.5-4.7-1.5c-1-1-1.5-2.6-1.5-4.6V9.9c0-0.3,0.2-0.5,0.4-0.5h1
		c0.3,0,0.4,0.2,0.4,0.5v11.6c0,1.5,0.3,2.7,1,3.5c0.7,0.8,1.8,1.2,3.4,1.2c1.6,0,2.7-0.4,3.4-1.2c0.7-0.8,1-2,1-3.5V9.9
		c0-0.3,0.2-0.5,0.4-0.5h1c0.3,0,0.4,0.2,0.4,0.5V21.7 M56,27c-0.3-0.1-0.3-0.2-0.3-0.5l0.2-0.9c0.1-0.3,0.3-0.4,0.6-0.2
		c1,0.4,2.5,0.9,4,0.9c2.7,0,3.9-1.3,3.9-3.4v-0.3c0-2-0.6-2.7-3-3.3l-1.9-0.4c-2.7-0.6-4-2-4-4.5v-0.4c0-3,2.1-4.6,5.4-4.6
		c1.6,0,2.9,0.2,4,0.5c0.4,0.1,0.4,0.3,0.4,0.6L65.3,11c-0.1,0.3-0.3,0.4-0.7,0.3c-1.2-0.4-2.1-0.5-3.4-0.5c-2.3,0-3.5,1.1-3.5,3.1
		v0.3c0,2,1.1,2.6,2.9,3l1.8,0.4c3.1,0.7,4.1,1.9,4.1,4.7v0.4c0,3.4-2.1,5.1-5.8,5.1C58.8,27.8,57.3,27.5,56,27 M72.6,27.5
		c-1.1,0-1.9-0.2-2.4-0.6c-0.5-0.4-0.8-1.2-0.9-2.2c-0.1-1.8-0.2-3.6-0.2-5.4v-1.5c0-1.3,0.1-3.9,0.2-5.4c0.1-1.1,0.4-1.8,0.9-2.2
		c0.5-0.4,1.3-0.6,2.4-0.6h6.4c0.3,0,0.4,0.1,0.4,0.4v0.7c0,0.3-0.1,0.4-0.4,0.4h-6.3c-0.6,0-0.9,0.1-1.1,0.4
		c-0.2,0.2-0.3,0.6-0.3,1.1c-0.1,1.3-0.2,2.6-0.2,4.9h6.6c0.3,0,0.4,0.1,0.4,0.4v0.7c0,0.3-0.1,0.4-0.4,0.4h-6.6
		c0,2.5,0,4.1,0.1,5.6c0,0.6,0.1,0.9,0.3,1.1c0.2,0.2,0.6,0.3,1.1,0.3h6.3c0.3,0,0.4,0.2,0.4,0.4v0.7c0,0.3-0.1,0.4-0.4,0.4H72.6
		 M95,21.7c0,2.1-0.5,3.6-1.5,4.6c-1,1-2.5,1.5-4.7,1.5S85,27.3,84,26.3c-1-1-1.5-2.6-1.5-4.6V9.9c0-0.3,0.2-0.5,0.4-0.5h1
		c0.3,0,0.4,0.2,0.4,0.5v11.6c0,1.5,0.3,2.7,1,3.5c0.7,0.8,1.8,1.2,3.4,1.2c1.6,0,2.7-0.4,3.4-1.2c0.7-0.8,1-2,1-3.5V9.9
		c0-0.3,0.2-0.5,0.4-0.5h1c0.3,0,0.4,0.2,0.4,0.5V21.7 M116.1,27c0,0.3-0.1,0.5-0.4,0.5h-1.1c-0.3,0-0.4-0.1-0.4-0.5
		c-0.2-5.5-0.4-10.7-0.7-15.6h-0.2c-1.4,3.9-3,8.9-4.4,12.2c-0.3,0.8-0.7,1-1.3,1h-0.7c-0.6,0-1-0.2-1.3-1
		c-1.4-3.4-3.1-8.3-4.4-12.2h-0.2c-0.4,4.9-0.5,10.1-0.7,15.6c0,0.3-0.2,0.5-0.4,0.5h-1.1c-0.3,0-0.4-0.1-0.4-0.5
		c0.2-5.6,0.4-11.3,0.9-16.8c0.1-0.6,0.3-0.8,1-0.8h1.1c0.7,0,0.9,0.1,1.2,0.9c1.4,3.8,3.1,8.8,4.6,12.5h0.1
		c1.5-3.7,3.2-8.7,4.6-12.5c0.3-0.8,0.5-0.9,1.2-0.9h1.1c0.7,0,0.9,0.2,1,0.8C115.6,15.7,115.9,21.5,116.1,27 M127.3,18.9
		c0,2.6,0.2,4.8,1.3,6.1c0.7,0.8,1.7,1.3,3.3,1.3c1.7,0,2.8-0.5,3.5-1.5c0.9-1.3,1.1-3.4,1.1-5.9v-0.8c0-2.3-0.1-4.6-1.1-5.9
		c-0.7-0.9-1.8-1.4-3.5-1.4c-1.7,0-2.8,0.5-3.4,1.4c-1,1.3-1.1,3.4-1.1,5.9V18.9L127.3,18.9z M138.5,19.2c0,3.1-0.4,5.3-1.7,6.8
		c-1,1.2-2.6,1.8-4.9,1.8c-2.2,0-3.7-0.6-4.7-1.6c-1.4-1.4-1.9-3.7-1.9-7v-1.4c0-3.1,0.5-5.4,1.8-6.8c1-1.1,2.6-1.7,4.9-1.7
		c2.3,0,3.8,0.6,4.9,1.7c1.3,1.4,1.8,3.7,1.8,6.8V19.2L138.5,19.2z M145.5,11c-0.7,0-1.1,0.1-1.3,0.3c-0.2,0.2-0.3,0.6-0.3,1.3v4.8
		h5.8c0.3,0,0.4,0.1,0.4,0.4v0.7c0,0.3-0.1,0.4-0.4,0.4h-5.8v8.1c0,0.3-0.1,0.4-0.4,0.4h-1.1c-0.3,0-0.4-0.1-0.4-0.4V12.3
		c0-1,0.3-1.7,0.8-2.2c0.5-0.5,1.3-0.7,2.3-0.7h5.2c0.2,0,0.4,0,0.4,0.4v0.8c0,0.2-0.1,0.4-0.4,0.4H145.5 M24.7,78
		c0,0.9-0.1,0.9-1.1,0.9h-3c-0.9,0-1.1-0.1-1.1-0.9V60.2c0-0.9,0.1-0.9,1.1-0.9h3c0.9,0,1.1,0.1,1.1,0.9V78 M33.3,68.7L33.3,68.7
		l-0.1,9.2c0,0.9-0.2,1-1.1,1h-2.6c-0.8,0-1.1-0.2-1.1-1V60.3c0-0.8,0.3-1,1.1-1h1.3c1,0,1.5,0.2,1.9,0.9l6.7,10h0.1v-9.8
		c0-0.9,0.3-1,1.1-1h2.6c0.8,0,1.1,0.2,1.1,1v17.6c0,0.8-0.3,1-1.1,1h-1.3c-1,0-1.5-0.2-1.9-0.9L33.3,68.7 M53.2,63.9V74
		c0,0.5,0.2,0.6,0.5,0.7c0.4,0,1.1,0,1.4,0h0.2c1.2,0,2.1-0.3,2.7-0.9c0.8-0.8,1.2-2.1,1.2-4.2v-1.2c0-2.1-0.3-3.4-1-4.2
		c-0.6-0.7-1.6-0.9-2.8-0.9H55c-0.4,0-1,0-1.3,0.1C53.3,63.4,53.2,63.6,53.2,63.9L53.2,63.9z M53.4,78.9c-1.5,0-3.4,0-4.2-0.1
		c-0.8-0.1-1.2-0.5-1.2-1.2V61c0-1.2,0.3-1.5,1.4-1.6c1.2-0.1,2.9-0.2,4.8-0.2h0.4c3.5,0,5.9,0.6,7.5,2.1c1.4,1.4,2.1,3.6,2.1,6.8
		v1.8c0,3.4-0.7,5.4-2.2,6.8c-1.6,1.5-4.1,2.2-8,2.2H53.4L53.4,78.9z M77.9,60.2c0-0.9,0.1-0.9,1.1-0.9h3c1,0,1.1,0.1,1.1,0.9v11.9
		c0,2.6-0.5,4.2-1.9,5.5c-1.2,1.1-3.2,1.7-5.9,1.7h-0.4c-2.8,0-4.7-0.6-5.9-1.7c-1.4-1.3-1.8-3-1.8-5.5V60.2c0-0.9,0.1-0.9,1.1-0.9
		h3c1,0,1.1,0.1,1.1,0.9v11.7c0,1.2,0.2,2,0.6,2.4c0.4,0.4,1.1,0.6,2.1,0.6h0.2c1,0,1.7-0.2,2.1-0.6c0.5-0.5,0.6-1.2,0.6-2.4V60.2
		 M92.3,79.2c-1.7,0-4.2-0.4-5.6-0.9c-0.8-0.3-0.9-0.6-0.9-1.2l0.4-2.5c0.1-0.6,0.5-0.8,1.1-0.6c1.7,0.6,3.6,0.9,4.9,0.9h0.2
		c1.9,0,2.6-0.5,2.6-1.7V73c0-1.3-0.6-1.5-2.4-1.9l-2.1-0.4c-3.6-0.7-4.6-2.4-4.6-5.4v-0.9c0-1.7,0.5-3,1.4-3.9
		c1.2-1.1,3-1.6,6.1-1.6h0.2c1.8,0,4,0.3,5.2,0.8c0.6,0.2,0.8,0.6,0.6,1.4l-0.5,2.2c-0.1,0.6-0.5,0.7-1.1,0.5
		c-1.4-0.4-2.6-0.6-4-0.6h-0.1c-2,0-2.6,0.4-2.6,1.5V65c0,1,0.4,1.3,2,1.6l2.3,0.5c3.5,0.7,4.8,1.8,4.8,5.5v0.7c0,4-2,5.9-7.2,5.9
		H92.3 M102.3,63.4c-0.8,0-1-0.2-1-0.9v-2.3c0-0.8,0.2-0.9,1-0.9h13.1c0.8,0,1,0.2,1,0.9v2.3c0,0.7-0.2,0.9-1,0.9h-4V78
		c0,0.8-0.2,1-1.1,1h-2.9c-0.9,0-1.1-0.2-1.1-1V63.4H102.3 M125.2,63.1c-0.3,0-0.6,0-0.9,0c-0.3,0-0.5,0.2-0.5,0.5v4.2h2
		c1,0,1.6-0.1,1.9-0.5c0.4-0.4,0.5-0.9,0.5-1.8v-0.4c0-0.7-0.2-1.2-0.5-1.5c-0.4-0.4-1-0.5-2.1-0.5H125.2L125.2,63.1z M123.9,78
		c0,0.9-0.1,0.9-1.1,0.9h-3c-0.9,0-1-0.1-1-0.9V60.4c0-0.9,0.3-1.1,1-1.2c1.1-0.1,2.9-0.2,5-0.2h0.6c3.1,0,5.2,0.5,6.5,1.8
		c0.9,0.9,1.5,2.2,1.5,4.1v0.6c0,2-0.4,3.4-1.3,4.5c-0.6,0.6-1.3,1.1-2.3,1.4l3.9,6.5c0.3,0.6,0.2,1-0.7,1h-3c-1,0-1.3-0.2-1.6-0.9
		l-3-5.8c-0.1-0.2-0.2-0.3-0.5-0.3h-0.9V78L123.9,78z M141.2,78.9c-0.8,0-1-0.2-1-0.9v-4.9c-1.8-3.4-4-8.6-5.2-12.9
		c-0.2-0.7,0-1,0.6-1h3.2c0.9,0,1.1,0,1.3,0.7c0.7,2.6,1.9,6.3,2.7,8.6h0.2c0.9-2.3,2-6.1,2.6-8.6c0.2-0.8,0.4-0.7,1.3-0.7h3.1
		c0.6,0,0.8,0.3,0.6,1c-1.2,4.3-3.4,9.4-5.2,12.8V78c0,0.7-0.2,0.9-1,0.9H141.2"/>
</g>
</svg>
