<?xml version="1.0" encoding="utf-8"?>
<!-- Generator: Adobe Illustrator 21.1.0, SVG Export Plug-In . SVG Version: 6.00 Build 0)  -->
<svg version="1.1" id="Layer_1" xmlns="http://www.w3.org/2000/svg" xmlns:xlink="http://www.w3.org/1999/xlink" x="0px" y="0px"
	 viewBox="0 0 272 120" style="enable-background:new 0 0 272 120;" xml:space="preserve">
<style type="text/css">
	.st0{fill:#FEFEFE;}
</style>
<g>
	<path class="st0" d="M71.2,94.7H76v-9.5l0.6,2.6l2.5,6.9h3.4l2.5-6.9l0.6-2.6v9.5h4.7V74.6h-5.2L82,82.5l-1.2,3.6l-1.2-3.6
		l-3.2-7.9h-5.2L71.2,94.7L71.2,94.7z M95,86.1c0,6.2,2.9,8.9,7.4,8.9c4.5,0,7.4-2.7,7.4-8.9V74.6h-4.9v13c0,2-0.9,3-2.5,3
		c-1.6,0-2.5-1-2.5-3v-13H95L95,86.1L95,86.1z M113.6,88.1c0.5,4.5,3.5,6.9,7.5,6.9c3.8,0,6.5-2.2,6.5-5.6c0-2.9-1.4-4.6-4.8-6
		l-2.6-1.1c-2.1-0.9-2.6-1.6-2.6-2.6c0-1.4,1.1-2.3,2.8-2.3c2.1,0,3.1,1.3,3.4,3.4h3.6c-0.6-4-3-6.3-6.8-6.3c-3.9,0-6.6,2.3-6.6,5.4
		c0,2.4,1.3,4.2,4.9,5.6l2,0.8c2.4,0.9,3,2,3,3.4c0,1.6-1,2.5-2.8,2.5c-2.2,0-3.5-1.4-3.9-4L113.6,88.1L113.6,88.1z M131.9,94.7
		h11.9v-2.4h-9.2v-6.6h8.5v-2.4h-8.5v-6.2h9.2v-2.4h-11.9V94.7L131.9,94.7z M148.7,86.8c0,5.4,2.5,8.2,6.9,8.2
		c4.4,0,6.9-2.8,6.9-8.2V74.6h-1.9v13c0,3.6-1.8,5.6-4.9,5.6s-5-2.1-5-5.6v-13h-1.9L148.7,86.8L148.7,86.8z M168.3,94.7h1.1V76.5
		l7.1,18.2h1.3l7.1-18.2v18.2h1.1V74.6h-1.6l-7.3,18.6l-7.3-18.6h-1.6L168.3,94.7L168.3,94.7z"/>
	<path class="st0" d="M71.2,70H76v-9.5l0.6,2.6l2.5,6.9h3.4l2.5-6.9l0.6-2.6V70h4.7V50h-5.2L82,57.8l-1.2,3.6l-1.2-3.6L76.4,50h-5.2
		V70L71.2,70z M95.5,70h12.3v-3.6h-8.3v-4.8h7.9v-3.6h-7.9v-4.5h8.3V50H95.5V70L95.5,70z M116.1,67.1V52.9h2.6
		c2.8,0,4.7,1.6,4.7,5.2v4.2c0,3.1-1.8,4.8-4.7,4.8L116.1,67.1L116.1,67.1z M112.7,70h5.5c5.5,0,8.6-2.6,8.6-9.3v-1.5
		c0-6.7-3.2-9.3-8.7-9.3h-5.5L112.7,70L112.7,70z M131.9,70h2.7V50h-2.7V70L131.9,70z M139,70h2.1l1.5-4.4h8.9l1.5,4.4h2.1L148,50
		h-2.2L139,70L139,70z M143,63.8l3.5-10.1l0.4-1.5l0.4,1.5l3.5,10.1H143z M70.1,38.2c0.2,4.6,3.6,7.5,7.8,7.5c3.7,0,6.8-2.4,6.8-6
		c0-3-1.7-4.6-6.3-6.5c-2.2-0.9-2.8-1.6-2.8-2.4c0-0.9,0.8-1.4,1.6-1.4c1.5,0,2.1,1.2,2.3,2.4h5.1c-0.5-4-3.3-6.7-7.2-6.7
		c-3.8,0-7,2.3-7,5.9c0,2.5,1.5,4.5,5.4,6.1c3.1,1.3,3.7,1.9,3.7,2.9c0,1-0.9,1.5-1.7,1.5c-1.8,0-2.5-1.7-2.6-3.2H70.1L70.1,38.2z
		 M87.9,35.5c0,7.1,2.6,10.1,7.1,10.1c4.2,0,7-2.5,7.5-8.3h-5c-0.2,3-0.9,4-2.3,4c-1.4,0-2.2-0.9-2.2-3.3v-5.4
		c0-2.4,0.8-3.3,2.2-3.3c1.4,0,2.1,1,2.3,4h5c-0.5-5.7-3.2-8.3-7.5-8.3c-4.5,0-7.1,3-7.1,10.1V35.5L87.9,35.5z M106.4,45.4h4V25.3
		h-4C106.4,25.3,106.4,45.4,106.4,45.4z M115.5,45.4h12.1v-3h-8.8v-5.8h8.3v-3h-8.3v-5.4h8.8v-3h-12.1L115.5,45.4L115.5,45.4z
		 M132.1,45.4h2.7V29.9l0.9,1.9l8.2,13.6h2.8V25.3H144v15.3l-0.9-1.9L135,25.3h-2.9L132.1,45.4L132.1,45.4z M152.2,36.6
		c0,5.7,2.5,9,6.9,9c3.9,0,6.2-2.7,6.7-7.1h-2c-0.5,3.7-2.1,5.3-4.7,5.3c-3.3,0-4.8-2.6-4.8-7.4v-3.2c0-4,1.8-6.5,4.8-6.5
		c2.6,0,4.2,1.7,4.7,5.2h2c-0.5-4.4-2.9-7-6.7-7c-4.5,0-6.9,3.4-6.9,9V36.6L152.2,36.6z M171,45.4h11.2v-1.1h-10.1v-8.7h9.7v-1.1
		h-9.7v-8.1h10.1v-1.1H171V45.4z"/>
	<polygon class="st0" points="185.4,35.6 201.9,35.6 201.9,34.6 185.4,34.6 	"/>
	<polygon class="st0" points="193.2,43.3 194.1,43.3 194.1,26.9 193.2,26.9 	"/>
</g>
</svg>
