<?xml version="1.0" encoding="utf-8"?>
<!-- Generator: Adobe Illustrator 21.1.0, SVG Export Plug-In . SVG Version: 6.00 Build 0)  -->
<svg version="1.1" id="Layer_1" xmlns="http://www.w3.org/2000/svg" xmlns:xlink="http://www.w3.org/1999/xlink" x="0px" y="0px"
	 viewBox="0 0 272 120" style="enable-background:new 0 0 272 120;" xml:space="preserve">
<style type="text/css">
	.st0{fill:#FFFFFF;}
</style>
<g>
	<polyline id="Fill-1" class="st0" points="110.4,92.1 113.2,95 124.9,95 124.9,92.1 113.2,92.1 113.2,83.4 124.9,83.4 124.9,80.4 
		110.4,80.4 110.4,92.1 	"/>
	<polyline id="Fill-2" class="st0" points="110.4,43.5 110.4,58 113.2,58 113.2,46.4 122,46.4 122,58 124.9,58 124.9,46.4 122,43.5 
		110.4,43.5 	"/>
	<polyline id="Fill-3" class="st0" points="110.4,62 110.4,76.5 113.2,76.5 113.2,64.9 122,64.9 122,76.5 124.9,76.5 124.9,64.9 
		122,62 110.4,62 	"/>
	<polygon id="Fill-4" class="st0" points="116.1,89.1 124.9,89.1 124.9,86.2 116.1,86.2 	"/>
	<polygon id="Fill-5" class="st0" points="147.1,27.9 150,27.9 150,25 147.1,25 	"/>
	<polygon id="Fill-6" class="st0" points="147.1,39.6 150,39.6 150,30.9 147.1,30.9 	"/>
	<polygon id="Fill-7" class="st0" points="152.9,52.2 161.6,52.2 161.6,49.3 152.9,49.3 	"/>
	<polyline id="Fill-8" class="st0" points="110.4,27.9 110.4,33.8 122,33.8 122,36.6 110.4,36.6 110.4,39.6 124.9,39.6 124.9,30.9 
		113.2,30.9 113.2,27.9 124.9,27.9 124.9,25 113.2,25 110.4,27.9 	"/>
	<polyline id="Fill-9" class="st0" points="161.6,58 161.6,55.1 150,55.1 150,46.4 161.6,46.4 161.6,43.5 147.1,43.5 147.1,55.1 
		150,58 161.6,58 	"/>
	<polygon id="Fill-10" class="st0" points="116.1,76.5 119.1,76.5 119.1,67.8 116.1,67.8 	"/>
	<polyline id="Fill-11" class="st0" points="147.1,64.9 147.1,70.8 158.8,70.8 158.8,73.6 147.1,73.6 147.1,76.5 161.6,76.5 
		161.6,67.8 150,67.8 150,64.9 161.6,64.9 161.6,62 150,62 147.1,64.9 	"/>
	<polygon id="Fill-12" class="st0" points="152.9,39.6 161.6,39.6 161.6,36.6 152.9,36.6 	"/>
	<polygon id="Fill-13" class="st0" points="152.9,27.9 161.6,27.9 161.6,25 152.9,25 	"/>
	<polygon id="Fill-14" class="st0" points="152.9,33.8 161.6,33.8 161.6,30.9 152.9,30.9 	"/>
	<polyline id="Fill-15" class="st0" points="139.4,92.1 130.6,92.1 130.6,80.4 127.8,80.4 127.8,92.1 130.6,95 142.2,95 142.2,80.4 
		139.4,80.4 139.4,92.1 	"/>
	<polyline id="Fill-16" class="st0" points="147.1,80.4 147.1,95 150,95 150,83.4 158.8,83.4 158.8,95 161.6,95 161.6,83.4 
		158.8,80.4 147.1,80.4 	"/>
	<polygon id="Fill-17" class="st0" points="152.9,95 155.9,95 155.9,86.2 152.9,86.2 	"/>
	<polyline id="Fill-18" class="st0" points="139.4,73.6 130.6,73.6 130.6,62 127.8,62 127.8,73.6 130.6,76.5 142.2,76.5 142.2,62 
		139.4,62 139.4,73.6 	"/>
	<polyline id="Fill-19" class="st0" points="127.8,46.4 127.8,58 142.2,58 142.2,55.1 130.6,55.1 130.6,46.4 142.2,46.4 142.2,43.5 
		130.6,43.5 127.8,46.4 	"/>
	<polyline id="Fill-20" class="st0" points="127.8,27.9 127.8,39.6 142.2,39.6 142.2,36.6 130.6,36.6 130.6,27.9 142.2,27.9 
		142.2,25 130.6,25 127.8,27.9 	"/>
</g>
</svg>
