<?xml version="1.0" encoding="utf-8"?>
<!-- Generator: Adobe Illustrator 19.2.1, SVG Export Plug-In . SVG Version: 6.00 Build 0)  -->
<svg version="1.1" id="Layer_1" xmlns="http://www.w3.org/2000/svg" xmlns:xlink="http://www.w3.org/1999/xlink" x="0px" y="0px"
	 viewBox="0 0 208 88" style="enable-background:new 0 0 208 88;" xml:space="preserve">
<style type="text/css">
	.st0{fill:#FFFFFF;}
</style>
<g id="logo-MSI" transform="translate(507.000000, 17.000000)">
	<path id="Fill-2" class="st0" d="M-357.3,25.5h2.8c0.3,0,0.4,0.1,0.4,0.4v0.9c0,0.3-0.2,0.3-0.4,0.3h-2.8v2.8
		c0,0.3-0.1,0.4-0.4,0.4h-0.9c-0.3,0-0.3-0.2-0.3-0.4V27h-2.8c-0.3,0-0.4-0.1-0.4-0.4v-0.8c0-0.2,0.1-0.4,0.4-0.4h2.8v-2.8
		c0-0.3,0.1-0.4,0.4-0.4h0.8c0.2,0,0.4,0.1,0.4,0.4V25.5z"/>
	<path id="Fill-3" class="st0" d="M-349.5,22c0-0.3-0.2-0.6-0.4-0.7l-7.3-4.3c-0.2-0.1-0.6-0.1-0.8,0l-7.3,4.3
		c-0.2,0.1-0.4,0.5-0.4,0.7l0,8.5c0,0.3,0.2,0.6,0.4,0.7l7.3,4.3c0.2,0.1,0.6,0.1,0.8,0l7.3-4.3c0.2-0.1,0.4-0.5,0.4-0.7V22z
		 M-357.6,31.8c-3,0-5.5-2.5-5.5-5.5c0-3.1,2.5-5.5,5.5-5.5c3,0,5.5,2.5,5.5,5.5C-352.1,29.3-354.6,31.8-357.6,31.8L-357.6,31.8z"/>
	<path id="Fill-4" class="st0" d="M-451.5,34c-1.3,0-3.2-0.3-4.3-0.7c-0.6-0.2-0.7-0.5-0.7-1l0.3-2c0.1-0.5,0.4-0.7,0.8-0.5
		c1.3,0.5,2.7,0.8,3.8,0.8h0.1c1.5,0,2-0.4,2-1.4V29c0-1-0.5-1.2-1.9-1.5l-1.6-0.3c-2.7-0.5-3.6-2-3.6-4.3v-0.7
		c0-1.4,0.4-2.4,1.1-3.1c0.9-0.9,2.3-1.3,4.7-1.3h0.2c1.4,0,3.1,0.3,4,0.6c0.5,0.2,0.6,0.5,0.4,1.1l-0.4,1.8
		c-0.1,0.5-0.4,0.6-0.9,0.4c-1.1-0.3-2-0.5-3.1-0.5h-0.1c-1.6,0-2,0.3-2,1.2v0.2c0,0.8,0.3,1,1.5,1.3l1.8,0.4
		c2.7,0.6,3.7,1.4,3.7,4.4v0.6c0,3.2-1.6,4.8-5.6,4.8H-451.5z"/>
	<path id="Fill-5" class="st0" d="M-437,34c-2.4,0-4-0.5-5-1.6c-1-1.1-1.4-2.6-1.4-5v-3c0-2.4,0.4-3.9,1.4-5c1-1.1,2.6-1.7,5-1.7
		h0.2c1.6,0,3.4,0.4,4.7,1.1c0.4,0.2,0.5,0.4,0.3,0.9l-0.8,2.1c-0.1,0.2-0.2,0.4-0.4,0.4c-0.1,0-0.3,0-0.5-0.1
		c-1-0.5-2.1-0.8-3.2-0.8h-0.1c-1.1,0-1.7,0.3-2.1,0.9c-0.4,0.6-0.5,1.5-0.5,2.9v1.7c0,1.5,0.1,2.5,0.7,3.1c0.4,0.5,1.1,0.8,2.3,0.8
		h0.1c0.9,0,2.2-0.3,3-0.7c0.1,0,0.2-0.1,0.4-0.1c0.2,0,0.3,0.1,0.4,0.5l0.4,1.8c0,0.2,0.1,0.3,0.1,0.5c0,0.3-0.1,0.5-0.7,0.7
		c-1.1,0.4-2.7,0.8-4.1,0.8H-437z"/>
	<path id="Fill-6" class="st0" d="M-425.5,33.3c0,0.7-0.1,0.7-0.8,0.7h-2.3c-0.7,0-0.8-0.1-0.8-0.7V19.2c0-0.7,0.1-0.7,0.8-0.7h2.3
		c0.7,0,0.8,0.1,0.8,0.7V33.3z"/>
	<path id="Fill-7" class="st0" d="M-419.2,27.6c0,1,0.1,1.9,0.2,2.7c0.1,0.3,0.2,0.4,0.6,0.4h5.3c0.8,0,0.9,0.1,0.9,0.7v1.8
		c0,0.6-0.1,0.7-0.9,0.7h-6c-2.5,0-3.6-0.5-3.8-2.5c-0.2-1.5-0.2-3.1-0.2-4.6v-1.5c0-1,0-2.5,0.2-3.9c0.2-2.5,1.2-3.1,3.9-3.1h6
		c0.8,0,0.8,0.1,0.8,0.7V21c0,0.6,0,0.7-0.8,0.7h-5.3c-0.5,0-0.6,0.1-0.6,0.5c0,0.5,0,1.5-0.1,2.4h5.3c0.6,0,0.8,0.1,0.8,0.7V27
		c0,0.5-0.2,0.6-0.8,0.6H-419.2z"/>
	<path id="Fill-8" class="st0" d="M-406.2,25.9L-406.2,25.9l0,7.3c0,0.7-0.2,0.8-0.8,0.8h-2c-0.6,0-0.9-0.1-0.9-0.8V19.2
		c0-0.6,0.2-0.8,0.8-0.8h1c0.8,0,1.1,0.1,1.5,0.7l5.2,7.9h0v-7.7c0-0.7,0.2-0.8,0.9-0.8h2c0.6,0,0.8,0.1,0.8,0.8v13.9
		c0,0.6-0.2,0.8-0.8,0.8h-1c-0.8,0-1.1-0.1-1.5-0.7L-406.2,25.9z"/>
	<path id="Fill-9" class="st0" d="M-388.1,34c-2.4,0-4-0.5-5-1.6c-1-1.1-1.4-2.6-1.4-5v-3c0-2.4,0.4-3.9,1.4-5c1-1.1,2.6-1.7,5-1.7
		h0.2c1.6,0,3.4,0.4,4.7,1.1c0.4,0.2,0.5,0.4,0.3,0.9l-0.8,2.1c-0.1,0.2-0.2,0.4-0.4,0.4c-0.1,0-0.3,0-0.5-0.1
		c-1-0.5-2.1-0.8-3.2-0.8h-0.1c-1.1,0-1.7,0.3-2.1,0.9c-0.4,0.6-0.5,1.5-0.5,2.9v1.7c0,1.5,0.1,2.5,0.7,3.1c0.4,0.5,1.1,0.8,2.3,0.8
		h0.1c0.9,0,2.2-0.3,3-0.7c0.1,0,0.2-0.1,0.4-0.1c0.2,0,0.3,0.1,0.4,0.5l0.4,1.8c0,0.2,0.1,0.3,0.1,0.5c0,0.3-0.1,0.5-0.7,0.7
		c-1.1,0.4-2.7,0.8-4.1,0.8H-388.1z"/>
	<path id="Fill-10" class="st0" d="M-376.6,27.6c0,1,0.1,1.9,0.2,2.7c0.1,0.3,0.2,0.4,0.6,0.4h5.3c0.8,0,0.9,0.1,0.9,0.7v1.8
		c0,0.6-0.1,0.7-0.9,0.7h-6c-2.5,0-3.6-0.5-3.8-2.5c-0.2-1.5-0.2-3.1-0.2-4.6v-1.5c0-1,0-2.5,0.2-3.9c0.2-2.5,1.2-3.1,3.9-3.1h6
		c0.8,0,0.8,0.1,0.8,0.7V21c0,0.6,0,0.7-0.8,0.7h-5.3c-0.5,0-0.6,0.1-0.6,0.5c0,0.5,0,1.5-0.1,2.4h5.3c0.6,0,0.8,0.1,0.8,0.7V27
		c0,0.5-0.2,0.6-0.8,0.6H-376.6z"/>
	<path id="Fill-11" class="st0" d="M-442.5,13.4c0,0.3-0.1,0.4-0.3,0.4h-0.8c-0.2,0-0.4-0.1-0.4-0.4c-0.1-4.5-0.3-8.8-0.5-12.8h-0.2
		c-1.1,3.2-2.4,7.2-3.5,10c-0.3,0.7-0.5,0.8-1.1,0.8h-0.6c-0.5,0-0.8-0.1-1-0.8c-1.1-2.8-2.4-6.8-3.5-10h-0.2
		c-0.3,4-0.4,8.3-0.5,12.8c0,0.3-0.1,0.4-0.4,0.4h-0.8c-0.2,0-0.3-0.1-0.3-0.4c0.2-4.5,0.4-9.3,0.7-13.7c0-0.5,0.2-0.7,0.8-0.7h0.9
		c0.6,0,0.7,0,1,0.7c1.1,3.1,2.5,7.2,3.6,10.3h0.1c1.1-3.1,2.5-7.1,3.6-10.3c0.2-0.7,0.4-0.7,1-0.7h0.9c0.5,0,0.7,0.2,0.8,0.7
		C-443,4.1-442.7,8.9-442.5,13.4"/>
	<path id="Fill-12" class="st0" d="M-429.4,8.8c0,1.7-0.4,2.9-1.2,3.7c-0.8,0.8-2,1.2-3.8,1.2c-1.8,0-3-0.4-3.8-1.2
		c-0.8-0.8-1.2-2.1-1.2-3.7v-9.5c0-0.2,0.2-0.4,0.4-0.4h0.8c0.2,0,0.4,0.1,0.4,0.4v9.4c0,1.2,0.2,2.2,0.8,2.8c0.6,0.6,1.4,1,2.7,1
		c1.3,0,2.1-0.3,2.7-1c0.6-0.6,0.8-1.6,0.8-2.8v-9.4c0-0.2,0.2-0.4,0.4-0.4h0.8c0.2,0,0.4,0.1,0.4,0.4V8.8z"/>
	<path id="Fill-13" class="st0" d="M-426.8,13.1c-0.2-0.1-0.3-0.2-0.2-0.4l0.2-0.7c0-0.2,0.2-0.3,0.5-0.2c0.8,0.4,2,0.7,3.2,0.7
		c2.1,0,3.1-1,3.1-2.7V9.6c0-1.6-0.5-2.2-2.3-2.6l-1.5-0.4C-426,6.1-427,5-427,3V2.7c0-2.4,1.7-3.7,4.2-3.7c1.3,0,2.3,0.2,3.2,0.4
		c0.3,0.1,0.4,0.2,0.3,0.5l-0.2,0.5c-0.1,0.2-0.2,0.3-0.5,0.2c-1-0.3-1.7-0.4-2.7-0.4c-1.8,0-2.7,0.8-2.7,2.4v0.2
		c0,1.6,0.8,2,2.3,2.4l1.4,0.3c2.4,0.6,3.3,1.5,3.3,3.7v0.4c0,2.7-1.7,4.1-4.6,4.1C-424.6,13.8-425.8,13.5-426.8,13.1"/>
	<path id="Fill-14" class="st0" d="M-414.1,13.8c-0.9,0-1.5-0.1-2-0.5c-0.4-0.4-0.6-1-0.7-1.8C-416.9,10-417,8.5-417,7V5.8
		c0-1.1,0-3.1,0.2-4.5c0.1-0.9,0.3-1.5,0.7-1.8c0.4-0.4,1-0.5,2-0.5h5.3c0.3,0,0.3,0.1,0.3,0.3v0.6c0,0.2-0.1,0.3-0.3,0.3h-5.2
		c-0.5,0-0.8,0.1-0.9,0.3c-0.2,0.2-0.3,0.5-0.3,0.9c-0.1,1.1-0.1,2.1-0.1,4h5.5c0.3,0,0.3,0.1,0.3,0.3v0.6c0,0.2-0.1,0.3-0.3,0.3
		h-5.5c0,2.1,0,3.3,0.1,4.5c0,0.5,0.1,0.8,0.3,0.9c0.2,0.2,0.5,0.2,0.9,0.2h5.2c0.3,0,0.3,0.1,0.3,0.3v0.6c0,0.2-0.1,0.3-0.3,0.3
		H-414.1z"/>
	<path id="Fill-15" class="st0" d="M-396,8.8c0,1.7-0.4,2.9-1.2,3.7c-0.8,0.8-2,1.2-3.8,1.2c-1.8,0-3-0.4-3.8-1.2
		c-0.8-0.8-1.2-2.1-1.2-3.7v-9.5c0-0.2,0.2-0.4,0.4-0.4h0.8c0.2,0,0.4,0.1,0.4,0.4v9.4c0,1.2,0.2,2.2,0.8,2.8c0.6,0.6,1.4,1,2.7,1
		c1.3,0,2.1-0.3,2.7-1c0.6-0.6,0.8-1.6,0.8-2.8v-9.4c0-0.2,0.2-0.4,0.4-0.4h0.8c0.2,0,0.4,0.1,0.4,0.4V8.8z"/>
	<path id="Fill-16" class="st0" d="M-379.7,13.4c0,0.3-0.1,0.4-0.3,0.4h-0.8c-0.2,0-0.4-0.1-0.4-0.4c-0.1-4.5-0.3-8.8-0.5-12.8h-0.2
		c-1.1,3.2-2.4,7.2-3.5,10c-0.3,0.7-0.5,0.8-1.1,0.8h-0.6c-0.5,0-0.8-0.1-1-0.8c-1.1-2.8-2.4-6.8-3.5-10h-0.2
		c-0.3,4-0.4,8.3-0.5,12.8c0,0.3-0.1,0.4-0.4,0.4h-0.8c-0.2,0-0.3-0.1-0.3-0.4c0.2-4.5,0.4-9.3,0.7-13.7c0-0.5,0.2-0.7,0.8-0.7h0.9
		c0.6,0,0.7,0,1,0.7c1.1,3.1,2.5,7.2,3.6,10.3h0.1c1.1-3.1,2.5-7.1,3.6-10.3c0.2-0.7,0.4-0.7,1-0.7h0.9c0.5,0,0.7,0.2,0.8,0.7
		C-380.2,4.1-379.9,8.9-379.7,13.4"/>
	<path id="Fill-17" class="st0" d="M-361.1,7c0,2.4-0.4,4.2-1.4,5.4c-0.8,0.9-2.1,1.4-4,1.4c-1.8,0-3-0.4-3.9-1.3
		c-1.1-1.1-1.6-3-1.6-5.5V5.8c0-2.5,0.4-4.3,1.4-5.4c0.8-0.9,2.1-1.4,4-1.4c1.9,0,3.1,0.5,4,1.4c1.1,1.1,1.4,3,1.4,5.4V7z
		 M-370.3,6.7c0,2.1,0.2,3.8,1,4.8c0.6,0.6,1.4,1,2.7,1c1.4,0,2.3-0.4,2.9-1.2c0.8-1,0.9-2.7,0.9-4.7V6.1c0-1.9-0.1-3.6-0.9-4.7
		c-0.5-0.7-1.4-1.1-2.9-1.1c-1.4,0-2.3,0.4-2.8,1.1c-0.8,1-0.9,2.7-0.9,4.7V6.7z"/>
	<path id="Fill-18" class="st0" d="M-356,0.3c-0.5,0-0.9,0.1-1.1,0.3c-0.2,0.2-0.2,0.5-0.2,1v3.9h4.7c0.3,0,0.3,0.1,0.3,0.3v0.6
		c0,0.2-0.1,0.3-0.3,0.3h-4.7v6.6c0,0.3-0.1,0.4-0.3,0.4h-0.9c-0.2,0-0.3-0.1-0.3-0.4V1.4c0-0.8,0.2-1.4,0.6-1.8
		c0.4-0.4,1-0.6,1.8-0.6h4.2c0.1,0,0.3,0,0.3,0.3V0c0,0.2-0.1,0.3-0.3,0.3H-356z"/>
	<path id="Fill-19" class="st0" d="M-452.6,53.5c0,0.7-0.1,0.7-0.8,0.7h-2.3c-0.7,0-0.8-0.1-0.8-0.7V39.4c0-0.7,0.1-0.7,0.8-0.7h2.3
		c0.7,0,0.8,0.1,0.8,0.7V53.5z"/>
	<path id="Fill-20" class="st0" d="M-445,46.1L-445,46.1l0,7.3c0,0.7-0.2,0.8-0.8,0.8h-2c-0.6,0-0.9-0.1-0.9-0.8V39.5
		c0-0.6,0.2-0.8,0.8-0.8h1c0.8,0,1.1,0.1,1.5,0.7l5.2,7.9h0v-7.7c0-0.7,0.2-0.8,0.9-0.8h2c0.6,0,0.8,0.1,0.8,0.8v13.9
		c0,0.6-0.2,0.8-0.8,0.8h-1c-0.8,0-1.1-0.1-1.5-0.7L-445,46.1z"/>
	<path id="Fill-21" class="st0" d="M-428.9,54.2c-1.2,0-2.8,0-3.4-0.1c-0.7-0.1-0.9-0.4-0.9-0.9V40.1c0-1,0.3-1.2,1.1-1.3
		c1-0.1,2.3-0.2,3.9-0.2h0.3c2.9,0,4.8,0.5,6.1,1.7c1.2,1.1,1.7,2.8,1.7,5.3v1.4c0,2.7-0.5,4.3-1.8,5.4c-1.3,1.2-3.3,1.7-6.5,1.7
		H-428.9z M-429.1,42.4v8c0,0.4,0.1,0.5,0.4,0.5c0.3,0,0.9,0,1.1,0h0.1c1,0,1.7-0.2,2.2-0.7c0.6-0.6,0.9-1.7,0.9-3.3v-1
		c0-1.7-0.3-2.7-0.8-3.3c-0.5-0.5-1.3-0.7-2.3-0.7h-0.1c-0.3,0-0.8,0-1.1,0C-429,42-429.1,42.1-429.1,42.4L-429.1,42.4z"/>
	<path id="Fill-22" class="st0" d="M-410.1,39.4c0-0.7,0.1-0.7,0.8-0.7h2.3c0.8,0,0.8,0.1,0.8,0.7v9.2c0,2.1-0.4,3.3-1.4,4.3
		c-1,0.9-2.5,1.3-4.6,1.3h-0.3c-2.2,0-3.7-0.5-4.6-1.3c-1.1-1-1.4-2.4-1.4-4.3v-9.2c0-0.7,0.1-0.7,0.8-0.7h2.3
		c0.8,0,0.9,0.1,0.9,0.7v9.1c0,0.9,0.1,1.5,0.5,1.9c0.3,0.3,0.9,0.5,1.7,0.5h0.1c0.8,0,1.3-0.1,1.7-0.5c0.4-0.4,0.5-0.9,0.5-1.9
		V39.4z"/>
	<path id="Fill-23" class="st0" d="M-398,55c-1.3,0-3.2-0.3-4.3-0.7c-0.6-0.2-0.7-0.5-0.7-1l0.3-2c0.1-0.5,0.4-0.7,0.8-0.5
		c1.3,0.5,2.7,0.8,3.8,0.8h0.1c1.5,0,2-0.4,2-1.4V50c0-1-0.5-1.2-1.9-1.5l-1.6-0.3c-2.7-0.5-3.6-2-3.6-4.3v-0.7
		c0-1.4,0.4-2.4,1.1-3.1c0.9-0.9,2.3-1.3,4.7-1.3h0.2c1.4,0,3.1,0.3,4,0.6c0.5,0.2,0.6,0.5,0.4,1.1l-0.4,1.8
		c-0.1,0.5-0.4,0.6-0.9,0.4c-1.1-0.3-2-0.5-3.1-0.5h-0.1c-1.6,0-2,0.3-2,1.2v0.2c0,0.8,0.3,1,1.5,1.3l1.8,0.4
		c2.7,0.6,3.7,1.4,3.7,4.4v0.6c0,3.2-1.6,4.8-5.6,4.8H-398z"/>
	<path id="Fill-24" class="st0" d="M-389.8,41.9c-0.7,0-0.8-0.1-0.8-0.7v-1.8c0-0.6,0.2-0.7,0.8-0.7h10.8c0.7,0,0.8,0.1,0.8,0.7v1.8
		c0,0.6-0.2,0.7-0.8,0.7h-3.3v11.5c0,0.6-0.2,0.8-0.9,0.8h-2.4c-0.8,0-0.9-0.2-0.9-0.8V41.9H-389.8z"/>
	<path id="Fill-25" class="st0" d="M-372.4,53.5c0,0.7-0.1,0.7-0.9,0.7h-2.5c-0.8,0-0.8-0.1-0.8-0.7V39.8c0-0.7,0.2-0.9,0.8-0.9
		c0.9-0.1,2.4-0.2,4.2-0.2h0.5c2.6,0,4.3,0.4,5.4,1.4c0.8,0.7,1.2,1.7,1.2,3.2v0.5c0,1.6-0.3,2.7-1.1,3.5c-0.5,0.5-1.1,0.9-1.9,1.1
		l3.2,5.1c0.3,0.5,0.1,0.8-0.6,0.8h-2.5c-0.8,0-1.1-0.1-1.4-0.7l-2.5-4.6c-0.1-0.2-0.2-0.3-0.5-0.3h-0.7V53.5z M-371.3,41.9
		c-0.3,0-0.5,0-0.7,0c-0.3,0-0.4,0.1-0.4,0.4v3.2h1.6c0.9,0,1.3-0.1,1.6-0.4s0.4-0.7,0.4-1.4v-0.3c0-0.6-0.1-0.9-0.4-1.2
		c-0.3-0.3-0.9-0.4-1.7-0.4H-371.3z"/>
	<path id="Fill-26" class="st0" d="M-359.3,54.2c-0.6,0-0.8-0.2-0.8-0.7v-3.8c-1.4-2.7-3.2-6.8-4.1-10.2c-0.1-0.6,0-0.8,0.5-0.8h2.5
		c0.7,0,0.9,0,1,0.6c0.5,2,1.5,5,2.1,6.8h0.1c0.7-1.9,1.6-4.8,2.1-6.8c0.1-0.6,0.3-0.6,1-0.6h2.4c0.5,0,0.6,0.2,0.5,0.8
		c-0.9,3.4-2.7,7.5-4.1,10.1v3.9c0,0.6-0.2,0.7-0.8,0.7H-359.3z"/>
</g>
</svg>
