<svg xmlns="http://www.w3.org/2000/svg" width="208" height="88" viewBox="0 0 208 88">
  <g fill="#FFFFFF" fill-rule="evenodd" transform="translate(14 15.989)">
    <g fill-opacity=".5">
      <polyline points="41.47 55.58 27.716 55.58 69.256 .11 83.005 .11 41.47 55.58"/>
      <polyline points="13.754 55.58 0 55.58 41.54 .11 55.288 .11 13.754 55.58"/>
    </g>
    <path d="M89.9589438 35.1459101C89.9589438 35.1459101 89.9583371 20.8506742 89.9589438 20.3511236 89.9583371 19.8517753 90.467191 19.8570337 90.467191 19.8570337L94.9441348 19.8570337C97.7128989 19.8570337 98.7777303 20.1978202 99.8008989 20.9853708 101.099528 22.0075281 101.738831 23.6695955 101.738831 25.2885843 101.739236 27.0993034 100.80182 29.7620899 97.8190787 30.2523371L101.699798 35.1175955C101.699798 35.1175955 102.217348 35.6209888 101.617079 35.620382 101.01782 35.6191685 98.4990337 35.6209888 97.9792584 35.620382 97.4558427 35.620382 97.1405393 35.1182022 97.1405393 35.1182022L93.8570562 30.5286067 93.8145843 30.5290112C93.8145843 30.5290112 93.8145843 34.5749663 93.8139775 35.0959551 93.8145843 35.6171461 93.3180674 35.620382 93.3180674 35.620382 93.3180674 35.620382 90.9088989 35.6191685 90.4338202 35.620382 89.9589438 35.620382 89.9589438 35.1459101 89.9589438 35.1459101M93.8139775 27.7812809L95.2422472 27.7806742C97.6075281 27.7800674 97.8835955 26.2903146 97.8835955 25.5221798 97.8835955 24.0963371 96.8410112 23.3927191 95.2843146 23.3939326L93.8145843 23.3933258 93.8139775 27.7812809M115.808157 24.2775506C115.808157 24.2775506 115.806944 34.6093483 115.806944 35.1127416 115.806944 35.6171461 115.295865 35.620382 115.295865 35.620382 115.295865 35.620382 113.349843 35.620382 112.810247 35.6197753 112.271258 35.6197753 112.271258 35.1303371 112.271258 35.1303371L112.270652 34.3417753 112.228584 34.3417753C111.631955 35.4921573 110.163236 36.0260899 108.777236 36.0254831 105.028787 36.0248764 102.834 33.0842022 102.834 29.6981798 102.834 25.8219101 105.624809 23.3933258 108.778449 23.3933258 110.71436 23.3939326 111.803056 24.3299326 112.228584 25.0549888L112.271258 25.0537753C112.271258 25.0537753 112.271258 24.7588989 112.271865 24.2785618 112.271258 23.7972135 112.820562 23.7978202 112.820562 23.7978202L115.301124 23.7978202C115.800472 23.7978202 115.808157 24.2775506 115.808157 24.2775506M109.310562 32.7233933C111.525775 32.7233933 112.270652 30.8485618 112.270045 29.6981798 112.270652 28.2713258 111.291371 26.6935955 109.289124 26.6942022 107.26564 26.6942022 106.370292 28.3991461 106.370292 29.7412584 106.370899 30.8489663 107.180494 32.7233933 109.310562 32.7233933M121.69436 20.3517303L121.69436 22.048382C121.69436 22.5406517 121.209978 22.5400449 121.209978 22.5400449 121.209978 22.5400449 119.212787 22.5412584 118.680674 22.5406517 118.147348 22.5400449 118.158472 22.0477753 118.158472 22.0477753 118.158472 22.0477753 118.157865 20.8425843 118.157865 20.3472809 118.158472 19.8517753 118.646899 19.8570337 118.646899 19.8570337 118.646899 19.8570337 120.721146 19.8558202 121.198854 19.856427 121.675753 19.8570337 121.69436 20.3517303 121.69436 20.3517303M121.695371 24.2791685C121.695371 24.2791685 121.695371 34.6204719 121.69436 35.118809 121.695371 35.6171461 121.198854 35.6197753 121.198854 35.6197753 121.198854 35.6197753 119.190742 35.6197753 118.669551 35.620382 118.147348 35.6209888 118.158472 35.118809 118.158472 35.118809 118.158472 35.118809 118.159079 24.7932809 118.157865 24.2943371 118.158472 23.7972135 118.680067 23.7978202 118.680067 23.7978202 118.680067 23.7978202 120.744404 23.7966067 121.209978 23.7978202 121.675753 23.7972135 121.695371 24.2791685 121.695371 24.2791685M124.068742 35.118809L124.068742 20.3472809C124.067528 19.8517753 124.570315 19.8576404 124.570315 19.8576404 124.570315 19.8576404 126.606135 19.856427 127.099213 19.8570337 127.594517 19.856427 127.605034 20.3505169 127.605034 20.3505169 127.605034 20.3505169 127.605034 34.6081348 127.604427 35.1121348 127.605034 35.6175506 127.099213 35.6209888 127.099213 35.6209888 127.099213 35.6209888 125.180697 35.6197753 124.615416 35.6197753 124.049326 35.6197753 124.068742 35.118809 124.068742 35.118809M129.541551 23.7972135L132.204337 23.7972135C132.703281 23.7972135 132.853753 24.2850337 132.853753 24.2850337L134.503483 31.1468764 134.546157 31.1462697C134.546157 31.1462697 136.231483 24.7756854 136.357483 24.2862472 136.48227 23.7972135 136.98 23.7978202 136.98 23.7978202 136.98 23.7978202 138.495236 23.7972135 138.977596 23.7978202 139.460764 23.798427 139.597888 24.2850337 139.597888 24.2850337L141.42782 31.1468764 141.470494 31.1468764C141.470494 31.1468764 143.002517 24.7756854 143.121438 24.2868539 143.237933 23.7978202 143.770652 23.7972135 143.770652 23.7972135 143.770652 23.7972135 145.933888 23.7978202 146.40027 23.7978202 146.865843 23.7972135 146.730135 24.2868539 146.730135 24.2868539 146.730135 24.2868539 143.588831 34.6186517 143.412674 35.1182022 143.237326 35.6171461 142.755371 35.6191685 142.755371 35.6191685 142.755371 35.6191685 140.973978 35.6234157 140.474427 35.620382 139.976697 35.6171461 139.849685 35.1175955 139.849685 35.1175955L137.996292 27.9726067 137.95564 27.9726067C137.95564 27.9730112 136.242 34.6198652 136.103461 35.1182022 135.964719 35.6171461 135.466989 35.6197753 135.466989 35.6197753 135.466989 35.6197753 133.703393 35.6209888 133.203438 35.6197753 132.703281 35.6191685 132.539461 35.118809 132.539461 35.118809 132.539461 35.118809 129.368022 24.8608315 129.221596 24.2868539 129.075978 23.7132809 129.541551 23.7972135 129.541551 23.7972135M160.127393 24.2862472C160.127393 24.2862472 160.128 34.6413034 160.126787 35.1291236 160.128 35.6175506 159.628449 35.6197753 159.628449 35.6197753 159.628449 35.6197753 157.619528 35.620382 157.103393 35.620382 156.588674 35.6209888 156.592112 35.1133483 156.592112 35.1133483L156.590899 34.342382 156.54782 34.3429888C155.951596 35.492764 154.482472 36.0248764 153.097685 36.0248764 149.348022 36.0254831 147.15364 33.0860225 147.154247 29.6987865 147.15364 25.8219101 149.944854 23.3927191 153.098292 23.3927191 155.037236 23.3933258 156.122494 24.3305393 156.548427 25.054382L156.590899 25.0549888 156.590899 24.2874607C156.590899 23.7978202 157.12018 23.7978202 157.12018 23.7978202L159.617326 23.7978202C160.11627 23.7978202 160.127393 24.2862472 160.127393 24.2862472M153.630404 32.7246067C155.845011 32.7233933 156.592112 30.8497753 156.590899 29.697573 156.590899 28.2713258 155.611416 26.694809 153.608157 26.694809 151.585281 26.6942022 150.690337 28.3995506 150.690944 29.7406517 150.690337 30.8489663 151.500742 32.7221798 153.630404 32.7246067M170.520876 23.7978202C170.520876 23.7978202 172.784022 23.7972135 173.265978 23.7972135 173.748337 23.7978202 173.574809 24.2874607 173.574809 24.2874607 173.574809 24.2874607 168.219101 38.5798652 168.02191 39.0682921 167.823708 39.5561124 167.313843 39.5617753 167.313843 39.5617753 167.313843 39.5617753 165.095191 39.5611685 164.594629 39.5617753 164.096899 39.5617753 164.290449 39.0695056 164.290449 39.0695056 164.290449 39.0695056 165.961011 35.0243596 165.961618 35.0237528 165.961618 35.0237528 161.947011 24.7775056 161.764382 24.2874607 161.582562 23.7972135 162.066337 23.7966067 162.066337 23.7966067 162.066337 23.7966067 164.27973 23.7978202 164.811843 23.7978202 165.343955 23.7978202 165.512427 24.2886742 165.512427 24.2886742L167.708427 30.6574382 167.750292 30.6574382C167.750292 30.6574382 169.690449 24.7756854 169.847191 24.2874607 170.004742 23.7978202 170.520876 23.7978202 170.520876 23.7978202M89.9589438 15.409618L89.9589438.648C89.9589438.142786517 90.4554607.14905618 90.4554607.14905618 90.4554607.14905618 92.5382022.148449438 92.9299551.148449438 93.4369888.148044944 93.7340899.638089888 93.7340899.638089888L99.5654831 10.0549213 99.5660899 10.0106292 99.5660899.654269663C99.5660899.144 100.063213.14905618 100.063213.14905618 100.063213.14905618 102.245258.14905618 102.748247.148449438 103.250629.14905618 103.250629.642337079 103.250629.642337079 103.250629.642337079 103.250629 14.9108764 103.251843 15.409618 103.251843 15.9085618 102.74764 15.9126067 102.74764 15.9126067 102.74764 15.9126067 100.418157 15.9113933 100.062607 15.9126067 99.7078652 15.9113933 99.4402921 15.409618 99.4402921 15.409618L93.7084045 6.32608989 93.7073933 6.34732584 93.7073933 15.4108315C93.7084045 15.9085618 93.2131011 15.912 93.2131011 15.912 93.2131011 15.912 90.9519775 15.9126067 90.4554607 15.9126067 89.9589438 15.9126067 89.9589438 15.409618 89.9589438 15.409618M118.042584 4.57847191L118.042584 15.4108315C118.043798 15.9085618 117.550719 15.912 117.550719 15.912 117.550719 15.912 115.485169 15.9132135 114.996742 15.912 114.506697 15.912 114.50609 15.409618 114.50609 15.409618L114.506697 14.6344045 114.464022 14.634C113.867393 15.7849888 112.397663 16.3177079 111.011663 16.3171011 107.26382 16.3177079 105.069438 13.3770337 105.069438 9.99101124 105.069438 6.11413483 107.859843 3.68433708 111.012876 3.68433708 112.951213 3.68494382 114.037483 4.6221573 114.464022 5.346L114.506697 5.346C114.506697 5.346 114.50609 5.06750562 114.505685 4.57847191 114.50609 4.09065169 114.984 4.09004494 114.984 4.09004494 114.984 4.09004494 117.028517 4.0894382 117.536157 4.08883146 118.042584 4.08883146 118.042584 4.57847191 118.042584 4.57847191M111.544989 13.0150112C113.760809 13.0150112 114.506697 11.1405843 114.50609 9.98979775 114.50609 8.56355056 113.526 6.98602247 111.524562 6.98602247 109.500067 6.98602247 108.604719 8.6901573 108.606539 10.0328764 108.606539 11.1405843 109.415933 13.0150112 111.544989 13.0150112M125.164921.639303371L125.165933 4.0894382 126.345236 4.0894382C126.857326 4.08822472 126.870674 4.57907865 126.870674 4.57907865L126.870674 6.2678427C126.870674 6.76678652 126.374157 6.77265169 126.374157 6.77265169L125.165528 6.77265169C125.165528 6.77265169 125.165933 14.9114831 125.165528 15.4108315 125.165528 15.9085618 124.672449 15.912 124.672449 15.912 124.672449 15.912 122.641888 15.9126067 122.130404 15.912 121.620337 15.912 121.629034 15.4108315 121.629034 15.4108315L121.630247 6.77366292C121.630247 6.77366292 120.869596 6.77265169 120.376719 6.77366292 119.884045 6.77265169 119.882831 6.2678427 119.882831 6.2678427L119.882831 4.57907865C119.882831 4.0894382 120.376719 4.08822472 120.376719 4.08822472L121.629034 4.0894382C121.629034 4.0894382 121.630247 1.13359551 121.630247.638089888 121.630247.144 122.131011.148449438 122.131011.148449438M122.131011.148449438C122.131011.148449438 124.187663.14905618 124.672449.14905618 125.159663.148449438 125.164921.639303371 125.164921.639303371M132.277348.638089888C132.277348.638089888 132.278966 1.84874157 132.277955 2.34101124 132.278966 2.83186517 131.778 2.8328764 131.778 2.8328764L129.229888 2.8328764C128.748337 2.8328764 128.741461 2.34040449 128.741461 2.34040449 128.741461 2.34040449 128.742067 1.134 128.742067.639303371 128.742067.144 129.231101.147438202 129.231101.147438202 129.231101.147438202 131.275416.147438202 131.777393.148449438 132.27836.147438202 132.277348.638089888 132.277348.638089888M132.27836 4.57847191C132.27836 4.57847191 132.27836 14.9096629 132.277955 15.409618 132.277955 15.9097753 131.776787 15.912 131.776787 15.912L129.229888 15.912C128.748337 15.912 128.742067 15.4108315 128.742067 15.4108315 128.742067 15.4108315 128.742674 5.06750562 128.742674 4.57847191 128.742067 4.0894382 129.231101 4.0894382 129.231101 4.0894382 129.231101 4.0894382 131.276022 4.0894382 131.777393 4.09004494 132.277955 4.0894382 132.27836 4.57847191 132.27836 4.57847191M140.42427 3.70537079C144.727483 3.70597753 146.793034 7.09301124 146.794247 9.98979775 146.794247 12.8873933 144.727483 16.2746292 140.425483 16.2746292 136.120854 16.2746292 134.055506 12.8873933 134.054899 9.98979775 134.054292 7.09301124 136.120449 3.70597753 140.42427 3.70537079M140.42427 12.9725393C141.958719 12.9737528 143.257348 11.7159775 143.257348 9.99101124 143.257348 8.26462921 141.958112 7.0092809 140.423663 7.00806742 138.890427 7.00806742 137.591798 8.26402247 137.591798 9.99101124 137.591798 11.7159775 138.890427 12.9737528 140.42427 12.9725393M148.441146 15.4102247C148.441146 15.4102247 148.44236 5.06811236 148.441146 4.57907865 148.441753 4.0894382 148.946966 4.0894382 148.946966 4.0894382L151.238629 4.0894382C151.742831 4.08822472 151.743438 4.57847191 151.743438 4.57847191L151.744045 5.34660674 151.786517 5.34721348C152.148337 4.77202247 152.893618 3.68494382 155.003461 3.68433708 156.133011 3.68433708 157.388966 4.15355056 158.028876 4.70730337 158.66636 5.26206742 159.390607 6.19806742 159.390607 8.51986517L159.391213 15.409618C159.391213 15.9097753 158.886 15.9126067 158.886 15.9126067 158.886 15.9126067 156.863124 15.9126067 156.355483 15.9113933 155.848045 15.9126067 155.855528 15.409618 155.855528 15.409618L155.854921 9.45829213C155.854921 8.62644944 155.854921 7.00766292 154.002337 7.00766292 151.97764 7.00867416 151.97764 8.7552809 151.97764 9.47851685L151.97764 15.409618C151.978854 15.9097753 151.488 15.9126067 151.488 15.9126067L148.937865 15.9126067C148.435888 15.9126067 148.441146 15.4102247 148.441146 15.4102247M174.226449 4.57847191C174.226449 4.57847191 174.226449 14.9108764 174.227056 15.4108315 174.226449 15.9097753 173.726899 15.9126067 173.726899 15.9126067 173.726899 15.9126067 171.687236 15.9113933 171.188899 15.9126067 170.688742 15.912 170.690562 15.4102247 170.690562 15.4102247L170.689955 14.6344045 170.647281 14.6344045C170.050045 15.7837753 168.580921 16.3171011 167.196135 16.3164944 163.447685 16.3171011 161.252697 13.3786517 161.253303 9.99101124 161.253303 6.11352809 164.043708 3.68555056 167.196742 3.68494382 169.135079 3.68433708 170.221955 4.62276404 170.647888 5.346L170.689348 5.34660674 170.689348 4.59303371C170.689348 4.0894382 171.186472 4.0894382 171.186472 4.0894382 171.186472 4.0894382 173.20773 4.0894382 173.715775 4.09065169 174.225843 4.0894382 174.226449 4.57847191 174.226449 4.57847191M167.729461 13.015618C169.944674 13.015618 170.689348 11.141191 170.689955 9.99040449 170.689955 8.5641573 169.709865 6.98642697 167.70782 6.98642697 165.68373 6.98642697 164.787978 8.6901573 164.789191 10.0328764 164.788584 11.1401798 165.599191 13.015618 167.729461 13.015618M176.311618 15.409618C176.311618 15.409618 176.312225 1.14269663 176.311011.642741573 176.311618.144 176.805303.148449438 176.805303.148449438L179.352.148449438C179.847506.148449438 179.846899.642741573 179.846899.642741573 179.846899.642741573 179.846899 14.9108764 179.847506 15.4108315 179.848112 15.9097753 179.352 15.912 179.352 15.912L176.80591 15.912C176.311011 15.912 176.311618 15.409618 176.311618 15.409618M89.9589438 55.0100225C89.9589438 55.0100225 89.9589438 40.681618 89.9595506 40.2146292 89.9583371 39.7490562 90.4518202 39.7537079 90.4518202 39.7537079 90.4518202 39.7537079 94.1013708 39.7543146 94.6124494 39.7543146 95.1225169 39.7543146 95.2826966 40.2437528 95.2826966 40.2437528L98.2670562 50.1285843 98.3089213 50.129191C98.3089213 50.129191 101.102966 40.7380449 101.251618 40.2433483 101.401483 39.7490562 101.88991 39.7531011 101.88991 39.7531011L106.105753 39.7543146C106.593978 39.7543146 106.595798 40.2437528 106.595798 40.2437528 106.595798 40.2437528 106.596404 54.5165393 106.596404 55.0158876 106.596404 55.513618 106.095236 55.5176629 106.095236 55.5176629 106.095236 55.5176629 104.019371 55.5182697 103.510517 55.5170562 102.999438 55.5182697 103.017034 55.0154831 103.017034 55.0154831L103.017438 43.7159326 103.017438 43.6730562C103.017438 43.6730562 99.902427 54.4722472 99.7531685 55.0142697 99.6041124 55.5585169 99.0934382 55.5176629 99.0934382 55.5176629 99.0934382 55.5176629 97.9394157 55.5182697 97.4291461 55.5182697 96.9196854 55.5170562 96.8013708 55.0148764 96.8013708 55.0148764L93.5377079 43.6734607 93.5377079 43.7151236C93.5377079 43.7151236 93.5383146 54.5054157 93.5377079 55.0094157 93.5383146 55.5148315 93.0359326 55.5188764 93.0359326 55.5188764 93.0359326 55.5188764 90.9426742 55.5182697 90.450809 55.5176629 89.9595506 55.5176629 89.9589438 55.0100225 89.9589438 55.0100225M119.576427 44.1841348C119.576427 44.1841348 119.57764 54.504809 119.576427 55.0100225 119.57764 55.5140225 119.081124 55.5170562 119.081124 55.5170562 119.081124 55.5170562 117.338562 55.5176629 116.784809 55.5164494 116.230045 55.5170562 116.231865 55.0148764 116.231865 55.0148764L116.233079 54.2594831 116.190404 54.2617079C115.466562 55.7724944 114.016652 55.9011236 113.122719 55.9011236 112.397663 55.9007191 110.693528 55.730427 109.650337 54.4097528 108.71191 53.2379326 108.586112 52.3852584 108.584899 50.7662697 108.584899 50.7662697 108.586112 44.6729663 108.584899 44.1841348 108.584899 43.6951011 109.083843 43.6951011 109.083843 43.6951011 109.083843 43.6951011 111.125933 43.6944944 111.61436 43.6951011 112.102787 43.6944944 112.121191 44.1922247 112.121191 44.1922247L112.121798 50.234764C112.121191 51.0441573 112.122404 52.598427 114.017056 52.598427 115.040022 52.5996404 116.041146 52.0675281 116.039933 50.1914831 116.039933 50.1914831 116.041146 44.6905618 116.041146 44.1928315 116.041146 43.6951011 116.562135 43.6951011 116.562135 43.6951011 116.562135 43.6951011 118.559933 43.6944944 119.070607 43.6951011 119.581079 43.6944944 119.576427 44.1841348 119.576427 44.1841348M143.096966 51.6195506C143.499034 51.6189438 145.164539 51.6189438 145.735281 51.6195506 146.30764 51.6189438 146.083753 51.9445618 146.004472 52.0996854 145.446876 53.19 144.700787 54.0483371 143.824854 54.6441573 142.844157 55.347573 141.672742 55.7093933 140.459258 55.7093933 137.072022 55.71 134.195865 52.9614607 134.197079 49.4466067 134.197079 46.1445169 136.795753 43.0978652 140.394944 43.0984719 143.995551 43.0984719 146.636899 45.9527865 146.636292 49.5527865 146.636292 49.7346067 146.62982 49.875573 146.620517 49.9951011 146.60373 50.1833933 146.622742 50.49 146.09609 50.49 145.566404 50.4906067 137.689685 50.49 137.689685 50.49 137.902449 51.895618 139.074472 52.7272584 140.458045 52.7272584 141.241955 52.7278652 141.758697 52.472427 142.169258 52.0996854 142.329438 51.9556854 142.540989 51.6189438 143.096966 51.6195506M143.101011 48.1046966C142.951753 47.4016854 142.247124 46.0806067 140.416787 46.0806067 138.583618 46.0812135 137.881011 47.4022921 137.732157 48.1040899L143.101011 48.1046966M159.447843 44.1847416L159.447843 55.0270112C159.447843 55.513618 158.956584 55.5170562 158.956584 55.5170562 158.956584 55.5170562 157.138787 55.5176629 156.617191 55.5176629 156.095596 55.5176629 156.104292 55.0154831 156.104292 55.0154831L156.103079 54.2606966 156.06182 54.2617079C155.336764 55.7731011 153.888472 55.9011236 152.993326 55.9011236 152.26827 55.9011236 150.564742 55.730427 149.521551 54.4109663 148.584135 53.2389438 148.456315 52.3864719 148.455101 50.7674831 148.455101 50.7674831 148.455101 44.7237303 148.456315 44.2092135 148.455101 43.6944944 148.929573 43.6944944 148.929573 43.6944944L151.503169 43.6951011C151.968337 43.6957079 151.991596 44.1835281 151.991596 44.1835281L151.991596 50.234764C151.992809 51.044764 151.991596 52.5990337 153.887865 52.5996404 154.910831 52.5990337 155.911348 52.0665169 155.912562 50.1920899 155.912562 50.1920899 155.912562 44.6737753 155.911348 44.1835281 155.912562 43.6944944 156.384607 43.6944944 156.384607 43.6944944 156.384607 43.6944944 158.465326 43.6951011 158.955371 43.6944944 159.446225 43.6944944 159.447843 44.1847416 159.447843 44.1847416M161.746382 55.0154831L161.746382 44.1835281C161.746382 43.6951011 162.23764 43.6944944 162.23764 43.6944944 162.23764 43.6944944 164.001236 43.6951011 164.51818 43.6951011 165.03391 43.6944944 165.048067 44.2098202 165.048067 44.2098202L165.048067 44.9510562 165.091146 44.9516629C165.36782 44.4614157 166.135551 43.2906067 168.350562 43.2893933 169.39436 43.29 170.82182 43.6526292 171.758427 45.3986292 172.482674 44.2492584 173.698382 43.2906067 175.507483 43.29 176.339124 43.29 177.658989 43.4811236 178.618247 44.4824494 179.725146 45.6538652 179.896449 46.4430337 179.896449 49.0639551 179.896449 49.0639551 179.895843 54.5165393 179.895843 55.0154831 179.895843 55.515236 179.412674 55.5176629 179.412674 55.5176629L176.833213 55.5176629C176.33427 55.5170562 176.359955 55.0154831 176.359955 55.0154831L176.359551 49.2328315C176.359955 48.2745843 176.359955 46.6127191 174.549236 46.6137303 172.589865 46.6133258 172.589258 48.4022022 172.589258 49.0633483 172.589258 49.0633483 172.589258 54.5165393 172.588652 55.0154831 172.588652 55.5148315 172.106697 55.5176629 172.106697 55.5176629 172.106697 55.5176629 170.042966 55.5170562 169.544831 55.5182697 169.045281 55.5176629 169.052966 54.993236 169.052966 54.993236L169.053371 49.0847865C169.053371 48.4448764 169.052966 46.6133258 167.285124 46.6137303 165.282876 46.6133258 165.282876 48.5306292 165.282876 49.2328315 165.282876 49.2328315 165.282876 54.539191 165.28227 55.0264045 165.283483 55.5148315 164.783326 55.5170562 164.783326 55.5170562 164.783326 55.5170562 162.735978 55.5176629 162.23764 55.5176629 161.738292 55.5176629 161.746382 55.0154831 161.746382 55.0154831M128.873326 48.2193708C128.567326 48.1471685 128.262539 48.0822472 127.965236 48.0195506 126.503596 47.7117303 125.241371 47.4441573 125.240157 46.5613483 125.241371 45.9097079 125.812517 45.5798427 126.940652 45.5816629 128.128449 45.5798427 128.791011 45.938427 128.996697 46.6992809 129.027034 46.8165843 129.048067 47.2046966 129.569056 47.2053034 130.091258 47.2053034 131.445708 47.2046966 131.943843 47.2040899 132.444607 47.2053034 132.430449 46.8169888 132.413056 46.7004944 132.050629 44.3483596 130.198449 43.1093933 127.032674 43.1093933 124.590944 43.1093933 121.679798 43.8010787 121.679798 47.0946742 121.678584 49.2694382 123.559281 49.9811461 125.58964 50.4262921 127.841056 50.9118876 129.221596 51.2551011 129.220584 52.1520674 129.220584 53.1853483 128.129663 53.5518202 127.196697 53.550809 126.681978 53.550809 125.087461 53.4341124 124.833236 52.0248539 124.813416 51.912 124.777416 51.5319775 124.255213 51.5325843 123.733416 51.5313708 122.392517 51.5319775 121.893169 51.5325843 121.393618 51.5325843 121.414652 51.9089663 121.428 52.0248539 121.707101 54.5705393 123.780742 56.0224719 127.172022 56.0224719 128.859169 56.0218652 132.781551 55.6009888 132.780337 51.7121798 132.780337 49.4269888 130.903079 48.6827191 128.873326 48.2193708"/>
  </g>
</svg>
