<?xml version="1.0" encoding="utf-8"?>
<!-- Generator: Adobe Illustrator 19.2.1, SVG Export Plug-In . SVG Version: 6.00 Build 0)  -->
<svg version="1.1" id="Layer_1" xmlns="http://www.w3.org/2000/svg" xmlns:xlink="http://www.w3.org/1999/xlink" x="0px" y="0px"
	 viewBox="0 0 208 88" style="enable-background:new 0 0 208 88;" xml:space="preserve">
<style type="text/css">
	.st0{fill:#FFFFFE;fill-opacity:0.5;}
	.st1{fill:#FFFFFF;}
</style>
<g id="NRM_CORE_MONO" transform="translate(710.000000, 17.000000)">
	<g id="Group-4">
		<polyline id="Fill-1" class="st0" points="-654.7,54.4 -668.4,54.4 -627,-0.9 -613.3,-0.9 -654.7,54.4 		"/>
		<polyline id="Fill-3" class="st0" points="-682.3,54.4 -696,54.4 -654.6,-0.9 -640.9,-0.9 -682.3,54.4 		"/>
	</g>
	<path id="Fill-5" class="st1" d="M-606,33.7c0,0,0-14,0-14.5c0-0.5,0.5-0.5,0.5-0.5h4.5c2.8,0,3.8,0.3,4.8,1.1
		c1.3,1,1.9,2.6,1.9,4.2c0,1.8-0.9,4.4-3.9,4.9l3.9,4.8c0,0,0.5,0.5-0.1,0.5c-0.6,0-3.1,0-3.6,0c-0.5,0-0.8-0.5-0.8-0.5l-3.3-4.5
		l0,0c0,0,0,4,0,4.5c0,0.5-0.5,0.5-0.5,0.5s-2.4,0-2.9,0C-606,34.1-606,33.7-606,33.7 M-602.2,26.4l1.4,0c2.4,0,2.6-1.5,2.6-2.2
		c0-1.4-1-2.1-2.6-2.1l-1.5,0L-602.2,26.4"/>
	<path id="Fill-6" class="st1" d="M-579.8,23.1c0,0,0,10.2,0,10.7c0,0.5-0.5,0.5-0.5,0.5s-2,0-2.5,0c-0.5,0-0.5-0.5-0.5-0.5l0-0.8h0
		c-0.6,1.1-2.1,1.7-3.5,1.7c-3.8,0-6-2.9-6-6.3c0-3.8,2.8-6.2,6-6.2c2,0,3.1,0.9,3.5,1.6l0,0c0,0,0-0.3,0-0.8c0-0.5,0.6-0.5,0.6-0.5
		h2.5C-579.8,22.6-579.8,23.1-579.8,23.1 M-586.3,31.5c2.2,0,3-1.9,3-3c0-1.4-1-3-3-3c-2,0-3,1.7-3,3
		C-589.3,29.6-588.5,31.5-586.3,31.5"/>
	<path id="Fill-7" class="st1" d="M-574.4,19.1v1.7c0,0.5-0.5,0.5-0.5,0.5s-2,0-2.6,0c-0.5,0-0.5-0.5-0.5-0.5s0-1.2,0-1.7
		c0-0.5,0.5-0.5,0.5-0.5s2.1,0,2.6,0C-574.4,18.7-574.4,19.1-574.4,19.1 M-574.4,23c0,0,0,10.2,0,10.7c0,0.5-0.5,0.5-0.5,0.5
		s-2,0-2.6,0c-0.5,0-0.5-0.5-0.5-0.5s0-10.1,0-10.6c0-0.5,0.5-0.5,0.5-0.5s2.1,0,2.6,0C-574.4,22.5-574.4,23-574.4,23"/>
	<path id="Fill-8" class="st1" d="M-572,33.7V19.1c0-0.5,0.5-0.5,0.5-0.5s2.1,0,2.6,0c0.5,0,0.5,0.5,0.5,0.5s0,14,0,14.5
		c0,0.5-0.5,0.5-0.5,0.5s-1.9,0-2.5,0C-572,34.1-572,33.7-572,33.7"/>
	<path id="Fill-9" class="st1" d="M-566.3,22.8h2.6c0.5,0,0.6,0.5,0.6,0.5l1.6,6.9l0,0c0,0,1.7-6.4,1.8-6.9c0.1-0.5,0.6-0.5,0.6-0.5
		s1.5,0,2,0c0.5,0,0.6,0.5,0.6,0.5l1.8,6.9h0c0,0,1.5-6.4,1.6-6.9c0.1-0.5,0.6-0.5,0.6-0.5s2.1,0,2.6,0c0.5,0,0.3,0.5,0.3,0.5
		s-3.1,10.4-3.3,10.9c-0.2,0.5-0.6,0.5-0.6,0.5s-1.8,0-2.2,0c-0.5,0-0.6-0.5-0.6-0.5L-558,27h0c0,0-1.7,6.7-1.8,7.2
		c-0.1,0.5-0.6,0.5-0.6,0.5s-1.7,0-2.2,0c-0.5,0-0.7-0.5-0.7-0.5s-3.1-10.3-3.3-10.9C-566.8,22.7-566.3,22.8-566.3,22.8"/>
	<path id="Fill-10" class="st1" d="M-535.7,23.1c0,0,0,10.3,0,10.7c0,0.5-0.5,0.5-0.5,0.5s-2,0-2.6,0c-0.5,0-0.5-0.5-0.5-0.5l0-0.8
		l0,0c-0.6,1.1-2.1,1.7-3.5,1.7c-3.8,0-6-2.9-6-6.3c0-3.8,2.8-6.2,6-6.2c2,0,3.1,0.9,3.5,1.6l0,0v-0.8c0-0.5,0.5-0.5,0.5-0.5h2.5
		C-535.7,22.6-535.7,23.1-535.7,23.1 M-542.2,31.5c2.2,0,3-1.9,3-3c0-1.4-1-3-3-3c-2,0-2.9,1.7-2.9,3
		C-545.2,29.6-544.4,31.5-542.2,31.5"/>
	<path id="Fill-11" class="st1" d="M-525.7,22.8c0,0,2.3,0,2.8,0c0.5,0,0.3,0.5,0.3,0.5s-5.4,14-5.6,14.5c-0.2,0.5-0.7,0.5-0.7,0.5
		s-2.2,0-2.7,0c-0.5,0-0.3-0.5-0.3-0.5s1.7-4,1.7-4c0,0-4-10.1-4.2-10.5c-0.2-0.5,0.3-0.5,0.3-0.5s2.2,0,2.8,0
		c0.5,0,0.7,0.5,0.7,0.5l2.2,6.3h0c0,0,1.9-5.8,2.1-6.3C-526.2,22.8-525.7,22.8-525.7,22.8"/>
	<path id="Fill-12" class="st1" d="M-606,14V-0.5c0-0.5,0.5-0.5,0.5-0.5s2.1,0,2.4,0c0.5,0,0.8,0.5,0.8,0.5l5.8,9.3l0,0v-9.2
		C-596.5-1-596-1-596-1s2.2,0,2.6,0c0.5,0,0.5,0.5,0.5,0.5s0,14,0,14.5c0,0.5-0.5,0.5-0.5,0.5s-2.3,0-2.6,0c-0.3,0-0.6-0.5-0.6-0.5
		l-5.7-8.9l0,0V14c0,0.5-0.5,0.5-0.5,0.5s-2.2,0-2.7,0C-606,14.5-606,14-606,14"/>
	<path id="Fill-13" class="st1" d="M-578,3.5v10.7c0,0.5-0.5,0.5-0.5,0.5s-2.1,0-2.6,0c-0.5,0-0.5-0.5-0.5-0.5l0-0.8l0,0
		c-0.6,1.1-2.1,1.7-3.5,1.7c-3.8,0-6-2.9-6-6.3c0-3.8,2.8-6.2,6-6.2c2,0,3.1,0.9,3.5,1.6h0c0,0,0-0.3,0-0.8c0-0.5,0.5-0.5,0.5-0.5
		s2.1,0,2.6,0C-578,3-578,3.5-578,3.5 M-584.6,11.8c2.2,0,3-1.9,3-3c0-1.4-1-3-3-3c-2,0-3,1.7-2.9,3
		C-587.5,10-586.7,11.8-584.6,11.8"/>
	<path id="Fill-14" class="st1" d="M-570.8-0.5l0,3.4h1.2c0.5,0,0.5,0.5,0.5,0.5V5c0,0.5-0.5,0.5-0.5,0.5h-1.2c0,0,0,8,0,8.5
		c0,0.5-0.5,0.5-0.5,0.5s-2.1,0-2.6,0c-0.5,0-0.5-0.5-0.5-0.5l0-8.5c0,0-0.8,0-1.3,0c-0.5,0-0.5-0.5-0.5-0.5V3.4
		c0-0.5,0.5-0.5,0.5-0.5l1.3,0c0,0,0-2.9,0-3.4c0-0.5,0.5-0.5,0.5-0.5 M-573.9-1c0,0,2.1,0,2.6,0c0.5,0,0.5,0.5,0.5,0.5"/>
	<path id="Fill-15" class="st1" d="M-563.7-0.5c0,0,0,1.2,0,1.7c0,0.5-0.5,0.5-0.5,0.5h-2.6c-0.5,0-0.5-0.5-0.5-0.5s0-1.2,0-1.7
		c0-0.5,0.5-0.5,0.5-0.5s2.1,0,2.6,0C-563.7-1-563.7-0.5-563.7-0.5 M-563.7,3.4c0,0,0,10.2,0,10.6c0,0.5-0.5,0.5-0.5,0.5h-2.6
		c-0.5,0-0.5-0.5-0.5-0.5s0-10.2,0-10.6c0-0.5,0.5-0.5,0.5-0.5s2.1,0,2.6,0C-563.7,2.9-563.7,3.4-563.7,3.4"/>
	<path id="Fill-16" class="st1" d="M-555.6,2.6c4.2,0,6.3,3.4,6.3,6.3c0,2.9-2,6.3-6.3,6.3c-4.2,0-6.3-3.4-6.3-6.3
		C-561.9,5.9-559.9,2.6-555.6,2.6 M-555.6,11.8c1.5,0,2.8-1.3,2.8-3c0-1.7-1.3-3-2.8-3c-1.5,0-2.8,1.3-2.8,3
		C-558.4,10.5-557.1,11.8-555.6,11.8"/>
	<path id="Fill-17" class="st1" d="M-547.6,14.6c0,0,0-10.6,0-11.1c0-0.5,0.5-0.5,0.5-0.5h2.2c0.5,0,0.5,0.5,0.5,0.5l0,0.8l0,0
		c0.4-0.6,1.1-1.7,3.2-1.7c1.1,0,2.3,0.5,3,1c0.6,0.6,1.3,1.5,1.3,3.9l0,7c0,0.5-0.5,0.5-0.5,0.5s-2,0-2.5,0c-0.5,0-0.5-0.5-0.5-0.5
		l0-6.1c0-0.9,0-2.5-1.8-2.5c-2,0-2,1.8-2,2.5v6.1c0,0.5-0.5,0.5-0.5,0.5h-2.5C-547.6,15.1-547.6,14.6-547.6,14.6"/>
	<path id="Fill-18" class="st1" d="M-521.4,3.5c0,0,0,10.2,0,10.7c0,0.5-0.5,0.5-0.5,0.5s-2.1,0-2.6,0c-0.5,0-0.5-0.5-0.5-0.5l0-0.8
		h0c-0.6,1.1-2.1,1.7-3.5,1.7c-3.8,0-6-2.9-6-6.3c0-3.8,2.8-6.2,6-6.2c2,0,3.1,0.9,3.5,1.6l0,0V3.5c0-0.5,0.5-0.5,0.5-0.5s2,0,2.6,0
		C-521.4,3-521.4,3.5-521.4,3.5 M-527.9,11.8c2.2,0,3-1.9,3-3c0-1.4-1-3-3-3c-2,0-3,1.7-2.9,3C-530.9,10-530.1,11.8-527.9,11.8"/>
	<path id="Fill-19" class="st1" d="M-519.6,14c0,0,0-14,0-14.5c0-0.5,0.5-0.5,0.5-0.5h2.6c0.5,0,0.5,0.5,0.5,0.5s0,14,0,14.5
		c0,0.5-0.5,0.5-0.5,0.5h-2.6C-519.6,14.5-519.6,14-519.6,14"/>
	<path id="Fill-20" class="st1" d="M-606,53.9c0,0,0-14.1,0-14.5c0-0.5,0.5-0.5,0.5-0.5s3.7,0,4.2,0c0.5,0,0.7,0.5,0.7,0.5l3,9.7
		l0,0c0,0,2.8-9.2,3-9.7c0.2-0.5,0.6-0.5,0.6-0.5l4.2,0c0.5,0,0.5,0.5,0.5,0.5s0,14,0,14.5c0,0.5-0.5,0.5-0.5,0.5s-2.1,0-2.6,0
		c-0.5,0-0.5-0.5-0.5-0.5l0-11.1v0c0,0-3.1,10.6-3.3,11.1c-0.1,0.5-0.7,0.5-0.7,0.5s-1.2,0-1.7,0c-0.5,0-0.6-0.5-0.6-0.5l-3.3-11.1
		v0c0,0,0,10.6,0,11.1c0,0.5-0.5,0.5-0.5,0.5s-2.1,0-2.6,0C-606,54.4-606,53.9-606,53.9"/>
	<path id="Fill-21" class="st1" d="M-576.8,43c0,0,0,10.1,0,10.6c0,0.5-0.5,0.5-0.5,0.5s-1.7,0-2.2,0c-0.5,0-0.5-0.5-0.5-0.5l0-0.7
		l0,0c-0.7,1.5-2.1,1.6-3,1.6c-0.7,0-2.4-0.2-3.4-1.5c-0.9-1.1-1-2-1-3.6c0,0,0-5.9,0-6.4c0-0.5,0.5-0.5,0.5-0.5s2,0,2.5,0
		c0.5,0,0.5,0.5,0.5,0.5l0,5.9c0,0.8,0,2.3,1.8,2.3c1,0,2-0.5,2-2.3c0,0,0-5.4,0-5.9c0-0.5,0.5-0.5,0.5-0.5s1.9,0,2.4,0
		C-576.8,42.5-576.8,43-576.8,43"/>
	<path id="Fill-26" class="st1" d="M-567,47.1c-0.3-0.1-0.6-0.1-0.9-0.2c-1.5-0.3-2.7-0.6-2.7-1.5c0-0.7,0.6-1,1.7-1
		c1.2,0,1.8,0.4,2.1,1.1c0,0.1,0.1,0.5,0.6,0.5c0.5,0,1.9,0,2.4,0c0.5,0,0.5-0.4,0.5-0.5c-0.4-2.4-2.2-3.6-5.4-3.6
		c-2.4,0-5.3,0.7-5.3,4c0,2.2,1.9,2.9,3.9,3.4c2.2,0.5,3.6,0.8,3.6,1.8c0,1-1.1,1.4-2,1.4c-0.5,0-2.1-0.1-2.4-1.5
		c0-0.1-0.1-0.5-0.6-0.5c-0.5,0-1.9,0-2.4,0c-0.5,0-0.5,0.4-0.5,0.5c0.3,2.6,2.3,4.1,5.7,4.1c1.7,0,5.6-0.4,5.6-4.4
		C-563.1,48.3-565,47.6-567,47.1"/>
	<path id="Fill-22" class="st1" d="M-552.9,50.3c0.4,0,2.1,0,2.7,0c0.6,0,0.4,0.3,0.3,0.5c-0.6,1.1-1.3,1.9-2.2,2.5
		c-1,0.7-2.2,1.1-3.4,1.1c-3.4,0-6.3-2.7-6.3-6.2c0-3.3,2.6-6.3,6.2-6.3c3.6,0,6.3,2.8,6.3,6.4c0,0.2,0,0.3,0,0.4
		c0,0.2,0,0.5-0.5,0.5c-0.5,0-8.5,0-8.5,0c0.2,1.4,1.4,2.2,2.8,2.2c0.8,0,1.3-0.3,1.7-0.6C-553.7,50.7-553.5,50.3-552.9,50.3
		 M-552.9,46.9c-0.2-0.7-0.9-2-2.7-2c-1.8,0-2.6,1.3-2.7,2L-552.9,46.9"/>
	<path id="Fill-23" class="st1" d="M-536.9,43v10.6c0,0.5-0.5,0.5-0.5,0.5s-1.8,0-2.3,0s-0.5-0.5-0.5-0.5l0-0.7l0,0
		c-0.7,1.5-2.1,1.6-3,1.6c-0.7,0-2.4-0.2-3.4-1.5c-0.9-1.1-1-2-1-3.6c0,0,0-5.9,0-6.4c0-0.5,0.5-0.5,0.5-0.5l2.5,0
		c0.5,0,0.5,0.5,0.5,0.5v5.9c0,0.8,0,2.3,1.9,2.3c1,0,2-0.5,2-2.4c0,0,0-5.4,0-5.9c0-0.5,0.5-0.5,0.5-0.5s2,0,2.5,0
		C-536.9,42.5-536.9,43-536.9,43"/>
	<path id="Fill-24" class="st1" d="M-534.5,54.5V43.4c0-0.5,0.5-0.5,0.5-0.5s1.7,0,2.2,0c0.5,0,0.5,0.5,0.5,0.5v0.8l0,0
		c0.3-0.5,1-1.7,3.2-1.7c1,0,2.4,0.4,3.4,2.2c0.7-1.2,1.9-2.2,3.7-2.2c0.8,0,2.1,0.2,3.1,1.2c1.1,1.2,1.3,2,1.3,4.7c0,0,0,5.6,0,6.1
		c0,0.5-0.5,0.5-0.5,0.5h-2.5c-0.5,0-0.5-0.5-0.5-0.5l0-5.9c0-1,0-2.7-1.8-2.7c-1.9,0-1.9,1.8-1.9,2.5c0,0,0,5.6,0,6.1
		c0,0.5-0.5,0.5-0.5,0.5s-2,0-2.5,0c-0.5,0-0.5-0.5-0.5-0.5l0-6c0-0.7,0-2.5-1.7-2.5c-2,0-2,2-2,2.7c0,0,0,5.4,0,5.9
		c0,0.5-0.5,0.5-0.5,0.5s-2,0-2.5,0C-534.5,55-534.5,54.5-534.5,54.5"/>
</g>
</svg>
