<?xml version="1.0" encoding="utf-8"?>
<!-- Generator: Adobe Illustrator 21.1.0, SVG Export Plug-In . SVG Version: 6.00 Build 0)  -->
<svg version="1.1" id="Layer_1" xmlns="http://www.w3.org/2000/svg" xmlns:xlink="http://www.w3.org/1999/xlink" x="0px" y="0px"
	 viewBox="0 0 272 120" style="enable-background:new 0 0 272 120;" xml:space="preserve">
<style type="text/css">
	.st0{fill:#FFFFFF;fill-opacity:0.5;}
	.st1{fill:#FFFFFF;}
</style>
<g transform="translate(14 15.989)">
	<g>
		<polyline class="st0" points="61.3,78.5 44.1,78.5 96.1,9 113.3,9 61.3,78.5 		"/>
		<polyline class="st0" points="26.6,78.5 9.4,78.5 61.4,9 78.6,9 26.6,78.5 		"/>
	</g>
	<path class="st1" d="M122,52.9c0,0,0-17.9,0-18.5c0-0.6,0.6-0.6,0.6-0.6h5.6c3.5,0,4.8,0.4,6.1,1.4c1.6,1.3,2.4,3.4,2.4,5.4
		c0,2.3-1.2,5.6-4.9,6.2l4.9,6.1c0,0,0.6,0.6-0.1,0.6c-0.8,0-3.9,0-4.6,0c-0.7,0-1.1-0.6-1.1-0.6l-4.1-5.7l-0.1,0c0,0,0,5.1,0,5.7
		c0,0.7-0.6,0.7-0.6,0.7s-3,0-3.6,0C122,53.5,122,52.9,122,52.9 M126.8,43.7l1.8,0c3,0,3.3-1.9,3.3-2.8c0-1.8-1.3-2.7-3.3-2.7
		l-1.8,0L126.8,43.7 M154.4,39.3c0,0,0,12.9,0,13.6c0,0.6-0.6,0.6-0.6,0.6s-2.4,0-3.1,0c-0.7,0-0.7-0.6-0.7-0.6l0-1h-0.1
		c-0.7,1.4-2.6,2.1-4.3,2.1c-4.7,0-7.4-3.7-7.4-7.9c0-4.9,3.5-7.9,7.4-7.9c2.4,0,3.8,1.2,4.3,2.1l0.1,0c0,0,0-0.4,0-1
		c0-0.6,0.7-0.6,0.7-0.6h3.1C154.4,38.7,154.4,39.3,154.4,39.3 M146.2,49.8c2.8,0,3.7-2.3,3.7-3.8c0-1.8-1.2-3.8-3.7-3.8
		c-2.5,0-3.7,2.1-3.7,3.8C142.6,47.5,143.6,49.8,146.2,49.8 M161.7,34.4v2.1c0,0.6-0.6,0.6-0.6,0.6s-2.5,0-3.2,0
		c-0.7,0-0.7-0.6-0.7-0.6s0-1.5,0-2.1c0-0.6,0.6-0.6,0.6-0.6s2.6,0,3.2,0C161.7,33.7,161.7,34.4,161.7,34.4 M161.7,39.3
		c0,0,0,12.9,0,13.6c0,0.6-0.6,0.6-0.6,0.6s-2.5,0-3.2,0c-0.7,0-0.6-0.6-0.6-0.6s0-12.9,0-13.6c0-0.6,0.7-0.6,0.7-0.6s2.6,0,3.2,0
		C161.7,38.7,161.7,39.3,161.7,39.3 M164.7,52.8V34.3c0-0.6,0.6-0.6,0.6-0.6s2.5,0,3.2,0c0.6,0,0.6,0.6,0.6,0.6s0,17.8,0,18.5
		c0,0.6-0.6,0.6-0.6,0.6s-2.4,0-3.1,0C164.7,53.5,164.7,52.8,164.7,52.8 M171.6,38.7h3.3c0.6,0,0.8,0.6,0.8,0.6l2.1,8.6l0.1,0
		c0,0,2.1-8,2.3-8.6c0.2-0.6,0.8-0.6,0.8-0.6s1.9,0,2.5,0c0.6,0,0.8,0.6,0.8,0.6l2.3,8.6h0.1c0,0,1.9-8,2.1-8.6
		c0.1-0.6,0.8-0.6,0.8-0.6s2.7,0,3.3,0c0.6,0,0.4,0.6,0.4,0.6s-3.9,12.9-4.2,13.6c-0.2,0.6-0.8,0.6-0.8,0.6s-2.2,0-2.9,0
		c-0.6,0-0.8-0.6-0.8-0.6l-2.3-8.9h-0.1c0,0-2.1,8.3-2.3,8.9c-0.2,0.6-0.8,0.6-0.8,0.6s-2.2,0-2.8,0c-0.6,0-0.8-0.6-0.8-0.6
		s-4-12.8-4.2-13.6C171,38.6,171.6,38.7,171.6,38.7 M209.9,39.3c0,0,0,13,0,13.6c0,0.6-0.6,0.6-0.6,0.6s-2.5,0-3.2,0
		c-0.6,0-0.6-0.6-0.6-0.6l0-1l-0.1,0c-0.7,1.4-2.6,2.1-4.3,2.1c-4.7,0-7.4-3.7-7.4-7.9c0-4.9,3.5-7.9,7.4-7.9c2.4,0,3.8,1.2,4.3,2.1
		l0.1,0v-1c0-0.6,0.7-0.6,0.7-0.6h3.1C209.8,38.7,209.9,39.3,209.9,39.3 M201.7,49.8c2.8,0,3.7-2.3,3.7-3.8c0-1.8-1.2-3.8-3.7-3.8
		c-2.5,0-3.7,2.1-3.7,3.8C198,47.5,199.1,49.8,201.7,49.8 M222.9,38.7c0,0,2.8,0,3.4,0c0.6,0,0.4,0.6,0.4,0.6s-6.7,17.9-7,18.5
		c-0.2,0.6-0.9,0.6-0.9,0.6s-2.8,0-3.4,0c-0.6,0-0.4-0.6-0.4-0.6s2.1-5.1,2.1-5.1c0,0-5-12.8-5.3-13.4c-0.2-0.6,0.4-0.6,0.4-0.6
		s2.8,0,3.4,0c0.7,0,0.9,0.6,0.9,0.6l2.7,8h0.1c0,0,2.4-7.4,2.6-8C222.2,38.7,222.9,38.7,222.9,38.7 M122,28.2V9.7
		c0-0.6,0.6-0.6,0.6-0.6s2.6,0,3.1,0c0.6,0,1,0.6,1,0.6l7.3,11.8l0-0.1V9.7c0-0.6,0.6-0.6,0.6-0.6s2.7,0,3.4,0
		c0.6,0,0.6,0.6,0.6,0.6s0,17.9,0,18.5c0,0.6-0.6,0.6-0.6,0.6s-2.9,0-3.4,0c-0.4,0-0.8-0.6-0.8-0.6l-7.2-11.4l0,0v11.3
		c0,0.6-0.6,0.6-0.6,0.6s-2.8,0-3.5,0C122,28.8,122,28.2,122,28.2 M157.2,14.6v13.6c0,0.6-0.6,0.6-0.6,0.6s-2.6,0-3.2,0
		c-0.6,0-0.6-0.6-0.6-0.6l0-1l-0.1,0c-0.7,1.4-2.6,2.1-4.3,2.1c-4.7,0-7.4-3.7-7.4-7.9c0-4.9,3.5-7.9,7.4-7.9c2.4,0,3.8,1.2,4.3,2.1
		h0.1c0,0,0-0.3,0-1c0-0.6,0.6-0.6,0.6-0.6s2.6,0,3.2,0C157.2,14,157.2,14.6,157.2,14.6 M149,25.2c2.8,0,3.7-2.3,3.7-3.8
		c0-1.8-1.2-3.8-3.7-3.8c-2.5,0-3.7,2.1-3.7,3.8C145.4,22.8,146.4,25.2,149,25.2 M166.1,9.7l0,4.3h1.5c0.6,0,0.7,0.6,0.7,0.6v2.1
		c0,0.6-0.6,0.6-0.6,0.6h-1.5c0,0,0,10.2,0,10.8c0,0.6-0.6,0.6-0.6,0.6s-2.5,0-3.2,0c-0.6,0-0.6-0.6-0.6-0.6l0-10.8c0,0-1,0-1.6,0
		c-0.6,0-0.6-0.6-0.6-0.6v-2.1c0-0.6,0.6-0.6,0.6-0.6l1.6,0c0,0,0-3.7,0-4.3c0-0.6,0.6-0.6,0.6-0.6 M162.3,9.1c0,0,2.6,0,3.2,0
		c0.6,0,0.6,0.6,0.6,0.6 M175,9.7c0,0,0,1.5,0,2.1c0,0.6-0.6,0.6-0.6,0.6h-3.2c-0.6,0-0.6-0.6-0.6-0.6s0-1.5,0-2.1
		c0-0.6,0.6-0.6,0.6-0.6s2.6,0,3.2,0C175,9.1,175,9.7,175,9.7 M175,14.6c0,0,0,12.9,0,13.6c0,0.6-0.6,0.6-0.6,0.6h-3.2
		c-0.6,0-0.6-0.6-0.6-0.6s0-12.9,0-13.6c0-0.6,0.6-0.6,0.6-0.6s2.6,0,3.2,0C175,14,175,14.6,175,14.6 M185.2,13.5c5.4,0,8,4.2,8,7.9
		c0,3.6-2.6,7.9-8,7.9c-5.4,0-8-4.2-8-7.9C177.2,17.8,179.8,13.5,185.2,13.5 M185.2,25.1c1.9,0,3.5-1.6,3.5-3.7
		c0-2.2-1.6-3.7-3.5-3.7c-1.9,0-3.5,1.6-3.5,3.7C181.6,23.5,183.3,25.1,185.2,25.1 M195.2,28.2c0,0,0-12.9,0-13.6
		c0-0.6,0.6-0.6,0.6-0.6h2.9c0.6,0,0.6,0.6,0.6,0.6l0,1l0.1,0c0.5-0.7,1.4-2.1,4-2.1c1.4,0,3,0.6,3.8,1.3c0.8,0.7,1.7,1.9,1.7,4.8
		l0,8.6c0,0.6-0.6,0.6-0.6,0.6s-2.5,0-3.2,0c-0.6,0-0.6-0.6-0.6-0.6l0-7.5c0-1,0-3.1-2.3-3.1c-2.5,0-2.5,2.2-2.5,3.1v7.4
		c0,0.6-0.6,0.6-0.6,0.6h-3.2C195.2,28.8,195.2,28.2,195.2,28.2 M227.5,14.6c0,0,0,12.9,0,13.6c0,0.6-0.6,0.6-0.6,0.6s-2.6,0-3.2,0
		c-0.6,0-0.6-0.6-0.6-0.6l0-1H223c-0.7,1.4-2.6,2.1-4.3,2.1c-4.7,0-7.4-3.7-7.4-7.9c0-4.9,3.5-7.9,7.4-7.9c2.4,0,3.8,1.2,4.3,2.1
		l0.1,0v-0.9c0-0.6,0.6-0.6,0.6-0.6s2.5,0,3.2,0C227.5,14,227.5,14.6,227.5,14.6 M219.4,25.2c2.8,0,3.7-2.3,3.7-3.8
		c0-1.8-1.2-3.8-3.7-3.8c-2.5,0-3.7,2.1-3.7,3.8C215.7,22.8,216.7,25.2,219.4,25.2 M230.1,28.2c0,0,0-17.9,0-18.5
		c0-0.6,0.6-0.6,0.6-0.6h3.2c0.6,0,0.6,0.6,0.6,0.6s0,17.9,0,18.5c0,0.6-0.6,0.6-0.6,0.6h-3.2C230.1,28.8,230.1,28.2,230.1,28.2
		 M122,77.7c0,0,0-17.9,0-18.5c0-0.6,0.6-0.6,0.6-0.6s4.6,0,5.2,0c0.6,0,0.8,0.6,0.8,0.6l3.7,12.4l0.1,0c0,0,3.5-11.8,3.7-12.4
		c0.2-0.6,0.8-0.6,0.8-0.6l5.3,0c0.6,0,0.6,0.6,0.6,0.6s0,17.9,0,18.5c0,0.6-0.6,0.6-0.6,0.6s-2.6,0-3.2,0c-0.6,0-0.6-0.6-0.6-0.6
		l0-14.1v-0.1c0,0-3.9,13.5-4.1,14.2c-0.2,0.7-0.8,0.6-0.8,0.6s-1.4,0-2.1,0c-0.6,0-0.8-0.6-0.8-0.6l-4.1-14.2v0.1
		c0,0,0,13.5,0,14.1c0,0.6-0.6,0.6-0.6,0.6s-2.6,0-3.2,0C122,78.4,122,77.7,122,77.7 M159.1,64.2c0,0,0,12.9,0,13.6
		c0,0.6-0.6,0.6-0.6,0.6s-2.2,0-2.9,0c-0.7,0-0.7-0.6-0.7-0.6l0-0.9l-0.1,0c-0.9,1.9-2.7,2.1-3.8,2.1c-0.9,0-3-0.2-4.3-1.9
		c-1.2-1.5-1.3-2.5-1.3-4.6c0,0,0-7.6,0-8.2c0-0.6,0.6-0.6,0.6-0.6s2.6,0,3.2,0c0.6,0,0.6,0.6,0.6,0.6l0,7.6c0,1,0,3,2.4,3
		c1.3,0,2.5-0.7,2.5-3c0,0,0-6.9,0-7.5c0-0.6,0.7-0.6,0.7-0.6s2.5,0,3.1,0C159.1,63.6,159.1,64.2,159.1,64.2 M188.5,73.5
		c0.5,0,2.6,0,3.3,0c0.7,0,0.4,0.4,0.3,0.6c-0.7,1.4-1.6,2.4-2.7,3.2c-1.2,0.9-2.7,1.3-4.2,1.3c-4.2,0-7.8-3.4-7.8-7.8
		c0-4.1,3.3-7.9,7.8-7.9c4.5,0,7.8,3.6,7.8,8.1c0,0.2,0,0.4,0,0.6c0,0.2,0,0.6-0.7,0.6c-0.7,0-10.5,0-10.5,0
		c0.3,1.8,1.7,2.8,3.5,2.8c1,0,1.6-0.3,2.1-0.8C187.6,73.9,187.8,73.5,188.5,73.5 M188.5,69.1c-0.2-0.9-1.1-2.5-3.4-2.5
		c-2.3,0-3.2,1.7-3.4,2.5L188.5,69.1 M209,64.2v13.6c0,0.6-0.6,0.6-0.6,0.6s-2.3,0-2.9,0c-0.7,0-0.6-0.6-0.6-0.6l0-0.9l-0.1,0
		c-0.9,1.9-2.7,2.1-3.8,2.1c-0.9,0-3-0.2-4.3-1.9c-1.2-1.5-1.3-2.5-1.3-4.6c0,0,0-7.6,0-8.2c0-0.6,0.6-0.6,0.6-0.6l3.2,0
		c0.6,0,0.6,0.6,0.6,0.6v7.6c0,1,0,3,2.4,3c1.3,0,2.5-0.7,2.5-3c0,0,0-6.9,0-7.5c0-0.6,0.6-0.6,0.6-0.6s2.6,0,3.2,0
		C209,63.6,209,64.2,209,64.2 M211.9,77.8V64.2c0-0.6,0.6-0.6,0.6-0.6s2.2,0,2.9,0c0.6,0,0.7,0.6,0.7,0.6v0.9l0.1,0
		c0.3-0.6,1.3-2.1,4.1-2.1c1.3,0,3.1,0.5,4.3,2.6c0.9-1.4,2.4-2.6,4.7-2.6c1,0,2.7,0.2,3.9,1.5c1.4,1.5,1.6,2.5,1.6,5.7
		c0,0,0,6.8,0,7.5c0,0.6-0.6,0.6-0.6,0.6h-3.2c-0.6,0-0.6-0.6-0.6-0.6l0-7.2c0-1.2,0-3.3-2.3-3.3c-2.5,0-2.5,2.2-2.5,3.1
		c0,0,0,6.8,0,7.5c0,0.6-0.6,0.6-0.6,0.6s-2.6,0-3.2,0c-0.6,0-0.6-0.7-0.6-0.7l0-7.4c0-0.8,0-3.1-2.2-3.1c-2.5,0-2.5,2.4-2.5,3.3
		c0,0,0,6.6,0,7.3c0,0.6-0.6,0.6-0.6,0.6s-2.6,0-3.2,0C211.9,78.4,211.9,77.8,211.9,77.8 M170.7,69.2c-0.4-0.1-0.8-0.2-1.1-0.3
		c-1.8-0.4-3.4-0.7-3.4-1.8c0-0.8,0.7-1.2,2.1-1.2c1.5,0,2.3,0.4,2.6,1.4c0,0.1,0.1,0.6,0.7,0.6c0.7,0,2.3,0,3,0
		c0.6,0,0.6-0.5,0.6-0.6c-0.5-2.9-2.8-4.5-6.7-4.5c-3.1,0-6.7,0.9-6.7,5c0,2.7,2.4,3.6,4.9,4.2c2.8,0.6,4.5,1,4.5,2.2
		c0,1.3-1.4,1.8-2.5,1.8c-0.6,0-2.6-0.1-3-1.9c0-0.1-0.1-0.6-0.7-0.6c-0.7,0-2.3,0-3,0c-0.6,0-0.6,0.5-0.6,0.6c0.3,3.2,2.9,5,7.2,5
		c2.1,0,7-0.5,7-5.4C175.6,70.8,173.3,69.8,170.7,69.2"/>
</g>
</svg>
