<?xml version="1.0" encoding="utf-8"?>
<!-- Generator: Adobe Illustrator 19.2.1, SVG Export Plug-In . SVG Version: 6.00 Build 0)  -->
<svg version="1.1" id="Layer_1" xmlns="http://www.w3.org/2000/svg" xmlns:xlink="http://www.w3.org/1999/xlink" x="0px" y="0px"
	 viewBox="0 0 208 88" style="enable-background:new 0 0 208 88;" xml:space="preserve">
<style type="text/css">
	.st0{fill:#FFFFFF;}
</style>
<polyline id="Fill-1" class="st0" points="83.5,69.7 85.8,72 95.1,72 95.1,69.7 85.8,69.7 85.8,62.7 95.1,62.7 95.1,60.3 83.5,60.3 
	83.5,69.7 "/>
<polyline id="Fill-2" class="st0" points="83.5,30.8 83.5,42.4 85.8,42.4 85.8,33.1 92.8,33.1 92.8,42.4 95.1,42.4 95.1,33.1 
	92.8,30.8 83.5,30.8 "/>
<polyline id="Fill-3" class="st0" points="83.5,45.6 83.5,57.2 85.8,57.2 85.8,47.9 92.8,47.9 92.8,57.2 95.1,57.2 95.1,47.9 
	92.8,45.6 83.5,45.6 "/>
<polygon id="Fill-4" class="st0" points="88.1,67.3 95.1,67.3 95.1,65 88.1,65 "/>
<polygon id="Fill-5" class="st0" points="112.9,18.3 115.2,18.3 115.2,16 112.9,16 "/>
<polygon id="Fill-6" class="st0" points="112.9,27.7 115.2,27.7 115.2,20.7 112.9,20.7 "/>
<polygon id="Fill-7" class="st0" points="117.5,37.8 124.5,37.8 124.5,35.4 117.5,35.4 "/>
<polyline id="Fill-8" class="st0" points="83.5,18.3 83.5,23 92.8,23 92.8,25.3 83.5,25.3 83.5,27.7 95.1,27.7 95.1,20.7 85.8,20.7 
	85.8,18.3 95.1,18.3 95.1,16 85.8,16 83.5,18.3 "/>
<polyline id="Fill-9" class="st0" points="124.5,42.4 124.5,40.1 115.2,40.1 115.2,33.1 124.5,33.1 124.5,30.8 112.9,30.8 
	112.9,40.1 115.2,42.4 124.5,42.4 "/>
<polygon id="Fill-10" class="st0" points="88.1,57.2 90.5,57.2 90.5,50.2 88.1,50.2 "/>
<polyline id="Fill-11" class="st0" points="112.9,47.9 112.9,52.6 122.2,52.6 122.2,54.9 112.9,54.9 112.9,57.2 124.5,57.2 
	124.5,50.2 115.2,50.2 115.2,47.9 124.5,47.9 124.5,45.6 115.2,45.6 112.9,47.9 "/>
<polygon id="Fill-12" class="st0" points="117.5,27.7 124.5,27.7 124.5,25.3 117.5,25.3 "/>
<polygon id="Fill-13" class="st0" points="117.5,18.3 124.5,18.3 124.5,16 117.5,16 "/>
<polygon id="Fill-14" class="st0" points="117.5,23 124.5,23 124.5,20.7 117.5,20.7 "/>
<polyline id="Fill-15" class="st0" points="106.7,69.7 99.7,69.7 99.7,60.3 97.4,60.3 97.4,69.7 99.7,72 109,72 109,60.3 
	106.7,60.3 106.7,69.7 "/>
<polyline id="Fill-16" class="st0" points="112.9,60.3 112.9,72 115.2,72 115.2,62.7 122.2,62.7 122.2,72 124.5,72 124.5,62.7 
	122.2,60.3 112.9,60.3 "/>
<polygon id="Fill-17" class="st0" points="117.5,72 119.9,72 119.9,65 117.5,65 "/>
<polyline id="Fill-18" class="st0" points="106.7,54.9 99.7,54.9 99.7,45.6 97.4,45.6 97.4,54.9 99.7,57.2 109,57.2 109,45.6 
	106.7,45.6 106.7,54.9 "/>
<polyline id="Fill-19" class="st0" points="97.4,33.1 97.4,42.4 109,42.4 109,40.1 99.7,40.1 99.7,33.1 109,33.1 109,30.8 
	99.7,30.8 97.4,33.1 "/>
<polyline id="Fill-20" class="st0" points="97.4,18.3 97.4,27.7 109,27.7 109,25.3 99.7,25.3 99.7,18.3 109,18.3 109,16 99.7,16 
	97.4,18.3 "/>
</svg>
