<svg xmlns="http://www.w3.org/2000/svg" width="208" height="88" viewBox="0 0 208 88"><defs><style>.a{fill:#fff;}</style></defs><title>logo-nmm</title><path class="a" d="M75.763,19.7V31.658h-4.2l-3.582-6.21A22.853,22.853,0,0,1,66.5,22.311c0.106,2.013.106,4.451,0.106,6.994a10.42,10.42,0,0,1,1.42.212v2.141H61.585v-2.1a15.441,15.441,0,0,1,1.844-.254V19.7a15.516,15.516,0,0,1-1.844-.254v-2.1h6.082l3.539,6.188c0.615,1.1,1.017,1.929,1.526,3.052-0.148-1.971-.148-4.133-0.148-6.888a8.257,8.257,0,0,1-1.293-.212V17.352h5.722v2.141A10.253,10.253,0,0,1,75.763,19.7Z"/><path class="a" d="M83.942,31.679a10.259,10.259,0,0,1,.085-1.611H84.006a3.455,3.455,0,0,1-3.221,1.823,2.78,2.78,0,0,1-3.073-2.925c0-2.67,2.585-3.772,5.934-3.836V24.622c0-.911-0.4-1.314-1.717-1.314a4.9,4.9,0,0,0-1.187.149c-0.042.339-.106,0.763-0.191,1.165H78.5V21.4a13.3,13.3,0,0,1,3.709-.551c3.666,0,4.684,1.356,4.684,3.772V29.2c0.509,0.085,1.166.169,1.7,0.212v2.1A33.093,33.093,0,0,1,83.942,31.679Zm-0.3-4.514c-1.844,0-2.882.318-2.882,1.335a0.959,0.959,0,0,0,1.06.975,1.935,1.935,0,0,0,1.823-2.013v-0.3Z"/><path class="a" d="M93.288,31.891c-2.437,0-3.221-.805-3.221-3.391V23.6H88.477v-2.48h1.589V18.009l3.243-.869v3.984h2.268V23.6H93.31v4.154c0,1.081.275,1.441,1.081,1.441a4.763,4.763,0,0,0,1.1-.148l0.191,2.522A10.033,10.033,0,0,1,93.288,31.891Z"/><path class="a" d="M96.4,31.658v-2.1a15.432,15.432,0,0,1,1.844-.254V23.583c-0.509-.084-1.229-0.169-1.844-0.212V21.294a35.278,35.278,0,0,1,5.065-.191v8.2a12.413,12.413,0,0,1,1.7.254v2.1H96.4ZM99.858,19.9a1.908,1.908,0,1,1,1.971-1.907A1.941,1.941,0,0,1,99.858,19.9Z"/><path class="a" d="M108.5,31.891c-3.052,0-5.065-1.5-5.065-5.256a5.421,5.421,0,0,1,5.574-5.743c3.2,0,5.044,1.78,5.044,5.277A5.422,5.422,0,0,1,108.5,31.891Zm0.3-8.244c-1.017,0-2.013.784-2.013,2.628,0,1.929.615,2.819,1.95,2.819,1.166,0,1.971-.975,1.971-2.734C110.709,24.558,110.136,23.647,108.8,23.647Z"/><path class="a" d="M122.915,31.658v-6.7c0-.848-0.233-1.356-0.975-1.356-1.144,0-2.1,1.42-2.1,2.946v2.755a11.047,11.047,0,0,1,1.462.212v2.141h-6.527v-2.1a15.444,15.444,0,0,1,1.844-.254V23.583c-0.509-.084-1.229-0.169-1.844-0.212V21.294a33.532,33.532,0,0,1,4.853-.191,12.272,12.272,0,0,1-.127,1.674l0.021,0.021a3.894,3.894,0,0,1,3.5-1.907c2.352,0,3.115,1.526,3.115,3.348v5.065a11.935,11.935,0,0,1,1.7.254v2.1h-4.917Z"/><path class="a" d="M134.568,31.679a10.262,10.262,0,0,1,.085-1.611h-0.021a3.454,3.454,0,0,1-3.221,1.823,2.78,2.78,0,0,1-3.073-2.925c0-2.67,2.585-3.772,5.934-3.836V24.622c0-.911-0.4-1.314-1.717-1.314a4.9,4.9,0,0,0-1.187.149c-0.042.339-.106,0.763-0.191,1.165h-2.056V21.4a13.305,13.305,0,0,1,3.709-.551c3.667,0,4.684,1.356,4.684,3.772V29.2c0.509,0.085,1.165.169,1.7,0.212v2.1A33.089,33.089,0,0,1,134.568,31.679Zm-0.3-4.514c-1.844,0-2.882.318-2.882,1.335a0.959,0.959,0,0,0,1.06.975,1.935,1.935,0,0,0,1.823-2.013v-0.3Z"/><path class="a" d="M139.547,31.658v-2.1a15.443,15.443,0,0,1,1.844-.254V18.645c-0.509-.085-1.229-0.17-1.844-0.212V16.356a35.3,35.3,0,0,1,5.066-.191v13.14a11.628,11.628,0,0,1,1.674.254v2.1h-6.74Z"/><path class="a" d="M75,51.672v-2.1c0.4-.064.932-0.17,1.377-0.212l-0.7-4.217c-0.17-1.06-.339-2.056-0.4-2.776H75.233a34.055,34.055,0,0,1-.848,3.454l-1.759,5.849H69.447l-1.7-5.341a28.487,28.487,0,0,1-.954-3.963H66.777c-0.127,1.081-.275,2.034-0.4,2.861l-0.593,4.133c0.445,0.043.975,0.149,1.377,0.212v2.1H61.5V49.531a7.138,7.138,0,0,1,1-.148l1.717-9.664a15.518,15.518,0,0,1-1.844-.254v-2.1h6.019L70.38,43.64a26.61,26.61,0,0,1,.784,3.115h0.042a29.508,29.508,0,0,1,.805-3.137l2.035-6.252H80v2.1a15.512,15.512,0,0,1-1.844.254l1.7,9.664a7.977,7.977,0,0,1,1.017.148v2.141H75Z"/><path class="a" d="M90.957,47.222H84.684c0.021,1.4.869,2.183,2.607,2.183a7.71,7.71,0,0,0,3.094-.636L90.7,51.185a10.913,10.913,0,0,1-3.942.72c-3.433,0-5.341-1.674-5.341-5.383,0-3.243,1.8-5.616,5.065-5.616,3.179,0,4.578,2.141,4.578,4.9A11.823,11.823,0,0,1,90.957,47.222ZM86.4,43.258A1.8,1.8,0,0,0,84.684,45.1h3.2C87.926,43.894,87.333,43.258,86.4,43.258Z"/><path class="a" d="M99.009,51.693a9.74,9.74,0,0,1,.106-1.526H99.073a3.481,3.481,0,0,1-3.2,1.759c-2.543,0-3.836-1.929-3.836-4.938,0-3.455,2.056-6.061,5.659-6.061a8.607,8.607,0,0,1,1.06.063V38.659c-0.509-.085-1.229-0.17-1.844-0.212V36.371a35.315,35.315,0,0,1,5.065-.191V49.214c0.509,0.085,1.187.17,1.674,0.212V51.5A30.049,30.049,0,0,1,99.009,51.693Zm-0.254-8.075a4.752,4.752,0,0,0-1.1-.127c-1.25,0-2.2.805-2.2,3.158,0,1.759.466,2.586,1.462,2.586,1.081,0,1.844-1.272,1.844-3.031V43.619Z"/><path class="a" d="M104.115,51.672v-2.1a15.539,15.539,0,0,1,1.844-.255V43.6c-0.509-.085-1.229-0.169-1.844-0.212V41.309a35.32,35.32,0,0,1,5.065-.191v8.2a12.5,12.5,0,0,1,1.7.255v2.1h-6.761ZM107.57,39.91A1.908,1.908,0,1,1,109.541,38,1.941,1.941,0,0,1,107.57,39.91Z"/><path class="a" d="M117.742,51.693a10.26,10.26,0,0,1,.085-1.611h-0.021a3.454,3.454,0,0,1-3.221,1.822,2.78,2.78,0,0,1-3.073-2.924c0-2.671,2.586-3.773,5.934-3.836V44.636c0-.911-0.4-1.314-1.717-1.314a4.9,4.9,0,0,0-1.187.148c-0.042.339-.106,0.763-0.191,1.165H112.3V41.415A13.3,13.3,0,0,1,116,40.863c3.667,0,4.684,1.356,4.684,3.772v4.578c0.509,0.085,1.166.17,1.7,0.212v2.1A33.169,33.169,0,0,1,117.742,51.693Zm-0.3-4.514c-1.844,0-2.882.318-2.882,1.335a0.959,0.959,0,0,0,1.06.974,1.934,1.934,0,0,0,1.823-2.013v-0.3Z"/><path class="a" d="M75,71.686v-2.1c0.4-.064.932-0.17,1.377-0.212l-0.7-4.217c-0.17-1.06-.339-2.055-0.4-2.776H75.233a34.016,34.016,0,0,1-.848,3.454l-1.759,5.85H69.447l-1.7-5.341a28.474,28.474,0,0,1-.954-3.963H66.777c-0.127,1.081-.275,2.034-0.4,2.861l-0.593,4.133c0.445,0.042.975,0.148,1.377,0.212v2.1H61.5V69.546a7.025,7.025,0,0,1,1-.148l1.717-9.664a15.389,15.389,0,0,1-1.844-.255v-2.1h6.019l1.992,6.273a26.59,26.59,0,0,1,.784,3.116h0.042a29.513,29.513,0,0,1,.805-3.137l2.035-6.252H80v2.1a15.383,15.383,0,0,1-1.844.255l1.7,9.664a7.841,7.841,0,0,1,1.017.148v2.141H75Z"/><path class="a" d="M89.367,71.708a11.841,11.841,0,0,1,.106-1.674l-0.042-.021a3.833,3.833,0,0,1-3.476,1.908c-2.352,0-3.137-1.526-3.137-3.349V63.611c-0.509-.085-1.166-0.17-1.674-0.211V61.3a35.27,35.27,0,0,1,4.9-.17V67.85c0,0.847.233,1.356,1,1.356,1.123,0,2.077-1.42,2.077-2.946V63.59c-0.4-.063-0.954-0.148-1.441-0.19V61.28a33.2,33.2,0,0,1,4.662-.148v8.1c0.509,0.085,1.166.17,1.7,0.212v2.1A33.516,33.516,0,0,1,89.367,71.708Z"/><path class="a" d="M97.844,71.919A13.512,13.512,0,0,1,94.9,71.58V68.338H97c0.064,0.339.106,0.763,0.148,1.165a3.5,3.5,0,0,0,.933.106c0.869,0,1.441-.36,1.441-0.975,0-1.526-4.938-.805-4.938-4.218,0-1.949,1.589-3.5,4.726-3.5a15.693,15.693,0,0,1,2.946.339v3.116h-2.077a4.984,4.984,0,0,1-.19-1.166,6.079,6.079,0,0,0-.827-0.064c-0.911,0-1.335.382-1.335,0.912,0,1.526,4.959.954,4.959,4.133C102.782,70.351,100.853,71.919,97.844,71.919Z"/><path class="a" d="M113.144,67.236h-6.273c0.021,1.4.869,2.183,2.607,2.183a7.709,7.709,0,0,0,3.094-.636L112.89,71.2a10.917,10.917,0,0,1-3.942.72c-3.434,0-5.341-1.674-5.341-5.383,0-3.243,1.8-5.616,5.065-5.616,3.179,0,4.578,2.141,4.578,4.9A11.83,11.83,0,0,1,113.144,67.236Zm-4.557-3.964a1.8,1.8,0,0,0-1.717,1.844h3.2C110.113,63.908,109.52,63.272,108.588,63.272Z"/><path class="a" d="M122.172,71.708a11.878,11.878,0,0,1,.106-1.674l-0.042-.021a3.834,3.834,0,0,1-3.476,1.908c-2.353,0-3.137-1.526-3.137-3.349V63.611c-0.509-.085-1.166-0.17-1.674-0.211V61.3a35.272,35.272,0,0,1,4.9-.17V67.85c0,0.847.233,1.356,1,1.356,1.123,0,2.077-1.42,2.077-2.946V63.59c-0.4-.063-0.954-0.148-1.441-0.19V61.28a33.2,33.2,0,0,1,4.663-.148v8.1c0.509,0.085,1.165.17,1.7,0.212v2.1A33.509,33.509,0,0,1,122.172,71.708Z"/><path class="a" d="M141.583,71.686V65.1c0-.911-0.212-1.463-0.954-1.463-0.975,0-2.056,1.272-2.056,2.988v2.713a11.624,11.624,0,0,1,1.463.212v2.141h-4.663V65.074c0-.847-0.169-1.441-0.954-1.441-1.017,0-2.056,1.314-2.056,2.988v2.713a11.094,11.094,0,0,1,1.463.212v2.141H127.3v-2.1a15.549,15.549,0,0,1,1.844-.254V63.611c-0.509-.085-1.229-0.17-1.844-0.211V61.323a33.745,33.745,0,0,1,4.874-.191,13.291,13.291,0,0,1-.127,1.695h0.021a3.757,3.757,0,0,1,3.37-1.907,2.743,2.743,0,0,1,2.882,1.907,3.684,3.684,0,0,1,3.327-1.907c2.056,0,3.158,1.166,3.158,3.561v4.853a11.994,11.994,0,0,1,1.7.254v2.1h-4.917Z"/></svg>