<?xml version="1.0" encoding="utf-8"?>
<!-- Generator: Adobe Illustrator 16.0.0, SVG Export Plug-In . SVG Version: 6.00 Build 0)  -->
<!DOCTYPE svg PUBLIC "-//W3C//DTD SVG 1.1//EN" "http://www.w3.org/Graphics/SVG/1.1/DTD/svg11.dtd">
<svg version="1.1" id="Layer_1" xmlns="http://www.w3.org/2000/svg" xmlns:xlink="http://www.w3.org/1999/xlink" x="0px" y="0px"
	 width="208px" height="88px" viewBox="0 0 208 88" enable-background="new 0 0 208 88" xml:space="preserve">
<g>
	<path fill="#FEFEFE" d="M55.569,72.285h3.838v-7.678l0.512,2.097l2.047,5.584h2.745l2.048-5.584l0.511-2.097v7.678h3.839V55.997
		h-4.21l-2.583,6.397l-0.977,2.909l-0.977-2.909l-2.583-6.397h-4.211L55.569,72.285L55.569,72.285z M74.856,65.304
		c0,5.004,2.327,7.214,6.004,7.214c3.675,0,6.002-2.21,6.002-7.214v-9.307h-4.001v10.589c0,1.627-0.699,2.441-2,2.441
		c-1.303,0-2.001-0.814-2.001-2.441V55.997h-4.003V65.304L74.856,65.304z M89.957,66.887c0.396,3.652,2.815,5.631,6.12,5.631
		c3.071,0,5.306-1.816,5.306-4.538c0-2.325-1.14-3.745-3.933-4.886l-2.117-0.863c-1.722-0.695-2.14-1.299-2.14-2.14
		c0-1.14,0.906-1.907,2.279-1.907c1.721,0,2.537,1.024,2.769,2.724h2.908c-0.464-3.259-2.396-5.144-5.538-5.144
		c-3.165,0-5.328,1.861-5.328,4.373c0,1.955,1.069,3.398,3.979,4.586l1.651,0.65c1.955,0.77,2.467,1.604,2.467,2.723
		c0,1.282-0.837,2.023-2.304,2.023c-1.792,0-2.862-1.118-3.187-3.234L89.957,66.887L89.957,66.887z M104.848,72.286h9.655V70.31
		h-7.444v-5.354h6.933v-1.978h-6.933v-5.003h7.444v-1.979h-9.655V72.286L104.848,72.286z M118.482,65.887
		c0,4.375,2.001,6.633,5.585,6.633c3.583,0,5.585-2.258,5.585-6.633v-9.89h-1.583v10.542c0,2.885-1.467,4.561-4.002,4.561
		s-4.026-1.676-4.026-4.561V55.997h-1.557v9.89H118.482z M134.373,72.286h0.931V57.532l5.771,14.753h1.022l5.771-14.753v14.753h0.93
		V55.997h-1.302l-5.91,15.124l-5.935-15.124h-1.278V72.286L134.373,72.286z"/>
	<path fill="#FEFEFE" d="M55.569,52.25h3.838v-7.678l0.512,2.097l2.047,5.585h2.745l2.049-5.585l0.511-2.097v7.677h3.839V35.963
		H66.9l-2.582,6.398L63.34,45.27l-0.977-2.908l-2.584-6.398h-4.21V52.25L55.569,52.25z M75.298,52.25h10.004v-2.908h-6.771v-3.887
		h6.446v-2.931h-6.446v-3.63h6.771v-2.932H75.298V52.25L75.298,52.25z M91.981,49.878V38.383h2.14c2.303,0,3.816,1.326,3.816,4.212
		v3.396c0,2.514-1.466,3.887-3.816,3.887H91.981L91.981,49.878z M89.234,52.25h4.468c4.443,0,7.002-2.141,7.002-7.562v-1.187
		c0-5.42-2.559-7.539-7.027-7.539h-4.444L89.234,52.25L89.234,52.25z M104.778,52.25h2.208V35.963h-2.208V52.25L104.778,52.25z
		 M110.548,52.25h1.676l1.188-3.584h7.212l1.187,3.584h1.675l-5.583-16.287h-1.794L110.548,52.25L110.548,52.25z M113.852,47.225
		l2.815-8.237l0.351-1.255l0.324,1.255l2.818,8.237H113.852z M54.662,26.397c0.186,3.723,2.909,6.049,6.305,6.049
		c3.025,0,5.515-1.955,5.515-4.863c0-2.396-1.375-3.7-5.119-5.282c-1.769-0.746-2.256-1.303-2.256-1.978
		c0-0.744,0.675-1.138,1.303-1.138c1.255,0,1.721,0.976,1.861,1.977h4.165c-0.42-3.257-2.699-5.467-5.841-5.467
		c-3.047,0-5.675,1.839-5.675,4.793c0,2.047,1.255,3.63,4.35,4.932c2.49,1.046,3.002,1.583,3.002,2.35
		c0,0.813-0.722,1.187-1.35,1.187c-1.489,0-2.07-1.35-2.093-2.56L54.662,26.397L54.662,26.397z M69.109,24.256
		c0,5.748,2.141,8.191,5.794,8.191c3.442,0,5.676-2.024,6.049-6.748h-4.025c-0.164,2.442-0.769,3.234-1.885,3.234
		c-1.141,0-1.746-0.698-1.746-2.651V21.86c0-1.954,0.651-2.652,1.746-2.652c1.14,0,1.745,0.814,1.885,3.233h4.025
		c-0.373-4.651-2.583-6.746-6.049-6.746c-3.653,0-5.794,2.443-5.794,8.19V24.256L69.109,24.256z M84.117,32.215h3.257V15.927h-3.257
		V32.215z M91.469,32.215h9.819v-2.397h-7.144v-4.698h6.701v-2.398h-6.701v-4.374h7.144v-2.42h-9.819V32.215L91.469,32.215z
		 M104.939,32.215h2.212V19.65l0.744,1.513l6.631,11.052h2.304V15.927h-2.21v12.447l-0.743-1.513l-6.564-10.936h-2.373V32.215
		L104.939,32.215z M121.272,25.118c0,4.606,2.002,7.329,5.561,7.329c3.188,0,5.073-2.165,5.422-5.747h-1.604
		c-0.373,3.024-1.723,4.327-3.817,4.327c-2.698,0-3.909-2.117-3.909-6.002v-2.629c0-3.281,1.469-5.259,3.909-5.259
		c2.095,0,3.444,1.35,3.817,4.258h1.604c-0.371-3.56-2.327-5.701-5.422-5.701c-3.63,0-5.561,2.792-5.561,7.329V25.118
		L121.272,25.118z M136.536,32.215h9.097v-0.884h-8.165v-7.027h7.91v-0.885h-7.91v-6.607h8.165v-0.885h-9.097V32.215z"/>
	<polygon fill="#FEFEFE" points="148.238,24.281 161.624,24.281 161.624,23.514 148.238,23.514 	"/>
	<polygon fill="#FEFEFE" points="154.551,30.59 155.315,30.59 155.315,17.205 154.551,17.205 	"/>
</g>
</svg>
