<?xml version="1.0" encoding="utf-8"?>
<!-- Generator: Adobe Illustrator 16.0.0, SVG Export Plug-In . SVG Version: 6.00 Build 0)  -->
<!DOCTYPE svg PUBLIC "-//W3C//DTD SVG 1.1//EN" "http://www.w3.org/Graphics/SVG/1.1/DTD/svg11.dtd">
<svg version="1.1" id="Layer_1" xmlns="http://www.w3.org/2000/svg" xmlns:xlink="http://www.w3.org/1999/xlink" x="0px" y="0px"
	 width="208px" height="88px" viewBox="0 0 208 88" enable-background="new 0 0 208 88" xml:space="preserve">
<g id="Symbols">
	<g id="Menu-_x5B_overImage_x5D_">
		<g id="Group-9">
			<g id="Group-3" transform="translate(1.000000, 49.000000)">
				<g id="Clip-2">
				</g>
				<defs>
					<filter id="Adobe_OpacityMaskFilter" filterUnits="userSpaceOnUse" x="56.393" y="6.744" width="91.767" height="16.489">
						<feColorMatrix  type="matrix" values="1 0 0 0 0  0 1 0 0 0  0 0 1 0 0  0 0 0 1 0"/>
					</filter>
				</defs>
				<mask maskUnits="userSpaceOnUse" x="56.393" y="6.744" width="91.767" height="16.489" id="mask-2_1_">
					<g filter="url(#Adobe_OpacityMaskFilter)">
						<polygon id="path-1_1_" fill="#FFFFFF" points="56.393,23.233 148.16,23.233 148.16,6.744 56.393,6.744 						"/>
					</g>
				</mask>
				<path id="Fill-1" mask="url(#mask-2_1_)" fill="#FEFEFE" d="M56.393,23.004h3.779v-7.559l0.504,2.062l2.015,5.496h2.702
					l2.016-5.496l0.503-2.062v7.559h3.779V6.973h-4.145l-2.542,6.298l-0.962,2.863l-0.962-2.863l-2.542-6.298h-4.146V23.004z
					 M75.378,16.134c0,4.924,2.29,7.1,5.909,7.1c3.618,0,5.909-2.176,5.909-7.1V6.973h-3.939v10.42c0,1.604-0.687,2.406-1.969,2.406
					c-1.283,0-1.97-0.803-1.97-2.406V6.973h-3.939V16.134z M90.242,17.69c0.39,3.597,2.771,5.543,6.023,5.543
					c3.022,0,5.221-1.786,5.221-4.467c0-2.289-1.122-3.686-3.87-4.809l-2.085-0.846c-1.695-0.688-2.106-1.284-2.106-2.108
					c0-1.123,0.893-1.877,2.243-1.877c1.694,0,2.498,1.006,2.726,2.678h2.863c-0.458-3.206-2.359-5.061-5.451-5.061
					c-3.115,0-5.244,1.832-5.244,4.306c0,1.924,1.053,3.344,3.916,4.512l1.626,0.642c1.924,0.755,2.427,1.58,2.427,2.68
					c0,1.259-0.824,1.991-2.267,1.991c-1.763,0-2.817-1.099-3.138-3.184H90.242z M104.899,23.004h9.504v-1.946h-7.329V15.79h6.825
					v-1.946h-6.825V8.919h7.329V6.973h-9.504V23.004z M118.318,16.707c0,4.305,1.97,6.526,5.498,6.526
					c3.525,0,5.495-2.222,5.495-6.526V6.973h-1.557v10.375c0,2.841-1.442,4.489-3.938,4.489c-2.497,0-3.964-1.648-3.964-4.489V6.973
					h-1.534V16.707z M133.96,23.004h0.917V8.484l5.68,14.52h1.007l5.681-14.52v14.52h0.916V6.973h-1.283l-5.815,14.887l-5.84-14.887
					h-1.262V23.004z"/>
			</g>
			<path id="Fill-4" fill="#FEFEFE" d="M57.393,52.283h3.779v-7.558l0.504,2.062l2.015,5.496h2.702l2.016-5.496l0.503-2.062v7.558
				h3.779V36.252h-4.145l-2.542,6.298l-0.962,2.863L64.08,42.55l-2.542-6.298h-4.146V52.283z M76.814,52.283h9.847v-2.862h-6.665
				v-3.824h6.344V42.71h-6.344v-3.572h6.665v-2.886h-9.847V52.283z M93.234,49.946V38.634h2.107c2.268,0,3.756,1.306,3.756,4.145
				v3.344c0,2.474-1.443,3.823-3.756,3.823H93.234z M90.532,52.283h4.397c4.375,0,6.894-2.106,6.894-7.443v-1.167
				c0-5.336-2.519-7.421-6.917-7.421h-4.374V52.283z M105.83,52.283h2.176V36.252h-2.176V52.283z M111.51,52.283h1.649l1.166-3.526
				h7.101l1.169,3.526h1.647l-5.497-16.031h-1.763L111.51,52.283z M114.761,47.337l2.771-8.108l0.345-1.236l0.32,1.236l2.771,8.108
				H114.761z"/>
			<g id="Group-8">
				<g id="Clip-7">
				</g>
				<defs>
					<filter id="Adobe_OpacityMaskFilter_1_" filterUnits="userSpaceOnUse" x="56.5" y="16.302" width="89.545" height="16.489">
						<feColorMatrix  type="matrix" values="1 0 0 0 0  0 1 0 0 0  0 0 1 0 0  0 0 0 1 0"/>
					</filter>
				</defs>
				<mask maskUnits="userSpaceOnUse" x="56.5" y="16.302" width="89.545" height="16.489" id="mask-4_1_">
					<g filter="url(#Adobe_OpacityMaskFilter_1_)">
						<polygon id="path-3_1_" fill="#FFFFFF" points="146.045,16.302 56.5,16.302 56.5,24.546 56.5,32.791 146.045,32.791 						"/>
					</g>
				</mask>
				<path id="Fill-6" mask="url(#mask-4_1_)" fill="#FEFEFE" d="M56.5,26.837c0.183,3.664,2.863,5.954,6.207,5.954
					c2.978,0,5.428-1.923,5.428-4.786c0-2.359-1.352-3.642-5.039-5.2c-1.741-0.732-2.221-1.282-2.221-1.945
					c0-0.733,0.664-1.123,1.282-1.123c1.236,0,1.695,0.961,1.832,1.947h4.099c-0.412-3.207-2.657-5.382-5.748-5.382
					c-3,0-5.588,1.81-5.588,4.718c0,2.015,1.237,3.572,4.283,4.855c2.451,1.031,2.955,1.557,2.955,2.313
					c0,0.801-0.71,1.168-1.329,1.168c-1.466,0-2.039-1.329-2.061-2.52H56.5z M70.722,24.73c0,5.657,2.107,8.061,5.703,8.061
					c3.389,0,5.588-1.992,5.954-6.642h-3.961c-0.161,2.405-0.756,3.184-1.856,3.184c-1.122,0-1.717-0.688-1.717-2.61v-4.352
					c0-1.924,0.642-2.611,1.717-2.611c1.122,0,1.718,0.802,1.856,3.184h3.961c-0.366-4.58-2.542-6.642-5.954-6.642
					c-3.596,0-5.703,2.405-5.703,8.062V24.73z M85.494,32.562H88.7V16.531h-3.206V32.562z M92.73,32.562h9.666v-2.359h-7.032v-4.625
					h6.595v-2.36h-6.595v-4.305h7.032v-2.382H92.73V32.562z M105.99,32.562h2.176V20.196l0.732,1.488l6.526,10.878h2.269V16.531
					h-2.176v12.252l-0.732-1.489l-6.459-10.764h-2.336V32.562z M122.066,25.578c0,4.534,1.97,7.213,5.474,7.213
					c3.138,0,4.993-2.129,5.337-5.656h-1.58c-0.367,2.977-1.695,4.259-3.757,4.259c-2.655,0-3.847-2.083-3.847-5.908v-2.589
					c0-3.229,1.443-5.176,3.847-5.176c2.062,0,3.39,1.33,3.757,4.192h1.58c-0.366-3.504-2.291-5.611-5.337-5.611
					c-3.572,0-5.474,2.749-5.474,7.214V25.578z M137.091,32.562h8.954v-0.871h-8.038v-6.917h7.786v-0.87h-7.786v-6.504h8.038v-0.87
					h-8.954V32.562z"/>
			</g>
		</g>
	</g>
</g>
</svg>
