<?xml version="1.0" encoding="utf-8"?>
<!-- Generator: Adobe Illustrator 22.1.0, SVG Export Plug-In . SVG Version: 6.00 Build 0)  -->
<svg version="1.1" id="Layer_1" xmlns="http://www.w3.org/2000/svg" xmlns:xlink="http://www.w3.org/1999/xlink" x="0px" y="0px"
	 viewBox="0 0 184.3 96.7" style="enable-background:new 0 0 184.3 96.7;" xml:space="preserve">
<style type="text/css">
	.st0{fill:#FFFFFF;}
</style>
<g id="XMLID_251_">
	<path id="XMLID_253_" class="st0" d="M155.3,34.4l9.6,16.9v11h1.9v-11l9.6-16.9h-2.1l-8.4,14.9l-8.4-14.9H155.3z M136.7,68.3h-2.4
		v27.9h1.9V72l9.3,24.2h2.3l9.3-24.2v24.2h1.9V68.3h-2.4L146.6,94L136.7,68.3z M110.6,68.3h-2.7v16.6c0,8.3,3.8,11.7,9.9,11.7
		c6.1,0,9.9-3.4,9.9-11.7V68.3h-2.7V86c0,5.6-2.8,8.1-7.2,8.1c-4.4,0-7.2-2.5-7.2-8.1V68.3z M84.6,68.3v27.9l17.4,0v-3.4l-13.6,0
		v-9.2l12.7,0v-3.4l-12.7,0v-8.6l13.6,0v-3.4L84.6,68.3z M64.7,86.9h-5c0.7,6.3,4.8,9.6,10.5,9.6c5.3,0,9.1-3.1,9.1-7.8
		c0-4-2-6.4-6.7-8.4l-3.6-1.5c-2.9-1.2-3.7-2.2-3.7-3.7c0-2,1.6-3.3,3.9-3.3c2.9,0,4.3,1.8,4.7,4.7h5c-0.8-5.6-4.1-8.8-9.5-8.8
		c-5.4,0-9.1,3.2-9.1,7.5c0,3.3,1.8,5.8,6.8,7.8l2.8,1.1c3.3,1.3,4.2,2.7,4.2,4.7c0,2.2-1.4,3.5-3.9,3.5
		C67.1,92.4,65.3,90.5,64.7,86.9 M40.6,68.3h-5.7v16.3c0,8.2,3.7,11.9,10.1,11.9c6.4,0,10.1-3.8,10.1-11.9V68.3h-5.7v18.2
		c0,3.3-1.7,5.1-4.4,5.1s-4.4-1.8-4.4-5.1V68.3z M9.2,68.3H2v27.9h6.6V83l0.9,3.6l3.5,9.6h4.7l3.5-9.6L22,83v13.1h6.6V68.3h-7.2
		l-4.4,11l-1.7,5l-1.7-5L9.2,68.3z M8.5,34.4H2v27.9h6.6V34.4z M7.7,8.1c0-1.3,1.2-2,2.2-2c2.2,0,2.9,1.7,3.2,3.4h7.1
		c-0.7-5.6-4.6-9.4-10-9.4c-5.2,0-9.7,3.1-9.7,8.2c0,3.5,2.2,6.2,7.4,8.4c4.3,1.8,5.1,2.7,5.1,4c0,1.4-1.2,2-2.3,2
		c-2.5,0-3.5-2.3-3.6-4.4H0.1c0.3,6.4,5,10.4,10.8,10.4c5.2,0,9.4-3.3,9.4-8.3c0-4.1-2.3-6.3-8.8-9C8.6,10.2,7.7,9.3,7.7,8.1
		 M27.7,45.8l-7-11.3h-5.8v27.9h6.3V50.9L21,45.8l2.5,5.1l7,11.4h5.8V34.4h-6.3v11.3l0.2,5.1L27.7,45.8z M31.1,18.3v-7.6
		c0-3.3,1.1-4.5,3-4.5c2,0,3,1.4,3.2,5.5h6.9c-0.6-8-4.4-11.5-10.4-11.5c-6.3,0-9.9,4.2-9.9,14v0.6c0,9.8,3.7,14,9.9,14
		c5.9,0,9.7-3.5,10.4-11.5h-6.9c-0.3,4.2-1.3,5.5-3.2,5.5C32.1,22.8,31.1,21.6,31.1,18.3 M49.5,28.5h5.6V0.6h-5.6V28.5z M56.6,51.6
		c0,3.9-1.8,5.7-5.4,5.7h-2.9V39.4h2.9c3.7,0,5.4,2,5.4,7.1V51.6z M62.5,47.5c0-9.4-4.3-13.1-12-13.1h-8v27.9h8
		c7.6,0,11.9-3.8,11.9-13.2V47.5z M61.9,28.5h16.8v-4.1H66.5v-8H78v-4.1H66.5V4.7h12.2V0.6H61.9V28.5z M82.5,34.4v18.3
		c0,3.8-1.9,5.9-5.3,5.9c-3.2,0-5.3-2.2-5.3-5.9V34.4h-4.7v16.6c0,7.8,3.6,11.6,10,11.6c6.3,0,9.9-3.8,9.9-11.6V34.4H82.5z
		 M99.8,28.5h3.9V0.6H100v21.1l-1.3-2.9L88.7,0.6h-4.1v27.9h3.8V7.1l1.3,3.1L99.8,28.5z M110.2,41.8c-0.9-5.2-4-7.8-8.8-7.8
		c-5.3,0-8.7,3.2-8.7,7.1c0,0.6,0.1,1.2,0.2,1.8c0.6,2.4,2.6,4.2,6.2,5.7l3.5,1.4c3.4,1.3,4.7,2.8,4.7,5.2c0,2.7-2,4.5-5.1,4.5
		c-3.5,0-5.6-2-6.4-6.1h-3.7c0.6,5.9,4.5,9.2,9.9,9.2c5.3,0,9-3.2,9-7.5c0-3.1-1.2-5.2-3.9-6.7c-0.9-0.6-2-1.1-3.3-1.6l-3.5-1.4
		c-2.7-1.1-4-2.5-4-4.3c0-2.5,1.9-4.1,4.8-4.1c3.2,0,5,1.7,5.6,5.4h3.6h0C110.3,42.3,110.3,42,110.2,41.8 M112.4,16.1v-4.5
		c0-5.6,2.5-9,6.7-9c3.6,0,5.9,2.3,6.5,7.3h2.7c-0.6-6.1-4-9.8-9.3-9.8c-6.2,0-9.5,4.8-9.5,12.5v3.6c0,7.9,3.4,12.5,9.5,12.5
		c5.5,0,8.7-3.7,9.3-9.8h-2.7c-0.6,5.2-2.9,7.4-6.5,7.4C114.4,26.4,112.4,22.8,112.4,16.1 M123.2,36.9h7.3v-2.5h-17.2v2.5h7.3v25.4
		h2.7V36.9z M134.3,28.5h16v-1.7h-14.2V15h13.5v-1.7h-13.5v-11h14.2V0.6h-16V28.5z M150.3,41.8v1.1c0,3.4-2.2,5.2-6.5,5.2h-7.2V36.6
		h7.2C148.1,36.6,150.3,38.3,150.3,41.8 M152.6,42.3c0-5.1-3.1-7.9-9-7.9h-9.3v0h0v27.9h1.9h0.4V50.2l2.1,0l10.7,12.1h2.8
		l-10.7-12.1h2.2c0,0,0,0,0,0h0C149.6,50.2,152.6,47.2,152.6,42.3 M178.7,14.9v-1.5h-11.1V2.3h-1.5v11.1H155v1.5h11.1V26h1.5V14.9
		H178.7z"/>
</g>
</svg>
