<svg id="Layer_1" data-name="Layer 1" xmlns="http://www.w3.org/2000/svg" viewBox="0 0 382.68 199.59"><defs><style>.cls-1{fill:#fff;}</style></defs><title>MSI Black</title><path class="cls-1" d="M356.37,94.61h10.1a1.11,1.11,0,0,1,1.3,1.3v3.21a1,1,0,0,1-1.3,1.13h-10.1v10.1a1.11,1.11,0,0,1-1.3,1.3h-3.21a1,1,0,0,1-1.13-1.3v-10.1h-10.1a1.09,1.09,0,0,1-1.3-1.3v-3a1.11,1.11,0,0,1,1.3-1.3h10.1V84.51a1.09,1.09,0,0,1,1.3-1.3h3a1.11,1.11,0,0,1,1.3,1.3v10.1Z"/><path class="cls-1" d="M382.68,82.37a3.3,3.3,0,0,0-1.49-2.57L355,64.7a3.3,3.3,0,0,0-3,0l-26.15,15.1a3.3,3.3,0,0,0-1.49,2.57v30.19a3.3,3.3,0,0,0,1.49,2.57l26.15,15.1a3.3,3.3,0,0,0,3,0l26.15-15.1a3.3,3.3,0,0,0,1.49-2.57V82.37Zm-29.12,34.77a19.67,19.67,0,1,1,19.67-19.67A19.67,19.67,0,0,1,353.55,117.14Z"/><path class="cls-1" d="M18.47,126.28A56.39,56.39,0,0,1,2.6,123.85c-2.25-.78-2.69-1.82-2.43-3.47l1.13-7c0.26-1.82,1.3-2.34,3-1.73a45.22,45.22,0,0,0,13.87,2.69h0.43c5.38,0,7.28-1.39,7.28-4.94V108.5c0-3.64-1.73-4.34-6.85-5.29l-5.9-1.13C3,100.18,0,95.15,0,86.83V84.4c0-4.94,1.3-8.58,3.9-11.1,3.29-3.21,8.58-4.68,17.25-4.68h0.61A47.9,47.9,0,0,1,36.5,70.87c1.82,0.69,2.17,1.65,1.65,3.9L36.68,81.1c-0.35,1.65-1.3,2.08-3.21,1.47A37.57,37.57,0,0,0,22,80.76H21.68c-5.81,0-7.54,1.21-7.54,4.34v0.78c0,2.77,1.21,3.64,5.64,4.51l6.59,1.3c10.06,2,13.7,5,13.7,15.61v2.08c0,11.44-5.81,16.91-20.55,16.91h-1Z"/><path class="cls-1" d="M70.3,126.28c-8.5,0-14.31-1.82-18-5.81-3.55-3.73-4.94-9.28-4.94-17.69V92.11c0-8.41,1.47-13.87,5-17.6,3.73-4,9.54-5.9,18-5.9H71c5.64,0,12.4,1.39,17,3.81,1.3,0.69,1.65,1.47,1,3.12l-2.86,7.28a1.61,1.61,0,0,1-1.47,1.3A3.89,3.89,0,0,1,83,83.7,25.81,25.81,0,0,0,71.6,80.76H71.26c-3.82,0-6.16,1-7.46,3.12s-1.65,5.38-1.65,10.32v6.16c0,5.29.43,8.84,2.43,11.1,1.56,1.73,4.08,2.69,8.15,2.69h0.35a31.23,31.23,0,0,0,10.75-2.43,3.64,3.64,0,0,1,1.39-.35c0.69,0,1.21.43,1.56,1.82l1.47,6.24a7,7,0,0,1,.26,1.65c0,1-.52,1.65-2.6,2.43a43.71,43.71,0,0,1-14.74,2.77H70.3Z"/><path class="cls-1" d="M111.78,122.81c0,2.43-.35,2.69-3,2.69h-8.5c-2.69,0-3-.26-3-2.69V72.09c0-2.43.35-2.69,3-2.69h8.5c2.69,0,3,.26,3,2.69v50.72Z"/><path class="cls-1" d="M135,102.43a80,80,0,0,0,.52,9.71,1.6,1.6,0,0,0,1.91,1.56H155.9c2.69,0,2.95.35,2.95,2.69v6.42c0,2.08-.26,2.69-2.95,2.69H135c-8.5,0-12.4-1.82-13.09-9.1-0.52-5.29-.61-11-0.61-16.73V94.37c0-3.73.09-9.19,0.52-14,0.78-8.93,4.25-11,13.44-11H156c2.77,0,2.86.43,2.86,2.69v6.5c0,2.08-.09,2.6-2.86,2.6H137.61c-1.56,0-2.08.52-2.17,1.73-0.09,1.73-.17,5.55-0.26,8.58h18.29c2.17,0,2.77.43,2.77,2.51v6.07c0,1.82-.61,2.34-2.77,2.34H135Z"/><path class="cls-1" d="M181.72,96.28h-0.17v26.27c0,2.43-.69,2.95-3,2.95h-7.28c-2.34,0-3.21-.52-3.21-2.95V72.26c0-2.34.87-2.86,3-2.86h3.81c2.77,0,4.16.43,5.55,2.43l19.08,28.44h0.17V72.35c0-2.43.87-2.95,3.21-2.95h7.28c2.34,0,3,.52,3,2.95v50.29c0,2.34-.87,2.86-3,2.86h-3.81c-2.77,0-4.16-.52-5.55-2.43Z"/><path class="cls-1" d="M245.11,126.28c-8.5,0-14.31-1.82-18-5.81-3.55-3.73-4.94-9.28-4.94-17.69V92.11c0-8.41,1.47-13.87,5-17.6,3.73-4,9.54-5.9,18-5.9h0.61c5.64,0,12.4,1.39,17,3.81,1.3,0.69,1.65,1.47,1,3.12L261,82.84a1.61,1.61,0,0,1-1.47,1.3,3.89,3.89,0,0,1-1.65-.43,25.81,25.81,0,0,0-11.45-2.95h-0.35c-3.81,0-6.16,1-7.46,3.12S237,89.25,237,94.2v6.16c0,5.29.43,8.84,2.43,11.1,1.56,1.73,4.08,2.69,8.15,2.69h0.35a31.23,31.23,0,0,0,10.75-2.43,3.64,3.64,0,0,1,1.39-.35c0.69,0,1.21.43,1.56,1.82l1.47,6.24a7,7,0,0,1,.26,1.65c0,1-.52,1.65-2.6,2.43A43.71,43.71,0,0,1,246,126.28h-0.87Z"/><path class="cls-1" d="M284.72,102.43a80,80,0,0,0,.52,9.71,1.6,1.6,0,0,0,1.91,1.56h18.47c2.69,0,2.95.35,2.95,2.69v6.42c0,2.08-.26,2.69-2.95,2.69h-20.9c-8.5,0-12.4-1.82-13.09-9.1-0.52-5.29-.61-11-0.61-16.73V94.37c0-3.73.09-9.19,0.52-14,0.78-8.93,4.25-11,13.44-11H305.7c2.77,0,2.86.43,2.86,2.69v6.5c0,2.08-.09,2.6-2.86,2.6H287.32c-1.56,0-2.08.52-2.17,1.73-0.09,1.73-.17,5.55-0.26,8.58h18.29c2.17,0,2.77.43,2.77,2.51v6.07c0,1.82-.61,2.34-2.77,2.34H284.72Z"/><path class="cls-1" d="M51.46,50.89c0,1-.32,1.35-1.12,1.35h-3a1.16,1.16,0,0,1-1.27-1.35c-0.48-15.69-1-30.58-1.91-44.52H43.58c-3.9,11.15-8.68,25.24-12.66,34.88-1,2.3-2,2.78-3.82,2.78H25c-1.83,0-2.78-.48-3.74-2.78-4-9.64-8.76-23.74-12.66-34.88H8.06C7,20.46,6.63,35.19,6.15,50.89a1.16,1.16,0,0,1-1.27,1.35h-3c-0.8,0-1.12-.4-1.12-1.35C1.37,35,2,18.63,3.44,3.1,3.6,1.36,4.24.71,6.23,0.71H9.34c2.07,0,2.63.16,3.5,2.55,4,10.83,8.92,25.09,13.06,35.75h0.4c4.14-10.66,9.23-24.92,13.06-35.75,0.88-2.39,1.43-2.55,3.5-2.55H46c2,0,2.63.65,2.79,2.39C49.87,18.48,50.82,35.12,51.46,50.89Z"/><path class="cls-1" d="M96.68,35.51c0,5.9-1.35,10.28-4.3,13.23C89.51,51.52,85.29,53,78.84,53S68.17,51.52,65.3,48.74C62.36,45.79,61,41.41,61,35.51V2.07A1.24,1.24,0,0,1,62.28.71h2.94A1.24,1.24,0,0,1,66.5,2.07V35.19c0,4.31.79,7.65,2.78,9.87s5.1,3.43,9.56,3.43,7.57-1.19,9.56-3.43,2.78-5.57,2.78-9.87V2.07A1.24,1.24,0,0,1,92.46.71H95.4a1.24,1.24,0,0,1,1.27,1.36V35.51Z"/><path class="cls-1" d="M105.9,50.65a1,1,0,0,1-.79-1.36l0.64-2.62c0.16-.72.72-1,1.67-0.64A30.26,30.26,0,0,0,119,48.5c7.57,0,11.23-3.58,11.23-9.72V37.9c0-5.73-1.75-7.8-8.44-9.39l-5.34-1.27c-7.64-1.83-11.31-5.58-11.31-12.9V13.14c0-8.6,6-13.14,15.29-13.14a38.74,38.74,0,0,1,11.39,1.51,1.21,1.21,0,0,1,1,1.75l-0.56,1.91c-0.24.88-.88,1-1.91,0.72a30.56,30.56,0,0,0-9.79-1.44c-6.53,0-9.87,3-9.87,8.76V14c0,5.73,3,7.32,8.36,8.59l5,1.19c8.76,2.07,11.71,5.5,11.71,13.3v1.27c0,9.8-6,14.58-16.64,14.58A35.68,35.68,0,0,1,105.9,50.65Z"/><path class="cls-1" d="M153.19,52.23c-3.27,0-5.33-.47-6.84-1.75s-2.23-3.34-2.47-6.37c-0.4-5.1-.48-10.19-0.48-15.53V24.36c0-3.82.16-11,.56-15.53,0.24-3,1-5.1,2.55-6.37s3.58-1.75,6.84-1.75h18.31a1,1,0,0,1,1.19,1.19V4a1,1,0,0,1-1.19,1.19H153.75a4.31,4.31,0,0,0-3.27,1c-0.64.64-.88,1.67-1,3.27-0.24,3.82-.48,7.49-0.48,13.93h18.87a1,1,0,0,1,1.19,1.19v2.07a1,1,0,0,1-1.19,1.19H149.05c0,7.24,0,11.63.32,15.85,0.08,1.59.32,2.63,1,3.27s1.59,0.79,3.27.79h18.07A1,1,0,0,1,172.86,49V51a1,1,0,0,1-1.19,1.19H153.19Z"/><path class="cls-1" d="M217,35.51c0,5.9-1.35,10.28-4.3,13.23-2.87,2.78-7.09,4.22-13.54,4.22s-10.67-1.44-13.54-4.22c-2.95-2.95-4.3-7.33-4.3-13.23V2.07A1.24,1.24,0,0,1,182.56.71h2.94a1.24,1.24,0,0,1,1.28,1.36V35.19c0,4.31.79,7.65,2.78,9.87s5.1,3.43,9.56,3.43,7.57-1.19,9.56-3.43,2.78-5.57,2.78-9.87V2.07A1.24,1.24,0,0,1,212.74.71h2.95A1.24,1.24,0,0,1,217,2.07V35.51Z"/><path class="cls-1" d="M277.23,50.89c0,1-.32,1.35-1.12,1.35h-3a1.16,1.16,0,0,1-1.28-1.35c-0.48-15.69-1-30.58-1.91-44.52h-0.56c-3.9,11.15-8.68,25.24-12.66,34.88-1,2.3-2,2.78-3.82,2.78h-2.07C249,44,248,43.55,247,41.25c-4-9.64-8.76-23.74-12.66-34.88h-0.56c-1,14.09-1.43,28.82-1.91,44.52a1.16,1.16,0,0,1-1.27,1.35h-3c-0.8,0-1.12-.4-1.12-1.35,0.64-15.85,1.28-32.25,2.71-47.78,0.16-1.74.8-2.39,2.79-2.39h3.11c2.07,0,2.63.16,3.5,2.55,4,10.83,8.92,25.09,13.06,35.75h0.4c4.14-10.66,9.23-24.92,13.06-35.75,0.88-2.39,1.43-2.55,3.5-2.55h3.11c2,0,2.63.65,2.79,2.39C275.64,18.48,276.59,35.12,277.23,50.89Z"/><path class="cls-1" d="M341.14,28.58c0,8.77-1.28,15.21-4.86,19.28-2.95,3.34-7.4,5.1-14,5.1-6.21,0-10.52-1.6-13.46-4.54-4-4.07-5.41-10.67-5.41-19.84V24.45c0-8.84,1.35-15.45,5-19.52C311.35,1.68,315.81,0,322.26,0s10.91,1.68,13.85,4.93c3.66,4.07,5,10.6,5,19.52v4.13Zm-31.94-1c0,7.41.56,13.7,3.58,17.28,2,2.3,4.94,3.66,9.48,3.66,4.94,0,8-1.51,10-4.14,2.63-3.66,3.11-9.8,3.11-16.8V25.4c0-6.7-.24-13.06-3.11-16.89-1.91-2.54-5-4.06-10-4.06-4.78,0-7.89,1.51-9.8,4.06-2.78,3.67-3.27,9.72-3.27,16.89v2.15Z"/><path class="cls-1" d="M360.95,5.17c-1.91,0-3,.24-3.74,1s-0.88,1.75-.88,3.58v13.7h16.53a1,1,0,0,1,1.19,1.19v2.07a1,1,0,0,1-1.19,1.19H356.33V51c0,1-.32,1.27-1.11,1.27H352c-0.79,0-1.11-.32-1.11-1.27v-42c0-2.87.79-4.94,2.31-6.29s3.67-1.92,6.53-1.92h14.77a1,1,0,0,1,1.19,1V4.14a1,1,0,0,1-1.19,1h-13.5Z"/><path class="cls-1" d="M16.65,196.13c0,2.43-.35,2.69-3,2.69H5.12c-2.69,0-3-.26-3-2.69V145.4c0-2.43.35-2.69,3-2.69h8.5c2.69,0,3,.26,3,2.69v50.72Z"/><path class="cls-1" d="M41.06,169.59H40.89v26.27c0,2.43-.69,2.95-3,2.95H30.57c-2.34,0-3.21-.52-3.21-2.95V145.58c0-2.34.87-2.86,3-2.86h3.82c2.77,0,4.16.43,5.55,2.43l19.08,28.44H59V145.66c0-2.43.87-2.95,3.21-2.95H69.5c2.34,0,3,.52,3,2.95V196c0,2.34-.87,2.86-3,2.86H65.69c-2.77,0-4.16-.52-5.55-2.43Z"/><path class="cls-1" d="M98.49,198.81c-4.34,0-9.71-.09-12-0.35s-3.29-1.47-3.29-3.38V147.75c0-3.47,1-4.25,3.9-4.6,3.47-.35,8.15-0.61,13.61-0.61H102c10.06,0,16.82,1.82,21.24,6.07,4.08,4,6.07,10.23,6.07,19.34v5c0,9.62-1.91,15.43-6.16,19.51-4.51,4.34-11.62,6.33-22.8,6.33H98.49ZM97.8,156.07v28.79c0,1.47.43,1.82,1.39,1.91,1.13,0.09,3,.09,3.9.09h0.43c3.38,0,5.9-.78,7.63-2.51,2.25-2.25,3.29-6.07,3.29-12.05v-3.55c0-6-1-9.8-2.95-11.88-1.82-1.91-4.51-2.43-8.06-2.43H103c-1,0-2.77.09-3.73,0.17C98.14,154.68,97.8,155,97.8,156.07Z"/><path class="cls-1" d="M168.11,145.4c0-2.43.26-2.69,3-2.69h8.5c2.77,0,3,.26,3,2.69v33.81c0,7.54-1.39,12-5.29,15.61-3.47,3.12-9,4.77-16.82,4.77h-1c-8.06,0-13.44-1.65-16.91-4.77-3.9-3.64-5.2-8.67-5.2-15.61V145.4c0-2.43.26-2.69,3-2.69h8.5c2.77,0,3.12.26,3.12,2.69v33.38c0,3.47.43,5.64,1.73,6.94s3.21,1.73,6.07,1.73h0.43c2.86,0,4.86-.52,6.07-1.73s1.73-3.47,1.73-6.94V145.4Z"/><path class="cls-1" d="M209.29,199.59a56.39,56.39,0,0,1-15.87-2.43c-2.25-.78-2.69-1.82-2.43-3.47l1.13-7c0.26-1.82,1.3-2.34,3-1.73A45.22,45.22,0,0,0,209,187.63h0.43c5.38,0,7.28-1.39,7.28-4.94v-0.87c0-3.64-1.73-4.34-6.85-5.29L204,175.4c-10.14-1.91-13.18-6.94-13.18-15.26v-2.43c0-4.94,1.3-8.58,3.9-11.1,3.29-3.21,8.58-4.68,17.25-4.68h0.61a47.9,47.9,0,0,1,14.74,2.25c1.82,0.69,2.17,1.65,1.65,3.9l-1.47,6.33c-0.35,1.65-1.3,2.08-3.21,1.47a37.56,37.56,0,0,0-11.45-1.82H212.5c-5.81,0-7.54,1.21-7.54,4.34v0.78c0,2.77,1.21,3.64,5.64,4.51l6.59,1.3c10.06,2,13.7,5,13.7,15.61v2.08c0,11.45-5.81,16.91-20.55,16.91h-1Z"/><path class="cls-1" d="M237.92,154.51c-2.25,0-2.77-.52-2.77-2.6v-6.5c0-2.25.52-2.69,2.77-2.69h37.37c2.25,0,2.77.43,2.77,2.69v6.5c0,2.08-.52,2.6-2.77,2.6H263.93V196c0,2.17-.52,2.77-3.21,2.77h-8.24c-2.69,0-3.21-.61-3.21-2.77V154.51H237.92Z"/><path class="cls-1" d="M299.37,196.13c0,2.43-.35,2.69-3,2.69h-8.58c-2.6,0-2.95-.26-2.95-2.69V146c0-2.43.87-3.21,2.95-3.47,3.21-.35,8.41-0.61,14.39-0.61H304c8.93,0,14.91,1.47,18.55,5,2.69,2.6,4.16,6.24,4.16,11.79v1.82c0,5.81-1.13,9.8-3.73,12.75a14.49,14.49,0,0,1-6.59,4.08l11,18.55c1,1.65.43,2.86-2.08,2.86h-8.5c-2.95,0-3.73-.52-4.68-2.43l-8.67-16.65a1.45,1.45,0,0,0-1.56-1h-2.51v17.34Zm3.82-42.4a20.4,20.4,0,0,0-2.43.09,1.33,1.33,0,0,0-1.39,1.56v11.88H305c2.95,0,4.51-.35,5.55-1.39s1.47-2.69,1.47-5.12v-1.13a6,6,0,0,0-1.3-4.34c-1-1.13-2.95-1.56-5.9-1.56h-1.65Z"/><path class="cls-1" d="M348.81,198.81c-2.17,0-2.77-.61-2.77-2.69V182.25c-5.12-9.71-11.53-24.54-14.91-36.68-0.52-2,0-2.86,1.65-2.86h9.1c2.51,0,3.21-.09,3.73,2.08,1.91,7.37,5.29,17.95,7.72,24.62h0.43c2.51-6.68,5.64-17.25,7.54-24.62,0.52-2.17,1.21-2.08,3.73-2.08h8.84c1.65,0,2.17.87,1.65,2.86a206.54,206.54,0,0,1-14.83,36.59v14c0,2.08-.61,2.69-2.77,2.69h-9.1Z"/></svg>