<svg id="Layer_1" data-name="Layer 1" xmlns="http://www.w3.org/2000/svg" xmlns:xlink="http://www.w3.org/1999/xlink" width="108" height="57" viewBox="0 0 108 57"><defs><style>.cls-1{fill:none;}.cls-2{clip-path:url(#clip-path);}.cls-3{fill:#fff;}</style><clipPath id="clip-path"><rect class="cls-1" width="108" height="57"/></clipPath></defs><title>msi-logo-aligned</title><g class="cls-2"><path class="cls-3" d="M79.77,56.77h.94V42l5.85,14.8h1L93.45,42v14.8h.94V40.43H93.08l-6,15.17-6-15.17h-1.3ZM64,50.35C64,54.74,66,57,69.62,57s5.66-2.26,5.66-6.65V40.43h-1.6V51c0,2.89-1.49,4.57-4.06,4.57S65.54,53.9,65.54,51V40.43H64ZM50.61,56.77H60.4v-2H52.85V49.41h7v-2h-7v-5H60.4v-2H50.61ZM35.45,51.35A5.88,5.88,0,0,0,41.65,57C44.77,57,47,55.18,47,52.45c0-2.33-1.16-3.76-4-4.9l-2.15-.86c-1.75-.7-2.17-1.31-2.17-2.15,0-1.14.92-1.91,2.31-1.91,1.75,0,2.57,1,2.81,2.73H46.8c-.47-3.27-2.43-5.16-5.62-5.16s-5.4,1.87-5.4,4.39c0,2,1.09,3.41,4,4.6l1.68.65c2,.77,2.5,1.61,2.5,2.73,0,1.28-.85,2-2.34,2-1.82,0-2.9-1.12-3.23-3.24Zm-15-1.59c0,5,2.36,7.24,6.09,7.24s6.09-2.22,6.09-7.24V40.43H28.55V51c0,1.63-.71,2.45-2,2.45s-2-.82-2-2.45V40.43H20.43Zm-19.51,7H4.81v-7.7l.52,2.1,2.08,5.6h2.78l2.08-5.6.52-2.1v7.7h3.89V40.43H12.41L9.79,46.85l-1,2.92-1-2.92L5.19,40.43H.92Z"/><path class="cls-3" d="M101.79,29.2l-5.1-8.87H95.59l5.73,9.92v6.42h.94V30.25L108,20.33h-1.06Zm-17.88-.84V21.78h4.2c2.38,0,3.59,1.05,3.59,3v.61c0,1.94-1.2,3-3.59,3Zm-1.58,8.31h1.58V29.81h1.2L91,36.67h2.05l-5.92-6.86h1c3.47,0,5.29-2.1,5.29-4.71,0-3.13-1.86-4.76-5.5-4.76H82.34Zm-9.65,0h2.24V22.31h4.13v-2H68.56v2h4.13Zm-18-5.41a5.88,5.88,0,0,0,6.21,5.65c3.11,0,5.38-1.82,5.38-4.55,0-2.33-1.16-3.76-4-4.9l-2.15-.86c-1.75-.7-2.17-1.31-2.17-2.15,0-1.14.92-1.91,2.31-1.91,1.75,0,2.57,1,2.81,2.73h2.95C65.6,22,63.64,20.1,60.46,20.1s-5.4,1.87-5.4,4.39c0,2,1.09,3.41,4,4.6l1.68.65c2,.77,2.5,1.61,2.5,2.73,0,1.28-.85,2-2.34,2-1.82,0-2.9-1.12-3.23-3.24Zm-3-10.92H48.35V31c0,1.91-1,3-2.6,3s-2.6-1.05-2.6-3V20.33H39.78V29.9c0,4.78,2.19,7,6,7s6-2.22,6-7ZM24.59,36.67h5c4.53,0,7.08-2.29,7.08-7.91V28.1c0-5.6-2.55-7.77-7.08-7.77h-5Zm4.13-3.48V23.83h1.2c1.68,0,2.45.72,2.45,2.78v3.78c0,2-.68,2.8-2.45,2.8ZM8,36.67h3.89V27.94l1.18,2.29,4.13,6.44h3.42V20.33H16.75V29l-1.18-2.29-4.08-6.42H8Zm-7.57,0H4.34V20.33H.45Z"/><path class="cls-3" d="M82.08,16.57H91.3v-.89H83v-7h8V7.75H83V1.12H91.3V.23H82.08ZM67,9.45c0,4.62,2,7.35,5.64,7.35,3.23,0,5.14-2.17,5.5-5.76H76.53c-.38,3-1.75,4.34-3.87,4.34-2.74,0-4-2.12-4-6V6.72c0-3.29,1.49-5.27,4-5.27,2.12,0,3.49,1.35,3.87,4.27h1.63C77.78,2.15,75.8,0,72.66,0,69,0,67,2.8,67,7.35ZM50.88,16.57h2.24V4l.76,1.52,6.72,11.09h2.34V.23H60.7V12.72l-.75-1.52L53.29.23H50.88Zm-13.71,0h10v-2.4H39.89V9.45h6.8V7h-6.8V2.66h7.24V.23h-10Zm-7.29,0h3.3V.23h-3.3Zm-15.13-8c0,5.76,2.17,8.22,5.88,8.22,3.49,0,5.76-2,6.13-6.77H22.69c-.17,2.45-.78,3.24-1.91,3.24S19,12.58,19,10.62V6.18c0-2,.66-2.66,1.77-2.66s1.77.82,1.91,3.24h4.08C26.39,2.1,24.15,0,20.63,0c-3.7,0-5.88,2.45-5.88,8.22ZM0,10.74A6.16,6.16,0,0,0,6.39,16.8c3.07,0,5.59-2,5.59-4.88,0-2.4-1.39-3.71-5.19-5.3C5,5.88,4.51,5.32,4.51,4.64A1.22,1.22,0,0,1,5.83,3.5c1.27,0,1.75,1,1.89,2h4.22A5.88,5.88,0,0,0,6,0C2.93,0,.26,1.84.26,4.81c0,2.05,1.27,3.64,4.41,4.95,2.52,1.05,3,1.59,3,2.36A1.25,1.25,0,0,1,6.35,13.3c-1.51,0-2.1-1.35-2.12-2.57Z"/><rect class="cls-3" x="93.95" y="7.84" width="13.57" height="0.77"/><rect class="cls-3" x="100.35" y="1.51" width="0.78" height="13.43"/></g></svg>
