<?xml version="1.0" encoding="utf-8"?>
<!-- Generator: Adobe Illustrator 22.1.0, SVG Export Plug-In . SVG Version: 6.00 Build 0)  -->
<svg version="1.1" id="Layer_1" xmlns="http://www.w3.org/2000/svg" xmlns:xlink="http://www.w3.org/1999/xlink" 
	 viewBox="0 0 697.8 396">
<style type="text/css">
	.st0{fill:#FFFFFF;}
</style>
<path class="st0" d="M482.7,150.2h-11.6V224c0,36.9,16.9,52,44,52c27.1,0,44-15.1,44-52v-73.8h-12v78.7c0,24.9-12.4,36-32,36
	c-19.6,0-32-11.1-32-36L482.7,150.2z M367.1,150.2v123.6h77.3v-15.1H384v-40.4h56.4v-15.1H384v-38.2h60.4v-15.1h-77.3V150.2z
	 M32,150.2H0v123.6h29.3v-58.2l4,16l15.6,42.2h20.9l15.6-42.2l4-16v58.2h29.3V150.2h-32l-20,48.4l-7.6,22.2l-7.6-22.2L32,150.2z
	 M59.1,42.2c0,8-4.9,12-12.4,12H28.9V26.7h17.3c8,0,12.4,3.6,12.4,12L59.1,42.2z M88.9,123.6L60,80c17.8-4.9,29.8-21.3,28.9-39.6
	C88.9,14.7,71.1,0,40.9,0H0v123.6h28.9V80.4L56,123.6H88.9z M164.4,81.8h-23.1l8-30.2l3.6-17.8l3.6,17.8L164.4,81.8z M175.6,123.6
	h29.8L169.8,0h-33.3l-35.6,123.6h29.3l4.9-17.8h36L175.6,123.6z M210.2,150.2v80.9c0,14.7-7.6,22.7-19.6,22.7
	c-12,0-19.6-8-19.6-22.7v-80.9h-24.4v72.4c0,36,16.4,52.9,44.9,52.9s44.4-16.9,44.4-52.9v-72.4H210.2z M223.1,123.6H248V0h-24.4
	L223.1,123.6z M299.6,148.4c-24,0-40.4,14.2-40.4,33.3c0,14.7,8,25.8,30.2,34.7l12.4,4.9c14.7,5.8,18.7,12,18.7,20.4
	c0,9.8-6.2,15.6-17.3,15.6c-13.8,0-21.8-8.4-24-24.4h-22.2c3.1,27.6,21.3,42.7,46.7,42.7c23.6,0,40.4-13.8,40.4-34.2
	c0-17.8-8.9-28.4-29.8-37.3l-16-6.7c-13.3-5.3-16.4-9.8-16.4-16.4c0-8.4,7.1-14.7,17.3-14.7c12.9,0,19.1,7.6,20.9,20.9h22.2
	C338.2,162.7,323.6,148.4,299.6,148.4 M347.6,105.3h-50.2V0h-20.4v123.6h70.2L347.6,105.3z M449.8,123.6L480,0h-15.1l-22.7,98.2
	L416.9,0h-10.2l-24.4,96.9L358.7,0h-15.1l30.7,123.6H388l23.6-94.2l24,94.2H449.8z M555.6,85.8h-48.4l21.8-63.1l2.7-9.3l2.7,9.3
	L555.6,85.8z M580.9,123.6L538.2,0h-13.8l-42.2,123.6h12.9l8.9-27.1h55.1l8.9,27.1H580.9z M624,74.7L666.7,0h-9.3L620,66.2L582.7,0
	h-9.8l42.7,75.1V124h8.4L624,74.7z M697.8,273.8V150.2h-10.7l-44,114.2l-44-114.2h-10.7v123.6h8.4V166.7l41.3,107.1h10.2l41.3-107.1
	v107.1H697.8z"/>
</svg>
