<svg id="Layer_1" data-name="Layer 1" xmlns="http://www.w3.org/2000/svg" viewBox="0 0 889.49 276.46"><defs><style>.cls-1{fill:#fff;}</style></defs><title>NRM_CORE_MONO</title><path class="cls-1" d="M205,274.27H137L342.43,0h68Z"/><path class="cls-1" d="M68,274.27H0L205.39,0h68Z"/><path class="cls-1" d="M463.86,136.82h7.06c11.69,0,13.06-7.37,13.06-11.17,0-7.05-5.16-10.53-12.85-10.52h-7.27v21.7ZM444.8,173.23s0-70.68,0-73.15a2.42,2.42,0,0,1,2.51-2.44h22.14c13.69,0,19,1.69,24,5.58,6.42,5.05,9.58,13.27,9.58,21.28,0,9-4.63,22.12-19.38,24.54l19.19,24.06s2.56,2.49-.41,2.49h-18c-2.59,0-4.15-2.48-4.15-2.48L464.07,150.4h-0.21s0,20,0,22.58a2.46,2.46,0,0,1-2.45,2.59H447.14a2.3,2.3,0,0,1-2.35-2.35"/><path class="cls-1" d="M540.48,161.25c11,0,14.64-9.27,14.63-15,0-7.05-4.84-14.86-14.74-14.85s-14.43,8.43-14.43,15.07c0,5.48,4,14.75,14.54,14.75m32.13-41.76s0,51.08,0,53.57a2.48,2.48,0,0,1-2.53,2.51H557.78a2.45,2.45,0,0,1-2.67-2.42v-3.9h-0.21c-3,5.69-10.21,8.33-17.06,8.33-18.53,0-29.39-14.54-29.39-31.29,0-19.17,13.8-31.17,29.39-31.17,9.57,0,15,4.63,17.06,8.22h0.21s0-1.46,0-3.83,2.71-2.38,2.71-2.38H570.1a2.4,2.4,0,0,1,2.51,2.37"/><path class="cls-1" d="M601.72,119.5s0,51.13,0,53.6a2.42,2.42,0,0,1-2.45,2.48H586.76a2.4,2.4,0,0,1-2.53-2.48s0-51.05,0-53.52a2.49,2.49,0,0,1,2.58-2.46h12.51a2.42,2.42,0,0,1,2.4,2.38m0-19.42v8.39a2.36,2.36,0,0,1-2.4,2.43H586.81a2.39,2.39,0,0,1-2.58-2.44s0-6,0-8.41a2.35,2.35,0,0,1,2.42-2.42h12.62a2.48,2.48,0,0,1,2.45,2.45"/><path class="cls-1" d="M613.45,173.1v-73a2.39,2.39,0,0,1,2.48-2.42h12.5a2.45,2.45,0,0,1,2.5,2.44s0,70.5,0,73a2.46,2.46,0,0,1-2.5,2.52H616.15a2.43,2.43,0,0,1-2.7-2.48"/><path class="cls-1" d="M640.51,117.12h13.17a3.49,3.49,0,0,1,3.21,2.41L665,153.46h0.21s8.33-31.5,9-33.92a3.24,3.24,0,0,1,3.08-2.42h9.88a3.34,3.34,0,0,1,3.07,2.41l9,33.93h0.21s7.58-31.5,8.16-33.92a3.34,3.34,0,0,1,3.21-2.42h13c2.3,0,1.63,2.42,1.63,2.42S710,170.63,709.1,173.1a3.62,3.62,0,0,1-3.25,2.48s-8.81,0-11.28,0a3.34,3.34,0,0,1-3.09-2.49l-9.16-35.33h-0.2s-8.47,32.87-9.16,35.33a3.38,3.38,0,0,1-3.15,2.48H658.62a3.65,3.65,0,0,1-3.28-2.48s-15.68-50.72-16.41-53.56,1.58-2.42,1.58-2.42"/><path class="cls-1" d="M759.62,161.26c11,0,14.64-9.27,14.64-15,0-7.05-4.84-14.85-14.75-14.85s-14.43,8.43-14.42,15.06c0,5.48,4,14.74,14.53,14.75m32.12-41.72s0,51.2,0,53.61a2.41,2.41,0,0,1-2.46,2.43H776.79a2.45,2.45,0,0,1-2.53-2.51v-3.81H774c-2.95,5.69-10.21,8.32-17.06,8.32-18.54,0-29.39-14.53-29.39-31.28,0-19.17,13.8-31.18,29.39-31.18,9.59,0,15,4.64,17.06,8.22h0.21v-3.79c0-2.42,2.62-2.42,2.62-2.42h12.35a2.45,2.45,0,0,1,2.52,2.42"/><path class="cls-1" d="M843.13,117.12H856.7c2.39,0,1.53,2.42,1.53,2.42s-26.48,70.67-27.46,73.08a4,4,0,0,1-3.5,2.44H813.83c-2.46,0-1.5-2.43-1.5-2.43l8.26-20S800.74,122,799.84,119.54s1.49-2.43,1.49-2.43H814.9a3.74,3.74,0,0,1,3.46,2.43L829.23,151h0.21S839,122,839.8,119.54a3.6,3.6,0,0,1,3.33-2.42"/><path class="cls-1" d="M444.8,75.65v-73A2.38,2.38,0,0,1,447.25.19h12.23c2.51,0,4,2.42,4,2.42L492.3,49.17V2.69a2.4,2.4,0,0,1,2.46-2.5H508a2.41,2.41,0,0,1,2.48,2.44s0,70.55,0,73A2.46,2.46,0,0,1,508,78.13H494.75c-1.75,0-3.08-2.49-3.08-2.49L463.34,30.74V75.65a2.41,2.41,0,0,1-2.44,2.48H447.25a2.43,2.43,0,0,1-2.45-2.49"/><path class="cls-1" d="M551.53,63.81c11,0,14.64-9.27,14.64-15,0-7.05-4.85-14.85-14.74-14.85S537,42.42,537,49.06c0,5.48,4,14.75,14.53,14.75m32.13-41.71V75.65a2.41,2.41,0,0,1-2.43,2.48H568.6a2.42,2.42,0,0,1-2.43-2.48V71.82H566c-3,5.69-10.22,8.33-17.07,8.32-18.53,0-29.38-14.54-29.38-31.28,0-19.17,13.8-31.18,29.39-31.18,9.58,0,15,4.64,17.06,8.22h0.21s0-1.38,0-3.79a2.34,2.34,0,0,1,2.37-2.41h12.62a2.4,2.4,0,0,1,2.5,2.42"/><path class="cls-1" d="M603.87,0.19h12.57a2.4,2.4,0,0,1,2.43,2.42m0,0V19.68h5.83a2.48,2.48,0,0,1,2.6,2.42v8.35a2.44,2.44,0,0,1-2.46,2.5h-6s0,40.24,0,42.71a2.41,2.41,0,0,1-2.44,2.48H603.87a2.39,2.39,0,0,1-2.48-2.48V32.95h-6.2a2.44,2.44,0,0,1-2.44-2.5V22.1a2.39,2.39,0,0,1,2.44-2.43h6.19s0-14.62,0-17.06A2.39,2.39,0,0,1,603.87.19"/><path class="cls-1" d="M654,22.09s0,51.08,0,53.55a2.44,2.44,0,0,1-2.48,2.48H639a2.43,2.43,0,0,1-2.41-2.48s0-51.14,0-53.56A2.36,2.36,0,0,1,639,19.68h12.59A2.39,2.39,0,0,1,654,22.09m0-19.48s0,6,0,8.42a2.41,2.41,0,0,1-2.47,2.43H639A2.41,2.41,0,0,1,636.56,11s0-6,0-8.41A2.36,2.36,0,0,1,639,.18h12.59A2.38,2.38,0,0,1,654,2.61"/><path class="cls-1" d="M694.32,63.6c7.59,0,14-6.21,14-14.74s-6.42-14.74-14-14.75-14,6.21-14,14.75,6.42,14.75,14,14.74m0-45.82c21.28,0,31.49,16.75,31.5,31.07S715.6,79.92,694.33,79.92s-31.5-16.75-31.5-31.08S673,17.78,694.32,17.78"/><path class="cls-1" d="M734,75.65s0-51.14,0-53.55a2.43,2.43,0,0,1,2.5-2.42h11.33a2.39,2.39,0,0,1,2.5,2.42v3.8h0.21c1.79-2.84,5.47-8.22,15.91-8.22,5.58,0,11.79,2.32,15,5.06s6.73,7.37,6.73,18.85V75.65a2.45,2.45,0,0,1-2.5,2.49H773.09a2.39,2.39,0,0,1-2.47-2.48V46.22c0-4.11,0-12.12-9.16-12.12-10,0-10,8.64-10,12.22V75.65A2.4,2.4,0,0,1,749,78.13H736.41A2.4,2.4,0,0,1,734,75.65"/><path class="cls-1" d="M829.33,63.81c11,0,14.64-9.27,14.64-15C844,41.8,839.12,34,829.22,34s-14.44,8.42-14.43,15.06c0,5.48,4,14.75,14.54,14.75m32.12-41.72s0,51.09,0,53.56A2.44,2.44,0,0,1,859,78.13H846.43A2.42,2.42,0,0,1,844,75.65V71.82h-0.21c-3,5.68-10.22,8.32-17.06,8.32-18.53,0-29.39-14.53-29.38-31.28,0-19.17,13.8-31.18,29.39-31.18,9.58,0,15,4.64,17.06,8.21H844V22.17a2.42,2.42,0,0,1,2.46-2.49h12.51a2.4,2.4,0,0,1,2.52,2.41"/><path class="cls-1" d="M871.76,75.65s0-70.54,0-73A2.38,2.38,0,0,1,874.2.19H886.8a2.39,2.39,0,0,1,2.45,2.44s0,70.55,0,73a2.42,2.42,0,0,1-2.45,2.48H874.21a2.42,2.42,0,0,1-2.44-2.48"/><path class="cls-1" d="M444.8,271.45s0-70.85,0-73.16,2.43-2.28,2.43-2.28h20.57a3.61,3.61,0,0,1,3.31,2.42l14.76,48.87h0.21s13.81-46.43,14.55-48.88a3.38,3.38,0,0,1,3.16-2.42h20.85a2.38,2.38,0,0,1,2.42,2.42s0,70.57,0,73a2.44,2.44,0,0,1-2.48,2.48H511.8a2.34,2.34,0,0,1-2.44-2.48V215.39s-15.4,53.4-16.14,56.08A3.2,3.2,0,0,1,490,274h-8.23a3.27,3.27,0,0,1-3.1-2.49L462.49,215.4v0.21s0,53.35,0,55.84A2.46,2.46,0,0,1,460,274H447.23a2.44,2.44,0,0,1-2.43-2.51"/><path class="cls-1" d="M591.24,217.92s0,51,0,53.53a2.43,2.43,0,0,1-2.45,2.51H577.44a2.51,2.51,0,0,1-2.73-2.48v-3.73H574.5c-3.58,7.47-10.75,8.11-15.17,8.11-3.58,0-12-.84-17.17-7.37-4.64-5.79-5.26-10-5.27-18,0,0,0-30.13,0-32.54a2.4,2.4,0,0,1,2.47-2.42h12.51a2.5,2.5,0,0,1,2.51,2.46v29.88c0,4,0,11.69,9.37,11.69,5.06,0,10-2.62,10-11.9,0,0,0-27.2,0-29.66a2.49,2.49,0,0,1,2.58-2.46h12.4a2.37,2.37,0,0,1,2.5,2.42"/><path class="cls-1" d="M707.56,237.31c-0.74-3.48-4.22-10-13.27-10s-12.54,6.54-13.27,10h26.55Zm0,17.38h13c2.83,0,1.72,1.61,1.33,2.37a33.3,33.3,0,0,1-10.78,12.58,28.41,28.41,0,0,1-16.64,5.27,31,31,0,0,1-31-31c0-16.33,12.85-31.39,30.65-31.39S725,226.67,725,244.47c0,0.9,0,1.6-.08,2.19-0.08.93,0,2.45-2.59,2.45H680.8c1.05,7,6.85,11.06,13.69,11.06a11.78,11.78,0,0,0,8.46-3.1c0.79-.71,1.84-2.38,4.59-2.37"/><path class="cls-1" d="M788.38,217.92v53.61A2.39,2.39,0,0,1,786,274H774.39a2.41,2.41,0,0,1-2.54-2.48v-3.73h-0.2c-3.58,7.47-10.75,8.11-15.17,8.11-3.58,0-12-.84-17.17-7.37-4.64-5.79-5.27-10-5.27-18,0,0,0-29.88,0-32.43a2.36,2.36,0,0,1,2.34-2.54H749.1a2.47,2.47,0,0,1,2.41,2.41v29.92c0,4,0,11.69,9.38,11.69,5.06,0,10-2.64,10-11.9,0,0,0-27.29,0-29.71a2.32,2.32,0,0,1,2.34-2.42h12.71a2.38,2.38,0,0,1,2.44,2.42"/><path class="cls-1" d="M799.75,271.48V217.92a2.38,2.38,0,0,1,2.43-2.42h11.28a2.57,2.57,0,0,1,2.62,2.54v3.67h0.21c1.37-2.42,5.16-8.21,16.12-8.22,5.16,0,12.22,1.8,16.85,10.43a21.24,21.24,0,0,1,18.54-10.43c4.11,0,10.64.95,15.38,5.9,5.47,5.79,6.32,9.69,6.32,22.65,0,0,0,27,0,29.43A2.38,2.38,0,0,1,887.1,274H874.34a2.29,2.29,0,0,1-2.34-2.48V242.88c0-4.74,0-13-9-13-9.69,0-9.69,8.84-9.69,12.11,0,0,0,27,0,29.43A2.38,2.38,0,0,1,851,274H838.31c-2.47,0-2.43-2.6-2.43-2.6V242.15c0-3.16,0-12.22-8.74-12.22-9.9,0-9.9,9.48-9.9,13,0,0,0,26.24,0,28.65a2.41,2.41,0,0,1-2.47,2.43H802.18a2.38,2.38,0,0,1-2.43-2.48"/><path class="cls-1" d="M637.21,237.87c-1.51-.36-3-0.68-4.49-1-7.23-1.52-13.47-2.84-13.47-7.21,0-3.22,2.83-4.85,8.41-4.84,5.87,0,9.15,1.76,10.17,5.53a2.58,2.58,0,0,0,2.83,2.5h11.74c2.48,0,2.41-1.91,2.32-2.49-1.79-11.63-11-17.76-26.6-17.76-12.07,0-26.47,3.42-26.47,19.7,0,10.75,9.29,14.27,19.33,16.47,11.13,2.4,18,4.1,18,8.53,0,5.11-5.39,6.92-10,6.92-2.54,0-10.43-.58-11.69-7.54a2.54,2.54,0,0,0-2.86-2.43H602.69c-2.47,0-2.37,1.86-2.3,2.43,1.38,12.59,11.63,19.77,28.4,19.77,8.34,0,27.74-2.08,27.73-21.31,0-11.3-9.28-15-19.32-17.27"/></svg>