<svg width="81" height="51" viewBox="0 0 81 51" fill="none" xmlns="http://www.w3.org/2000/svg">
	<path d="M67.9971 32.4403H68.8086V19.2793L73.8361 32.4403H74.7281L79.7556 19.2751V32.4403H80.5649V17.9064H79.4293L74.281 31.4064L69.1094 17.9064H67.995L67.9971 32.4403ZM54.4145 26.72C54.4145 30.6247 56.1581 32.6395 59.2874 32.6395C62.4166 32.6395 64.1603 30.6247 64.1603 26.72V17.9064H62.781V27.3153C62.781 29.8895 61.5098 31.3852 59.2959 31.3852C57.0819 31.3852 55.7874 29.8895 55.7874 27.3153V17.9064H54.4293L54.4145 26.72ZM42.9442 32.4403H51.3552V30.6755H44.87V25.9022H50.9103V24.1374H44.87V19.6734H51.3552V17.9064H42.9442V32.4403ZM29.9145 27.6268C30.2598 30.8874 32.3679 32.6522 35.2471 32.6522C37.923 32.6522 39.8679 31.0314 39.8679 28.6035C39.8679 26.5251 38.8742 25.2581 36.442 24.2412L34.5967 23.4721C33.0967 22.8492 32.7323 22.3111 32.7323 21.5653C32.7323 20.5463 33.5225 19.8704 34.7196 19.8704C36.2196 19.8704 36.9293 20.7836 37.1306 22.3005H39.673C39.2662 19.3916 37.584 17.7115 34.8467 17.7115C32.1094 17.7115 30.2048 19.3725 30.2048 21.6141C30.2048 23.3598 31.137 24.6458 33.6709 25.7052L35.1094 26.2878C36.8043 26.9721 37.2598 27.72 37.2598 28.7158C37.2598 29.8598 36.5289 30.523 35.2535 30.523C33.692 30.523 32.7598 29.5272 32.4759 27.6374L29.9145 27.6268ZM17.0141 26.2136C17.0141 30.6797 19.0416 32.6522 22.2429 32.6522C25.4442 32.6522 27.4738 30.6797 27.4738 26.2136V17.9064H23.9823V27.3556C23.9823 28.8111 23.3742 29.5378 22.2386 29.5378C21.1031 29.5378 20.4971 28.8111 20.4971 27.3556V17.9064H17.0162L17.0141 26.2136ZM0.253479 32.4403H3.59882V25.5908L4.04373 27.4594L5.82763 32.4403H8.21958L9.99924 27.4594L10.4463 25.5908V32.4403H13.7959V17.9064H10.1264L7.8806 23.6183L7.03314 26.2136L6.18568 23.6183L3.93568 17.898H0.253479V32.4403Z"
																															fill="white" />
	<path d="M74.6179 7.91703L70.2408 0.0250778H69.2895L74.2154 8.85135V14.5717H75.0268V8.85135L79.9526 0.0250778H79.0395L74.6179 7.91703ZM61.0141 10.0759L63.4675 2.72423L63.7704 1.60347L64.0543 2.72423L66.5077 10.0759H61.0141ZM58.1348 14.5611H59.5946L60.6348 11.3641H66.9187L67.9526 14.5611H69.4124L64.5416 0.0250778H62.9802L58.1348 14.5611ZM45.3721 14.5611H47.2175L49.3658 6.31745L49.7302 4.17974L50.0946 6.31745L52.245 14.5611H54.0882L57.5967 0.0250778H55.5882L53.4696 8.8916L53.0861 11.1352L52.6391 8.8916L50.3594 0.0250778H49.1031L46.8107 8.8916L46.3658 11.1352L45.9802 8.8916L43.8721 0.0250778H41.8658L45.3721 14.5611ZM33.0649 14.5611H41.1158V12.4234H35.3954V0.0250778H33.0649V14.5611ZM26.8001 14.5611H29.637V0.0250778H26.8001V14.5611ZM17.3319 9.5166L18.1433 6.42126L18.5289 4.55262L18.9145 6.42126L19.7238 9.5166H17.3319ZM12.5268 14.5611H16.0141L16.5819 12.5886H20.4738L21.0416 14.5611H24.5289L20.4336 0.0250778H16.62L12.5268 14.5611ZM3.59882 6.38101V3.13948H5.58399C6.47594 3.13948 7.02467 3.57593 7.02467 4.53143V4.98906C7.02467 5.94457 6.47594 6.37889 5.58399 6.37889L3.59882 6.38101ZM0.253479 14.5611H3.59882V9.49542L6.71958 14.5611H10.4696L7.14543 9.41067C9.21323 8.78779 10.4696 7.08016 10.4696 4.76025C10.4696 1.74965 8.42297 0.0250778 4.95687 0.0250778H0.253479V14.5611Z"
																															fill="white" />
</svg>