<svg xmlns="http://www.w3.org/2000/svg" width="118" height="71" viewBox="0 0 118 71">
  <path fill="#FFFFFF" fill-rule="evenodd" d="M40.327066,25.1707454 L40.327066,37.120948 C40.327066,43.0967812 37.6165674,45.8658377 32.952431,45.8658377 C28.2890266,45.8658377 25.578528,43.0967812 25.578528,37.120948 L25.578528,25.1707454 L29.7463862,25.1707454 L29.7463862,38.4912028 C29.7463862,40.9103758 30.9995252,42.2220727 32.952431,42.2220727 C34.9053368,42.2220727 36.1592078,40.8810969 36.1592078,38.4912028 L36.1592078,25.1707454 L40.327066,25.1707454 Z M7.9444765,16.7179132 C8.73134822,16.7179132 9.63533574,16.251646 9.63533574,15.2312746 C9.63533574,14.2694612 8.99412678,13.5989733 5.87518687,12.2872764 C1.99865418,10.6549751 0.424178756,8.67279033 0.424178756,6.1079545 C0.424178756,2.40636352 3.71806039,0.103574278 7.53676715,0.103574278 C11.4711258,0.103574278 14.3280191,2.87263077 14.8528442,6.95338412 L9.63533574,6.95338412 C9.46039403,5.70024515 8.87701099,4.47565316 7.30326755,4.47565316 C6.51639582,4.47565316 5.6709662,4.97119935 5.6709662,5.90446581 C5.6709662,6.74916346 6.28289621,7.44893031 8.49858059,8.3814648 C13.191264,10.3636496 14.9106702,11.9959509 14.9106702,14.998507 C14.9106702,18.6415401 11.7917302,21.0899921 8.0030344,21.0899921 C3.74733933,21.0899921 0.337073887,18.1752728 0.103574278,13.5118684 L5.32108278,13.5118684 C5.35036173,15.027054 6.07867555,16.7179132 7.9444765,16.7179132 Z M35.1097771,56.4170922 C35.1097771,60.7306131 32.3407206,62.8584607 29.1932337,62.8584607 L35.0804981,70.3494795 L30.3585358,70.3494795 L24.733318,62.8584607 L24.733318,70.3494795 L20.6818436,70.3494795 L20.6818436,49.9464447 L27.5023745,49.9464447 C32.3699995,49.9464447 35.1097771,52.2492339 35.1097771,56.4170922 Z M30.9126399,56.7376966 L30.9126399,56.0672087 C30.9126399,54.4641863 29.8922686,53.6187567 28.2892462,53.6187567 L24.733318,53.6187567 L24.733318,59.1861486 L28.2892462,59.1861486 C29.9215475,59.1861486 30.9126399,58.340719 30.9126399,56.7376966 Z M57.6393418,17.7964033 L57.6393418,20.7989594 L45.3392559,20.7989594 L45.3392559,0.395192598 L57.6393418,0.395192598 L57.6393418,3.42629567 L48.6909634,3.42629567 L48.6909634,8.90658273 L57.0852377,8.90658273 L57.0852377,11.9084069 L48.6909634,11.9084069 L48.6909634,17.7964033 L57.6393418,17.7964033 Z M110.043827,19.5223972 L110.043827,20.7974954 L98.2978455,20.7974954 L98.2978455,0.395192598 L110.043827,0.395192598 L110.043827,1.67029078 L99.6607805,1.67029078 L99.6607805,9.69638234 L109.548281,9.69638234 L109.548281,10.9714805 L99.6607805,10.9714805 L99.6607805,19.5223972 L110.043827,19.5223972 Z M11.180093,36.8298421 L12.403953,33.186077 L15.6400088,25.170965 L20.9153432,25.170965 L20.9153432,45.5739998 L16.106276,45.5739998 L16.106276,35.9551335 L15.465067,38.5785272 L12.8994992,45.5739998 L9.46068681,45.5739998 L6.89511901,38.5785272 L6.25391006,35.9551335 L6.25391006,45.5739998 L1.44484288,45.5739998 L1.44484288,25.170965 L6.7201773,25.170965 L9.95623301,33.186077 L11.180093,36.8298421 Z M36.2451415,20.7985934 L36.2451415,0.395558585 L40.3258948,0.395558585 L40.3258948,20.7985934 L36.2451415,20.7985934 Z M24.7620113,21.0900653 C20.1857118,21.0900653 17.5044921,18.0296833 17.5044921,10.82999 L17.5044921,10.3637228 C17.5044921,3.1640295 20.1857118,0.103647475 24.7620113,0.103647475 C29.1048113,0.103647475 31.8738678,2.7270412 32.340135,8.55647971 L27.2975682,8.55647971 C27.1226265,5.52537664 26.3650337,4.50500531 24.9369531,4.50500531 C23.5666983,4.50500531 22.7505476,5.37971387 22.7505476,7.82816588 L22.7505476,13.3662789 C22.7505476,15.8139989 23.5088724,16.6887075 24.9369531,16.6887075 C26.3357548,16.6887075 27.0940795,15.6976151 27.2975682,12.6372331 L32.340135,12.6372331 C31.8738678,18.5545084 29.0755323,21.0900653 24.7620113,21.0900653 Z M8.73171421,54.0269785 C7.012308,54.0269785 5.96265772,55.0766287 5.96265772,57.378686 L5.96265772,62.916799 C5.96265772,65.2195882 7.012308,66.2692385 8.73171421,66.2692385 C10.4511204,66.2692385 11.5878756,65.365251 11.7049914,63.2959614 L9.02303974,63.2959614 L9.02303974,59.4772546 L16.1641751,59.4772546 L16.1641751,70.3499919 L13.5700603,70.3499919 L12.9874093,68.8047954 C12.1419797,69.8251667 10.6260621,70.6413174 8.73171421,70.6413174 C3.68914742,70.6413174 0.715870274,67.2888779 0.715870274,60.4105211 L0.715870274,59.8856959 C0.715870274,53.0066071 3.68914742,49.6548996 8.73171421,49.6548996 C12.8124676,49.6548996 15.3773034,51.9576888 16.1641751,57.407965 L11.3551079,57.407965 C11.0923294,54.901687 10.101969,54.0269785 8.73171421,54.0269785 Z M91.5355065,38.1317305 L91.5355065,25.1706723 L93.4884123,25.1706723 L93.4884123,37.3155798 C93.4884123,43.3785179 90.7391191,45.8657645 86.2499245,45.8657645 C81.7614618,45.8657645 79.0114366,43.3785179 79.0114366,37.3155798 L79.0114366,25.1706723 L80.9643424,25.1706723 L80.9643424,38.1317305 C80.9643424,42.264454 83.008013,44.0878004 86.2499245,44.0878004 C89.491836,44.0878004 91.5355065,42.264454 91.5355065,38.1317305 Z M84.6879658,49.9463715 C89.1764285,49.9463715 91.6248805,52.1613239 91.6248805,56.3299141 C91.6248805,60.4684934 89.1764285,62.6841777 84.6879658,62.6841777 L79.8788986,62.6841777 L79.8788986,70.3494063 L77.9259928,70.3494063 L77.9259928,49.9463715 L84.6879658,49.9463715 Z M89.5555909,56.7669024 L89.5555909,55.8921938 C89.5555909,53.2688001 87.9525685,51.7536146 84.8336286,51.7536146 L79.8788986,51.7536146 L79.8788986,60.9062136 L84.8336286,60.9062136 C87.9525685,60.9062136 89.5555909,59.3610172 89.5555909,56.7669024 Z M87.1359054,1.91089053 C84.0755234,1.91089053 82.2390014,4.38862149 82.2390014,8.49792181 L82.2390014,11.7918034 C82.2390014,16.6594285 83.754187,19.3121012 87.1359054,19.3121012 C89.7592992,19.3121012 91.4494264,17.6797998 91.9164256,13.890372 L93.9271574,13.890372 C93.4901691,18.3795667 91.1288219,21.0900653 87.1359054,21.0900653 C82.6759897,21.0900653 80.1697118,17.6797998 80.1697118,11.9089192 L80.1697118,9.28552551 C80.1697118,3.60174977 82.5888848,0.103647475 87.1359054,0.103647475 C91.0124381,0.103647475 93.4608901,2.78559909 93.9271574,7.24478285 L91.9164256,7.24478285 C91.4494264,3.60174977 89.7592992,1.91089053 87.1359054,1.91089053 Z M114.583748,25.1714774 L116.352196,25.1714774 L116.352196,45.5737802 L114.989993,45.5737802 L114.989993,27.8724604 L108.17239,45.5737802 L106.477139,45.5737802 L99.6602681,27.8724604 L99.6602681,45.5737802 L98.2980651,45.5737802 L98.2980651,25.1714774 L100.065782,25.1714774 L107.324765,44.0198001 L114.583748,25.1714774 Z M70.1702191,25.1707454 L74.0204008,25.1707454 L74.6396505,25.1707454 L74.6396505,27.6484764 L74.0204008,27.6484764 L70.1702191,27.6484764 L64.6935919,27.6484764 L64.6935919,33.9149032 L70.1702191,33.9149032 L73.3791918,33.9149032 L73.9984415,33.9149032 L73.9984415,36.3926342 L73.3791918,36.3926342 L70.1702191,36.3926342 L64.6935919,36.3926342 L64.6935919,43.0967812 L70.1702191,43.0967812 L74.0204008,43.0967812 L74.6396505,43.0967812 L74.6396505,45.5737802 L74.0204008,45.5737802 L70.1702191,45.5737802 L61.9245354,45.5737802 L61.9245354,25.1707454 L70.1702191,25.1707454 Z M70.1148087,63.3542265 L70.1148087,49.9459323 L72.8838652,49.9459323 L72.8838652,62.3338551 C72.8838652,67.8719681 70.3483083,70.6410246 65.7134509,70.6410246 C61.0785934,70.6410246 58.5430366,67.8719681 58.5430366,62.3338551 L58.5430366,49.9459323 L61.3120931,49.9459323 L61.3120931,63.3542265 C61.3120931,66.4146085 62.9151154,68.1632936 65.7134509,68.1632936 C68.5117863,68.1632936 70.1148087,66.4146085 70.1148087,63.3542265 Z M53.0932728,34.0607856 C56.5906431,35.4888663 58.0194558,37.2668304 58.0194558,40.1815496 C58.0194558,43.5918151 55.2211203,45.8653254 51.3738666,45.8653254 C47.2345553,45.8653254 44.2034523,43.3883264 43.7079061,38.8120268 L47.3802181,38.8120268 C47.7886594,41.4639675 49.1289033,42.8635012 51.3738666,42.8635012 C53.2096566,42.8635012 54.2593069,41.9309667 54.2593069,40.3272124 C54.2593069,38.9284106 53.6180979,37.8794923 51.1696459,36.9169469 L49.1003563,36.1007963 C45.4565912,34.6148897 44.1156154,32.8076466 44.1156154,30.3591946 C44.1156154,27.2109757 46.826846,24.8789075 50.7904836,24.8789075 C54.7255741,24.8789075 57.1447472,27.2402547 57.7273983,31.321008 L54.0843652,31.321008 C53.7930397,29.1931605 52.7726683,27.9107426 50.6155418,27.9107426 C48.8961356,27.9107426 47.7593805,28.872556 47.7593805,30.3006367 C47.7593805,31.350287 48.2842056,32.1078798 50.4406001,32.9825883 L53.0932728,34.0607856 Z M46.5054364,49.6551192 C51.2859566,49.6551192 54.2592337,52.9482688 54.2592337,59.1568697 L54.2592337,61.1683334 C54.2592337,67.3769343 51.2859566,70.640805 46.5054364,70.640805 C41.6963692,70.640805 38.723824,67.3769343 38.723824,61.1683334 L38.723824,59.1568697 C38.723824,52.9482688 41.6963692,49.6551192 46.5054364,49.6551192 Z M50.6740265,62.9170186 L50.6740265,57.7873469 C50.6740265,54.5512912 49.2166669,52.6862222 46.5054364,52.6862222 C43.9113216,52.6862222 42.3082992,54.4349074 42.3082992,57.3789056 L42.3082992,62.5378562 C42.3082992,65.8317378 43.7949378,67.6389809 46.5054364,67.6389809 C49.0710042,67.6389809 50.6740265,65.8902957 50.6740265,62.9170186 Z M73.1991263,15.8672866 L73.1991263,0.394826611 L75.9681828,0.394826611 L75.9681828,20.7978614 L73.0827425,20.7978614 L65.6253944,7.43860948 L64.69286,5.17973866 L64.69286,20.7978614 L61.9238035,20.7978614 L61.9238035,0.394826611 L64.8970806,0.394826611 L72.2665918,13.7299234 L73.1991263,15.8672866 Z"/>
</svg>
