<svg xmlns="http://www.w3.org/2000/svg" viewBox="0 0 244.8 331.2">
  <defs>
    <style>
      .cls-1{fill:#fff;}
    </style>
  </defs>
  <path class="cls-1" d="M0 316.8l14.4 14.4H72v-14.4H14.4v-43.2H72v-14.4H0v57.6zM0 86.4v72h14.4v-57.6h43.2v57.6H72v-57.6L57.6 86.4H0zm0 86.4v72h14.4v-57.6h43.2v57.6H72v-57.6l-14.4-14.4H0z"/>
  <path class="cls-1" d="M28.8 288H72v14.4H28.8zm144-288h14.4v14.4h-14.4zm0 28.8h14.4V72h-14.4zm28.8 86.4h43.2v14.4h-43.2zM0 14.4v28.8h57.6v14.4H0V72h72V28.8H14.4V14.4H72V0H14.4L0 14.4z"/>
  <path class="cls-1" d="M244.8 158.4V144h-57.6v-43.2h57.6V86.4h-72V144l14.4 14.4h57.6zm-216 43.2h14.4v43.2H28.8zm144-14.4V216h57.6v14.4h-57.6v14.4h72v-43.2h-57.6v-14.4h57.6v-14.4h-57.6l-14.4 14.4zm28.8-129.6h43.2V72h-43.2zm0-57.6h43.2v14.4h-43.2zm0 28.8h43.2v14.4h-43.2zm-57.6 288h-43.2v-57.6H86.4v57.6l14.4 14.4h57.6v-72H144v57.6zm28.8-57.6v72h14.4v-57.6h43.2v57.6h14.4v-57.6l-14.4-14.4h-57.6z"/>
  <path class="cls-1" d="M201.6 288H216v43.2h-14.4zM144 230.4h-43.2v-57.6H86.4v57.6l14.4 14.4h57.6v-72H144v57.6zM86.4 100.8v57.6h72V144h-57.6v-43.2h57.6V86.4h-57.6l-14.4 14.4zm0-86.4V72h72V57.6h-57.6V14.4h57.6V0h-57.6L86.4 14.4z"/>
</svg>
