<svg id="Layer_1" data-name="Layer 1" xmlns="http://www.w3.org/2000/svg" width="98" height="57" viewBox="0 0 98 57"><defs><style>.cls-1{fill:#fff;}</style></defs><title>scm-logo-aligned</title><path class="cls-1" d="M83,37.76h1V22.52l6,15.24H91l6-15.24V37.76h1V20.94H96.64L90.49,36.56,84.31,20.94H83ZM66.44,31.15c0,4.52,2.08,6.85,5.81,6.85s5.81-2.33,5.81-6.85V20.94H76.42V31.82c0,3-1.53,4.71-4.17,4.71s-4.19-1.73-4.19-4.71V20.94H66.44ZM52.25,37.76H62.3v-2H54.55V30.19h7.22v-2H54.55V23H62.3v-2H52.25Zm-15.5-5.58A6,6,0,0,0,43.11,38c3.2,0,5.52-1.87,5.52-4.69,0-2.4-1.19-3.87-4.09-5l-2.2-.89c-1.79-.72-2.23-1.35-2.23-2.21,0-1.18.94-2,2.37-2,1.79,0,2.64,1.06,2.88,2.81h3c-.48-3.36-2.49-5.31-5.76-5.31s-5.55,1.92-5.55,4.52c0,2,1.11,3.51,4.14,4.73l1.72.67c2,.79,2.57,1.66,2.57,2.81,0,1.32-.87,2.09-2.4,2.09-1.86,0-3-1.15-3.32-3.34ZM21,30.55C21,35.72,23.45,38,27.27,38s6.25-2.28,6.25-7.45V20.94H29.36V31.87c0,1.68-.73,2.52-2.08,2.52s-2.08-.84-2.08-2.52V20.94H21ZM.94,37.76h4V29.83L5.47,32l2.13,5.77h2.86L12.6,32l.53-2.16v7.93h4V20.94H12.74l-2.69,6.61-1,3-1-3L5.33,20.94H.94Z"/><path class="cls-1" d="M85.23,17.06h9.47v-.91H86.2V8.89h8.24V8H86.2V1.15h8.5V.24H85.23ZM69.35,9.73c0,4.76,2.08,7.57,5.79,7.57,3.32,0,5.28-2.24,5.64-5.94H79.11c-.39,3.12-1.79,4.47-4,4.47-2.81,0-4.07-2.19-4.07-6.2V6.92c0-3.39,1.53-5.43,4.07-5.43,2.18,0,3.58,1.39,4,4.4h1.67C80.39,2.21,78.36,0,75.13,0c-3.78,0-5.79,2.88-5.79,7.57Zm-17,7.33h2.3v-13l.78,1.56,6.9,11.42h2.4V.24h-2.3V13.1l-.78-1.56L54.81.24H52.34Zm-14,0H48.54V14.59H41.1V9.73h7V7.26h-7V2.74h7.44V.24H38.32Zm-7.65,0h3.39V.24H30.66ZM15,8.84c0,5.94,2.23,8.46,6,8.46,3.58,0,5.91-2.09,6.3-7H23.18c-.17,2.52-.8,3.34-2,3.34S19.4,13,19.4,10.94V6.37c0-2,.68-2.74,1.82-2.74s1.82.84,2,3.34h4.19c-.39-4.81-2.69-7-6.3-7-3.8,0-6,2.52-6,8.46ZM0,11.06A6.33,6.33,0,0,0,6.56,17.3c3.15,0,5.74-2,5.74-5,0-2.48-1.43-3.82-5.33-5.46-1.84-.77-2.35-1.35-2.35-2A1.25,1.25,0,0,1,6,3.6c1.31,0,1.79,1,1.94,2h4.34A6,6,0,0,0,6.18,0C3,0,.27,1.9.27,5,.27,7.07,1.57,8.7,4.8,10c2.59,1.08,3.12,1.63,3.12,2.43a1.29,1.29,0,0,1-1.4,1.23C5,13.7,4.36,12.3,4.34,11.06Z"/></svg>