<svg id="Layer_1" data-name="Layer 1" xmlns="http://www.w3.org/2000/svg" xmlns:xlink="http://www.w3.org/1999/xlink" width="108" height="57" viewBox="0 0 108 57"><defs><style>.cls-1{fill:none;}.cls-2{clip-path:url(#clip-path);}.cls-3{fill:#fff;}</style><clipPath id="clip-path"><rect class="cls-1" width="108" height="57"/></clipPath></defs><title>smm-logo-aligned</title><g class="cls-2"><path class="cls-3" d="M80.48,56.77h.94V42l5.83,14.8h1L94.11,42v14.8H95V40.43H93.73l-6,15.17-6-15.17H80.48Zm-16-6.42c0,4.39,2,6.65,5.64,6.65s5.64-2.26,5.64-6.65V40.43h-1.6V51c0,2.89-1.48,4.57-4,4.57S66,53.9,66,51V40.43H64.44ZM50.67,56.77h9.75v-2H52.9V49.41h7v-2h-7v-5h7.52v-2H50.67Zm-15-5.41A5.86,5.86,0,0,0,41.82,57c3.1,0,5.36-1.82,5.36-4.55,0-2.33-1.15-3.76-4-4.9l-2.14-.86c-1.74-.7-2.16-1.31-2.16-2.15,0-1.14.92-1.91,2.3-1.91,1.74,0,2.56,1,2.8,2.73h2.94c-.47-3.27-2.42-5.16-5.59-5.16S36,42.06,36,44.58c0,2,1.08,3.41,4,4.6l1.67.65c2,.77,2.49,1.61,2.49,2.73,0,1.28-.85,2-2.33,2-1.81,0-2.89-1.12-3.22-3.24ZM20.39,49.76c0,5,2.35,7.24,6.06,7.24s6.06-2.22,6.06-7.24V40.43h-4V51c0,1.63-.7,2.45-2,2.45s-2-.82-2-2.45V40.43h-4Zm-19.47,7H4.79v-7.7l.52,2.1,2.07,5.6h2.77l2.07-5.6.52-2.1v7.7h3.88V40.43H12.36L9.75,46.85l-1,2.92-1-2.92L5.17,40.43H.92Z"/><path class="cls-3" d="M59.76,31.63l2.84-8.26L63,22.1l.33,1.26,2.84,8.26Zm-3.34,5h1.69l1.2-3.59H66.6l1.2,3.59h1.69L63.85,20.33H62Zm-5.83,0h2.23V20.33H50.6Zm-15.69,0h4.51c4.49,0,7.07-2.15,7.07-7.59V27.89c0-5.44-2.58-7.56-7.09-7.56H34.91Zm2.77-2.38V22.76h2.16c2.33,0,3.85,1.33,3.85,4.22v3.41a3.54,3.54,0,0,1-3.85,3.9ZM20.84,36.67h10.1V33.75H24.1v-3.9h6.51V26.91H24.1V23.27h6.84V20.33H20.84Zm-19.92,0H4.79V29l.52,2.1,2.07,5.6h2.77l2.07-5.6.52-2.1v7.7h3.88V20.33H12.36L9.75,26.75l-1,2.92-1-2.92L5.17,20.33H.92Z"/><path class="cls-3" d="M82.67,16.57h9.19v-.89H83.61v-7h8V7.75h-8V1.12h8.25V.23H82.67ZM67.26,9.45c0,4.62,2,7.35,5.61,7.35,3.22,0,5.12-2.17,5.47-5.76H76.73c-.38,3-1.74,4.34-3.85,4.34-2.73,0-3.95-2.12-3.95-6V6.72c0-3.29,1.48-5.27,3.95-5.27,2.11,0,3.48,1.35,3.85,4.27h1.62C78,2.15,76,0,72.87,0c-3.67,0-5.61,2.8-5.61,7.35ZM50.77,16.57H53V4l.75,1.52,6.7,11.09h2.33V.23H60.54V12.72l-.75-1.52L53.16.23h-2.4Zm-13.6,0h9.91v-2.4H39.87V9.45h6.77V7H39.87V2.66h7.21V.23H37.16Zm-7.42,0H33V.23H29.74Zm-15.15-8c0,5.76,2.16,8.22,5.85,8.22,3.48,0,5.73-2,6.11-6.77H22.48c-.16,2.45-.78,3.24-1.9,3.24s-1.76-.7-1.76-2.66V6.18c0-2,.66-2.66,1.76-2.66s1.76.82,1.9,3.24h4.06C26.17,2.1,23.94,0,20.44,0c-3.69,0-5.85,2.45-5.85,8.22ZM0,10.74A6.14,6.14,0,0,0,6.37,16.8c3.05,0,5.57-2,5.57-4.88,0-2.4-1.39-3.71-5.17-5.3C5,5.88,4.49,5.32,4.49,4.64A1.22,1.22,0,0,1,5.8,3.5c1.27,0,1.74,1,1.88,2h4.21A5.87,5.87,0,0,0,6,0C2.91,0,.26,1.84.26,4.81c0,2.05,1.27,3.64,4.39,4.95,2.51,1.05,3,1.59,3,2.36A1.25,1.25,0,0,1,6.32,13.3c-1.5,0-2.09-1.35-2.11-2.57Z"/><rect class="cls-3" x="94.49" y="7.84" width="13.51" height="0.77"/><rect class="cls-3" x="100.86" y="1.51" width="0.77" height="13.43"/></g></svg>
