<?xml version="1.0" encoding="UTF-8"?>
<svg width="189px" height="100px" viewBox="0 0 189 100" version="1.1" xmlns="http://www.w3.org/2000/svg" xmlns:xlink="http://www.w3.org/1999/xlink">
    <!-- Generator: Sketch 42 (36781) - http://www.bohemiancoding.com/sketch -->
    <title>logo</title>
    <desc>Created with Sketch.</desc>
    <defs>
        <polygon id="path-1" points="0.168285714 30 164.238286 30 164.238286 0.519285714 0.168285714 0.519285714 0.168285714 30"></polygon>
        <polygon id="path-3" points="160.097143 0 0 0 0 14.7406429 0 29.4812857 160.097143 29.4812857 160.097143 0"></polygon>
    </defs>
    <g id="Mobile" stroke="none" stroke-width="1" fill="none" fill-rule="evenodd">
        <g id="SMM-Mobile-Home-[noBody]-Copy" transform="translate(-68.000000, -201.000000)">
            <g id="logo" transform="translate(68.000000, 201.000000)">
                <g id="Group-3" transform="translate(1.428571, 70.000000)">
                    <mask id="mask-2" fill="white">
                        <use xlink:href="#path-1"></use>
                    </mask>
                    <g id="Clip-2"></g>
                    <path d="M0.168285714,29.5907143 L6.924,29.5907143 L6.924,16.0778571 L7.82542857,19.7635714 L11.4282857,29.5907143 L16.2597143,29.5907143 L19.864,19.7635714 L20.764,16.0778571 L20.764,29.5907143 L27.5197143,29.5907143 L27.5197143,0.927857143 L20.1097143,0.927857143 L15.564,12.1878571 L13.844,17.3064286 L12.124,12.1878571 L7.57971429,0.927857143 L0.168285714,0.927857143 L0.168285714,29.5907143 Z M34.1125714,17.3064286 C34.1125714,26.1107143 38.2068571,30.0007143 44.6768571,30.0007143 C51.1454286,30.0007143 55.2411429,26.1107143 55.2411429,17.3064286 L55.2411429,0.927857143 L48.1982857,0.927857143 L48.1982857,19.5592857 C48.1982857,22.425 46.9697143,23.8578571 44.6768571,23.8578571 C42.384,23.8578571 41.1554286,22.425 41.1554286,19.5592857 L41.1554286,0.927857143 L34.1125714,0.927857143 L34.1125714,17.3064286 Z M60.6854286,20.0907143 C61.3825714,26.5192857 65.6411429,30.0007143 71.4554286,30.0007143 C76.8597143,30.0007143 80.7911429,26.8064286 80.7911429,22.015 C80.7911429,17.9207143 78.784,15.4235714 73.8711429,13.4164286 L70.144,11.9021429 C67.114,10.6735714 66.3782857,9.60928571 66.3782857,8.135 C66.3782857,6.12785714 67.974,4.77785714 70.3897143,4.77785714 C73.4197143,4.77785714 74.854,6.57928571 75.2625714,9.56785714 L80.3811429,9.56785714 C79.5625714,3.835 76.164,0.519285714 70.6354286,0.519285714 C65.0668571,0.519285714 61.2597143,3.795 61.2597143,8.21642857 C61.2597143,11.6564286 63.1425714,14.195 68.2611429,16.2835714 L71.1682857,17.4292857 C74.6082857,18.7807143 75.5082857,20.255 75.5082857,22.2207143 C75.5082857,24.4721429 74.034,25.7821429 71.4554286,25.7821429 C68.3025714,25.7821429 66.4182857,23.8178571 65.8454286,20.0907143 L60.6854286,20.0907143 Z M86.8911429,29.5907143 L103.884,29.5907143 L103.884,26.1107143 L90.7811429,26.1107143 L90.7811429,16.6921429 L102.982571,16.6921429 L102.982571,13.2121429 L90.7811429,13.2121429 L90.7811429,4.40928571 L103.884,4.40928571 L103.884,0.927857143 L86.8911429,0.927857143 L86.8911429,29.5907143 Z M110.885429,18.3307143 C110.885429,26.0278571 114.406857,30.0007143 120.712571,30.0007143 C127.018286,30.0007143 130.539714,26.0278571 130.539714,18.3307143 L130.539714,0.927857143 L127.755429,0.927857143 L127.755429,19.4764286 C127.755429,24.555 125.175429,27.5021429 120.712571,27.5021429 C116.249714,27.5021429 113.628286,24.555 113.628286,19.4764286 L113.628286,0.927857143 L110.885429,0.927857143 L110.885429,18.3307143 Z M138.851143,29.5907143 L140.489714,29.5907143 L140.489714,3.63071429 L150.644,29.5907143 L152.445429,29.5907143 L162.599714,3.63071429 L162.599714,29.5907143 L164.238286,29.5907143 L164.238286,0.927857143 L161.945429,0.927857143 L151.545429,27.5435714 L141.104,0.927857143 L138.851143,0.927857143 L138.851143,29.5907143 Z" id="Fill-1" fill="#FEFEFE" mask="url(#mask-2)"></path>
                </g>
                <path d="M1.59685714,64.3314286 L8.35257143,64.3314286 L8.35257143,50.8185714 L9.254,54.5042857 L12.8568571,64.3314286 L17.6882857,64.3314286 L21.2925714,54.5042857 L22.1925714,50.8185714 L22.1925714,64.3314286 L28.9482857,64.3314286 L28.9482857,35.6685714 L21.5382857,35.6685714 L16.9925714,46.9285714 L15.2725714,52.0471429 L13.5525714,46.9285714 L9.00828571,35.6685714 L1.59685714,35.6685714 L1.59685714,64.3314286 Z M36.3182857,64.3314286 L53.9254286,64.3314286 L53.9254286,59.2128571 L42.0097143,59.2128571 L42.0097143,52.3757143 L53.3525714,52.3757143 L53.3525714,47.2157143 L42.0097143,47.2157143 L42.0097143,40.8285714 L53.9254286,40.8285714 L53.9254286,35.6685714 L36.3182857,35.6685714 L36.3182857,64.3314286 Z M65.6768571,60.1542857 L65.6768571,39.9271429 L69.444,39.9271429 C73.4982857,39.9271429 76.1597143,42.2614286 76.1597143,47.3385714 L76.1597143,53.3171429 C76.1597143,57.7385714 73.5797143,60.1542857 69.444,60.1542857 L65.6768571,60.1542857 Z M60.8454286,64.3314286 L68.7068571,64.3314286 C76.5282857,64.3314286 81.0311429,60.5642857 81.0311429,51.0242857 L81.0311429,48.9357143 C81.0311429,39.3957143 76.5282857,35.6685714 68.6654286,35.6685714 L60.8454286,35.6685714 L60.8454286,64.3314286 Z M88.1968571,64.3314286 L92.0868571,64.3314286 L92.0868571,35.6685714 L88.1968571,35.6685714 L88.1968571,64.3314286 Z M98.3511429,64.3314286 L101.299714,64.3314286 L103.388286,58.0257143 L116.081143,58.0257143 L118.169714,64.3314286 L121.116857,64.3314286 L111.289714,35.6685714 L108.136857,35.6685714 L98.3511429,64.3314286 Z M104.165429,55.4871429 L109.119714,40.9914286 L109.734,38.7814286 L110.308286,40.9914286 L115.262571,55.4871429 L104.165429,55.4871429 Z" id="Fill-4" fill="#FEFEFE"></path>
                <g id="Group-8">
                    <mask id="mask-4" fill="white">
                        <use xlink:href="#path-3"></use>
                    </mask>
                    <g id="Clip-7"></g>
                    <path d="M0,18.8355714 C0.327142857,25.387 5.11857143,29.4812857 11.0971429,29.4812857 C16.42,29.4812857 20.8014286,26.0427143 20.8014286,20.9241429 C20.8014286,16.707 18.3842857,14.4127143 11.7928571,11.6284286 C8.68,10.3184286 7.82142857,9.33557143 7.82142857,8.14842857 C7.82142857,6.83842857 9.00857143,6.14271429 10.1142857,6.14271429 C12.3242857,6.14271429 13.1442857,7.86128571 13.39,9.62271429 L20.7185714,9.62271429 C19.9814286,3.88985714 15.9685714,-0.000142857143 10.4414286,-0.000142857143 C5.07714286,-0.000142857143 0.45,3.23557143 0.45,8.43557143 C0.45,12.0384286 2.66142857,14.8227143 8.10714286,17.1155714 C12.4885714,18.9584286 13.39,19.8998571 13.39,21.2512857 C13.39,22.6841429 12.12,23.3398571 11.0142857,23.3398571 C8.39428571,23.3398571 7.37,20.9641429 7.33,18.8355714 L0,18.8355714 Z M25.4271429,15.0684286 C25.4271429,25.1827143 29.1942857,29.4812857 35.6228571,29.4812857 C41.6828571,29.4812857 45.6142857,25.9198571 46.2685714,17.607 L39.1857143,17.607 C38.8985714,21.907 37.8342857,23.2984286 35.8685714,23.2984286 C33.8614286,23.2984286 32.7971429,22.0698571 32.7971429,18.6312857 L32.7971429,10.8512857 C32.7971429,7.41128571 33.9442857,6.18271429 35.8685714,6.18271429 C37.8742857,6.18271429 38.94,7.61557143 39.1857143,11.8741429 L46.2685714,11.8741429 C45.6142857,3.68557143 41.7242857,-0.000142857143 35.6228571,-0.000142857143 C29.1942857,-0.000142857143 25.4271429,4.29985714 25.4271429,14.4127143 L25.4271429,15.0684286 Z M51.8371429,29.0727143 L57.57,29.0727143 L57.57,0.409857143 L51.8371429,0.409857143 L51.8371429,29.0727143 Z M64.7757143,29.0727143 L82.0557143,29.0727143 L82.0557143,24.8541429 L69.4842857,24.8541429 L69.4842857,16.5841429 L81.2771429,16.5841429 L81.2771429,12.3655714 L69.4842857,12.3655714 L69.4842857,4.66842857 L82.0557143,4.66842857 L82.0557143,0.409857143 L64.7757143,0.409857143 L64.7757143,29.0727143 Z M88.4828571,29.0727143 L92.3728571,29.0727143 L92.3728571,6.96128571 L93.6828571,9.62271429 L105.352857,29.0727143 L109.407143,29.0727143 L109.407143,0.409857143 L105.517143,0.409857143 L105.517143,22.3155714 L104.207143,19.6541429 L92.66,0.409857143 L88.4828571,0.409857143 L88.4828571,29.0727143 Z M117.227143,16.5841429 C117.227143,24.6912857 120.748571,29.4812857 127.012857,29.4812857 C132.622857,29.4812857 135.94,25.6741429 136.554286,19.3684286 L133.728571,19.3684286 C133.072857,24.6912857 130.698571,26.9841429 127.012857,26.9841429 C122.264286,26.9841429 120.134286,23.2584286 120.134286,16.4198571 L120.134286,11.7927143 C120.134286,6.01985714 122.714286,2.53842857 127.012857,2.53842857 C130.698571,2.53842857 133.072857,4.91414286 133.728571,10.0327143 L136.554286,10.0327143 C135.898571,3.767 132.458571,-0.000142857143 127.012857,-0.000142857143 C120.625714,-0.000142857143 117.227143,4.91414286 117.227143,12.8984286 L117.227143,16.5841429 Z M144.087143,29.0727143 L160.097143,29.0727143 L160.097143,27.5155714 L145.725714,27.5155714 L145.725714,15.1498571 L159.647143,15.1498571 L159.647143,13.5941429 L145.725714,13.5941429 L145.725714,1.96557143 L160.097143,1.96557143 L160.097143,0.409857143 L144.087143,0.409857143 L144.087143,29.0727143 Z" id="Fill-6" fill="#FEFEFE" mask="url(#mask-4)"></path>
                </g>
                <polygon id="Fill-10" fill="#FEFEFE" points="164.682857 15.11 188.238571 15.11 188.238571 13.7614286 164.682857 13.7614286"></polygon>
                <polygon id="Fill-11" fill="#FEFEFE" points="175.79 26.2128571 177.137143 26.2128571 177.137143 2.65714286 175.79 2.65714286"></polygon>
            </g>
        </g>
    </g>
</svg>