<svg xmlns="http://www.w3.org/2000/svg" viewBox="0 0 400 340"><defs><clipPath id="uk"><path id="g9510" d="M245.07,183.37l.76-2,2.13-.85,2.29-3.75,1.87-1.27,1.88.68L252,178.26l1.62,1.79-.08,1.79-1.88,2.55-2,.68-3.57,3.4-.85-.51,1-2.13Zm-8.42-62.47.24-.33,4.12,2.62.68,1,.12-.59,1.22-4.91,1.66-.57,1.87-.08,2.34,1.34-2,.7-1.17-.69-.54.08-1.29.79-.06,1.43-.41,1.61.36,1.42.47,1.06L243,128.33l5.53,4.06.08,4.74-2.16,1.45-.65,1.74-1.26,1.36-.63,3.46-2.82,3.19-1.29,3.42.58.95.33,3.52-1.34-3.14-2.1,0,.15,3.47.73,1.69,3.34,3.35.51,3.63,2.08.61-1.92-6.66,2.23-1.35,9.85,6.41.77-4.48-1.83-1.87.74-.94,7.35,4.16,2.18.32,3.51-3.68,4.25-.51.08-3.77,11.19,0-1.4,1-5.95,2.91-1.19,4.45L271,165.54l-1.66,6.23,7.49,11.67,2.33-1.28-.83,3,2,1.92,2.92-4.23,1.56,2,1.37-1.25.59-.2L288.2,186l-2.55,1.61,1.58,3.17-3.82,2.1,0,5,1.77,2.73-2.94,5.63,1.67,3.87L280.35,212l1.8,3.95-.25.56-2.24-1.06-1.37-.34-.48-1.27-.88,1.23-.94-.33-1.31.48-.76.37-.63,0-1.36.74-1,.07-1,.27-.7-.2-1.86-1.19-.63-.06v1.11l-2.64,1.54-.9.12-1.76,1.12-2,.05-.91.64,0,1.11-.32.24-3.59,1.91-.07.55-.83.26.06,1.25-.81,1.6-.77.29s-.21,0-.89,1c-.43,1.27-3.2,2.46-4.55,3.32a7.43,7.43,0,0,0-2.23,2.82l2.53-.12,0-.57c0-.37.64-.6.64-.6l1.71,1.27a5.7,5.7,0,0,0,.66-.14c-1.4-1.57,1.8-3.43,1.8-3.43l1.8-.16.73-.6,1,.1.73-.43,1.3.15,1.15.1,1.27-.42,1.9,0,.48.67-1,.87-1,.15.48.67.05,1.14-.59.45.4.84.28.79.13.94.47.55.76.2,1.33-1.23.31.88-1.56.72a8.82,8.82,0,0,1,0,1.14A5.36,5.36,0,0,0,260.3,241l2.12,1.8v.54l-1.85,7.44-2,3-.87.06-2,1.74-.74-.54-1.39,1.31.14.51-1.2,0-1.39,1.26-.65.25-.66.08-.5-.43-2,.25-.33.52-.54.14-2.2,2.08-.65.31.1.91-1.08.1-.8-.48-1,.9-.84,0-.39-.61-1.83-.45-.16.41.07,1.71-1.29.74-1.26,0-2.39,1.46-.1.57,2.78.26.81.21.83,1.46-.13,1.86-.28.46-1.06,0-1.14,1.3.5.62,0-.72.51,0,.39.18.5-.22.43,0,.44.47.85.05.78.29,1.32-.09.53.38.09,1.09-1.15,0-.65-.21-.64,0-.4.5,0,.77.39.27,1.63.25.92.49L242,275l2.76-.15,1-.6.51-1-.23-.4,0-.72,1.8-.8,1.88.17,1.61-.07.64.06-.4-.43,0-1.09.31.23.85-.07.79.49.9-.72.64,0,0,.73-.28.33,0,.45.88.69-.22.65-.39,0,.95,1.17.78-.55,2.13-.05.64,1,.63-.15.56.14,0,.81-2,1.41-.39-.31-.95-.24-.65.79-.41.18.44.54v.85l1.26.6,1.11,0,.14-.74,1.42-.58.53.43,1.65-.15.5-1.23,1.61-.22.62-.39,1.06,0,2,2.95-.07,1.25.7.42.29.87.81-.07.45-.26.28.56,1.36.91.06.4.95,1.18,1.14-.17,2.4.35,3.23,0,.95-.64.83.45.16-.37.26-1.75,1.21-1.62,1-.2,1.65-1.11.1-.74.46-.05.8.57,1.33.43,1.66-1.15.68-1,1.94-.36,1.23-1.09.64,0,2.53-2.44-2.23,3.52-8.89,10.08.51,3.89-9.93,1.68L273,290.87l-.92.52-3.73-.7-10.93,2.12-.69,1.84,1.38,2.37L255.2,300l-4.5-.83-.94,2.9.19,5.29-5.4,4.16,0,2.27-4.18,1.86-2.57.54.15,3.39s-9.39,9.25-9.6,9.25a7.22,7.22,0,0,1-1.4-.91l-5,2.38-.76,3.06,1.17,1.54,3-.91,1.83-2.3,3.79,1.45,3.09,4.45,3.6-2.88-2.43-2.08,3.55-1.28,1.23-2.22,3.46-.82,1.87-4.07,4.88.21,2-1.62,3.54-.08,2.75,2.35,1.38-1.65.65.08.31,1.19,4.52.34,1.66,2.1,5.63.81-.43-3,2.73-1,.68-2.31-1.27-1.49,1.51-1.43-.65-1.06,1.76-3.78,2.4-.21,1.59-2.12,4.95-1.22,3.37-1.39,3.56.26,8.34,4.87.8-2.2,11.41.81.27-3.49,4.66-.93,1.11-.67,3,.63.83-1.64,4.11-1.07,1-1.18-.1-.85-1-1.73,5.51,3.66L338,305l4.05,1.84,1.12-2.1,11.68-2.62,11.76,3.19,2.67-3.47,6.88-2.5L379,297.1l.36-.07,4.28.17-.33-1.92,1.66-3.44,3-.8,5.26-3.63L392,281.8l1-2.66-10,2.1-2.74-2.12-6.88-1.84-3.15-.51,7.23-1,3.19-4.35-.17-3.93-1.2-1.27,5.21-.49,3.94-3.64-1.84-.73,7.43-7.82,2.75-14.44-2.08-9-8.9-6.79-7.32-1-11.36.5-3.34,7.67-8.18-4,6.31-7.27,0-4.57-5-9.51-6.32-4-4.31-3.6-6,.75,6.07-1.61,4.6,3.53,5.06.09-9.08-15.12,2.86-2.23-3.07-1.3-8.42-11.09-13-5.92-4.09-3.88L319.29,157l-2.77-7L313,131.8,303,123.58,300,119l-3.92,0-2.86-2.29-1.56.12-1.37-2.35-3.11.35L284.65,118,281.09,119,279,117.9l-1.79.41-2.18-.43-3.74-.08-3.79-1.45-2.65-2.87,1.92,1.41.79,0,1.72,1,2.11-.08,3.41.89,4.43-1.94.51-2.08,4.14-3.07,2.88,1.08,4.18-3.47-5.67-3,.88-.66,0-2-2.05-.09-3.25,1.5-3.65,1.85,4-3.35,2.91-.86,3.91-.21L292.81,95l1.45-5.42L297,87.33l3.14-9.55.73-5.39,4.91-7.56-1.12-5.09-2.46-2.42-11.39.84-7-1-3.31,1.5-4.29-2-4.67.75-.79,1.23-3.41.48-1.8,1.55-2.24,1.06-1.13.16L261,61.5,258.05,65l-1-.07,3.84-5.86-2.78-.24,3-2.23.38,1.82.73,0L265.61,52l-7.17,1.25,3-2.18.11-2.85,2.71-1.42.07-1.21L271,40.61l2.13-3.45,3-1.15,3-3.2.26-2.29-1.94-.21,2.2-6.25-7.3-.29,1.13,2.41-5.75-.8L265.13,27l-3.86-.13-2.32.54-5.39.73-3.91-1.56-1.76,1.1-6.61-2.37L239,29.93l2.67,2-3.26,1.15.79,4.31-5.7,1.77,2.48,4.58-3.85,0,5.88,5.2-4.3.79L232,51.9l-2.83-1.43L228.41,52l-3.48.14.24,4.16,2.27,1-2.34,3,4.12,3.33-1.11.78-3.57-1.86-.87,3.69,2,4.09,3.07,0-2.26,2.09.79.16.25.24,1.35,0,.71.42L228.39,75h0l-3.09,5.2,1.8,1.36-3.26,1-1,2L222.1,87l3.84-.26-3.15,3.55-5.87.68-.85,1.29,0,.8,8.64.58-4,1.7,2,3.12,1.57.28,1.58.16.45.84,1.1.36,8.23-7.29-7,15.24,1.37,3.88-3.7,7.57,0,.86.79,1.51,1.21-1.25-1.48,3.43,1.6,2.22-2.6,6.55.13,4.56-1.65,2.07L224,142.6l5.27-.66,2.21-14.25,3.48-1.79-3.12-5.36-.15-3.31,1.22.3,2.19-2.26.21.74-.88,1.8-.65,3,.85,1.57,2,1.12Zm-8.26-45.85-1.2.28-1.35.68-2.41,4-3.06,1.72-.07-1.54,2-3.79-1.54-.68-1.17,2.1-.92-1.73-3.73,0-3.55-4,1-2.44L210.51,68l-1.23,2.28-3-1.94-.63-1.92.87-2.14L209,66.05l-.73-2.89.89-1.74,5.38,3.38L214,61.85l-.83-2.48,2.31-2.26,2.86,4.75-.12,7.08,2.21,2.31,2.79,1.89.46,1,2.82-1.6.58.45,1.47.16.56.24Zm12.37,49.23c.85.87.74,1,.74,1l-1.08,2.61-2.72-3.27-.3-2.94A29.26,29.26,0,0,1,240.76,124.28ZM254,221.48l.41-.42-.25-.84-1.1,1.22-.41-.79-1.07-.12-.07-1.49-1.58-1.11-.1-2.26.28-.42,0-1.45-.81-1.06h1.41l2.12-1.09,1,.4,2.38,0v1.94l1,0,.56,1.23,1.36.87,1-.68,1,.08.48.38-.36.58,0,.73L258,219.15l-.23.57-.21,1.06-2.88,1.44Zm-6.59-5.84,1.35.76.85,1,0,1-.58.19L248,217.32l-.77-.18-.31-1.19Zm-45.49-160-2.77-2.8,3.61-1.63.57-.71,1.79-.3-6.19-4,3-1,1.26-.16L208.66,49l-.21,2.12-1.69,0L206.48,53Zm16.21-20.51-2.93,3.26-.9,4.09L213.57,47l-1.76,2.41-2.64.27,0-.86-1.24-1-4.79-3.53-1.14.16-1.83-.61-.44-3.24,1.9-2,5.06,1.46L206,36.3l11.19-6.94ZM195.76,67.93l-1.2-1.32h-1.21l-.3-1.3.68-1.11-.21-2-2.66-1.78,2.59-2.67,4.44-.35,2.69,2.35Zm1.47,1.95.05,1.36-1.41,2.17,0,5L193,78l-1-5,1.38-2.8-.62-1.68,1-1.24Zm-5.38,10.77,1.19,1v1l-2,1.67-1.22-.29ZM212,82l2-1.22,1.25-.22.86,1.62-1.35,2.17-1.16-.19Zm5.23,1.28,1.16.53-1.11,2-1.4-.29L217,84.46Zm-5.87,9.2-.48,2.64-4.9,2.19.07-1,1.75-1.38Zm-6.48,5.9.32.56-3,2.34-1.17-.52.22-1.89,1.38-.12Zm13.37,22.43-.18,2.81,1.72,5-5.92,3.65-.41-.95,1.13-1.82-.9-1.39-1.15-1.55,3-1.09-2.42-.25-3.7,3.63.95-6,7.11-2.68Zm8.8-6.51-5.9,10.91-1.76-.16-.71-1.28v-2.74l1.5-1.43,2.55-.9-2.1.08-.08-1.82,5.71-4.4Zm10.68,14.37.4,3.76,1.49,1.08-.66,4.08-3.25.13-2.29-2.88.32-2.3-1-1.56,2.81-3.19ZM219.48,69.16l-.06-3.22,2.08-3.15.17,1.93-1.19,2.06.83,3.36-.58.35Zm-2,30.93-3.56-1.64.52-1.8,3.39-2.39,1.76,1.38,2,4,3-.19,2.79,1.34v3.88l-2.29,2-3-.85-7.46,2.56L212,105.15l5.69-.23-1.64-.66,1.87-4Zm106.08,209,.88-1.25,2.53-.66,1.29-1.67,2.65.3,2.23.48,1.6,1.47-1.66,1.12-1.74,3-2,.08-2.12-1.69ZM168.73,175.29v-.51l-.55-.64.38-.13h.85l.81-.85h1.11l0-.68.81-1.4,1.1.08.39.56,1.49-.3.72-.13.13-.76.85-.52,1.19-.93.72-.17v-.68l-.68.38-1.57-.76-.51.25-.64-.17.13-.51-1-.55-.39-.64-.21-.68v-.34h1.36l.13-.94.64-.51.55.3.25.55.56.09.17.51.59-.34,1.19-.64.85-.93.64.51.94-.34.72.42.08-.25-.51-.56.39-1.57,1.06-.72.51-.51v-.6l.43-.47-.17-1,.08-.55.09-.89.76-.56.21-.38v-.93l.09-.56.38-.12-.25-.64.63-.64.56-1.06.34.29,1-.34.59-.63.39,1,.93-.3,1,.08.64.43,1.28.21,1.1-1.19,0-.85.51-.42.64-1.49.17-.85-.22-.81.51-.26,1.28.9,1.4,0,1.28-.17.47.25.25-.85,2.26-.68,1.53-.38.55-.68.81-.42h.55l.43.42,1.36.13.68-.6,1.06.6,2.25.76.94-.68,1.06.09,1,.72.85,1.7-.25,2.34-.17,1.36.13.38,1.74-.08.13,1.7-.47.38v.56l1,.46,1,1.19.85,1.54.89,1.4.13,1.32.89.8.51.05-.68-.85-.34-1.07.6.05,1.1.51.81,1.48-.08,1.79-.68,1.06-1.28.43-2.42,1.4-.6,1.36.09,1.7,1.23-1.44,1.23-1.15,1.15-.25h2.51l1.66.17.72,1.36.09,1.48,1.23,1.07-.09,2.17.77.93.17,1.15-.72,1.06.42.81-.89,1.4.34.56-.51.89-.64-.08-.17.93-1.53,2.34-.64.3-.34.81-1.1-1h-1.58l-.21.34-1.06-.05-.85.86-.05,2.38-.51,2.29-1,.51-2.93,2.26-1.11-.6.47-.68-1.36-.13-.89-1.23-1.58,0-.38-.43-.59.47-.52-.51h-.55l0,1.45-1.87.63-.43-.63-2.38,1-.34-.3-.85.81-.72-1.15-.72-.51.51-.26-.22-1.4.81-.89.21-.9-1.4-1.23h-.72l-1.36,0-.68-.85-.73-1.15.09-.46-.43-.34-.63-.51.76-.26-.51-2.21h-.64l-.17-1-2.63-1.83-1.36,1.92-.22.72-1.19.68-.81-.17.56,1,.17,1.49.68.85-.47.38.38.64-2,.59-.81.77,0,.93.34.47-.68,1.15-.77.51h-.8l-.39-.51-.68.34-.12-.81-.56-.51-.72.17-.3.64-1.49-.21-.38.46-1.7-1.14,0-.85-.68-.47-.42.17-.3-1.06-2.89.46-1.28-1.4.17-1.23-.42-.73.3-.55-1.62-.21L172,178.43h-.68L169,175.76l0-.3Zm110.55-156-1.76-1-.31-1.92L274,14.69l-1,1.6,2.08,3,2.08,1.28Zm3.51,2.23-.16-1.75.48-1.28h-1.75l-.8,3.19Zm-1.43-7.34,2.55,2.55,2.4-1,.31-1.6h-2.55L282,12.29h-2.07L279.6,11l1.12-.16.48-1.92-3-1.6-2.07-.16L274.81,8.3v4.95l2.08.64L278.48,15ZM285.19,3l-1.92-1.75L281.36,0l-1.6,1.44,3.35,2.07ZM285,8.3,286.15,7l.63-1.28-1.59-1.12-.8,1.12.32,1.59ZM288.54,4l1.76-.16.32-.8L289.5,1.92l-1.28-.48-.32,1.43Zm3.19-.48,1-.64V1.28h-1.43Zm-4,2.88-.8,2.39,2.56.48Zm-4.31,3L282,11.18h2.88Zm-3.35-2.87L282,7l-.31-1.76L279,4.79Z" style="fill:none"/></clipPath></defs>

<rect x="0" y="0" width="400" height="340" style="clip-path:url(#uk)" />

<g id="rm-logo"><path d="M81,102.88h1V87.14l6,15.74H89l6-15.74v15.74h1V85.5H94.64l-6.15,16.14L82.31,85.5H81ZM64.74,96.05c0,4.67,2.09,7.08,5.82,7.08s5.81-2.41,5.81-7.08V85.5H74.72V96.75c0,3.07-1.52,4.86-4.16,4.86s-4.2-1.79-4.2-4.86V85.5H64.74ZM51,102.88h10v-2.11H53.33V95.06h7.22V93H53.33V87.61h7.75V85.5H51ZM35.46,97.12c.41,3.9,2.93,6,6.37,6,3.2,0,5.53-1.94,5.53-4.85,0-2.48-1.19-4-4.1-5.21l-2.2-.92c-1.8-.74-2.23-1.39-2.23-2.28a2.1,2.1,0,0,1,2.37-2c1.79,0,2.64,1.1,2.88,2.91h3c-.48-3.48-2.49-5.49-5.76-5.49s-5.55,2-5.55,4.67c0,2.08,1.11,3.62,4.14,4.89l1.72.69c2,.82,2.57,1.72,2.57,2.91,0,1.36-.87,2.16-2.4,2.16-1.87,0-3-1.19-3.32-3.45ZM20,95.43c0,5.34,2.42,7.7,6.25,7.7s6.25-2.36,6.25-7.7V85.5H28.37V96.8c0,1.73-.72,2.6-2.08,2.6s-2.09-.87-2.09-2.6V85.5H20ZM0,102.88H4V94.69l.53,2.23,2.13,6H9.52l2.14-6,.53-2.23v8.19h4V85.5H11.8L9.11,92.33l-1,3.1-1-3.1L4.39,85.5H0Z"/><path d="M88.89,73.56l-5.23-9.43H82.52l5.89,10.55V81.5h1V74.68l5.89-10.55H94.18ZM72.63,76.14l2.93-8.79L75.92,66l.34,1.34,2.94,8.79ZM69.19,81.5h1.74l1.24-3.82h7.51l1.24,3.82h1.74L76.85,64.13H75Zm-15.26,0h2.21l2.57-9.85.43-2.56.44,2.56,2.57,9.85h2.2l4.19-17.37h-2.4L63.62,74.72l-.46,2.69-.53-2.69L59.89,64.13h-1.5L55.65,74.72l-.53,2.69-.46-2.69L52.14,64.13h-2.4Zm-14.71,0h9.62V78.94H42V64.13H39.22Zm-7.49,0h3.39V64.13H31.73Zm-11.32-6,1-3.7.46-2.23.46,2.23,1,3.7Zm-5.74,6h4.17l.68-2.36h4.65l.68,2.36H29l-4.9-17.37H19.57ZM4,71.72V67.85H6.37a1.51,1.51,0,0,1,1.72,1.66v.55a1.51,1.51,0,0,1-1.72,1.66ZM0,81.5H4V75.44L7.73,81.5h4.48l-4-6.15a5.48,5.48,0,0,0,4-5.56c0-3.6-2.45-5.66-6.59-5.66H0Z"/></g>

<g id="sm-logo"><path d="M83,324.64h1V309.4l6,15.24H91l6-15.24v15.24h1V307.82H96.64l-6.15,15.62-6.18-15.62H83ZM66.44,318c0,4.52,2.08,6.85,5.81,6.85s5.82-2.33,5.82-6.85V307.82H76.42V318.7c0,3-1.53,4.71-4.17,4.71s-4.19-1.73-4.19-4.71V307.82H66.44Zm-14.19,6.61h10v-2H54.55v-5.53h7.21v-2H54.55v-5.17H62.3v-2h-10Zm-15.51-5.58c.42,3.78,2.93,5.82,6.37,5.82,3.2,0,5.53-1.88,5.53-4.69,0-2.4-1.19-3.87-4.1-5l-2.2-.89c-1.79-.72-2.23-1.35-2.23-2.21,0-1.18,1-2,2.37-2,1.8,0,2.64,1.06,2.89,2.82h3c-.48-3.37-2.49-5.32-5.76-5.32s-5.55,1.93-5.55,4.52c0,2,1.12,3.51,4.14,4.74l1.72.67c2,.79,2.57,1.66,2.57,2.81,0,1.32-.87,2.09-2.4,2.09-1.86,0-3-1.15-3.31-3.34ZM21,317.43c0,5.17,2.43,7.45,6.25,7.45s6.25-2.28,6.25-7.45v-9.61H29.36v10.93c0,1.68-.73,2.52-2.09,2.52s-2.08-.84-2.08-2.52V307.82H21ZM.94,324.64h4v-7.93l.53,2.16,2.14,5.77h2.85l2.14-5.77.53-2.16v7.93h4V307.82H12.74l-2.69,6.6-1,3-1-3-2.69-6.6H.94Z"/><path d="M85.23,303.94h9.48V303H86.2v-7.26h8.24v-.91H86.2V288h8.51v-.91H85.23Zm-15.88-7.33c0,4.76,2.08,7.57,5.78,7.57,3.32,0,5.28-2.23,5.65-5.93H79.11c-.39,3.12-1.8,4.47-4,4.47-2.81,0-4.06-2.19-4.06-6.2V293.8c0-3.39,1.52-5.43,4.06-5.43,2.18,0,3.59,1.39,4,4.4h1.67c-.39-3.68-2.42-5.89-5.65-5.89-3.77,0-5.78,2.88-5.78,7.57Zm-17,7.33h2.3V291l.78,1.57,6.9,11.41h2.4V287.12h-2.3V300l-.78-1.56-6.83-11.3H52.34Zm-14,0H48.54v-2.47H41.1v-4.86h7v-2.47h-7v-4.52h7.44v-2.5H38.32Zm-7.66,0h3.39V287.12H30.66ZM15,295.72c0,5.94,2.23,8.46,6,8.46,3.59,0,5.91-2.09,6.3-7H23.18c-.17,2.53-.8,3.34-2,3.34s-1.82-.72-1.82-2.74v-4.56c0-2,.68-2.74,1.82-2.74s1.81.84,2,3.34h4.19c-.39-4.81-2.69-7-6.3-7-3.8,0-6,2.52-6,8.46ZM0,297.93a6.33,6.33,0,0,0,6.56,6.25c3.15,0,5.74-2,5.74-5,0-2.47-1.42-3.82-5.32-5.46-1.84-.76-2.35-1.34-2.35-2A1.25,1.25,0,0,1,6,290.48c1.31,0,1.8,1,1.94,2h4.34c-.44-3.37-2.81-5.65-6.08-5.65s-5.91,1.9-5.91,4.95c0,2.12,1.3,3.75,4.53,5.1,2.59,1.08,3.12,1.63,3.12,2.42a1.29,1.29,0,0,1-1.4,1.23c-1.55,0-2.16-1.4-2.18-2.65Z"/></g>

<g id="smm-logo"><path d="M80.48,183.14h.94V168.35l5.83,14.79h1l5.83-14.79v14.79h.94V166.81H93.73l-6,15.17-6-15.17h-1.3Zm-16-6.42c0,4.39,2,6.66,5.64,6.66s5.64-2.27,5.64-6.66v-9.91h-1.6v10.57c0,2.89-1.48,4.57-4,4.57S66,180.27,66,177.38V166.81H64.44Zm-13.77,6.42h9.75v-2H52.9v-5.37h7v-2h-7v-5h7.52v-2H50.67Zm-15-5.41a5.86,5.86,0,0,0,6.18,5.65c3.1,0,5.35-1.82,5.35-4.55,0-2.34-1.15-3.76-4-4.91l-2.14-.86c-1.73-.7-2.16-1.31-2.16-2.15,0-1.14.92-1.91,2.3-1.91,1.74,0,2.57,1,2.8,2.73h2.94c-.47-3.27-2.42-5.16-5.59-5.16S36,168.44,36,171c0,2,1.08,3.41,4,4.6l1.67.65c2,.77,2.49,1.61,2.49,2.73,0,1.29-.84,2-2.32,2-1.81,0-2.89-1.12-3.22-3.24Zm-15.25-1.59c0,5,2.35,7.24,6.06,7.24s6.06-2.22,6.06-7.24v-9.33h-4v10.62c0,1.63-.7,2.45-2,2.45s-2-.82-2-2.45V166.81h-4Zm-19.47,7H4.79v-7.7l.52,2.1,2.07,5.6h2.77l2.07-5.6.51-2.1v7.7h3.88V166.81H12.36l-2.61,6.41-1,2.92-1-2.92-2.61-6.41H.92Z"/><path d="M59.76,158l2.85-8.26.35-1.26.33,1.26L66.13,158Zm-3.33,5.05h1.69l1.2-3.6H66.6l1.2,3.6h1.69l-5.64-16.34H62Zm-5.83,0h2.23V146.71H50.6Zm-15.69,0h4.51c4.49,0,7.07-2.15,7.07-7.59v-1.19c0-5.44-2.58-7.56-7.09-7.56H34.91Zm2.77-2.39V149.13h2.16c2.33,0,3.86,1.34,3.86,4.23v3.41a3.54,3.54,0,0,1-3.86,3.89Zm-16.84,2.39h10.1v-2.92H24.1v-3.9h6.51v-2.94H24.1v-3.64h6.84v-2.94H20.84Zm-19.92,0H4.79v-7.71l.52,2.1,2.07,5.61h2.77l2.07-5.61.51-2.1v7.71h3.88V146.71H12.36l-2.61,6.42-1,2.91-1-2.91-2.61-6.42H.92Z"/><path d="M82.67,143h9.18v-.89H83.61V135h8v-.88h-8V127.5h8.24v-.89H82.67Zm-15.41-7.12c0,4.62,2,7.35,5.61,7.35,3.22,0,5.12-2.17,5.48-5.76H76.73c-.38,3-1.74,4.34-3.86,4.34-2.72,0-3.94-2.13-3.94-6V133.1c0-3.29,1.48-5.28,3.94-5.28,2.12,0,3.48,1.36,3.86,4.27h1.62c-.38-3.57-2.35-5.71-5.48-5.71-3.66,0-5.61,2.8-5.61,7.35ZM50.77,143H53V130.34l.75,1.52L60.45,143h2.32V126.61H60.54V139.1l-.75-1.52-6.63-11H50.77Zm-13.61,0h9.92v-2.41H39.87v-4.71h6.76v-2.4H39.87V129h7.21v-2.43H37.16Zm-7.42,0H33V126.61H29.74Zm-15.15-8c0,5.76,2.16,8.21,5.85,8.21,3.47,0,5.73-2,6.11-6.77H22.48c-.16,2.45-.77,3.25-1.9,3.25s-1.76-.7-1.76-2.66v-4.44c0-2,.65-2.66,1.76-2.66s1.76.82,1.9,3.25h4.07c-.38-4.67-2.61-6.77-6.11-6.77-3.69,0-5.85,2.45-5.85,8.21ZM0,137.11a6.15,6.15,0,0,0,6.37,6.07c3.05,0,5.56-2,5.56-4.88,0-2.4-1.38-3.71-5.16-5.29-1.79-.75-2.28-1.31-2.28-2a1.21,1.21,0,0,1,1.31-1.14c1.27,0,1.74,1,1.88,2h4.21A5.87,5.87,0,0,0,6,126.38c-3.08,0-5.73,1.84-5.73,4.8,0,2.06,1.27,3.65,4.39,4.95,2.51,1.05,3,1.59,3,2.36a1.25,1.25,0,0,1-1.36,1.19c-1.5,0-2.09-1.35-2.12-2.57Z"/><rect x="94.49" y="134.22" width="13.51" height="0.77"/><rect x="100.86" y="127.89" width="0.77" height="13.43"/></g>

<g id="loco-logo"><path d="M18.76,22.87c4,0,6.49,2.85,6.49,8.45v1.13c0,5.6-2.45,8.42-6.49,8.42s-6.52-2.82-6.52-8.42V31.32c0-5.6,2.46-8.45,6.52-8.45m0,14.88c1.78,0,2.89-1.23,2.89-3.5v-4c0-2.78-.92-4.23-2.89-4.23-1.8,0-2.91,1.23-2.91,3.48v4c0,2.78.89,4.23,2.91,4.23"/><path d="M34,22.87c3.56,0,5.8,2.4,6.09,7H36.65c-.16-2.75-1-3.8-2.52-3.8S31.7,27.1,31.7,29.5v4.75c0,2.42.91,3.47,2.43,3.47s2.33-1,2.52-3.85h3.47c-.27,4.63-2.48,7-6.09,7s-5.94-2.55-5.94-8.45V31.35c0-5.85,2.19-8.48,5.94-8.48"/><path d="M49.09,22.87c3.94,0,6.4,2.83,6.4,8.15v1.73c0,5.32-2.46,8.12-6.4,8.12s-6.42-2.8-6.42-8.12V31c0-5.32,2.45-8.15,6.42-8.15m0,15.43c2.11,0,3.44-1.5,3.44-4v-4.4c0-2.78-1.2-4.38-3.44-4.38s-3.47,1.5-3.47,4v4.42c0,2.83,1.23,4.38,3.47,4.38"/><polygon points="62.27 23.12 65.97 33.82 66.77 36.95 67.53 33.82 71.24 23.12 74.58 23.12 74.58 40.62 71.98 40.62 71.98 30.75 72.18 27.02 71.24 30.77 67.94 40.62 65.56 40.62 62.27 30.77 61.33 27.02 61.52 30.77 61.52 40.62 58.92 40.62 58.92 23.12 62.27 23.12"/><path d="M84.44,22.87c3.87,0,6.33,2.8,6.33,7.88V33c0,5.07-2.46,7.87-6.33,7.87s-6.32-2.8-6.32-7.87V30.75c0-5.08,2.45-7.88,6.32-7.88m0,15.88c2.41,0,3.92-1.75,3.92-4.5V29.5c0-2.75-1.51-4.5-3.92-4.5s-3.92,1.75-3.92,4.5v4.75c0,2.75,1.52,4.5,3.92,4.5"/><polygon points="92.21 25.25 92.21 23.12 102.91 23.12 102.91 25.25 98.7 25.25 98.7 40.62 96.42 40.62 96.42 25.25 92.21 25.25"/><rect x="106.06" y="23.12" width="1.64" height="17.5"/><path d="M111.81,33V30.75c0-5.2,2.53-7.88,6.21-7.88s6.2,2.68,6.2,7.88V33c0,5.2-2.52,7.87-6.2,7.87s-6.21-2.67-6.21-7.87m10.71.7V30.07c0-3.6-1.74-5.65-4.5-5.65s-4.5,2-4.5,5.65V33.7c0,3.6,1.73,5.65,4.5,5.65s4.5-2.05,4.5-5.65"/><polygon points="128.19 23.12 129.56 23.12 138.05 37.42 138.87 39.07 138.87 23.12 140 23.12 140 40.62 138.63 40.62 130.09 26.17 129.32 24.67 129.32 40.62 128.19 40.62 128.19 23.12"/><polygon points="0 23.12 0 40.62 9.96 40.62 9.96 36.87 3.97 36.87 3.97 23.12 0 23.12"/></g>

<g id="sim-logo"><path d="M79.77,263.39h.94V248.6l5.85,14.79h1l5.85-14.79v14.79h1V247.06H93.08l-6,15.17-6-15.17h-1.3ZM64,257c0,4.38,2,6.65,5.66,6.65s5.67-2.27,5.67-6.65v-9.92H73.68v10.57c0,2.89-1.48,4.57-4.06,4.57s-4.08-1.68-4.08-4.57V247.06H64Zm-13.35,6.41H60.4v-2H52.85V256h7v-2h-7v-5H60.4v-2H50.61ZM35.45,258a5.88,5.88,0,0,0,6.2,5.65c3.12,0,5.38-1.82,5.38-4.55,0-2.34-1.15-3.76-4-4.9l-2.14-.87c-1.75-.7-2.17-1.3-2.17-2.15,0-1.14.92-1.91,2.31-1.91,1.74,0,2.57,1,2.81,2.73H46.8c-.48-3.27-2.43-5.16-5.62-5.16s-5.4,1.87-5.4,4.39c0,2,1.08,3.41,4,4.6l1.68.65c2,.77,2.5,1.61,2.5,2.73,0,1.29-.85,2-2.34,2-1.81,0-2.9-1.12-3.23-3.24Zm-15-1.59c0,5,2.36,7.24,6.09,7.24s6.09-2.22,6.09-7.24v-9.33H28.55v10.62c0,1.63-.71,2.45-2,2.45s-2-.82-2-2.45V247.06H20.43Zm-19.51,7H4.81v-7.7l.52,2.1,2.08,5.6h2.78l2.08-5.6.52-2.1v7.7h3.89V247.06H12.41l-2.62,6.42-1,2.91-1-2.91-2.62-6.42H.92Z"/><path d="M101.79,235.83,96.7,227H95.59l5.73,9.92v6.42h1v-6.42L108,227h-1.06ZM83.92,235v-6.58h4.2c2.38,0,3.59,1.05,3.59,3V232c0,1.94-1.21,3-3.59,3Zm-1.58,8.31h1.58v-6.87h1.2L91,243.3h2l-5.92-6.87h1c3.46,0,5.28-2.1,5.28-4.71,0-3.13-1.86-4.76-5.5-4.76H82.34Zm-9.65,0h2.24V228.94h4.13v-2H68.56v2h4.13Zm-18-5.42a5.87,5.87,0,0,0,6.2,5.65c3.12,0,5.38-1.82,5.38-4.55,0-2.33-1.16-3.76-4-4.9l-2.14-.87c-1.75-.7-2.17-1.3-2.17-2.14,0-1.15.92-1.92,2.31-1.92,1.74,0,2.57,1,2.81,2.73h2.94c-.47-3.26-2.43-5.15-5.61-5.15s-5.4,1.86-5.4,4.38c0,2,1.08,3.41,4,4.6l1.68.65c2,.78,2.5,1.62,2.5,2.74,0,1.28-.85,2-2.34,2-1.82,0-2.9-1.12-3.23-3.25Zm-3-10.92H48.35v10.67c0,1.91-1,3-2.6,3s-2.6-1.05-2.6-3V227H39.78v9.57c0,4.78,2.2,7,6,7s6-2.22,6-7ZM24.59,243.3h5c4.53,0,7.07-2.29,7.07-7.92v-.65c0-5.6-2.54-7.77-7.07-7.77h-5Zm4.13-3.48v-9.36h1.2c1.68,0,2.46.72,2.46,2.78V237c0,2-.69,2.8-2.46,2.8ZM8,243.3h3.89v-8.73l1.18,2.28,4.13,6.45h3.42V227H16.75v8.7l-1.18-2.28L11.48,227H8Zm-7.57,0H4.34V227H.45Z"/><path d="M82.08,223.2H91.3v-.89H83v-7.05h8v-.88H83v-6.63H91.3v-.89H82.08Zm-15-7.12c0,4.62,2,7.35,5.63,7.35,3.24,0,5.15-2.17,5.5-5.76H76.53c-.37,3-1.74,4.34-3.87,4.34-2.73,0-4-2.13-4-6v-2.64c0-3.29,1.49-5.28,4-5.28,2.13,0,3.5,1.36,3.87,4.28h1.63c-.38-3.57-2.36-5.72-5.5-5.72C69,206.63,67,209.43,67,214ZM50.88,223.2h2.25V210.6l.75,1.51,6.73,11.09h2.33V206.86H60.7v12.49l-.76-1.52-6.65-11H50.88Zm-13.7,0h10v-2.41H39.89v-4.71h6.8v-2.4h-6.8v-4.39h7.25v-2.43h-10Zm-7.29,0h3.3V206.86h-3.3Zm-15.13-8c0,5.76,2.17,8.21,5.87,8.21,3.5,0,5.76-2,6.14-6.77H22.69c-.17,2.45-.78,3.25-1.91,3.25s-1.77-.7-1.77-2.66v-4.44c0-2,.66-2.66,1.77-2.66s1.76.82,1.91,3.25h4.08c-.38-4.67-2.62-6.77-6.14-6.77-3.7,0-5.87,2.45-5.87,8.21ZM0,217.36a6.16,6.16,0,0,0,6.39,6.07c3.07,0,5.6-2,5.6-4.88,0-2.4-1.4-3.71-5.19-5.29-1.8-.75-2.29-1.31-2.29-2a1.22,1.22,0,0,1,1.32-1.14c1.27,0,1.74,1,1.89,2h4.22A5.89,5.89,0,0,0,6,206.63c-3.09,0-5.76,1.84-5.76,4.81,0,2.05,1.27,3.64,4.41,4.94,2.53,1.05,3.05,1.59,3.05,2.36a1.26,1.26,0,0,1-1.37,1.19c-1.51,0-2.1-1.35-2.13-2.57Z"/><rect x="93.95" y="214.47" width="13.57" height="0.77"/><rect x="100.35" y="208.14" width="0.78" height="13.43"/></g><g id="blacklines"><line x1="113.68" y1="305.54" x2="348.71" y2="276.28" style="fill:none;stroke:#000;stroke-miterlimit:10;stroke-width:2px"/><line x1="122.68" y1="235.85" x2="296.71" y2="209.28" style="fill:none;stroke:#000;stroke-miterlimit:10;stroke-width:2px"/><line x1="113.68" y1="154.99" x2="310.71" y2="193.28" style="fill:none;stroke:#000;stroke-miterlimit:10;stroke-width:2px"/><line x1="108" y1="85.25" x2="327.71" y2="186.95" style="fill:none;stroke:#000;stroke-miterlimit:10;stroke-width:2px"/><line x1="154.25" y1="31.69" x2="313.71" y2="164.28" style="fill:none;stroke:#000;stroke-miterlimit:10;stroke-width:2px"/></g><g style="clip-path:url(#uk)"><g id="whitelines"><line x1="113.68" y1="305.54" x2="348.71" y2="276.28" style="fill:none;stroke:#fff;stroke-miterlimit:10;stroke-width:2px"/><line x1="122.68" y1="235.85" x2="296.71" y2="209.28" style="fill:none;stroke:#fff;stroke-miterlimit:10;stroke-width:2px"/><line x1="113.52" y1="154.99" x2="310.71" y2="193.28" style="fill:none;stroke:#fff;stroke-miterlimit:10;stroke-width:2px"/><line x1="108" y1="85.25" x2="327.71" y2="186.95" style="fill:none;stroke:#fff;stroke-miterlimit:10;stroke-width:2px"/><line x1="154.25" y1="31.69" x2="313.71" y2="164.28" style="fill:none;stroke:#fff;stroke-miterlimit:10;stroke-width:2px"/></g></g><circle cx="348.71" cy="276.28" r="6.33" style="stroke:#fff;stroke-miterlimit:10;stroke-width:2px"/><circle cx="327.71" cy="186.95" r="6.33" style="stroke:#fff;stroke-miterlimit:10;stroke-width:2px"/><circle cx="313.71" cy="164.28" r="6.33" style="stroke:#fff;stroke-miterlimit:10;stroke-width:2px"/><circle cx="310.71" cy="193.28" r="6.33" style="stroke:#fff;stroke-miterlimit:10;stroke-width:2px"/><circle cx="296.71" cy="209.28" r="6.33" style="stroke:#fff;stroke-miterlimit:10;stroke-width:2px"/><circle cx="154.09" cy="31.87" r="3.92"/><circle cx="108" cy="85.25" r="3.92"/><circle cx="113.52" cy="154.99" r="3.92"/><circle cx="122.52" cy="235.85" r="3.92"/><circle cx="113.52" cy="305.54" r="3.92"/></svg>
