<svg xmlns="http://www.w3.org/2000/svg" width="24" height="24" viewBox="0 0 24 24">
  <g fill="#000000" fill-rule="evenodd">
    <path fill-rule="nonzero" d="M12,21 C7.02943725,21 3,16.9705627 3,12 C3,7.02943725 7.02943725,3 12,3 C16.9705627,3 21,7.02943725 21,12 C21,16.9705627 16.9705627,21 12,21 Z M12,19.4 C16.0869071,19.4 19.4,16.0869071 19.4,12 C19.4,7.91309285 16.0869071,4.6 12,4.6 C7.91309285,4.6 4.6,7.91309285 4.6,12 C4.6,16.0869071 7.91309285,19.4 12,19.4 Z"/>
    <path fill-rule="nonzero" d="M12,21 C9.58523873,21 8,16.9378258 8,12 C8,7.06217424 9.58523873,3 12,3 C14.4147613,3 16,7.06217424 16,12 C16,16.9378258 14.4147613,21 12,21 Z M12,19.4 C13.1198611,19.4 14.4,16.1196441 14.4,12 C14.4,7.88035586 13.1198611,4.6 12,4.6 C10.8801389,4.6 9.6,7.88035586 9.6,12 C9.6,16.1196441 10.8801389,19.4 12,19.4 Z"/>
    <path d="M5.33153341 5.95576635C4.9782399 6.34531125 4.65860708 6.76594608 4.37722671 7.2130791 5.97564281 8.33608419 8.80445505 9 12 9 15.1955449 9 18.0243572 8.33608419 19.6227733 7.2130791 19.3413929 6.76594608 19.0217601 6.34531125 18.6684666 5.95576635 17.4779377 6.74141532 14.9548604 7.4 12 7.4 9.04513957 7.4 6.5220623 6.74141532 5.33153341 5.95576635zM5.33153341 18.0442336C4.9782399 17.6546888 4.65860708 17.2340539 4.37722671 16.7869209 5.97564281 15.6639158 8.80445505 15 12 15 15.1955449 15 18.0243572 15.6639158 19.6227733 16.7869209 19.3413929 17.2340539 19.0217601 17.6546888 18.6684666 18.0442336 17.4779377 17.2585847 14.9548604 16.6 12 16.6 9.04513957 16.6 6.5220623 17.2585847 5.33153341 18.0442336z"/>
    <polygon fill-rule="nonzero" points="4 12.8 20 12.8 20 11.2 4 11.2"/>
  </g>
</svg>
