<svg xmlns="http://www.w3.org/2000/svg" width="24" height="24" viewBox="0 0 24 24">
  <g fill-rule="evenodd">
    <path d="M2,7.00000286 C1.43817787,7.00130684 1,7.4489114 1,8.00087166 L1,21.9991283 C1,22.5553691 1.44881738,23 2.00246167,23 L21.9975383,23 C22.5605417,23 23,22.5518945 23,21.9991283 L23,8.00087166 C23,7.4454555 22.5525124,7.00131859 22,7.00000293 L22,2.00087166 C22,1.44463086 21.5559546,1 21.0081969,1 L2.99180311,1 C2.45530558,1 2,1.4481055 2,2.00087166 L2,7.00000263 Z M2,8 L22,8 L22,22 L2,22 L2,8 Z M3,2 L21,2 L21,7 L3,7 L3,2 Z"/>
    <path d="M4,5 L20,5 L20,8 L4,8 L4,5 Z M5,6 L19,6 L19,7 L5,7 L5,6 Z"/>
    <path d="M5 3L19 3 19 6 5 6 5 3zM6 4L18 4 18 5 6 5 6 4zM6 12C6 10.8954305 6.90195036 10 8.0085302 10L15.9914698 10C17.1007504 10 18 10.8877296 18 12 18 13.1045695 17.0980496 14 15.9914698 14L8.0085302 14C6.8992496 14 6 13.1122704 6 12zM7 12C7 11.4477153 7.4556644 11 7.99539757 11L16.0046024 11C16.5543453 11 17 11.4438648 17 12 17 12.5522847 16.5443356 13 16.0046024 13L7.99539757 13C7.44565467 13 7 12.5561352 7 12z"/>
  </g>
</svg>
