<?xml version="1.0" encoding="UTF-8" standalone="no"?>
<svg width="24px" height="24px" viewBox="0 0 24 24" version="1.1" xmlns="http://www.w3.org/2000/svg" xmlns:xlink="http://www.w3.org/1999/xlink">
	<path d="M18.0000002,9 C18.0000002,9.00016558 17.9954305,20 18,20 C18,20 6,20.0004267 6,20 C6,20 6.00957624,4 6,4 L13,4.00124271 L13,9 L18.0000002,9 Z M6,2 C4.9,2 4.01,2.9 4.01,4 L4,20 C4,21.1 4.89,22 5.99,22 L18,22 C19.1,22 20,21.1 20,20 L20,8 L14,2 L6,2 Z M10,11 L17,11 L17,13 L10,13 L10,11 Z M10,14 L17,14 L17,16 L10,16 L10,14 Z M10,17 L17,17 L17,19 L10,19 L10,17 Z M8,13 C8.55228475,13 9,12.5522847 9,12 C9,11.4477153 8.55228475,11 8,11 C7.44771525,11 7,11.4477153 7,12 C7,12.5522847 7.44771525,13 8,13 Z M8,16 C8.55228475,16 9,15.5522847 9,15 C9,14.4477153 8.55228475,14 8,14 C7.44771525,14 7,14.4477153 7,15 C7,15.5522847 7.44771525,16 8,16 Z M8,18.8828125 C8.55228475,18.8828125 9,18.4350972 9,17.8828125 C9,17.3305278 8.55228475,16.8828125 8,16.8828125 C7.44771525,16.8828125 7,17.3305278 7,17.8828125 C7,18.4350972 7.44771525,18.8828125 8,18.8828125 Z"></path>
</svg>