<svg xmlns="http://www.w3.org/2000/svg" width="24" height="24" viewBox="0 0 24 24">
  <g fill="none" fill-rule="evenodd">
    <path d="M5.00087166,2 C4.44463086,2 4,2.44404538 4,2.99180311 L4,21.0081969 C4,21.5446944 4.4481055,22 5.00087166,22 L18.9991283,22 C19.5553691,22 20,21.5559546 20,21.0081969 L20,8 L14,2 L5.00087166,2 Z M5,3 L5,21 L19,21 L19,9 L13,9 L13,3 L5,3 Z M14,3.41000009 L18.5900002,8 L14,8 L14,3.41000009 Z"/>
    <g transform="translate(7 5)">
      <rect width="4" height="1" y="12"/>
      <rect width="3" height="1" x="5" y="12"/>
      <rect width="2" height="1" x="8" y="6"/>
      <rect width="3" height="1" x="4" y="6"/>
      <rect width="3" height="1" y="6"/>
      <rect width="7" height="1" x="3" y="8"/>
      <rect width="2" height="1" y="8"/>
      <rect width="3" height="1" x="2" y="4"/>
      <rect width="2" height="1" y="2"/>
      <rect width="2" height="1" x="3" y="2"/>
      <rect width="3" height="1"/>
      <rect width="5" height="1" y="10"/>
      <rect width="4" height="1" x="6" y="10"/>
      <rect width="1" height="1" y="4"/>
      <rect width="1" height="1" x="4"/>
    </g>
  </g>
</svg>
