<svg xmlns="http://www.w3.org/2000/svg" width="24" height="24" viewBox="0 0 24 24">
  <g fill="#000000">
    <path d="M5,4 L5,9.00340178 L19,9.00340178 L19,4 L5,4 Z M4,3 L20,3 L20,10.0034018 L4,10.0034018 L4,3 Z"/>
    <path d="M8,7.00340178 L16,7.00340178 L16,6 L8,6 L8,7.00340178 Z M7,5 L17,5 L17,8.00340178 L7,8.00340178 L7,5 Z"/>
    <path d="M7,9.00340178 L17,9.00340178 L17,8 L7,8 L7,9.00340178 Z M6,7 L18,7 L18,10.0034018 L6,10.0034018 L6,7 Z"/>
    <path d="M4,20 L20,20 L20,10 L4,10 L4,20 Z M3,9 L21,9 L21,21 L3,21 L3,9 Z"/>
    <path d="M9,12.5 C9,12.7786168 9.22267481,13 9.50473881,13 L14.4952612,13 C14.7776946,13 15,12.7778461 15,12.5 C15,12.2213832 14.7773252,12 14.4952612,12 L9.50473881,12 C9.22230542,12 9,12.2221539 9,12.5 Z M8,12.5 C8,11.6715729 8.66831553,11 9.50473881,11 L14.4952612,11 C15.3263055,11 16,11.6657972 16,12.5 C16,13.3284271 15.3316845,14 14.4952612,14 L9.50473881,14 C8.67369451,14 8,13.3342028 8,12.5 Z"/>
  </g>
</svg>
