<?xml version="1.0" encoding="UTF-8" standalone="no"?>
<svg width="24px" height="24px" viewBox="0 0 24 24" version="1.1" xmlns="http://www.w3.org/2000/svg" xmlns:xlink="http://www.w3.org/1999/xlink">
    <title>Cancel</title>
    <path fill="#ffffff" d="M6,8.0085302 C6,6.8992496 6.90195036,6 8.0085302,6 L15.9914698,6 C17.1007504,6 18,6.90195036 18,8.0085302 L18,15.9914698 C18,17.1007504 17.0980496,18 15.9914698,18 L8.0085302,18 C6.8992496,18 6,17.0980496 6,15.9914698 L6,8.0085302 Z M16,14.88 L13.12,12 L16,9.12 L14.88,8 L12,10.88 L9.12,8 L8,9.12 L10.88,12 L8,14.88 L9.12,16 L12,13.12 L14.88,16 L16,14.88 L16,14.88 Z"></path>
</svg>
