<svg xmlns="http://www.w3.org/2000/svg" width="64" height="64" viewBox="0 0 64 64">
  <path d="M31.943,0 C40.931,0 48.513,3.085 54.685,9.257 C60.893,15.467 64,23.048 64,32 C64,40.991 60.951,48.476 54.855,54.456 C48.379,60.819 40.742,64 31.943,64 C23.294,64 15.79,60.856 9.429,54.57 C3.144,48.284 0,40.762 0,32 C0,23.239 3.144,15.658 9.429,9.258 C15.601,3.085 23.104,0 31.943,0 Z M32.057,5.772 C24.781,5.772 18.629,8.325 13.6,13.429 C8.38,18.763 5.771,24.954 5.771,32.001 C5.771,39.087 8.361,45.221 13.541,50.399 C18.722,55.581 24.893,58.17 32.055,58.17 C39.178,58.17 45.389,55.563 50.684,50.342 C55.713,45.504 58.227,39.39 58.227,31.999 C58.227,24.723 55.674,18.534 50.571,13.428 C45.467,8.324 39.295,5.772 32.057,5.772 Z M40.629,24.057 L40.629,37.142 L36.973,37.142 L36.973,52.684 L27.029,52.684 L27.029,37.143 L23.373,37.143 L23.373,24.057 C23.373,23.485 23.573,23 23.972,22.6 C24.373,22.201 24.859,22 25.429,22 L38.573,22 C39.106,22 39.583,22.2 40.001,22.6 C40.418,23 40.629,23.486 40.629,24.057 Z M27.542,15.829 C27.542,12.821 29.027,11.315 32,11.315 C34.973,11.315 36.457,12.819 36.457,15.829 C36.457,18.8 34.971,20.286 32,20.286 C29.029,20.286 27.542,18.8 27.542,15.829 Z"/>
</svg>
