<svg xmlns="http://www.w3.org/2000/svg" width="64" height="64" viewBox="0 0 64 64">
  <path d="M31.9414991,0 C40.8926389,0 48.513758,3.125 54.7988562,9.372 C57.8069032,12.381 60.093939,15.82 61.6559634,19.686 C63.2169878,23.553 64,27.657 64,32 C64,36.381 63.2269879,40.486 61.6859638,44.313 C60.1429397,48.141 57.8659042,51.523 54.8578572,54.456 C51.7348084,57.541 48.191753,59.904 44.2286911,61.542 C40.2676292,63.18 36.1715652,63.999 31.9434991,63.999 C27.7154331,63.999 23.6673698,63.191 19.8003094,61.57 C15.934249,59.952 12.4671948,57.609 9.40014688,54.543 C6.33309895,51.477 4.0000625,48.019 2.4000375,44.171 C0.8000125,40.323 0,36.267 0,32 C0,27.771 0.809012641,23.705 2.42803794,19.8 C4.04706324,15.895 6.4001,12.4 9.48514821,9.314 C15.5802434,3.106 23.0653604,0 31.9414991,0 Z M32.0575009,5.772 C24.7433866,5.772 18.5902905,8.325 13.5992125,13.429 C11.0841732,15.982 9.15114299,18.848 7.79912186,22.029 C6.4451007,25.21 5.77009016,28.534 5.77009016,32.001 C5.77009016,35.43 6.4451007,38.735 7.79912186,41.914 C9.152143,45.097 11.0841732,47.935 13.5992125,50.43 C16.1132518,52.926 18.9502961,54.829 22.1143455,56.145 C25.2753949,57.459 28.5904467,58.116 32.0575009,58.116 C35.4855545,58.116 38.8076064,57.451 42.0306567,56.117 C45.249707,54.782 48.1517524,52.86 50.7437929,50.346 C55.7338708,45.47 58.2279098,39.356 58.2279098,32.002 C58.2279098,28.459 57.5798997,25.107 56.2848795,21.945 C54.9918592,18.783 53.1048298,15.965 50.6307911,13.487 C45.4847107,8.344 39.295614,5.772 32.0575009,5.772 Z M31.6564946,26.687 L27.3694276,28.916 C26.9114205,27.965 26.3504117,27.297 25.6844013,26.916 C25.0173909,26.536 24.3983812,26.345 23.8263723,26.345 C20.9703277,26.345 19.5403053,28.23 19.5403053,32.002 C19.5403053,33.716 19.902311,35.086 20.6253223,36.115 C21.3493336,37.144 22.4163503,37.659 23.8263723,37.659 C25.6934015,37.659 27.007422,36.744 27.7704339,34.916 L31.7124955,36.916 C30.8744824,38.479 29.7124643,39.707 28.226441,40.602 C26.7424179,41.498 25.1033922,41.945 23.3123643,41.945 C20.4553196,41.945 18.1492836,41.07 16.3972562,39.316 C14.6452288,37.564 13.7692151,35.126 13.7692151,32.003 C13.7692151,28.955 14.655229,26.537 16.4262567,24.746 C18.1972843,22.956 20.4353193,22.06 23.1413616,22.06 C27.1044235,22.058 29.9414678,23.601 31.6564946,26.687 Z M50.113783,26.687 L45.8847169,28.916 C45.4277098,27.965 44.864701,27.297 44.1986906,26.916 C43.5306802,26.536 42.8916702,26.345 42.2846607,26.345 C39.4276161,26.345 37.9975937,28.23 37.9975937,32.002 C37.9975937,33.716 38.3605994,35.086 39.0836107,36.115 C39.806622,37.144 40.8726386,37.659 42.2846607,37.659 C44.1496898,37.659 45.4647104,36.744 46.2257223,34.916 L50.2257848,36.916 C49.3507711,38.479 48.1687526,39.707 46.6847294,40.602 C45.1987062,41.498 43.5796809,41.945 41.8276536,41.945 C38.9316083,41.945 36.6185722,41.07 34.8865451,39.316 C33.150518,37.564 32.2845044,35.126 32.2845044,32.003 C32.2845044,28.955 33.1695183,26.537 34.942546,24.746 C36.7125736,22.956 38.9506086,22.06 41.6556509,22.06 C45.6177128,22.058 48.4387569,23.601 50.113783,26.687 Z"/>
</svg>
