<svg xmlns="http://www.w3.org/2000/svg" width="64" height="64" viewBox="0 0 64 64">
  <path d="M31.941 0C40.893 0 48.514 3.125 54.8 9.372c3.008 3.009 5.295 6.448 6.857 10.314C63.217 23.553 64 27.657 64 32c0 4.381-.773 8.486-2.314 12.313-1.543 3.828-3.82 7.21-6.828 10.143-3.123 3.085-6.666 5.448-10.63 7.086-3.96 1.638-8.056 2.457-12.285 2.457A31.1 31.1 0 0 1 19.8 61.57c-3.866-1.618-7.333-3.961-10.4-7.027-3.067-3.066-5.4-6.524-7-10.372C.8 40.323 0 36.267 0 32c0-4.229.809-8.295 2.428-12.2 1.62-3.905 3.972-7.4 7.057-10.486C15.58 3.106 23.065 0 31.941 0Zm.117 5.772c-7.315 0-13.468 2.553-18.459 7.657-2.515 2.553-4.448 5.419-5.8 8.6a25.204 25.204 0 0 0-2.029 9.972c0 3.429.675 6.734 2.03 9.913 1.352 3.183 3.284 6.021 5.8 8.516 2.513 2.496 5.35 4.399 8.514 5.715a25.653 25.653 0 0 0 9.944 1.971c3.428 0 6.75-.665 9.973-1.999 3.219-1.335 6.12-3.257 8.713-5.771 4.99-4.876 7.484-10.99 7.484-18.344 0-3.543-.648-6.895-1.943-10.057-1.293-3.162-3.18-5.98-5.654-8.458-5.146-5.143-11.335-7.715-18.573-7.715Zm-.402 20.915-4.287 2.229c-.458-.951-1.019-1.619-1.685-2-.667-.38-1.286-.571-1.858-.571-2.856 0-4.286 1.885-4.286 5.657 0 1.714.362 3.084 1.085 4.113.724 1.029 1.791 1.544 3.201 1.544 1.867 0 3.181-.915 3.944-2.743l3.942 2c-.838 1.563-2 2.791-3.486 3.686-1.484.896-3.123 1.343-4.914 1.343-2.857 0-5.163-.875-6.915-2.629-1.752-1.752-2.628-4.19-2.628-7.313 0-3.048.886-5.466 2.657-7.257 1.771-1.79 4.01-2.686 6.715-2.686 3.963-.002 6.8 1.541 8.515 4.627Zm18.458 0-4.23 2.229c-.456-.951-1.02-1.619-1.685-2-.668-.38-1.307-.571-1.914-.571-2.857 0-4.287 1.885-4.287 5.657 0 1.714.363 3.084 1.086 4.113.723 1.029 1.789 1.544 3.2 1.544 1.866 0 3.18-.915 3.942-2.743l4 2c-.875 1.563-2.057 2.791-3.541 3.686a9.234 9.234 0 0 1-4.857 1.343c-2.896 0-5.21-.875-6.941-2.629-1.736-1.752-2.602-4.19-2.602-7.313 0-3.048.885-5.466 2.658-7.257 1.77-1.79 4.008-2.686 6.713-2.686 3.962-.002 6.783 1.541 8.458 4.627Z"/>
</svg>