<?xml version="1.0" encoding="utf-8"?>
<svg xmlns="http://www.w3.org/2000/svg" xml:space="preserve" width="64" height="64" version="1.0" viewBox="5.5 -3.5 64 64">
  <circle cx="38.05" cy="28.468" r="29.482" fill="#FFF"/>
  <path d="M37.443-3.5c8.988 0 16.58 3.096 22.77 9.286C66.404 11.976 69.5 19.547 69.5 28.5c0 8.954-3.049 16.437-9.145 22.456-6.437 6.363-14.076 9.544-22.912 9.544-8.687 0-16.182-3.144-22.486-9.43C8.651 44.784 5.5 37.262 5.5 28.5c0-8.761 3.144-16.342 9.429-22.742C21.101-.415 28.604-3.5 37.443-3.5zm.086 5.772c-7.257 0-13.401 2.553-18.428 7.657-5.22 5.296-7.829 11.486-7.829 18.572s2.59 13.22 7.771 18.398c5.181 5.182 11.352 7.771 18.514 7.771 7.162 0 13.371-2.607 18.629-7.828 5.029-4.877 7.543-10.991 7.543-18.343 0-7.314-2.553-13.504-7.656-18.571-5.106-5.104-11.288-7.656-18.544-7.656zm.485 6.856c.381-.038.715.067 1.002.314.285.249.445.563.484.943v.229l.857 13.828.629-7.657c0-.381.133-.705.398-.971s.592-.401.971-.401c.381 0 .705.134.973.401.266.267.4.59.4.971v.228l.74 10.286.744-8.285c.037-.342.182-.629.43-.857.246-.229.541-.342.885-.342s.648.106.914.314c.268.21.42.486.459.829l1.486 12.457.686-1.657c.229-.572.666-.858 1.312-.858h7.486v2.744h-6.572l-2.342 5.714c-.268.685-.764.972-1.486.856-.342-.038-.619-.172-.828-.4s-.334-.514-.371-.857l-.514-4.114-.971 11.942c-.039.341-.182.628-.43.856s-.543.343-.887.343c-.342 0-.646-.114-.914-.343a1.284 1.284 0 0 1-.457-.856v-.172l-.799-9.886-.686 9.315c-.078.342-.24.629-.486.857a1.26 1.26 0 0 1-.887.342c-.342 0-.648-.113-.914-.342s-.42-.515-.457-.857v-.172l-.744-11.143-.742 12.229v.172c0 .382-.135.713-.4.999s-.59.43-.971.43c-.383 0-.705-.144-.971-.43a1.412 1.412 0 0 1-.402-.999v-.115L33.897 33.7l-.686 10.914v.171a1.61 1.61 0 0 1-.485.857c-.248.229-.543.343-.885.343s-.648-.114-.914-.343a1.28 1.28 0 0 1-.458-.857v-.171h-.056v-.17l-.8-11.428-.629 7.313c-.038.344-.191.63-.457.857a1.364 1.364 0 0 1-.914.344c-.343 0-.639-.105-.887-.315a1.458 1.458 0 0 1-.486-.828l-1.429-9.828-.171.341c-.228.496-.648.744-1.258.744h-6.628V28.9h5.772l1.771-3.6c.267-.609.732-.867 1.4-.772.666.095 1.057.467 1.171 1.114l.4 2.628 1.085-12.628c0-.381.133-.705.4-.971s.59-.401.971-.401.704.134.971.401.399.59.399.971v.228l.629 8.915.857-11.942v-.171c.037-.343.18-.629.428-.857.247-.228.542-.342.886-.342s.648.114.914.342c.268.229.418.514.457.857v.171l.686 10.4.801-12.628v-.229c0-.342.123-.629.371-.857.252-.229.547-.362.891-.401z"/>
</svg>