<svg xmlns="http://www.w3.org/2000/svg" width="64" height="64" viewBox="0 0 64 64">
    <path d="M32.5,14.08 C21.935,14.08 19.278,24.049 19.278,32.5 C19.278,40.952 21.934,50.92 32.5,50.92 C43.064,50.92 45.721,40.952 45.721,32.5 C45.721,24.049 43.064,14.08 32.5,14.08 Z M32.5,21.026 C32.929,21.026 33.32,21.092 33.688,21.183 C34.449,21.839 34.821,22.744 34.091,24.006 L27.055,36.936 C26.839,35.3 26.808,33.696 26.808,32.499 C26.808,28.777 27.066,21.026 32.5,21.026 Z M37.766,26.987 C38.139,28.971 38.192,31.043 38.192,32.5 C38.192,36.223 37.934,43.975 32.502,43.975 C32.074,43.975 31.68,43.93 31.314,43.839 C31.244,43.818 31.18,43.796 31.112,43.772 C31,43.74 30.882,43.704 30.776,43.662 C29.566,43.147 28.804,42.216 29.902,40.569 L37.766,26.987 Z"/>
    <path d="M31.933,0 C23.056,0 15.574,3.09 9.479,9.3 C6.392,12.387 4.036,15.907 2.397,19.832 C0.797,23.719 0,27.771 0,32 C0,36.268 0.797,40.32 2.397,44.168 C3.997,48.018 6.318,51.48 9.366,54.564 C12.451,57.613 15.915,59.963 19.764,61.601 C23.65,63.203 27.703,63.999 31.933,63.999 C36.162,63.999 40.273,63.173 44.236,61.534 C48.198,59.895 51.732,57.54 54.857,54.453 C57.868,51.52 60.146,48.156 61.669,44.347 C63.23,40.5 64,36.383 64,32 C64,27.657 63.23,23.546 61.67,19.697 C60.108,15.812 57.822,12.377 54.813,9.367 C48.525,3.119 40.885,0 31.933,0 Z M32.067,5.759 C39.305,5.759 45.479,8.325 50.621,13.468 C53.098,15.945 54.996,18.778 56.291,21.939 C57.587,25.101 58.24,28.457 58.24,32 C58.24,39.354 55.724,45.454 50.734,50.33 C48.142,52.846 45.232,54.777 41.994,56.111 C38.794,57.445 35.496,58.105 32.067,58.105 C28.599,58.105 25.279,57.452 22.118,56.157 C18.955,54.823 16.117,52.919 13.602,50.441 C11.087,47.927 9.147,45.088 7.776,41.925 C6.443,38.726 5.759,35.427 5.759,31.998 C5.759,28.531 6.443,25.211 7.776,22.049 C9.147,18.849 11.088,15.975 13.602,13.421 C18.592,8.318 24.752,5.759 32.067,5.759 Z"/>
</svg>
