<?xml version="1.0" encoding="UTF-8" standalone="no"?>
<svg width="60px" height="24px" viewBox="0 0 60 24" version="1.1" xmlns="http://www.w3.org/2000/svg" xmlns:xlink="http://www.w3.org/1999/xlink">
            <path d="M0,12 C0,5.372583 5.37740294,0 11.9976899,0 L48.0023101,0 C54.6284513,0 60,5.37112582 60,12 C60,18.627417 54.6225971,24 48.0023101,24 L11.9976899,24 C5.37154874,24 0,18.6288742 0,12 Z M12,18 C15.3137085,18 18,15.3137085 18,12 C18,8.6862915 15.3137085,6 12,6 C8.6862915,6 6,8.6862915 6,12 C6,15.3137085 8.6862915,18 12,18 Z M30,18 C33.3137085,18 36,15.3137085 36,12 C36,8.6862915 33.3137085,6 30,6 C26.6862915,6 24,8.6862915 24,12 C24,15.3137085 26.6862915,18 30,18 Z M48,18 C51.3137085,18 54,15.3137085 54,12 C54,8.6862915 51.3137085,6 48,6 C44.6862915,6 42,8.6862915 42,12 C42,15.3137085 44.6862915,18 48,18 Z"></path>
</svg>