<svg xmlns="http://www.w3.org/2000/svg" width="24" height="24" viewBox="0 0 24 24">
  <g fill="#000000" fill-rule="evenodd">
    <path fill-rule="nonzero" d="M5.80577137,8.42376043 L5.80577137,15.5762396 L12,19.1524791 L18.1942286,15.5762396 L18.1942286,8.42376043 L12,4.84752086 L5.80577137,8.42376043 Z M12,3 L19.7942286,7.5 L19.7942286,16.5 L12,21 L4.20577137,16.5 L4.20577137,7.5 L12,3 Z"/>
    <path fill-rule="nonzero" d="M8.03581347,14.9793231 L7.20560153,14.5 L7.20560153,6.54135383 L0.205771366,2.5 L0.205771366,2 L0.205771366,1.5 L1.80577137,0.576239569 L1.80577137,1.57623957 L8,5.15247914 L14.1942286,1.57623957 L14.1942286,0.576239569 L15.7942286,1.5 L15.7942286,3.30616703 L14.9998302,2.84752086 L8.80560153,6.42376043 L8.80560153,13.5762396 L9.63581347,14.0555627 L8.03581347,14.9793231 Z" transform="translate(4 6)"/>
    <g transform="translate(2 1)">
      <circle cx="10" cy="2.925" r="2"/>
      <circle cx="10" cy="19.075" r="2"/>
      <circle cx="16.993" cy="6.963" r="2" transform="rotate(60 16.993 6.963)"/>
      <circle cx="3.007" cy="15.037" r="2" transform="rotate(60 3.007 15.037)"/>
      <circle cx="3.007" cy="6.963" r="2" transform="rotate(-60 3.007 6.963)"/>
      <circle cx="16.993" cy="15.037" r="2" transform="rotate(-60 16.993 15.037)"/>
      <circle cx="10" cy="11" r="2"/>
    </g>
  </g>
</svg>
