<svg width="60" height="60" viewBox="0 0 60 60" xmlns="http://www.w3.org/2000/svg">
  <path fill-rule="evenodd" clip-rule="evenodd"
    d="M30 14.7707L17.3396 23L30 31.2293L42.6604 23L30 14.7707ZM30 10L10 23L30 36L50 23L30 10ZM30 50L13.6622 39.4096L10 37.0357L13.6405 34.6287L13.6875 34.5977L30.0039 45.2266L46.3086 34.6055L46.3516 34.6338L50 37.0357L46.3346 39.4116L30.9175 49.4053L30.0016 49.9989L30 50ZM13.6622 32.312L30 42.9023L30.0016 42.9013L30.9175 42.3076L46.3346 32.314L50 29.938L46.3516 27.5361L46.3086 27.5078L30.0039 38.1289L13.6875 27.5L13.6405 27.531L10 29.938L13.6622 32.312Z" />
</svg>
