<svg height="24" viewBox="0 0 24 24" width="24" xmlns="http://www.w3.org/2000/svg"><g fill="#fff" fill-rule="evenodd" transform="translate(3 4.215625)"><path d="m5.04191131 10.2761375 1.17990865-1.33949899c.85781155.15975377 1.79563312.24773659 2.77818004.24773659 4.0869072 0 7.4000001-1.5222319 7.4000001-3.4000001s-3.3130929-3.4000001-7.4000001-3.4000001-7.4000001 1.5222319-7.4000001 3.4000001c0 .9137279.78448281 1.74327099 2.06087486 2.35420357l-1.71017115.75461237c-1.22116277-.85349087-1.95070361-1.93382191-1.95070361-3.10881594 0-2.76142375 4.02943725-5 9-5 4.9705627 0 9 2.23857625 9 5s-4.0294373 5-9 5c-1.42020701 0-2.76358245-.1827528-3.95808869-.5082375z"/><path d="m8.5691431 12.2320444-1.1382862 1.1244129-3.55785254-3.60174993 3.56038141-3.57210201 1.13322846 1.12951018-2.43961859 2.44764971z" fill-rule="nonzero" transform="matrix(1 0 0 -1 0 19.539062)"/></g></svg>