<svg height="24" viewBox="0 0 24 24" width="24" xmlns="http://www.w3.org/2000/svg"><g fill="#fff" fill-rule="nonzero"><path d="m12 5.84752086-5.32820323 3.07623957v6.15247917l5.32820323 3.0762395 5.3282032-3.0762395v-6.15247917zm0-1.84752086 6.9282032 4v8l-6.9282032 4-6.92820323-4v-8z" transform="matrix(0 -1 1 0 0 24)"/><path d="m4.64034231 9.10769403v.86085151l5.32820323 3.07623956 5.32820326-3.07623956v-.86085151l1.6.92376047v.8608515l-6.92820326 4-6.92820323-4v-.8608515z" transform="matrix(0 -1 1 0 -2.031454 21.968546)"/><path d="m17.528795 4.9510194-.8710602-.50290681-5.3282032 3.07623957v6.15247914l1.0778381.6222901-1.6.9237605-1.07783813-.6222902v-7.99999997l6.72142523-3.88061668 1.0778382.62229015z" transform="matrix(0 -1 1 0 4.657735 22.600591)"/></g></svg>