<svg xmlns="http://www.w3.org/2000/svg" width="24" height="24" viewBox="0 0 24 24">
  <g fill-rule="evenodd">
    <path d="M12,1.60769515 L21,6.80384758 L21,17.1961524 L12,22.3923048 L3,17.1961524 L3,6.80384758 L12,1.60769515 Z M12,2.76239569 L20,7.38119785 L20,16.6188022 L12,21.2376043 L4,16.6188022 L4,7.38119785 L12,2.76239569 Z"/>
    <polygon points="11.5 12.289 11.5 21 11.5 21.5 12.5 21.5 12.5 21 12.5 12.289 20.044 7.933 20.477 7.683 19.977 6.817 19.544 7.067 12 11.423 4.456 7.067 4.023 6.817 3.523 7.683 3.956 7.933 11.5 12.289"/>
    <circle cx="12" cy="12" r="2"/>
    <circle cx="12" cy="21.5" r="2"/>
    <circle cx="20.227" cy="16.751" r="2"/>
    <circle cx="20.228" cy="7.253" r="2"/>
    <circle cx="12.002" cy="2.502" r="2"/>
    <circle cx="3.775" cy="7.251" r="2"/>
    <circle cx="3.774" cy="16.75" r="2"/>
  </g>
</svg>
