<svg xmlns="http://www.w3.org/2000/svg" width="24" height="24" viewBox="0 0 24 24">
  <g fill-rule="evenodd">
    <path d="M19.0816177,5.63094363 L13.969254,2.64873149 C13.8032331,1.71166643 12.9847259,1 12,1 C11.7915756,1 11.5905976,1.0318818 11.4016768,1.09103462 C10.6980187,1.31135634 10.1616273,1.91000307 10.030746,2.64873149 L4.91838235,5.63094363 C4.01638444,5.28577518 2.97200032,5.63695413 2.47372056,6.5 C2.36950836,6.68050082 2.29662982,6.87049377 2.25339725,7.0636804 C2.08480905,7.81702424 2.36703568,8.61893316 3,9.09591422 L3,14.9040858 C2.20471903,15.5033833 1.96312613,16.6156245 2.47372056,17.5 C2.57793275,17.6805008 2.7060322,17.838612 2.85172045,17.9726458 C3.4026254,18.4794807 4.20503184,18.6420349 4.91838235,18.3690564 L10.030746,21.3512685 C10.1967669,22.2883336 11.0152741,23 12,23 C12.2084244,23 12.4094024,22.9681182 12.5983232,22.9089654 C13.3019813,22.6886437 13.8383727,22.0899969 13.969254,21.3512685 L19.0816177,18.3690564 C19.9836156,18.7142248 21.0279997,18.3630459 21.5262794,17.5 C21.6304916,17.3194992 21.7033702,17.1295062 21.7466027,16.9363196 C21.9151909,16.1829758 21.6329643,15.3810668 21,14.9040858 L21,9.09591422 C21.795281,8.49661668 22.0368739,7.38437549 21.5262794,6.5 C21.4220672,6.31949918 21.2939678,6.16138804 21.1482796,6.02735422 C20.5973746,5.5205193 19.7949682,5.35796507 19.0816177,5.63094363 Z M19.5,9.47831758 L19.5,14.5216824 C18.9178325,14.6086529 18.3793624,14.9506203 18.0621778,15.5 C17.7334339,16.0694012 17.7164995,16.7332611 17.9583955,17.2938594 L13.6236042,19.8318798 C13.4045253,19.5279106 13.1021882,19.2879414 12.75,19.1453793 L12.75,14.3834885 C13.7631747,14.064991 14.4980343,13.1183133 14.4980343,12 C14.4980343,11.8138226 14.4776671,11.6324022 14.4390393,11.4578454 L18.56308,9.07682942 C18.8372617,9.29075406 19.1612325,9.42770885 19.5,9.47831758 Z M17.81308,7.77779132 L13.6885675,10.1590797 C13.2439403,9.75103173 12.6510564,9.50196566 12,9.50196566 C11.3489436,9.50196566 10.7560597,9.75103173 10.3114325,10.1590797 L6.18692004,7.77779132 C6.23811036,7.41181093 6.18592167,7.0405982 6.04160448,6.70614056 L10.3763958,4.16812025 C10.7395465,4.67198715 11.3314675,5 12,5 C12.6685325,5 13.2604535,4.67198715 13.6236042,4.16812025 L17.9583955,6.70614056 C17.8140783,7.0405982 17.7618896,7.41181093 17.81308,7.77779132 Z M4.5,9.47831758 L4.5,14.5216824 C5.08216748,14.6086529 5.62063763,14.9506203 5.93782217,15.5 C6.26656609,16.0694012 6.28350052,16.7332611 6.04160448,17.2938594 L10.3763958,19.8318798 C10.5954747,19.5279106 10.8978118,19.2879414 11.25,19.1453793 L11.25,14.3834885 C10.2368253,14.064991 9.50196566,13.1183133 9.50196566,12 C9.50196566,11.8138226 9.52233286,11.6324022 9.5609607,11.4578454 L5.43692004,9.07682942 C5.16273835,9.29075406 4.83876748,9.42770885 4.5,9.47831758 Z"/>
  </g>
</svg>
