<svg xmlns="http://www.w3.org/2000/svg" width="24" height="24" viewBox="0 0 24 24">
    <path d="M11.6729158,11.6729158 C13.9756947,9.37013688 13.9756947,5.63076116 11.6726845,3.3277509 C9.36995846,1.02408303 5.63093958,1.02408303 3.3277509,3.32821353 C1.02408303,5.63093958 1.02408303,9.36995846 3.32798224,11.6729158 C5.63076116,13.9756947 9.37013688,13.9756947 11.6729158,11.6729158 Z M12.2087411,13.340112 C9.26407772,15.719433 4.93314934,15.5408246 2.19661139,12.8042867 C-0.732203796,9.87666886 -0.732203796,5.12422918 2.19661139,2.19661139 C5.12422918,-0.732203796 9.87666886,-0.732203796 12.8042867,2.19661139 C15.5408246,4.93314934 15.719433,9.26407772 13.340112,12.2087411 L17.5656854,16.4343146 L16.4343146,17.5656854 L12.2087411,13.340112 Z" transform="translate(3 3)"/>
    <polygon points="6.5 11.3 14.5 11.3 14.5 9.7 6.5 9.7"/>
</svg>
