<svg xmlns="http://www.w3.org/2000/svg" width="24" height="24" viewBox="0 0 24 24">
  <g fill="none" fill-rule="evenodd">
    <rect width="24" height="24"/>
    <path fill="#ffffff" d="M17.8093997,15.3540585 C17.4060571,16.0511627 16.8808428,16.668934 16.2628927,17.1782366 L15.3641705,16.0865374 C15.8518415,15.6846083 16.2663277,15.1970783 16.5846359,14.6469407 L17.8093997,15.3540585 Z M18.282417,14.3536095 C18.5568987,13.6212784 18.707,12.8281682 18.707,12 L17.293,12 C17.293,12.6535701 17.1745437,13.2794732 16.9579295,13.8574109 L18.282417,14.3536095 Z M15.3540585,17.8093997 C14.6707202,18.2047774 13.9111513,18.4830492 13.1027953,18.6167716 L12.870299,17.2217939 C13.5082337,17.1162635 14.1076669,16.8966582 14.6469407,16.5846359 L15.3540585,17.8093997 Z M12,18.707 C8.29582618,18.707 5.293,15.7041738 5.293,12 C5.293,8.29582618 8.29582618,5.293 12,5.293 L12,6.707 C9.07675682,6.707 6.707,9.07675682 6.707,12 C6.707,14.9232432 9.07675682,17.293 12,17.293 L12,18.707 Z M12,2 L16,6 L12,10 L12,2 Z" transform="matrix(-1 0 0 1 24 0)"/>
  </g>
</svg>
