<?xml version="1.0" encoding="UTF-8" standalone="no"?>
<svg width="24px" height="24px" viewBox="0 0 24 24" version="1.1" xmlns="http://www.w3.org/2000/svg" xmlns:xlink="http://www.w3.org/1999/xlink">
    <!-- Generator: Sketch 3.8.3 (29802) - http://www.bohemiancoding.com/sketch -->
    <title>icn/osd-zoomout</title>
    <desc>Created with Sketch.</desc>
    <defs></defs>
    <g id="Page-1" stroke="none" stroke-width="1" fill="none" fill-rule="evenodd">
        <g id="icn/osd-zoomout">
            <rect id="sq" x="0" y="0" width="24" height="24"></rect>
            <path d="M14.1995997,15.218217 C12.9137484,16.2434927 11.2792261,16.8571429 9.5,16.8571429 C5.35786438,16.8571429 2,13.5312581 2,9.42857143 C2,5.32588472 5.35786438,2 9.5,2 C13.6421356,2 17,5.32588472 17,9.42857143 C17,11.1780675 16.3894062,12.78631 15.3677787,14.0556393 C15.3858242,14.0707549 15.403343,14.086778 15.4202729,14.103708 L16.5794333,15.2628683 C17.1380166,15.1152474 17.7585249,15.2567846 18.1932324,15.6876873 L21.5118183,18.977227 C22.1653868,19.6250751 22.161881,20.6729361 21.5063319,21.3227474 C20.8535164,21.9698492 19.7894915,21.9718924 19.1401009,21.3281858 L15.821515,18.038646 C15.3788404,17.599846 15.2376063,16.9775355 15.3962491,16.4196948 L14.2502676,15.2737133 C14.232372,15.2558177 14.2154824,15.2372959 14.1995997,15.218217 Z M9.5,15.2063492 C12.721661,15.2063492 15.3333333,12.61955 15.3333333,9.42857143 C15.3333333,6.23759287 12.721661,3.65079365 9.5,3.65079365 C6.27833896,3.65079365 3.66666667,6.23759287 3.66666667,9.42857143 C3.66666667,12.61955 6.27833896,15.2063492 9.5,15.2063492 Z" id="icn/search" fill="#ffffff"></path>
            <polygon id="Shape" fill="#ffffff" points="5.24353027 8.67409668 5.24353027 10.3993896 13.8699951 10.3993896 13.8699951 8.67409668"></polygon>
        </g>
    </g>
</svg>
