<svg xmlns="http://www.w3.org/2000/svg" width="24" height="24" viewBox="0 0 24 24">
  <path fill="#000000" d="M8.6,7.58533741 L8.6,9.41466259 C8.6,11.0367836 10.0886681,12.4 12,12.4 C13.9037798,12.4 15.4,11.0289294 15.4,9.41466259 L15.4,7.58533741 C15.4,5.96321638 13.9113319,4.6 12,4.6 C10.0962202,4.6 8.6,5.9710706 8.6,7.58533741 Z M7,7.58533741 C7,5.05292548 9.24419519,3 12,3 C14.7614237,3 17,5.04323615 17,7.58533741 L17,9.41466259 C17,11.9470745 14.7558048,14 12,14 C9.23857625,14 7,11.9567638 7,9.41466259 L7,7.58533741 Z M4.11061125,20 C4.74538204,17.1622867 8.03600495,15 12,15 C15.9639951,15 19.254618,17.1622867 19.8893887,20 L18.225742,20 C17.5638315,18.1178421 15.086226,16.6 12,16.6 C8.91377397,16.6 6.43616849,18.1178421 5.77425804,20 L4.11061125,20 L4.11061125,20 Z"/>
</svg>
