<svg xmlns="http://www.w3.org/2000/svg" width="24" height="24" viewBox="0 0 24 24">
  <g fill-rule="evenodd">
    <path d="M7 7.00218626L7 8.99781374C7 11.7710151 9.23857625 14 12 14 14.7558048 14 17 11.7604449 17 8.99781374L17 7.00218626C17 4.22898489 14.7614237 2 12 2 9.24419519 2 7 4.23955507 7 7.00218626zM8 7.2872759C8 4.92081031 9.79336376 3 12 3 14.2114226 3 16 4.91437252 16 7.2872759L16 8.7127241C16 11.0791897 14.2066362 13 12 13 9.78857741 13 8 11.0856275 8 8.7127241L8 7.2872759zM20.9088572 22L21.9226328 22C21.3075102 18.0536884 17.0995221 15 12 15 6.90047794 15 2.6924898 18.0536884 2.07736719 22L3.09114282 22C3.71500952 18.6077059 7.46596469 16 12 16 16.5340353 16 20.2849905 18.6077059 20.9088572 22z"/>
  </g>
</svg>
