<?xml version="1.0" encoding="utf-8"?>
<!-- Generated by IcoMoon.io -->
<!DOCTYPE svg PUBLIC "-//W3C//DTD SVG 1.1//EN" "http://www.w3.org/Graphics/SVG/1.1/DTD/svg11.dtd">
<svg version="1.1" xmlns="http://www.w3.org/2000/svg" xmlns:xlink="http://www.w3.org/1999/xlink" width="24" height="24" viewBox="0 0 24 24">
<path d="M14.2 15.218c-1.286 1.025-2.92 1.639-4.7 1.639-4.142 0-7.5-3.326-7.5-7.429s3.358-7.429 7.5-7.429c4.142 0 7.5 3.326 7.5 7.429 0 1.749-0.611 3.358-1.632 4.627 0.018 0.015 0.036 0.031 0.053 0.048l1.159 1.159c0.559-0.148 1.179-0.006 1.614 0.425l3.319 3.29c0.654 0.648 0.65 1.696-0.005 2.346-0.653 0.647-1.717 0.649-2.366 0.005l-3.319-3.29c-0.443-0.439-0.584-1.061-0.425-1.619l-1.146-1.146c-0.018-0.018-0.035-0.036-0.051-0.056zM9.5 15.206c3.222 0 5.833-2.587 5.833-5.778s-2.612-5.778-5.833-5.778c-3.222 0-5.833 2.587-5.833 5.778s2.612 5.778 5.833 5.778z"></path>
</svg>
