<svg xmlns="http://www.w3.org/2000/svg" width="24" height="24" viewBox="0 0 24 24">
  <path fill="#000000" d="M14.2129711,6.78727632 C12.1641074,4.73757456 8.83679068,4.73757456 6.78727632,6.7879269 C4.73757456,8.83679068 4.73757456,12.1641074 6.78760164,14.2132964 C8.83653978,16.2622345 12.1643583,16.2622345 14.2132964,14.2132964 C16.2622345,12.1643583 16.2622345,8.83653978 14.2129711,6.78727632 Z M14.9494403,16.5404306 C12.0145175,18.7069398 7.85388323,18.4615585 5.19661139,15.8042867 C2.2677962,12.8766689 2.2677962,8.12422918 5.19661139,5.19661139 C8.12422918,2.2677962 12.8766689,2.2677962 15.8042867,5.19661139 C18.4615585,7.85388323 18.7069398,12.0145175 16.5404306,14.9494403 L20.7954951,19.2045049 L19.2045049,20.7954951 L14.9494403,16.5404306 Z"/>
</svg>
